<svg xmlns="http://www.w3.org/2000/svg" xmlns:xlink="http://www.w3.org/1999/xlink" viewBox="0 0 800.00001 800.00001" height="800" width="800"><defs><linearGradient id="a"><stop offset="0"/><stop offset="1" stop-opacity=".42"/></linearGradient><linearGradient gradientUnits="userSpaceOnUse" y2="837.58" x2="-76.698" y1="434.19" x1="378.391" id="c" xlink:href="#a"/><mask id="d" maskUnits="userSpaceOnUse"><circle style="isolation:auto;mix-blend-mode:normal" cx="400" cy="400" r="400" color="#000" overflow="visible" solid-color="#000000" fill="#fff" stroke-width=".4"/></mask><mask id="b" maskUnits="userSpaceOnUse"><circle style="isolation:auto;mix-blend-mode:normal" cx="400" cy="400" r="400" color="#000" overflow="visible" solid-color="#000000" fill="#fff" stroke-width=".4"/></mask></defs><circle r="400" cy="400" cx="400" style="isolation:auto;mix-blend-mode:normal" color="#000" overflow="visible" solid-color="#000000" fill="#1c8adb"/><path mask="url(#b)" d="M361.475 213.514c-25.515-.19-51.03 8.248-76.543 34.595l-67.516 67.507c-2.988-.825-6.354-1.86-10.326-2.96L9.45 510.296c5.846 52.506 38.88 94.137 66.072 138.106 108.562-108.588 216.364-216.41 319.656-319.64-5.142-4.14-9.307-8.124-12.643-11.964l81.666-78.343c-34.24-8.893-68.484-24.687-102.725-24.943zm204.962 16.83c-9.505-.174-18.89 2.824-26.744 9.98l-118.54 116.95-13.844-13.844L88.93 661.81c68.38 88.47 162.67 130.304 276.226 137.457L585.5 578.924c15.31-14.012 20.723-38.013 1.174-56.117L490.69 426.81l117.744-117.744c27.428-36.98-8.047-78.102-41.996-78.722z" opacity=".42" fill="url(#c)" fill-rule="evenodd"/><path mask="url(#d)" d="M361.475 213.513c-38.807-.29-77.614 19.377-116.422 91.665-13.19 16.97-18.647 12.83-37.963 7.478l-25.308 25.308 76.787 76.788 23.583-23.582c13.42-53.2 32.287-32.907 57.23-6.615l55.794-55.794c-69.918-56.27 36.336-84.86 69.024-90.303-34.24-8.894-68.483-24.688-102.725-24.944zm204.963 16.832c-9.506-.174-18.892 2.823-26.745 9.98l-99.847 98.223 18.96 18.962c12.46-11.91 87.398-87.492 87.398-87.492l9.152 9.153-87.45 87.45 14.158 14.158c9.45-8.824 88.744-88.807 88.744-88.807l9.152 9.153-88.775 88.776 18.21 18.197 99.04-99.03c27.428-36.98-8.048-78.102-41.997-78.722zM407.308 343.43l-54.906 54.91 177.33 181.396c39.903 34.442 94.51-22.148 56.94-56.94L407.31 343.43zm-38.23 112.663l-85.005 79.717-17.49 35.384 12.203 9.763 40.47-27.047 73.818-73.82-23.996-23.997z" fill="#fff" fill-rule="evenodd"/></svg>