<?xml version="1.0" encoding="UTF-8" standalone="no"?>
<svg viewBox="0 0 1007 1539" xmlns="http://www.w3.org/2000/svg" xmlns:xlink="http://www.w3.org/1999/xlink">
<defs>
<linearGradient id="linearGradient33072">
<stop offset="0"/>
<stop offset="1" stop-color="#fff"/>
</linearGradient>
<linearGradient gradientUnits="userSpaceOnUse" id="linearGradient30339" x1="157.2803" x2="279.88562" xlink:href="#linearGradient33072" y1="-203.77968" y2="-200.74922"/>
<linearGradient gradientUnits="userSpaceOnUse" id="linearGradient30349" x1="194.27325" x2="313.64731" xlink:href="#linearGradient33072"/>
<linearGradient gradientUnits="userSpaceOnUse" id="linearGradient31253" x1="-81.42607" x2="309.92007" xlink:href="#linearGradient33072"/>
<linearGradient gradientUnits="userSpaceOnUse" id="linearGradient32171" x1="35.17286" x2="317.6879" xlink:href="#linearGradient33072"/>
<linearGradient gradientUnits="userSpaceOnUse" id="linearGradient33070" x1="-119.16418" x2="254.66626" xlink:href="#linearGradient33072" y1="21.86315" y2="6.14887"/>
</defs>
<g transform="translate(160.0481,608.0923)">
<path d="m417.69808,785.4262c-3.4736-.8506 47.76132-670.13073 26.76967-776.9336 45.86421,4.01099 89.43002,2.56369 109.08607,21.32869 131.94533,142.61216-95.95471,756.61507-95.95471,756.61507l-39.90103-1.01016z" fill="#fff74d" fill-rule="evenodd" transform="translate(-160.0481,-608.0923)"/>
<path d="m493.45952,794.51757c-3.4736-.8506 344.74617-525.67891 170.21133-716.32444-.6028-11.1413 100.5417,70.24391 119.1876,137.49623 51.13312,243.62741-276.77202,584.88914-276.77202,584.88914l-12.62691-6.06093z" fill="#fff74d" fill-rule="evenodd" transform="translate(-160.0481,-608.0923)"/>
<path d="m344.9671,795.52773c-11.55482-47.31762-318.92406-604.47082-97.4791-765.82192 35.76269-15.1819 93.66731-20.3543 91.91348-19.07741-108.47097,78.97256 39.40573,777.82827 39.40573,777.82827l-33.84011,7.07107z" fill="#fff74d" fill-rule="evenodd" transform="translate(-160.0481,-608.0923)"/>
<path d="m298.50008,808.65971c-58.02183-82.67296-245.18292-260.0088-274.25579-473.88784 7.47842-175.79616 115.89066-248.64877 115.14699-247.37189-204.73209,206.9264 177.79662,714.18866 177.79662,714.18866l-18.68782,7.07107z" fill="#fff74d" fill-rule="evenodd" transform="translate(-160.0481,-608.0923)"/>
<path d="m257.64998,177.3339c-3.4736-.8506 47.76132-670.13073 26.76967-776.9336-37.97845-6.09053-103.31244.85891-105.06627,2.13579-108.47097,78.97256 39.40573,777.82827 39.40573,777.82827l38.89087-3.03046z" fill="#ff1a1a" fill-rule="evenodd"/>
<path d="m333.41142,186.42527c-3.4736-.8506 344.74617-525.67891 170.21133-716.32444-.6028-11.1413-129.77308-67.13684-110.11703-48.37184 131.94533,142.61216-95.95471,756.61507-95.95471,756.61507l35.86041,8.08121z" fill="#ff1a1a" fill-rule="evenodd"/>
<path d="m365.7363,203.59786c213.03047-210.9755 348.8084-374.70056 257.07405-596.0008 51.13312,243.62741-276.77202,584.88914-276.77202,584.88914l19.69797,11.11166z" fill="#ff1a1a" fill-rule="evenodd"/>
<path d="m184.919,187.43543c-11.55482-47.31762-318.92406-604.47082-97.4791-765.82192 35.76269-15.18191-76.03832,23.08226-108.09672,57.69417-204.73209,206.9264 177.79662,714.18866 177.79662,714.18866l27.7792-6.06091z" fill="#ff1a1a" fill-rule="evenodd"/>
<path d="m138.45198,200.56741c-58.02183-82.67296-245.18292-260.0088-274.25579-473.88784 .50159,1.10626-13.55958,234.47834 265.66949,478.9386l8.5863-5.05076z" fill="#ff1a1a" fill-rule="evenodd"/>
<path d="m257.64998,177.3339c-3.4736-.8506 47.76132-670.13073 26.76967-776.9336-37.97845-6.09053-103.31244.85891-105.06627,2.13579-108.47097,78.97256 39.40573,777.82827 39.40573,777.82827l38.89087-3.03046z" fill="url(#linearGradient30339)" fill-rule="evenodd" opacity=".18889"/>
<path d="m357.81129,213.24102-19.08446,24.33704c-7.67697,36.79024-13.35237,43.31415-15.64532,44.06766-91.47847,30.06145-139.08732,5.46228-142.77435-4.24495-6.75501-17.78462-47.57292-67.70752-51.82567-71.42167-251.95553-220.04597-261.25547-444.82804-261.25547-444.82804s-40.40611-307.08638 301.02545-358.60416c2.02031,3.03046 21.07906-12.73261 170.71579,2.0203 17.93021,1.76777 328.49255,50.56804 311.12698,364.66507 4.40323,169.7479-292.28295,444.00875-292.28295,444.00875z" fill="none" stroke="#1c031c" stroke-width="5.25118"/>
<path d="m344.9671,795.52773c-11.55482-47.31762-318.92406-604.47082-97.4791-765.82192 35.76269-15.1819 93.66731-20.3543 91.91348-19.07741-108.47097,78.97256 39.40573,777.82827 39.40573,777.82827l-33.84011,7.07107z" fill="url(#linearGradient30349)" fill-rule="evenodd" opacity=".19444" transform="translate(-160.0481,-608.0923)"/>
<path d="m184.919,187.43543c-11.55482-47.31762-318.92406-604.47082-97.4791-765.82192 35.76269-15.18191-76.03832,23.08226-108.09672,57.69417-204.73209,206.9264 177.79662,714.18866 177.79662,714.18866l27.7792-6.06091z" fill="url(#linearGradient31253)" fill-rule="evenodd" opacity=".24444"/>
<path d="m298.50008,808.65971c-58.02183-82.67296-245.18292-260.0088-274.25579-473.88784 7.47842-175.79616 115.89066-248.64877 115.14699-247.37189-204.73209,206.9264 177.79662,714.18866 177.79662,714.18866l-18.68782,7.07107z" fill="url(#linearGradient32171)" fill-rule="evenodd" opacity=".34444" transform="translate(-160.0481,-608.0923)"/>
<path d="m138.45198,200.56741c-58.02183-82.67296-245.18292-260.0088-274.25579-473.88784 .50159,1.10626-13.55958,234.47834 265.66949,478.9386l8.5863-5.05076z" fill="url(#linearGradient33070)" fill-rule="evenodd" opacity=".46667"/>
</g>
</svg>
