<svg viewBox="0 0 1007 1539" xmlns="http://www.w3.org/2000/svg" xmlns:xlink="http://www.w3.org/1999/xlink"><defs><linearGradient id="a"><stop offset="0"/><stop offset="1" stop-color="#fff"/></linearGradient><linearGradient gradientUnits="userSpaceOnUse" id="b" x1="157.28" x2="279.886" xlink:href="#a" y1="-203.78" y2="-200.749"/><linearGradient gradientUnits="userSpaceOnUse" id="c" x1="194.273" x2="313.647" xlink:href="#a"/><linearGradient gradientUnits="userSpaceOnUse" id="d" x1="-81.426" x2="309.92" xlink:href="#a"/><linearGradient gradientUnits="userSpaceOnUse" id="e" x1="35.173" x2="317.688" xlink:href="#a"/><linearGradient gradientUnits="userSpaceOnUse" id="f" x1="-119.164" x2="254.666" xlink:href="#a" y1="21.863" y2="6.149"/></defs><path d="M417.698 785.426c-3.474-.85 47.76-670.13 26.77-776.933 45.864 4.01 89.43 2.563 109.086 21.328C685.5 172.434 457.6 786.437 457.6 786.437l-39.902-1.01z" fill="#fff74d" fill-rule="evenodd"/><path d="M493.46 794.518c-3.474-.85 344.746-525.68 170.21-716.325-.602-11.14 100.543 70.244 119.188 137.496 51.134 243.627-276.772 584.89-276.772 584.89l-12.626-6.062zM344.967 795.528c-11.555-47.318-318.924-604.47-97.48-765.822 35.764-15.182 93.668-20.354 91.914-19.078-108.47 78.973 39.407 777.83 39.407 777.83l-33.84 7.07z" fill="#fff74d" fill-rule="evenodd"/><path d="M298.5 808.66C240.478 725.987 53.317 548.65 24.244 334.772 31.724 158.976 140.134 86.122 139.39 87.4-65.34 294.326 317.19 801.59 317.19 801.59l-18.688 7.07z" fill="#fff74d" fill-rule="evenodd"/><path d="M417.698 785.426c-3.474-.85 47.76-670.13 26.77-776.933-37.98-6.09-103.313.86-105.067 2.135-108.47 78.973 39.407 777.83 39.407 777.83l38.89-3.032zM493.46 794.518c-3.474-.85 344.746-525.68 170.21-716.325-.602-11.14-129.772-67.137-110.116-48.372C685.5 172.434 457.6 786.437 457.6 786.437l35.86 8.082z" fill="#ff1a1a" fill-rule="evenodd"/><path d="M525.784 811.69c213.03-210.975 348.81-374.7 257.074-596 51.134 243.627-276.772 584.89-276.772 584.89l19.698 11.11zM344.967 795.528c-11.555-47.318-318.924-604.47-97.48-765.822C283.252 14.524 171.45 52.788 139.392 87.4-65.34 294.326 317.19 801.59 317.19 801.59l27.78-6.062z" fill="#ff1a1a" fill-rule="evenodd"/><path d="M298.5 808.66C240.478 725.987 53.317 548.65 24.244 334.772c.502 1.106-13.56 234.478 265.67 478.938l8.586-5.05z" fill="#ff1a1a" fill-rule="evenodd"/><path d="M257.65 177.334c-3.474-.85 47.76-670.13 26.77-776.934-37.98-6.09-103.313.86-105.067 2.136-108.47 78.973 39.406 777.828 39.406 777.828l38.89-3.03z" fill="url(#b)" fill-rule="evenodd" opacity=".189" transform="translate(160.048 608.092)"/><path d="M517.86 821.333l-19.085 24.337c-7.677 36.79-13.353 43.314-15.645 44.068-91.48 30.06-139.088 5.462-142.775-4.245-6.755-17.785-47.573-67.708-51.826-71.422C36.573 594.026 27.273 369.244 27.273 369.244S-13.132 62.157 328.3 10.64c2.02 3.03 21.08-12.734 170.715 2.02 17.93 1.767 328.493 50.567 311.127 364.664 4.403 169.748-292.283 444.01-292.283 444.01z" fill="none" stroke="#1c031c" stroke-width="5.251"/><path d="M344.967 795.528c-11.555-47.318-318.924-604.47-97.48-765.822 35.764-15.182 93.668-20.354 91.914-19.078-108.47 78.973 39.407 777.83 39.407 777.83l-33.84 7.07z" fill="url(#c)" fill-rule="evenodd" opacity=".194"/><path d="M184.92 187.435c-11.556-47.317-318.925-604.47-97.48-765.82 35.763-15.183-76.038 23.08-108.097 57.693C-225.39-313.766 157.14 193.496 157.14 193.496l27.78-6.06z" fill="url(#d)" fill-rule="evenodd" opacity=".244" transform="translate(160.048 608.092)"/><path d="M298.5 808.66C240.478 725.987 53.317 548.65 24.244 334.772 31.724 158.976 140.134 86.122 139.39 87.4-65.34 294.326 317.19 801.59 317.19 801.59l-18.688 7.07z" fill="url(#e)" fill-rule="evenodd" opacity=".344"/><path d="M138.452 200.567C80.43 117.894-106.73-59.44-135.804-273.32c.502 1.106-13.56 234.478 265.67 478.938l8.586-5.05z" fill="url(#f)" fill-rule="evenodd" opacity=".467" transform="translate(160.048 608.092)"/></svg>