<svg xmlns="http://www.w3.org/2000/svg" width="700" height="700" viewBox="0 0 700 700"><path fill="#010101" d="M204.756 604.13c1.276-.893-4.583 9.507-7.392 22.606-1.276 5.95 1.91 13.405-.06 18.958-2.098 5.92-4.564 11.03-7.335 14.07-8.026 8.803-7.397 38.233-7.397 38.233h282.274l-4.933-26.06s3.705-27.818 3.705-39.99c0-12.165-8.633-22.592-8.633-22.592s-33.278 12.166-43.14 12.166c-9.86 0-39.446 6.956-51.772 6.956-12.327 0-50.54-3.483-64.094-3.483-13.557 0-44.377-8.69-60.398-8.69-16.024 0-30.818-12.173-30.818-12.173"/><path fill="none" stroke="#010101" stroke-width="8.805" stroke-miterlimit="11.5" d="M204.756 604.13c1.276-.893-4.583 9.507-7.392 22.606-1.276 5.95 1.91 13.405-.06 18.958-2.098 5.92-4.564 11.03-7.335 14.07-8.026 8.803-7.397 38.233-7.397 38.233h282.274l-4.933-26.06s3.705-27.818 3.705-39.99c0-12.165-8.633-22.592-8.633-22.592s-33.278 12.166-43.14 12.166c-9.86 0-39.446 6.956-51.772 6.956-12.327 0-50.54-3.483-64.094-3.483-13.557 0-44.377-8.69-60.398-8.69-16.024 0-30.818-12.173-30.818-12.173h-.008z"/><path fill="#010101" d="M233.963 620.334l97.272-67.9L466.8 258.266s0-30.75-.947-37.436c-.946-6.68-13.27-5.345-13.27-5.345l-64.47 1.333L156.8 200.776l-18.01 177.82-6.633 118.994s-5.692 93.592-2.848 101.62c2.845 8.02 10.425 17.372 10.425 17.372l94.23 3.734"/><path fill="none" stroke="#010101" stroke-width="8.805" stroke-linejoin="round" stroke-miterlimit="11.5" d="M233.963 620.334l97.272-67.9L466.8 258.266s0-30.75-.947-37.436c-.946-6.68-13.27-5.345-13.27-5.345l-64.47 1.333L156.8 200.776l-18.01 177.82-6.633 118.994s-5.692 93.592-2.848 101.62c2.845 8.02 10.425 17.372 10.425 17.372l94.23 3.734v.038-.02z"/><path fill="#010101" d="M420.348 246.24c-1.897 4.014-59.726-34.762-59.726-34.765l-148.84 6.69-18.963 29.416-12.323 61.497s5.684 94.932 9.477 104.288c3.8 9.357-.946 25.407-1.894 50.808-.948 25.41-6.638 44.12-5.688 58.833.946 14.702 16.115 33.426 15.17 56.15-.952 22.73 7.43 29.127 15.963 41.166h30.11l83.803-.517 123.742.517c15.17-10.697 6.132-49.188 6.132-58.547 0-9.358.48-18.326.48-29.023 0-10.69 1.18-17.808 3.073-32.51 1.896-14.71 11.617-22.7 9.724-32.058-1.896-9.362-6.64-14.71-1.896-34.764 4.74-20.057-5.69-21.387-5.69-21.387s12.328-72.2 13.272-92.256c.946-20.064-55.938-73.543-55.938-73.543"/><path fill="none" stroke="#010101" stroke-width="8.805" stroke-linejoin="round" stroke-miterlimit="11.5" d="M420.348 246.24c-1.897 4.014-59.726-34.762-59.726-34.765l-148.84 6.69-18.963 29.416-12.323 61.497s5.684 94.932 9.477 104.288c3.8 9.357-.946 25.407-1.894 50.808-.948 25.41-6.638 44.12-5.688 58.833.946 14.702 16.115 33.426 15.17 56.15-.952 22.73 7.43 29.127 15.963 41.166h30.11l83.803-.517 123.742.517c15.17-10.697 6.132-49.188 6.132-58.547 0-9.358.48-18.326.48-29.023 0-10.69 1.18-17.808 3.073-32.51 1.896-14.71 11.617-22.7 9.724-32.058-1.896-9.362-6.64-14.71-1.896-34.764 4.74-20.057-5.69-21.387-5.69-21.387s12.328-72.2 13.272-92.256c.946-20.064-55.938-73.543-55.938-73.543l.01.007z"/><path fill="#010101" d="M268.965 231.83c-.852 0-4.692 1.8-13.656 1.198-8.963-.598-16.215 6.623-16.215 6.623s-9.388-4.817-22.624-9.63c-13.228-4.816-21.763-4.816-21.334-20.466.428-15.65 17.068-116.77 21.763-128.207 4.698-11.44 14.508-6.024 18.776-7.827 4.27-1.804 49.508-4.21 55.056.603 5.55 4.814-1.705 18.66-4.266 36.713-2.564 18.06 2.56 56.584 1.28 77.052-1.28 20.47-18.776 43.946-18.776 43.946"/><path fill="none" stroke="#010101" stroke-width="8.805" stroke-linejoin="round" stroke-miterlimit="11.5" d="M255.307 233.032c-8.963-.598-16.215 6.623-16.215 6.623s-9.387-4.818-22.625-9.632c-13.23-4.815-21.764-4.815-21.335-20.465S212.2 92.788 216.896 81.353c4.7-11.442 14.51-6.026 18.777-7.83 4.27-1.804 49.507-4.21 55.056.604 5.55 4.813-1.707 18.66-4.268 36.712-2.564 18.058 2.56 56.584 1.28 77.053-1.28 20.458-18.78 43.938-18.78 43.938-.853 0-4.692 1.806-13.657 1.205l.002-.003z"/><path fill="#010101" d="M452.28 121.535c0 3.03-25.807-27.3-25.807-27.3L406.035 245.91l13.98 10.605s10.758-13.65 12.905-22.744c4.306-9.104 10.76-25.79 16.135-50.05 5.368-24.273 3.218-62.19 3.218-62.19"/><path fill="none" stroke="#010101" stroke-width="8.805" stroke-linejoin="round" stroke-miterlimit="11.5" d="M452.28 121.535c0 3.03-25.807-27.3-25.807-27.3L406.035 245.91l13.98 10.605s10.758-13.65 12.905-22.744c4.306-9.104 10.76-25.79 16.135-50.05 5.368-24.273 3.218-62.19 3.218-62.19l.007.005z"/><path fill="#010101" d="M478.01 76.976l-28.63 48.443-22.255-26.014 12.732-49.346 21.622 5.375 16.53 21.54"/><path fill="none" stroke="#010101" stroke-width="8.805" stroke-linejoin="round" stroke-miterlimit="11.5" d="M449.38 125.42l-22.255-26.014 12.732-49.346 21.622 5.375 16.53 21.54z"/><path fill="#010101" d="M443.658 116.447l10.82-51.15 20.36 6.29"/><path fill="none" stroke="#010101" stroke-width="8.805" stroke-linejoin="round" stroke-miterlimit="11.5" d="M443.658 116.447l10.82-51.15 20.36 6.29"/><path fill="#010101" d="M459.57 73.38l-11.458 52.033 14.633 3.596s3.18 1.788 5.725-.903c2.546-2.693 2.546-4.484 2.546-4.484l7.63-35.89s1.277-1.788.643-6.28c-.64-4.483-2.545-3.585-2.545-3.585l-17.165-4.5"/><path fill="none" stroke="#010101" stroke-width="8.805" stroke-linejoin="round" stroke-miterlimit="11.5" d="M459.57 73.38l-11.458 52.033 14.633 3.596s3.18 1.788 5.725-.903c2.546-2.693 2.546-4.484 2.546-4.484l7.63-35.89s1.277-1.788.643-6.28c-.64-4.483-2.545-3.585-2.545-3.585l-17.165-4.5-.01.01z"/><path fill="#010101" d="M437.316 56.337l-2.548 12.558s-8.266-14.354-13.988-22.43c-5.726-8.075-19.083-19.74-40.712-20.63-21.626-.897-54.698 35.883-54.698 35.883l-30.534-25.116s22.896-26.92 56.61-31.406c28.56-3.8 40.073 2.69 53.432 10.767 21.823 13.182 32.44 40.36 32.44 40.36"/><path fill="none" stroke="#010101" stroke-width="8.805" stroke-linejoin="round" stroke-miterlimit="11.5" d="M434.767 68.893s-8.266-14.354-13.99-22.43c-5.724-8.075-19.082-19.74-40.712-20.63-21.626-.898-54.697 35.882-54.697 35.882L294.835 36.6S317.73 9.68 351.443 5.194c28.56-3.8 40.072 2.69 53.432 10.768 21.824 13.197 32.44 40.374 32.44 40.374l-2.55 12.544.002.013z"/><path fill="#010101" d="M251.562 99.406s-19.084-4.486-22.265-8.972c-3.18-4.484-1.907-9.87-1.907-9.87s3.18-42.164 5.088-50.24c1.91-8.076 17.174-15.255 17.174-15.255s2.548-1.792 6.362-2.69c3.817-.896 7 0 7 0l17.173 6.28"/><path fill="none" stroke="#010101" stroke-width="8.805" stroke-linejoin="round" stroke-miterlimit="11.5" d="M441.748 50.06l19.083 24.207M251.563 99.405s-19.084-4.485-22.264-8.97c-3.18-4.485-1.907-9.87-1.907-9.87s3.18-42.165 5.088-50.24c1.91-8.077 17.175-15.256 17.175-15.256s2.55-1.792 6.362-2.69c3.817-.896 7 0 7 0l17.173 6.28"/><path fill="#010101" d="M303.744 31.227c0-.9-10.177 1.793-14.63.89-4.452-.89-2.545-6.274-2.545-6.274l-13.36-11.67 4.453-1.8s12.087 0 15.267-.894c3.186-.902 11.452 6.276 12.725 10.767 1.28 4.5-1.89 8.986-1.89 8.986"/><path fill="none" stroke="#010101" stroke-width="8.805" stroke-linejoin="round" stroke-miterlimit="11.5" d="M303.744 31.227c0-.9-10.177 1.793-14.63.89-4.452-.89-2.545-6.274-2.545-6.274l-13.36-11.67 4.453-1.8s12.087 0 15.267-.894c3.186-.902 11.452 6.276 12.725 10.767 1.28 4.5-1.89 8.986-1.89 8.986l-.02-.006z"/><path fill="#010101" d="M285.923 12.38s4.45 2.694 8.904 7.184c4.457 4.485 3.818 9.87 3.818 9.87"/><path fill="none" stroke="#010101" stroke-width="8.805" stroke-linejoin="round" stroke-miterlimit="11.5" d="M285.923 12.38s4.45 2.694 8.904 7.184c4.457 4.485 3.818 9.87 3.818 9.87"/><path fill="#010101" d="M451.437 51.55c.394-2.414 3.63-3.423 7.22-2.26 3.594 1.16 6.195 4.062 5.8 6.473-.393 2.416-3.63 3.43-7.223 2.267-3.604-1.15-6.192-4.054-5.805-6.473"/><path fill="none" stroke="#010101" stroke-width="8.805" stroke-linejoin="round" stroke-miterlimit="11.5" d="M458.688 49.31c3.596 1.162 6.193 4.065 5.8 6.483-.396 2.417-3.628 3.432-7.223 2.268-3.597-1.164-6.193-4.066-5.8-6.483.393-2.417 3.63-3.432 7.223-2.268z"/><path fill="#010101" d="M441.21 268.972c.458-.646 16.033 34.992 21.206 88.22 5.5 56.62.6 131.05.6 131.05s17.066 6.684 22.752 13.37c5.69 6.68 3.79 2.67 8.534 10.694 4.738 8.027 13.272 1.333 22.752 5.348 9.48 4.012 36.975 0 36.975 0L543.6 412.032s-13.27-4.013-21.804-14.71c-8.527-10.694-19.907-5.35-21.804-10.694-1.896-5.346-3.793-5.346-3.793-5.346l-3.793-21.396c-1.898-10.698-2.846-14.71-4.738-26.74-1.9-12.032-7.586-17.383-11.377-26.742-3.795-9.366-2.848-16.042-11.382-26.74-8.53-10.672-23.7-10.672-23.7-10.672"/><path fill="none" stroke="#010101" stroke-width="8.805" stroke-linejoin="round" stroke-miterlimit="11.5" d="M441.21 268.972c.458-.646 16.033 34.992 21.206 88.22 5.5 56.62.6 131.05.6 131.05s17.066 6.684 22.752 13.37c5.69 6.68 3.79 2.67 8.534 10.694 4.738 8.027 13.272 1.333 22.752 5.348 9.48 4.012 36.975 0 36.975 0L543.6 412.032s-13.27-4.013-21.804-14.71c-8.527-10.694-19.907-5.35-21.804-10.694-1.896-5.346-3.793-5.346-3.793-5.346l-3.793-21.396c-1.898-10.698-2.846-14.71-4.738-26.74-1.9-12.032-7.586-17.383-11.377-26.742-3.795-9.366-2.848-16.042-11.382-26.74-8.53-10.672-23.7-10.672-23.7-10.672v-.02z"/><path fill="#010101" d="M651.646 588.815c-1.145 2.365 0-7.084-.572-10.044-.572-2.952-8.02-3.537-8.02-3.537s-5.727 4.132-4.582 9.453c1.147 5.314 4.01 5.902 8.018 5.902 3.987.013 5.19-1.767 5.19-1.767"/><path fill="none" stroke="#010101" stroke-width="8.805" stroke-linejoin="round" stroke-miterlimit="11.5" d="M651.09 578.77c-.574-2.952-8.02-3.537-8.02-3.537s-5.73 4.13-4.58 9.452c1.145 5.314 4.006 5.9 8.016 5.9 4.012 0 5.157-1.77 5.157-1.77-1.206 2.38 0-7.063-.557-10.032l-.016-.013z"/><path fill="#010101" d="M659.62 600.272c-1.145 3.23 0-9.688-.572-13.73-.574-4.044-8.02-4.86-8.02-4.86s-5.73 5.662-4.584 12.94c1.146 7.27 4.01 8.078 8.02 8.078 4.08.014 5.19-2.42 5.19-2.42"/><path fill="none" stroke="#010101" stroke-width="8.805" stroke-linejoin="round" stroke-miterlimit="11.5" d="M659.62 600.272c-1.145 3.23 0-9.688-.572-13.73-.574-4.044-8.02-4.86-8.02-4.86s-5.73 5.662-4.584 12.94c1.146 7.27 4.01 8.078 8.02 8.078 4.08.014 5.19-2.42 5.19-2.42l-.034-.008z"/><path fill="#010101" d="M669.91 591.39c0 .803 4.006-5.66 6.873-10.506 2.865-4.84 1.72-16.962.577-21.8-1.15-4.86-13.175-4.86-13.175-4.86L656.74 593l1.717 8.083s5.728.808 9.738-1.613c3.986-2.433 1.668-8.082 1.668-8.082"/><path fill="none" stroke="#010101" stroke-width="8.805" stroke-linejoin="round" stroke-miterlimit="11.5" d="M676.864 580.89c2.867-4.84 1.72-16.962.577-21.803-1.148-4.858-13.175-4.858-13.175-4.858l-7.446 38.775 1.72 8.084s5.726.808 9.736-1.614c4.01-2.43 1.717-8.08 1.717-8.08-.184.812 3.895-5.65 6.77-10.5l.1-.007z"/><path fill="#010101" d="M533.077 425.016c1.147 0-1.717 3.23-2.87 8.88-1.143 5.66-2.86 13.73-9.734 29.08s-1.72 25.85-3.438 42.81c-1.717 16.962 0 15.34 4.012 20.19 4.007 4.84 5.724 5.66 17.753 8.88 12.026 3.23 17.18 8.892 26.343 8.892s9.16 4.04 18.322 6.457c9.166 2.42 13.174-1.61 21.19-2.418 8.02-.815 16.036 5.645 20.042 4.838 4.015-.8 2.867.81 8.018 7.27 5.155 6.472 8.594 10.51 12.03 14.54 3.435 4.04 5.724 4.04 8.59 4.854 2.865.798 33.788 2.417 33.788 2.417s2.29-10.5 4.01-17.77c1.715-7.27-1.72-13.73-6.303-21-4.577-7.272-4.577-6.46-9.16-8.08-4.58-1.608 0-8.07-2.863-17.76-2.863-9.7-8.587-12.12-15.463-15.35-6.87-3.23-7.442-6.462-13.745-10.502-6.298-4.04-6.87-12.12-9.733-20.19-2.86-8.08-5.152-8.08-9.735-16.16-4.58-8.07-12.023-8.07-22.907-15.34-10.88-7.272-10.88-11.31-19.468-16.963-8.588-5.655-24.623-12.116-30.35-14.54-5.73-2.425-6.875 0-11.455 4.04-4.563 4.056-6.86 12.936-6.86 12.936"/><path fill="none" stroke="#010101" stroke-width="8.805" stroke-linejoin="round" stroke-miterlimit="11.5" d="M530.21 433.896c-1.14 5.66-2.86 13.73-9.73 29.08-6.875 15.352-1.723 25.85-3.44 42.81-1.714 16.962 0 15.34 4.012 20.19 4.01 4.84 5.727 5.66 17.755 8.88 12.025 3.232 17.18 8.894 26.34 8.894 9.165 0 9.162 4.037 18.325 6.455 9.166 2.42 13.172-1.61 21.19-2.418 8.018-.815 16.036 5.645 20.042 4.838 4.013-.8 2.867.81 8.02 7.27 5.15 6.472 8.593 10.508 12.028 14.54 3.436 4.04 5.726 4.04 8.59 4.853 2.865.8 33.788 2.418 33.788 2.418s2.29-10.5 4.01-17.77c1.716-7.27-1.72-13.73-6.304-21-4.577-7.272-4.577-6.46-9.158-8.08-4.582-1.608 0-8.07-2.863-17.76-2.864-9.7-8.59-12.12-15.465-15.35-6.868-3.23-7.443-6.462-13.742-10.502-6.298-4.04-6.87-12.12-9.734-20.188-2.86-8.08-5.154-8.08-9.736-16.162-4.58-8.07-12.023-8.07-22.906-15.34-10.88-7.27-10.88-11.31-19.468-16.963-8.59-5.653-24.624-12.115-30.353-14.54-5.724-2.423-6.87 0-11.45 4.043-4.58 4.04-6.874 12.92-6.874 12.92 1.16.014-1.705 3.244-2.855 8.895l-.02-.012z"/><path fill="#010101" d="M659.063 540.502s4.583 21.807 4.006 25.834c-.573 4.046-6.978 6.784-13.173 9.7-1.717.81 6.302 15.35 13.172 12.118 3.257-1.537 2.292-.806 5.15-8.89 2.866-8.07-2.86-16.147-2.86-16.147s0-1.618 2.86-.808c2.866.81 6.306 5.648 6.306 5.648s-1.146 8.89-4.01 12.93c-2.865 4.03-1.145 6.462 1.147 12.11 2.288 5.66 6.868 4.853 9.732 0 2.864-4.84 4.583-11.308 4.583-11.308l-2.865-4.84s1.717-7.268 2.865-12.118c1.146-4.844-2.294-8.08-6.298-15.353-4.012-7.27-4.584-4.84-8.595-9.69-4.008-4.85-8.018-5.65-8.018-5.65l-3.986 6.474"/><path fill="none" stroke="#010101" stroke-width="8.805" stroke-linejoin="round" stroke-miterlimit="11.5" d="M659.063 540.502s4.583 21.807 4.006 25.834c-.573 4.046-6.978 6.784-13.173 9.7-1.717.81 6.302 15.35 13.172 12.118 3.257-1.537 2.292-.806 5.15-8.89 2.866-8.07-2.86-16.147-2.86-16.147s0-1.618 2.86-.808c2.866.81 6.306 5.648 6.306 5.648s-1.146 8.89-4.01 12.93c-2.865 4.03-1.145 6.462 1.147 12.11 2.288 5.66 6.868 4.853 9.732 0 2.864-4.84 4.583-11.308 4.583-11.308l-2.865-4.84s1.717-7.268 2.865-12.118c1.146-4.844-2.294-8.08-6.298-15.353-4.012-7.27-4.584-4.84-8.595-9.69-4.008-4.85-8.018-5.65-8.018-5.65l-3.986 6.474-.017-.012z"/><path fill="#010101" d="M646.452 492.045c-1.714 0 0-6.46-3.434-8.88-3.438-2.43-5.728-3.24-5.728-3.24s-1.785 3.762-10.882 13.74c-5.154 5.65-9.733 12.92-12.6 20.188-2.865 7.267-8.592 15.35-9.165 24.23-.567 8.887 0 12.12 6.88 16.158 6.866 4.045 10.303 1.62 10.303 1.62s-3.437 0-6.3-5.658c-2.865-5.65-.573-4.04-.573-4.04s1.142-5.647 5.155-12.917c4.008-7.274 6.3-8.892 13.172-19.393 6.89-10.49 13.176-21.803 13.176-21.803"/><path fill="none" stroke="#010101" stroke-width="8.805" stroke-linejoin="round" stroke-miterlimit="11.5" d="M646.452 492.045c-1.714 0 0-6.46-3.434-8.88-3.438-2.43-5.728-3.24-5.728-3.24s-1.785 3.762-10.882 13.74c-5.154 5.65-9.733 12.92-12.6 20.188-2.865 7.267-8.592 15.35-9.165 24.23-.567 8.887 0 12.12 6.88 16.158 6.866 4.045 10.303 1.62 10.303 1.62s-3.437 0-6.3-5.658c-2.865-5.65-.573-4.04-.573-4.04s1.142-5.647 5.155-12.917c4.008-7.274 6.3-8.892 13.172-19.393 6.89-10.49 13.176-21.803 13.176-21.803l-.004-.005z"/><path fill="#010101" d="M655.634 521.118s-1.72 11.312.572 21c2.29 9.69 2.29 7.272 5.154 13.732 2.865 6.46 3.436 8.08 3.436 8.08"/><path fill="none" stroke="#010101" stroke-width="8.805" stroke-linejoin="round" stroke-miterlimit="11.5" d="M161.55 620.608l8.537-181.834m485.545 82.344s-1.72 11.312.572 21c2.29 9.692 2.29 7.272 5.156 13.732 2.863 6.46 3.434 8.08 3.434 8.08"/><path fill="#EBEBEB" d="M215.847 621.512l115.24-68.813 135.566-294.144s0-30.746-.95-37.43c-.944-6.684-13.274-5.348-13.274-5.348l-64.46 1.334-231.315-16.045-18.006 177.82-6.635 118.998s-5.69 93.584-2.845 101.607c2.846 8.024 10.43 17.382 10.43 17.382l76.26 4.635"/><path fill="#FFF" stroke="#010101" stroke-width="3.522" stroke-miterlimit="11.5" d="M215.847 621.512l115.24-68.813 135.566-294.144s0-30.746-.95-37.43c-.944-6.684-13.274-5.348-13.274-5.348l-64.46 1.334-231.315-16.045-18.006 177.82-6.635 118.998s-5.69 93.584-2.845 101.607c2.846 8.024 10.43 17.382 10.43 17.382l76.26 4.635h-.01l-.003.002z"/><path fill="#FFF" d="M420.198 246.542c-1.893 4.015-59.724-34.76-59.722-34.76l-148.843 6.684-18.962 29.41-12.322 61.505s5.688 94.93 9.48 104.288c3.793 9.36-.947 25.4-1.896 50.81-.95 25.4-6.637 44.12-5.69 58.824.95 14.71 16.114 33.425 15.168 56.15-.948 22.728 7.437 29.125 15.967 41.16h30.11l83.29 35.687 124.264-35.687c15.167-10.693 6.133-49.178 6.133-58.545 0-9.356.475-18.313.475-29.015 0-10.698 1.178-17.807 3.07-32.518 1.896-14.7 11.623-22.7 9.73-32.047-1.897-9.367-6.638-14.71-1.897-34.767 4.74-20.054-5.69-21.394-5.69-21.394s12.327-72.196 13.274-92.253c.944-20.088-55.938-73.568-55.938-73.568"/><linearGradient id="a" gradientUnits="userSpaceOnUse" x1="203.551" y1="129.628" x2="350.843" y2="86.576" gradientTransform="matrix(1 0 0 -1 119.04 554.34)"><stop offset=".301" stop-color="#FFF"/><stop offset="1" stop-color="#B3B4B5"/></linearGradient><path fill="url(#a)" d="M384.226 271.876l-2.902 20.412-33.464 277.075-11.574 57.9 22.83 1.09s33.215-1.898 43.8-5.723c5.902-2.13 11.376-.793 19.453-2.86 15.813-4.048 31.76-11.12 31.76-11.12s.934 1.697 1.25 1.365c7.192-7.544 1.853-46.585 1.853-46.585l.45-33.01 4.52-41.364 1.404-42.2.716-27.25-1.63-39.27-2.937-30.27-8.598-31.926-16.115-34.93s.528-4.154.314-5.5c-2.937-18.6-8.93-21.197-8.93-21.197l-3.043 11.702-8.022 3.11-17.058.922-14.074-.354-.004-.017z"/><path fill="none" stroke="#010101" stroke-width="5.284" stroke-miterlimit="11.5" d="M420.198 246.542c-1.893 4.015-59.724-34.76-59.722-34.76l-148.843 6.684-18.962 29.41-12.322 61.505s5.688 94.93 9.48 104.288c3.793 9.36-.947 25.4-1.896 50.81-.95 25.4-6.637 44.12-5.69 58.824.95 14.71 16.114 33.425 15.168 56.15-.948 22.728 7.437 29.125 15.967 41.16h30.11l83.29 35.687 124.264-35.687c15.167-10.693 6.133-49.178 6.133-58.545 0-9.356.475-18.313.475-29.015 0-10.698 1.178-17.807 3.07-32.518 1.896-14.7 11.623-22.7 9.73-32.047-1.897-9.367-6.638-14.71-1.897-34.767 4.74-20.054-5.69-21.394-5.69-21.394s12.327-72.196 13.274-92.253c.944-20.088-55.938-73.568-55.938-73.568l.002.037z"/><path fill="#FFF" d="M224.44 416.37c1.134-1.6-33.998 25.175-33.998 25.175s.366 37.146-3.403 53.557c-6.235 27.18-2.816 32.568 3.965 47.96 13.032 29.578 7.934 41.562 9.065 54.353 1.136 12.784 27.77 17.186 27.77 17.186s-1.135-7.995-10.203-12.79c-9.067-4.797-1.132-6.39 6.8-6.39 7.933 0 26.07-12.797 35.136-14.39 9.07-1.6 1.134-14.39-9.065-12.792-10.2 1.6-30.026-4.434-36.825-10.823-6.798-6.398 20.958-32.337 26.625-40.335 5.665-7.988-12.748-9.106-30.878-10.696-18.136-1.603 37.677-45.25 29.745-45.25-7.937 0-25.49.22-25.49.22s18.686-21.003 27.755-35.388c9.066-14.39 0-9.593-4.534-4.796-4.542 4.8-12.47-4.787-12.47-4.787"/><path fill="#C8C8C8" d="M268.808 232.116c-.857 0-4.698 1.808-13.662 1.2-8.964-.602-16.22 6.625-16.22 6.625s-9.387-4.814-22.616-9.627c-13.23-4.817-21.766-4.817-21.337-20.47.427-15.645 17.072-116.762 21.763-128.2 4.698-11.437 14.507-6.022 18.778-7.83 4.272-1.804 49.51-4.206 55.058.607 5.546 4.815-1.71 18.66-4.267 36.715-2.563 18.06 2.557 56.58 1.278 77.044-1.29 20.48-18.786 43.944-18.786 43.944"/><path fill="#FFF" stroke="#010101" stroke-width="3.522" stroke-miterlimit="11.5" d="M268.808 232.116c-.857 0-4.698 1.808-13.662 1.2-8.964-.602-16.22 6.625-16.22 6.625s-9.387-4.814-22.616-9.627c-13.23-4.817-21.766-4.817-21.337-20.47.427-15.645 17.072-116.762 21.763-128.2 4.698-11.437 14.507-6.022 18.778-7.83 4.272-1.804 49.51-4.206 55.058.607 5.546 4.815-1.71 18.66-4.267 36.715-2.563 18.06 2.557 56.58 1.278 77.044-1.29 20.48-18.786 43.944-18.786 43.944l.01-.008z"/><path fill="#B3B4B4" d="M452.115 121.823c0 3.028-25.81-27.303-25.81-27.303l-20.428 151.662 13.983 10.624s10.752-13.648 12.904-22.758c4.3-9.096 10.755-25.777 16.128-50.048 5.37-24.26 3.22-62.164 3.22-62.164"/><path fill="none" stroke="#010101" stroke-width="3.522" stroke-miterlimit="11.5" d="M452.115 121.823c0 3.028-25.81-27.303-25.81-27.303l-20.428 151.662 13.983 10.624s10.752-13.648 12.904-22.758c4.3-9.096 10.755-25.777 16.128-50.048 5.37-24.26 3.22-62.164 3.22-62.164l.003-.013z"/><path fill="#FFF" d="M341.78 244.764s-9.393-9.63-13.232-13.845c-3.84-4.212-18.354-29.495-18.354-29.495l-3.84-15.646-5.976-8.427c-4.69-13.243-5.546-39.728-5.974-51.164-.43-11.437 2.56-30.097 2.56-30.097l-17.07-21.667s-6.408 25.875-7.687 43.935c-1.278 18.063 7.688 51.767 7.688 51.767s-.857 4.21-2.136 7.225c-1.284 3.004-2.992 8.426-4.273 18.654-1.28 10.23 1.282 14.445 1.282 14.445s-5.12 6.02-10.67 8.427c-5.546 2.41-14.083 9.63-23.898 10.837-9.816 1.2-18.353 9.027-18.353 9.027"/><path fill="none" stroke="#010101" stroke-width="3.522" stroke-miterlimit="11.5" d="M341.78 244.764s-9.393-9.63-13.232-13.845c-3.84-4.212-18.354-29.495-18.354-29.495l-3.84-15.646-5.976-8.427c-4.69-13.243-5.546-39.728-5.974-51.164-.43-11.437 2.56-30.097 2.56-30.097l-17.07-21.667s-6.408 25.875-7.687 43.935c-1.278 18.063 7.688 51.767 7.688 51.767s-.857 4.21-2.136 7.225c-1.284 3.004-2.992 8.426-4.273 18.654-1.28 10.23 1.282 14.445 1.282 14.445s-5.12 6.02-10.67 8.427c-5.546 2.41-14.083 9.63-23.898 10.837-9.816 1.2-18.353 9.027-18.353 9.027"/><path fill="#FFF" d="M477.862 77.25l-28.622 48.444-22.272-26.013 12.72-49.346 21.634 5.39 16.54 21.526"/><path fill="none" stroke="#010101" stroke-width="3.522" stroke-miterlimit="14.3" d="M449.24 125.694L426.968 99.68l12.72-49.346 21.634 5.39 16.54 21.526z"/><g fill="#FFF"><path d="M274.39 214.473s-2.702 2.08-5.73 3.862c-3.897 2.29-8.335 4.41-8.335 4.41s-10.095 9.806-22.927 8.09c-5.47-.74-5.732-9.008-5.732-9.008l-8.335 17.633-1.04 10.292 2.082 31.048s13.547-19.292 16.673-6.063c3.126 13.234 3.126 30.87 5.213 20.576 2.085-10.284 2.085-22.043 2.085-22.043s6.247 0 10.417 8.818c4.17 8.827 6.252 32.335 6.252 32.335s4.172-19.11 3.128-32.335c-1.048-13.226-11.464-27.925-11.464-36.743 0-8.822 6.253 1.477 10.416-5.884 4.172-7.345 12.51 2.94 12.51 2.94s-1.044-5.875 0-13.222c1.04-7.35 15.63-1.47 15.63-1.47l-9.38-10.29-11.46-2.93"/><path stroke="#010101" stroke-width="5.284" stroke-miterlimit="11.5" d="M274.343 95.862s-3.195 27.013-5.322 39.025c-2.126 12.006 1.067 27.016 1.067 36.02 0 9.005 5.317 10.508 5.317 10.508s-1.06 1.5-2.125 16.51c-1.066 15.007-1.066 13.503-1.066 13.503s-17.027 9.008-23.408 13.513c-6.39 4.5-6.39 0-13.84 9.01-7.45 9.007-12.77 12.003-12.77 12.003"/><path d="M443.51 116.722l10.82-51.125 20.34 6.265"/></g><path fill="none" stroke="#010101" stroke-width="2.641" stroke-miterlimit="14.3" d="M443.51 116.722l10.82-51.125 20.34 6.265"/><path fill="#FFF" d="M432.697 76.35l7.007.895s3.816-.896 3.18 8.97c-.638 9.876-5.73 8.077-5.73 8.077"/><path fill="none" stroke="#010101" stroke-width="3.522" stroke-miterlimit="11.5" d="M432.697 76.35l7.007.895s3.816-.896 3.18 8.97c-.638 9.876-5.73 8.077-5.73 8.077"/><path fill="#0070AB" d="M290.15 203.814l-11.525 1.207s0 7.82 7.255 13.842c7.258 7.82 25.184 24.072 37.556 31.9 12.373 7.822 24.753 13.838 47.372 18.05 22.62 4.218 36.274 1.807 40.117 1.214 3.84-.604 4.693 1.798 7.253 1.195 2.56-.6 5.975-5.415 5.975-5.415l1.707-13.836"/><path fill="none" stroke="#010101" stroke-width="2.641" stroke-miterlimit="14.3" d="M290.15 203.814l-11.525 1.207s0 7.82 7.255 13.842c7.258 7.82 25.184 24.072 37.556 31.9 12.373 7.822 24.753 13.838 47.372 18.05 22.62 4.218 36.274 1.807 40.117 1.214 3.84-.604 4.693 1.798 7.253 1.195 2.56-.6 5.975-5.415 5.975-5.415l1.707-13.836"/><path fill="#C8C8C8" d="M419.884 244.764c-.85.603-.85 9.625-.85 9.625s-7.683 4.21-17.07 6.018c-9.39 1.808-60.176-10.23-71.27-16.25-11.096-6.016-19.63-33.71-20.062-39.122-.426-5.418-2.13-12.64-3.84-17.455-1.704-4.817-6.83-10.233-8.107-16.254-1.282-6.02-4.27-43.335-1.708-58.382C299.54 97.902 313.194 79.842 324.293 66c9.814-13.843 37.978-28.29 57.613-31.296 19.626-3.013 42.675 25.274 47.797 35.508 5.12 10.237 10.672 27.088 13.232 43.336 2.558 16.248 2.13 42.113-2.14 70.998-4.266 28.904-20.908 60.228-20.908 60.228"/><path fill="#0095BF" stroke="#010101" stroke-width="3.522" stroke-miterlimit="11.5" d="M419.03 254.39s-7.683 4.21-17.07 6.018c-9.388 1.81-60.175-10.23-71.27-16.25-11.096-6.016-19.628-33.71-20.062-39.122-.425-5.417-2.13-12.64-3.838-17.455-1.706-4.818-6.832-10.233-8.11-16.253-1.28-6.02-4.268-43.336-1.706-58.383C299.537 97.9 313.19 79.842 324.29 66c9.815-13.843 37.978-28.29 57.612-31.295 19.628-3.015 42.678 25.272 47.795 35.507 5.124 10.237 10.676 27.087 13.234 43.336 2.56 16.248 2.134 42.112-2.138 70.997-4.264 28.896-20.91 60.22-20.91 60.22-.854.614-.854 9.64-.854 9.64l.003-.015z"/><path fill="#FFF" d="M329.566 361.714s-1.147-20.908-1.717-30.112c-.572-9.205-10.31-24.27-15.465-32.636-5.154-8.366-10.306-21.752-15.46-30.114-5.156-8.364-14.316-18.406-16.608-24.265-2.29-5.857-7.444-7.528-12.602-11.712-5.153-4.18-16.035-7.528-16.035-7.528s8.594 10.04 15.466 15.055c6.87 5.023 7.447 12.557 10.882 15.068 3.436 2.51 7.446 8.364 9.735 12.55 2.287 4.184 9.165 15.886 12.6 25.93 3.435 10.04 8.59 23.428 12.602 30.122 4.004 6.69 5.723 5.857 7.44 18.406 1.723 12.542-1.14 22.583-1.14 22.583"/><path fill="none" stroke="#010101" stroke-width="2.641" stroke-linejoin="round" stroke-miterlimit="11.5" d="M329.566 361.714s-1.147-20.908-1.717-30.112c-.572-9.205-10.31-24.27-15.465-32.636-5.154-8.366-10.306-21.752-15.46-30.114-5.156-8.364-14.316-18.406-16.608-24.265-2.29-5.857-7.444-7.528-12.602-11.712-5.153-4.18-16.035-7.528-16.035-7.528s8.594 10.04 15.466 15.055c6.87 5.023 7.447 12.557 10.882 15.068 3.436 2.51 7.446 8.364 9.735 12.55 2.287 4.184 9.165 15.886 12.6 25.93 3.435 10.04 8.59 23.428 12.602 30.122 4.004 6.69 5.723 5.857 7.44 18.406 1.723 12.542-1.14 22.583-1.14 22.583"/><path fill="#FFF" d="M290.142 212.85s2.136 2.408 8.107 10.23c5.975 7.83 28.166 22.87 39.692 28.286 11.525 5.426 32.865 10.186 46.518 11.445 19.635 1.8 24.76-1.808 28.168-2.414 3.416-.603 5.55 0 8.537 0s4.268-8.42 4.268-8.42l-5.55-5.424s-7.216 12.533-27.314 10.84c-28.593-2.41-42.25-7.224-54.628-13.245-15.075-7.332-30.302-18.658-30.302-18.658"/><path fill="#00A6BF" stroke="#010101" stroke-width="2.641" stroke-miterlimit="14.3" d="M290.142 212.85s2.136 2.408 8.107 10.23c5.975 7.83 28.166 22.87 39.692 28.286 11.525 5.426 32.865 10.186 46.518 11.445 19.635 1.8 24.76-1.808 28.168-2.414 3.416-.603 5.55 0 8.537 0s4.268-8.42 4.268-8.42l-5.55-5.424s-7.216 12.533-27.314 10.84c-28.593-2.41-42.25-7.224-54.628-13.245-15.075-7.332-30.302-18.658-30.302-18.658"/><path fill="#FFF" d="M459.412 73.666l-11.453 52.037 14.63 3.584s3.182 1.793 5.725-.897c2.543-2.69 2.543-4.49 2.543-4.49l7.64-35.885s1.27-1.793.634-6.273c-.633-4.49-2.544-3.59-2.544-3.59l-17.173-4.474"/><path fill="none" stroke="#010101" stroke-width="3.522" stroke-miterlimit="14.3" d="M459.412 73.666l-11.453 52.037 14.63 3.584s3.182 1.793 5.725-.897c2.543-2.69 2.543-4.49 2.543-4.49l7.64-35.885s1.27-1.793.634-6.273c-.633-4.49-2.544-3.59-2.544-3.59l-17.173-4.474-.003-.012z"/><path fill="#FFF" d="M462.146 87.57c.713-4.35 3.232-7.24 5.626-6.46 2.395.786 3.76 4.94 3.053 9.283-.715 4.337-3.232 7.23-5.63 6.453-2.4-.772-3.764-4.932-3.05-9.273"/><path fill="none" stroke="#010101" stroke-width="2.641" stroke-miterlimit="14.3" d="M467.766 81.11c2.395.786 3.758 4.94 3.053 9.283-.716 4.337-3.234 7.23-5.63 6.453-2.392-.78-3.757-4.938-3.05-9.276.714-4.355 3.235-7.246 5.628-6.46h-.002z"/><path fill="#FFF" d="M457.215 110.21c.74-4.537 3.38-7.55 5.893-6.736 2.51.813 3.944 5.166 3.2 9.694-.74 4.54-3.38 7.556-5.895 6.743-2.513-.822-3.95-5.164-3.198-9.7"/><path fill="none" stroke="#010101" stroke-width="2.641" stroke-miterlimit="14.3" d="M463.1 103.473c2.512.812 3.946 5.165 3.203 9.694-.743 4.54-3.383 7.556-5.896 6.744-2.508-.82-3.944-5.164-3.2-9.702.743-4.538 3.383-7.56 5.896-6.736h-.002z"/><path fill="#FFF" d="M437.148 56.625l-2.547 12.56s-8.264-14.35-13.988-22.43c-5.727-8.075-19.086-19.73-40.707-20.63-21.624-.903-54.702 35.886-54.702 35.886L294.67 36.89s22.897-26.912 56.61-31.402c28.558-3.795 40.074 2.69 53.43 10.77 21.835 13.185 32.44 40.362 32.44 40.362"/><path fill="none" stroke="#010101" stroke-width="3.522" stroke-miterlimit="14.3" d="M437.148 56.625l-2.547 12.56s-8.264-14.35-13.988-22.43c-5.727-8.075-19.086-19.73-40.707-20.63-21.624-.903-54.702 35.886-54.702 35.886L294.67 36.89s22.897-26.912 56.61-31.402c28.558-3.795 40.074 2.69 53.43 10.77 21.835 13.185 32.44 40.362 32.44 40.362l-.002.005z"/><path fill="#FFF" d="M329.02 49.445s-9.543 32.3-11.453 41.268c-1.907 8.968-18.445 17.942-18.445 17.942L272.402 93.4l1.91-65.486 25.447.9 29.26 20.626"/><path fill="none" stroke="#010101" stroke-width="3.522" stroke-miterlimit="14.3" d="M317.57 90.708c-1.908 8.97-18.446 17.942-18.446 17.942l-26.718-15.255 1.91-65.486 25.446.9 29.26 20.63s-9.542 32.29-11.45 41.263l-.003.005z"/><path fill="#010101" d="M320.75 45.848l4.45 8.985-22.252 38.57-8.91-5.388 8.26-44.848 18.45 2.68"/><path fill="none" stroke="#010101" stroke-width="3.522" stroke-miterlimit="11.5" d="M325.2 54.833l-22.252 38.57-8.91-5.388 8.26-44.848 18.45 2.68z"/><path fill="#FFF" d="M326.48 64.695c1.27 0 1.272-12.564 1.272-12.564s23.53-26.91 54.698-29.6c31.17-2.69 49.62 27.808 52.163 35.885 2.544 8.07-4.453 13.455-4.453 13.455s-13.01-31.795-41.003-37.175c-27.98-5.4-62.677 29.99-62.677 29.99"/><path fill="none" stroke="#010101" stroke-width="2.641" stroke-miterlimit="14.3" d="M326.48 64.695c1.27 0 1.272-12.564 1.272-12.564s23.53-26.91 54.698-29.6c31.17-2.69 49.62 27.808 52.163 35.885 2.544 8.07-4.453 13.455-4.453 13.455s-13.01-31.795-41.003-37.175c-27.98-5.4-62.677 29.99-62.677 29.99v.01z"/><path fill="#FFF" d="M328.39 51.237s-10.18 51.133-10.817 54.722c-.634 3.59-3.818 2.69-3.818 2.69s-10.173 0-13.354-.9c-3.18-.894-1.91-8.965-1.91-8.965l8.27-50.24 21.632 2.68"/><path fill="none" stroke="#010101" stroke-width="3.522" stroke-miterlimit="14.3" d="M328.39 51.237s-10.18 51.133-10.817 54.722c-.634 3.59-3.818 2.69-3.818 2.69s-10.173 0-13.354-.9c-3.18-.894-1.91-8.965-1.91-8.965l8.27-50.24 21.632 2.68-.002.012z"/><path fill="#FFF" d="M304.356 88.642c.89-5.537 4.024-9.263 7-8.315 2.977.955 4.67 6.22 3.78 11.75-.89 5.533-4.02 9.26-6.997 8.31-2.978-.942-4.674-6.2-3.784-11.732"/><path fill="none" stroke="#010101" stroke-width="2.641" stroke-miterlimit="14.3" d="M311.348 80.342c2.978.95 4.67 6.208 3.784 11.746-.887 5.538-4.02 9.257-6.996 8.308-2.978-.948-4.672-6.207-3.785-11.744.89-5.538 4.02-9.26 6.998-8.31z"/><path fill="#FFF" d="M309.493 62.38c.612-5.156 3.354-8.81 6.118-8.16 2.765.648 4.516 5.356 3.91 10.51-.613 5.157-3.348 8.81-6.117 8.162-2.763-.653-4.516-5.36-3.913-10.515"/><path fill="none" stroke="#010101" stroke-width="2.641" stroke-miterlimit="14.3" d="M315.607 54.162c2.77.65 4.52 5.356 3.912 10.513-.61 5.157-3.346 8.81-6.115 8.16-2.77-.65-4.52-5.356-3.913-10.513.608-5.156 3.345-8.81 6.115-8.16z"/><path fill="#FFF" d="M251.423 99.68s-19.08-4.48-22.26-8.967c-3.185-4.487-1.913-9.867-1.913-9.867s3.18-42.167 5.09-50.238c1.908-8.074 17.173-15.25 17.173-15.25s2.546-1.79 6.362-2.69c3.815-.903 6.995 0 6.995 0l17.176 6.277"/><g fill="none" stroke="#010101" stroke-miterlimit="14.3"><path stroke-width="3.522" d="M251.423 99.68s-19.08-4.48-22.26-8.967c-3.185-4.487-1.913-9.867-1.913-9.867s3.18-42.167 5.09-50.238c1.908-8.074 17.173-15.25 17.173-15.25s2.546-1.79 6.362-2.69c3.815-.903 6.995 0 6.995 0l17.176 6.277"/><path stroke-width="2.641" d="M441.6 50.334l19.08 24.223"/></g><path fill="#FFF" d="M303.578 31.5c0-.9-10.18 1.79-14.636.895-4.45-.894-2.546-6.28-2.546-6.28L273.04 14.45l4.453-1.79s12.085 0 15.267-.9c3.18-.89 11.45 6.28 12.724 10.766 1.29 4.498-1.892 8.985-1.892 8.985"/><path fill="none" stroke="#010101" stroke-width="3.522" stroke-miterlimit="11.5" d="M285.756 12.667s4.452 2.69 8.907 7.175c4.45 4.487 3.818 9.87 3.818 9.87m5.092 1.778c0-.9-10.18 1.79-14.636.896-4.45-.896-2.546-6.28-2.546-6.28L273.034 14.44l4.452-1.788s12.086 0 15.267-.902c3.18-.89 11.45 6.28 12.725 10.767 1.28 4.5-1.892 8.985-1.892 8.985l-.014-.012z"/><path fill="#FFF" d="M232.11 216.46c.427 1.202-7.68 20.464-7.68 20.464s4.694 8.43 9.817 13.24c5.12 4.816 8.11 8.424 11.95 10.835 3.84 2.41 11.95 10.23 20.058 10.832 8.11.604 14.94-5.417 14.94-5.417s-5.55 3.014-11.527 0c-5.977-3.004-15.795-19.866-21.766-27.085-5.99-7.22-15.8-22.86-15.8-22.86"/><path fill="none" stroke="#010101" stroke-width="3.522" stroke-linejoin="round" stroke-miterlimit="11.5" d="M232.11 216.46c.427 1.202-7.68 20.464-7.68 20.464s4.694 8.43 9.817 13.24c5.12 4.816 8.11 8.424 11.95 10.835 3.84 2.41 11.95 10.23 20.058 10.832 8.11.604 14.94-5.417 14.94-5.417s-5.55 3.014-11.527 0c-5.977-3.004-15.795-19.866-21.766-27.085-5.99-7.22-15.8-22.86-15.8-22.86l.007-.01z"/><path fill="#FFF" d="M252.777 72.817s12.72-18.67 18.403-25.445c5.688-6.784 14.53-14.106 18.475-12.988 3.946 1.118 5.59 9.69 7.64 15.48 3.322 9.397 2.276 14.246 2.35 19.475.073 5.226-10.427 11.22-17.768 16.658-7.34 5.44-14.37 10.1-14.37 10.1l-14.733-23.28"/><path fill="none" stroke="#010101" stroke-width="3.522" stroke-miterlimit="11.5" d="M271.18 47.378c5.69-6.782 14.53-14.105 18.476-12.988 3.947 1.118 5.59 9.69 7.64 15.48 3.322 9.397 2.276 14.246 2.35 19.475.073 5.226-10.427 11.22-17.768 16.66-7.34 5.44-14.37 10.098-14.37 10.098l-14.73-23.282c0-.012 12.722-18.676 18.405-25.45l-.002.008z"/><path fill="#FFF" d="M244.348 83.698l-13.045-4.433 3.505-36.438 13.054 4.42"/><path fill="none" stroke="#010101" stroke-width="2.641" stroke-miterlimit="14.3" d="M244.348 83.698l-13.045-4.433 3.505-36.438 13.054 4.42z"/><path fill="#FFF" d="M278.766 27.904c0-1.79-6.36 58.315-6.362 58.315l-12.722 13.457s-3.818.894-7 .894-5.087-8.97-5.087-8.97l3.817-37.675s.633-10.766 3.817-16.146c3.18-5.387 6.36-8.077 6.36-8.077s13.996-9.87 17.176-8.97c3.19.915 0 7.192 0 7.192"/><path fill="none" stroke="#010101" stroke-width="2.641" stroke-miterlimit="14.3" d="M209.06 435.558c0 1.802-6.403 4.81-6.403 4.81s3.412 1.812 17.924 2.417c14.512.6 32.435-10.24 42.68-13.846 10.242-3.612 21.337-21.064 25.605-28.288 4.268-7.225 20.91-15.045 20.91-15.045l.43-7.225s-17.07 9.628-23.474 16.85c-6.398 7.226-16.643 19.255-42.25 32.502-13.657 7.063-35.41 7.82-35.41 7.82l-.01.004zM323.93 13.57s5.725 0 15.266 6.276c9.542 6.277 10.18 13.456 10.18 13.456m-70.607-5.388c0-1.79-6.36 58.314-6.36 58.314l-12.723 13.458s-3.82.894-6.998.894c-3.185 0-5.09-8.97-5.09-8.97l3.816-37.675s.634-10.766 3.82-16.146c3.178-5.387 6.358-8.077 6.358-8.077s13.997-9.87 17.176-8.972c3.17.904-.01 7.182-.01 7.182l.01-.008z"/><path fill="#FFF" d="M451.288 51.812c.396-2.41 3.63-3.427 7.223-2.262 3.597 1.165 6.193 4.066 5.8 6.483-.394 2.412-3.63 3.43-7.22 2.262-3.6-1.164-6.194-4.067-5.804-6.487"/><path fill="none" stroke="#010101" stroke-width="3.522" stroke-miterlimit="11.5" d="M458.497 49.554c3.6 1.165 6.193 4.067 5.8 6.48-.393 2.414-3.626 3.425-7.222 2.26-3.598-1.165-6.193-4.066-5.8-6.48.393-2.414 3.627-3.427 7.222-2.26z"/><path fill="#D7D7D7" d="M380.674 415.978l35.955-2.162c4.522-.27 8.42 5.226 8.63 12.183l3.735 123.892c.217 6.948-3.338 12.895-7.868 13.167l-71.904 4.317c-4.527.27-8.423-5.228-8.633-12.183l-3.74-123.885c-.206-6.954 3.345-12.902 7.872-13.173l35.947-2.16"/><g fill="#FFF"><path stroke="#010101" stroke-width="3.522" stroke-miterlimit="11.5" d="M380.674 415.978l35.955-2.162c4.522-.27 8.42 5.226 8.63 12.183l3.735 123.892c.217 6.948-3.338 12.895-7.868 13.167l-71.904 4.317c-4.527.27-8.423-5.228-8.633-12.183l-3.74-123.885c-.206-6.954 3.345-12.902 7.872-13.173l35.947-2.16h.004z"/><path d="M284.82 177.055s-1.908 9.872-3.5 16.152c-1.593 6.28 2.86 17.94 2.86 17.94l13.042 1.346s3.818-4.938 4.135-18.393c.318-13.456-4.77-16.146-4.77-16.146l-11.775-.916"/></g><path fill="none" stroke="#010101" stroke-width="2.641" stroke-miterlimit="14.3" d="M281.315 193.194c-1.594 6.28 2.86 17.94 2.86 17.94l13.043 1.346s3.818-4.938 4.134-18.393c.318-13.456-4.77-16.146-4.77-16.146l-11.768-.9c0 .014-1.91 9.874-3.505 16.153h.005z"/><path fill="#797979" d="M289.392 129.957s-1.784 7.118-3.27 11.654c-1.483 4.525 2.678 12.942 2.678 12.942l12.183.97s3.568-3.557 3.867-13.27c.293-9.706-4.46-11.65-4.46-11.65l-11.004-.627"/><path fill="#FFF" stroke="#010101" stroke-width="3.522" stroke-miterlimit="11.5" d="M286.128 141.61c-1.484 4.525 2.676 12.942 2.676 12.942l12.183.97s3.57-3.557 3.867-13.27c.294-9.706-4.46-11.65-4.46-11.65l-10.998-.645c-.01.015-1.79 7.13-3.274 11.667l.006-.013z"/><path fill="#797979" d="M282.26 142.58c0-6.796 2.93-12.3 6.54-12.3s6.538 5.504 6.538 12.3c0 6.78-2.926 12.293-6.538 12.293-3.607 0-6.537-5.506-6.537-12.294"/><ellipse fill="none" stroke="#010101" stroke-width="3.522" stroke-miterlimit="11.5" cx="288.816" cy="142.579" rx="6.537" ry="12.295"/><path fill="#FFF" d="M277.18 194.54c0-9.408 3.138-17.037 7-17.04 3.86 0 6.995 7.63 6.995 17.04 0 9.408-3.133 17.048-6.995 17.048-3.858.014-7-7.637-7-17.04"/><path fill="none" stroke="#010101" stroke-width="2.641" stroke-miterlimit="14.3" d="M284.18 177.5c3.862 0 6.996 7.63 6.996 17.04 0 9.408-3.133 17.048-6.995 17.048s-7-7.64-7-17.047c0-9.402 3.144-17.04 7-17.04z"/><path fill="#FFF" d="M275.585 122.778s-1.907 9.864-3.5 16.146c-1.59 6.276 2.86 17.94 2.86 17.94l13.043 1.344s3.82-4.935 4.135-18.39c.317-13.457-4.77-16.15-4.77-16.15l-11.767-.903"/><path fill="none" stroke="#010101" stroke-width="3.522" stroke-miterlimit="11.5" d="M272.08 138.93c-1.59 6.276 2.863 17.94 2.863 17.94l13.042 1.344s3.82-4.936 4.135-18.39c.317-13.457-4.77-16.15-4.77-16.15l-11.77-.892c0-.014-1.91 9.848-3.505 16.14l.005.008z"/><path fill="#FFF" d="M267.946 140.277c0-9.406 3.133-17.044 6.997-17.047 3.863 0 7 7.64 7 17.047 0 9.41-3.138 17.042-7 17.042-3.867 0-7-7.64-7-17.043"/><ellipse fill="none" stroke="#010101" stroke-width="3.522" stroke-miterlimit="11.5" cx="274.955" cy="140.277" rx="6.999" ry="17.042"/><path fill="#010101" d="M405.16 447.445c-1.144-1.608-15.464 22.62-15.464 22.62l-38.94 1.61s-5.153 0-6.87 3.23c-1.718 3.232.57 10.503.57 10.503l4.01.807v8.07l54.4-2.422 6.88 4.04 4.004-5.65 4.012 4.84s16.608-1.612 19.472-3.23c2.862-1.61 1.718-8.08 1.718-8.08s-.575-28.258-1.718-33.91c-1.146-5.658-6.876-1.618-12.03-1.618s-20.045-.81-20.045-.81"/><g stroke="#010101"><path fill="#FFF" stroke-width="3.522" stroke-miterlimit="11.5" d="M405.16 447.445c-1.144-1.608-15.464 22.62-15.464 22.62l-38.94 1.61s-5.153 0-6.87 3.23c-1.718 3.232.57 10.503.57 10.503l4.01.807v8.07l54.4-2.422 6.88 4.04 4.004-5.65 4.012 4.84s16.608-1.612 19.472-3.23c2.862-1.61 1.718-8.08 1.718-8.08s-.575-28.258-1.718-33.91c-1.146-5.658-6.876-1.618-12.03-1.618s-20.045-.81-20.045-.81z"/><path fill="none" stroke-width="2.641" stroke-miterlimit="14.3" d="M151.026 235.124s-2.562 4.82-4.27 17.463c-1.713 12.63-.854 19.254 0 33.102.853 13.834-3.418 29.49-4.698 41.53-1.28 12.04 2.133 16.85 2.133 16.85"/></g><path fill="#FFF" d="M258.57 386.8c-7.257 6.62-19.208 22.87-25.18 30.696-5.978 7.83-17.5 15.045-17.5 15.045"/><path fill="none" stroke="#010101" stroke-width="3.522" stroke-miterlimit="11.5" d="M258.57 386.8c-7.257 6.62-19.208 22.87-25.18 30.696-5.978 7.83-17.5 15.045-17.5 15.045"/><path fill="#FFF" d="M282.038 265.232c-6.827 6.01-14.083-2.407-14.083-2.407s9.39 1.195 11.953-4.22c2.556-5.42 17.493-33.1 19.204-39.125 1.71-6.016-.855-16.245-.855-16.245s6.833 4.812 7.686 13.84c.85 9.03-3.414 11.43-6.405 17.456-2.986 6.005-17.497 30.698-17.497 30.698"/><path fill="none" stroke="#010101" stroke-width="3.522" stroke-miterlimit="11.5" d="M282.038 265.232c-6.827 6.01-14.083-2.407-14.083-2.407s9.39 1.195 11.953-4.22c2.556-5.42 17.493-33.1 19.204-39.125 1.71-6.016-.855-16.245-.855-16.245s6.833 4.812 7.686 13.84c.85 9.03-3.414 11.43-6.405 17.456-2.986 6.005-17.497 30.698-17.497 30.698l-.002.004z"/><path fill="#FFF" d="M306.36 214.657s1.706-9.03-4.695-18.057c-6.407-9.026-5.975-15.05-10.247-24.076-4.267-9.03-4.267-24.077-4.267-24.077l-8.536-.603-3.413 9.028s4.694 10.84 8.537 18.658c3.84 7.827 7.68 21.07 14.085 27.09 6.397 6.043 8.53 12.06 8.53 12.06"/><path fill="none" stroke="#010101" stroke-width="3.522" stroke-miterlimit="11.5" d="M306.36 214.657s1.706-9.03-4.695-18.057c-6.407-9.026-5.975-15.05-10.247-24.076-4.267-9.03-4.267-24.077-4.267-24.077l-8.536-.603-3.413 9.028s4.694 10.84 8.537 18.658c3.84 7.827 7.68 21.07 14.085 27.09 6.397 6.043 8.53 12.06 8.53 12.06l.007-.023z"/><path fill="#FFF" d="M287.166 149.655s1.708-6.624-8.96-14.452c-4.03-2.945-2.562-2.4-8.114.604-5.545 3.01-11.948 1.808-20.484 3.01-8.537 1.203-11.95-4.815-11.95-4.815l-7.256 19.866s7.255 5.416 14.083 6.617c6.828 1.207 11.953 0 14.087-.597 2.132-.6 12.634-1.326 17.07-6.02 6.824-7.22 11.525-4.21 11.525-4.21"/><path fill="none" stroke="#010101" stroke-width="3.522" stroke-miterlimit="11.5" d="M263.69 138.446l-.855-3.248h-6.403c-2.564 0-4.69 1.627-4.69 1.627s-1.287 18.923-1.287 22.17c0 3.244 1.708 4.866 5.978 4.328 4.272-.545 5.124.538 6.83-1.084 1.708-1.62.854-4.87.854-4.87m23.04-7.715s1.707-6.624-8.962-14.452c-4.03-2.945-2.562-2.4-8.113.604-5.545 3.01-11.95 1.808-20.485 3.01-8.537 1.203-11.95-4.815-11.95-4.815l-7.257 19.866s7.256 5.416 14.085 6.617c6.83 1.207 11.952 0 14.087-.597 2.13-.6 12.633-1.326 17.07-6.02 6.843-7.22 11.534-4.21 11.534-4.21l-.01-.003z"/><path fill="#FFF" d="M340.45 288.33s-6.875 43.61-8.02 49.258c-1.147 5.66 1.145 8.89 1.145 8.89l6.876 12.922"/><path fill="none" stroke="#010101" stroke-width="3.522" stroke-miterlimit="11.5" d="M340.45 288.33s-6.875 43.61-8.02 49.258c-1.147 5.66 1.145 8.89 1.145 8.89l6.876 12.922"/><path fill="#919191" d="M305.942 220.672c0-4.983 2.1-9.03 4.693-9.03 2.593 0 4.697 4.043 4.697 9.03 0 4.984-2.104 9.03-4.697 9.03s-4.69-4.042-4.69-9.025"/><g fill="#FFF"><ellipse stroke="#010101" stroke-width="3.522" stroke-miterlimit="11.5" cx="310.633" cy="220.673" rx="4.696" ry="9.03"/><path d="M352.246 357.307l20.11-1.208c2.534-.152 4.71 2.717 4.818 6.36l1.958 64.834c.105 3.644-1.884 6.757-4.42 6.91l-40.223 2.42c-2.535.146-4.71-2.725-4.82-6.357l-1.953-64.837c-.108-3.642 1.884-6.767 4.414-6.91l20.123-1.23"/></g><path fill="none" stroke="#010101" stroke-width="2.641" stroke-miterlimit="14.3" d="M352.246 357.307l20.11-1.208c2.534-.152 4.71 2.717 4.818 6.36l1.958 64.834c.105 3.644-1.884 6.757-4.42 6.91l-40.223 2.42c-2.535.146-4.71-2.725-4.82-6.357l-1.953-64.837c-.108-3.642 1.884-6.767 4.414-6.91l20.123-1.23-.007.017z"/><path fill="#B3B4B4" d="M415.657 288.997l20.116-1.217c2.534-.15 4.706 2.72 4.816 6.363l.286 9.438c.108 3.635-1.888 6.77-4.42 6.918l-40.23 2.415c-2.528.152-4.704-2.726-4.812-6.36l-.284-9.44c-.11-3.636 1.883-6.756 4.413-6.91l20.102-1.215"/><path fill="none" stroke="#010101" stroke-width="3.522" stroke-miterlimit="11.5" d="M415.657 288.997l20.116-1.217c2.534-.15 4.706 2.72 4.816 6.363l.286 9.438c.108 3.635-1.888 6.77-4.42 6.918l-40.23 2.415c-2.528.152-4.704-2.726-4.812-6.36l-.284-9.44c-.11-3.636 1.883-6.756 4.413-6.91l20.102-1.215.012.01z"/><path fill="#FFF" d="M433.32 363.414l-41.205 1.53-1.196-63.785 41.223-1.53"/><path fill="none" stroke="#010101" stroke-width="3.522" stroke-miterlimit="11.5" d="M433.285 363.403l-41.22 1.53-1.19-63.777 41.218-1.53z"/><path fill="#B3B4B4" d="M441.052 269.26c.458-.645 16.036 34.993 21.203 88.216 5.5 56.61.6 131.05.6 131.05s17.062 6.686 22.75 13.37c5.69 6.684 3.794 2.674 8.535 10.69 4.74 8.026 13.274 1.342 22.753 5.354 9.48 4.016 36.972 0 36.972 0L543.44 412.312s-13.27-4.004-21.807-14.702c-8.53-10.696-19.906-5.343-21.802-10.696-1.894-5.347-3.792-5.347-3.792-5.347l-3.792-21.394c-1.896-10.7-2.846-14.703-4.74-26.743-1.9-12.036-7.588-17.38-11.378-26.737-3.79-9.358-2.842-16.043-11.374-26.74-8.53-10.672-23.7-10.672-23.7-10.672"/><path fill="none" stroke="#010101" stroke-width="3.522" stroke-miterlimit="11.5" d="M441.052 269.26c.458-.645 16.036 34.993 21.203 88.216 5.5 56.61.6 131.05.6 131.05s17.062 6.686 22.75 13.37c5.69 6.684 3.794 2.674 8.535 10.69 4.74 8.026 13.274 1.342 22.753 5.354 9.48 4.016 36.972 0 36.972 0L543.44 412.312s-13.27-4.004-21.807-14.702c-8.53-10.696-19.906-5.343-21.802-10.696-1.894-5.347-3.792-5.347-3.792-5.347l-3.792-21.394c-1.896-10.7-2.846-14.703-4.74-26.743-1.9-12.036-7.588-17.38-11.378-26.737-3.79-9.358-2.842-16.043-11.374-26.74-8.53-10.672-23.7-10.672-23.7-10.672l-.002-.02z"/><path fill="#656565" d="M417.753 352.127s24.052-4.037 31.5-.808c7.44 3.23 7.44 17.77 7.44 17.77s4.01 41.997 1.718 47.65c-2.288 5.66-6.297 8.89-10.878 10.502-4.58 1.614-31.5.806-31.5.806"/><g fill="#FFF"><path stroke="#010101" stroke-width="3.522" stroke-miterlimit="11.5" d="M417.753 352.127s24.052-4.037 31.5-.808c7.44 3.23 7.44 17.77 7.44 17.77s4.01 41.997 1.718 47.65c-2.288 5.66-6.297 8.89-10.878 10.502-4.58 1.614-31.5.806-31.5.806"/><path d="M415.758 412.538l-8.78-66.598s12.96-4.715 16.303-3.537c3.346 1.176 5.015 7.663 5.015 7.663l1.257 28.872-13.788 33.587"/></g><path fill="none" stroke="#010101" stroke-width="3.522" stroke-miterlimit="11.5" d="M406.978 345.94s12.96-4.712 16.303-3.536c3.346 1.178 5.015 7.664 5.015 7.664l1.255 28.87-13.79 33.6-8.78-66.61v.013z"/><path fill="#FFF" d="M358.876 447.8l-.624-105.412s-8.096-1.315-13.083 4.39c-4.98 5.715-4.673 12.74-4.673 12.74l1.557 77.308s1.25 5.26 3.116 8.338c1.868 3.08 7.79 3.52 7.79 3.52l5.917-.875"/><path fill="none" stroke="#010101" stroke-width="3.522" stroke-miterlimit="11.5" d="M358.876 447.8l-.624-105.412s-8.096-1.315-13.083 4.39c-4.98 5.715-4.673 12.74-4.673 12.74l1.557 77.308s1.25 5.26 3.116 8.338c1.868 3.08 7.79 3.52 7.79 3.52l5.917-.875v-.01z"/><path fill="#FFF" d="M394.017 453.2s6.684 7.07 6.684 11.192c0 4.13-5.85 4.13-5.85 4.13l-38.445-.595s-3.348 1.18-5.02-2.355c-.414-3.537 2.092-6.48 2.092-6.48l9.193-11.794"/><path fill="none" stroke="#010101" stroke-width="2.641" stroke-miterlimit="14.3" d="M394.017 453.2s6.684 7.07 6.684 11.192c0 4.13-5.85 4.13-5.85 4.13l-38.445-.595s-3.348 1.18-5.02-2.355c-.414-3.537 2.092-6.48 2.092-6.48l9.193-11.794"/><path fill="#B3B4B4" d="M377.698 306.9l-11.582.602-.694-27.648 11.58-.602"/><path fill="none" stroke="#010101" stroke-width="3.522" stroke-miterlimit="11.5" d="M377.676 306.893l-11.584.584-.7-27.653 11.582-.584z"/><path fill="#797979" d="M651.462 589.09c-1.146 2.356 0-7.087-.575-10.037-.572-2.95-8.02-3.545-8.02-3.545s-5.727 4.138-4.582 9.447c1.148 5.31 4.01 5.903 8.02 5.903 4.08.013 5.194-1.765 5.194-1.765"/><path fill="#B3B4B4" stroke="#010101" stroke-width="3.522" stroke-miterlimit="11.5" d="M651.462 589.09c-1.146 2.356 0-7.087-.575-10.037-.572-2.95-8.02-3.545-8.02-3.545s-5.727 4.138-4.582 9.447c1.148 5.31 4.01 5.903 8.02 5.903 4.08.013 5.194-1.765 5.194-1.765l-.038-.003z"/><path fill="#797979" d="M659.525 600.572c-1.145 3.23 0-9.69-.57-13.73-.574-4.04-8.02-4.847-8.02-4.847s-5.73 5.65-4.583 12.92c1.146 7.27 4.01 8.078 8.02 8.078s5.008-2.42 5.008-2.42"/><path fill="#B3B4B4" stroke="#010101" stroke-width="3.522" stroke-miterlimit="11.5" d="M659.525 600.572c-1.145 3.23 0-9.69-.57-13.73-.574-4.04-8.02-4.847-8.02-4.847s-5.73 5.65-4.583 12.92c1.146 7.27 4.01 8.078 8.02 8.078s5.008-2.42 5.008-2.42h.145z"/><path fill="#797979" d="M669.82 591.666c0 .817 4.01-5.652 6.87-10.49 2.862-4.85 1.72-16.968.575-21.81-1.146-4.85-13.174-4.85-13.174-4.85l-7.445 38.77 1.717 8.08s5.73.81 9.738-1.612c3.893-2.42 1.667-8.082 1.667-8.082"/><g fill="#B3B4B4"><path stroke="#010101" stroke-width="3.522" stroke-miterlimit="11.5" d="M669.82 591.666c0 .817 4.01-5.652 6.87-10.49 2.862-4.85 1.72-16.968.575-21.81-1.146-4.85-13.174-4.85-13.174-4.85l-7.445 38.77 1.717 8.08s5.73.81 9.738-1.612c3.893-2.42 1.667-8.082 1.667-8.082l.052-.006z"/><path d="M532.928 425.316c1.143 0-1.72 3.24-2.865 8.89-1.146 5.647-2.864 13.72-9.737 29.07-6.87 15.35-1.716 25.848-3.435 42.8-1.716 16.97 0 15.35 4.01 20.198 4.01 4.844 5.728 5.653 17.754 8.883 12.022 3.232 17.18 8.888 26.344 8.888 9.162 0 9.162 4.032 18.32 6.462 9.165 2.422 13.173-1.618 21.19-2.43 8.017-.802 16.034 5.66 20.044 4.852 4.01-.81 2.862.81 8.02 7.27 5.152 6.46 8.588 10.5 12.027 14.54 3.434 4.03 5.724 4.03 8.588 4.84 2.863.81 33.786 2.43 33.786 2.43s2.29-10.508 4.008-17.77c1.718-7.27-1.72-13.73-6.3-21.002-4.576-7.27-4.576-6.46-9.162-8.08-4.58-1.62 0-8.07-2.864-17.77-2.863-9.69-8.59-12.11-15.46-15.34-6.874-3.23-7.444-6.46-13.746-10.5-6.3-4.04-6.87-12.114-9.733-20.193-2.863-8.077-5.153-8.077-9.74-16.16-4.577-8.07-12.02-8.07-22.902-15.34-10.882-7.272-10.882-11.302-19.47-16.962-8.59-5.65-24.624-12.11-30.35-14.54-5.728-2.415-6.875 0-11.455 4.04-4.532 4.053-6.823 12.935-6.823 12.935"/></g><path fill="none" stroke="#010101" stroke-width="5.284" stroke-miterlimit="11.5" d="M530.063 434.197c-1.146 5.646-2.864 13.718-9.737 29.07-6.868 15.348-1.714 25.846-3.435 42.8-1.714 16.966 0 15.35 4.01 20.197 4.01 4.843 5.73 5.65 17.754 8.883 12.022 3.232 17.18 8.89 26.344 8.89 9.162 0 9.162 4.03 18.323 6.46 9.163 2.42 13.174-1.62 21.19-2.43 8.018-.802 16.035 5.66 20.046 4.85 4.008-.808 2.86.812 8.02 7.272 5.15 6.458 8.585 10.498 12.024 14.54 3.435 4.03 5.725 4.03 8.59 4.838 2.863.81 33.785 2.43 33.785 2.43s2.29-10.506 4.01-17.77c1.718-7.27-1.72-13.73-6.303-21-4.573-7.27-4.573-6.462-9.16-8.078-4.58-1.623 0-8.073-2.863-17.77-2.866-9.693-8.592-12.113-15.464-15.342-6.87-3.23-7.443-6.46-13.745-10.5-6.298-4.042-6.867-12.115-9.73-20.193-2.865-8.078-5.155-8.078-9.74-16.16-4.58-8.07-12.02-8.07-22.902-15.342-10.88-7.27-10.88-11.3-19.47-16.96-8.592-5.65-24.626-12.11-30.35-14.54-5.73-2.416-6.875 0-11.455 4.04-4.582 4.04-6.873 12.92-6.873 12.92 1.197.04-1.67 3.27-2.817 8.92l-.05-.026z"/><path fill="#ABABAB" d="M606.8 543.222s-4.585-2.43-10.314 0c-5.73 2.422-2.864-5.65-3.436-12.92-.574-7.27 9.164 0 12.6 1.612 3.437 1.61 12.024 8.88 14.318 15.35 2.29 6.464 5.73 7.27 5.73 7.27"/><path fill="#B3B4B4" stroke="#010101" stroke-width="2.641" stroke-miterlimit="14.3" d="M606.8 543.222s-4.585-2.43-10.314 0c-5.73 2.422-2.864-5.65-3.436-12.92-.574-7.27 9.164 0 12.6 1.612 3.437 1.61 12.024 8.88 14.318 15.35 2.29 6.464 5.73 7.27 5.73 7.27"/><path fill="#ABABAB" d="M658.878 540.79s4.583 21.81 4.008 25.848c-.573 4.037-6.976 6.775-13.17 9.688-1.718.81 6.302 15.35 13.17 12.12 3.26-1.53 2.292-.808 5.155-8.89 2.864-8.08-2.862-16.146-2.862-16.146s0-1.62 2.863-.81c2.864.812 6.3 5.65 6.3 5.65s-1.145 8.89-4.01 12.93c-2.863 4.04-1.143 6.46 1.146 12.11 2.292 5.652 6.874 4.852 9.738 0 2.86-4.84 4.58-11.3 4.58-11.3l-2.862-4.85s1.717-7.27 2.863-12.11c1.147-4.85-2.29-8.08-6.303-15.35-4.003-7.27-4.576-4.85-8.587-9.69-4.008-4.85-8.02-5.656-8.02-5.656l-3.895 6.474"/><g fill="#B3B4B4"><path stroke="#010101" stroke-width="3.522" stroke-miterlimit="11.5" d="M669.262 561.794l6.302-16.96m-1.206 21.816l9.74-3.228m-10.29 12.11l8.02.81m-22.903-35.55s4.585 21.813 4.006 25.85c-.57 4.037-6.975 6.775-13.166 9.687-1.72.81 6.3 15.35 13.167 12.12 3.264-1.53 2.294-.81 5.158-8.89 2.863-8.08-2.864-16.148-2.864-16.148s0-1.618 2.864-.808c2.863.81 6.3 5.65 6.3 5.65s-1.147 8.887-4.01 12.927c-2.865 4.042-1.144 6.464 1.143 12.115 2.295 5.65 6.877 4.85 9.742 0 2.86-4.84 4.582-11.3 4.582-11.3l-2.865-4.85s1.716-7.272 2.864-12.113c1.145-4.85-2.29-8.078-6.3-15.35-4.01-7.268-4.58-4.85-8.59-9.69-4.01-4.85-8.022-5.656-8.022-5.656l-3.895 6.476-.112-.02z"/><path d="M646.268 492.333c-1.716 0 0-6.47-3.433-8.89-3.436-2.418-5.727-3.23-5.727-3.23s-1.785 3.756-10.884 13.732c-5.154 5.66-9.737 12.93-12.6 20.198-2.862 7.26-8.59 15.34-9.162 24.222-.57 8.887 0 12.117 6.873 16.157 6.872 4.03 10.307 1.61 10.307 1.61s-3.437 0-6.302-5.65c-2.862-5.66-.57-4.04-.57-4.04s1.145-5.66 5.155-12.93c4.01-7.26 6.297-8.88 13.174-19.37 6.914-10.49 13.174-21.79 13.174-21.79"/></g><path fill="none" stroke="#010101" stroke-width="2.641" stroke-miterlimit="14.3" d="M501.44 387.52s-4.58 9.27-7.447 17.69c-2.862 8.43-3.434 5.902-6.87 25.28-3.436 19.375-2.865 18.528-4.58 34.544-1.72 16.007.568 32.856.568 32.856l-8.588-5.055-1.146-15.172s2.288-22.742 4.012-37.91c1.715-15.164 5.154-26.113 8.018-36.227 2.863-10.11 10.882-20.216 10.882-20.216M655.44 521.423s-1.722 11.31.572 21c2.292 9.69 2.292 7.272 5.155 13.73 2.863 6.46 3.435 8.07 3.435 8.07m-21.788-80.76c-3.435-2.42-5.728-3.23-5.728-3.23s-1.784 3.755-10.884 13.73c-5.153 5.66-9.734 12.93-12.6 20.2-2.862 7.26-8.59 15.337-9.162 24.22-.57 8.886 0 12.118 6.873 16.158 6.873 4.03 10.308 1.61 10.308 1.61s-3.436 0-6.3-5.65c-2.86-5.66-.57-4.04-.57-4.04s1.145-5.66 5.154-12.93c4.008-7.26 6.298-8.878 13.175-19.368 6.867-10.51 13.164-21.81 13.164-21.81-1.67.024.094-6.45-3.43-8.868v-.022z"/><path fill="#ABABAB" d="M379.782 340.082l27.585-1.654c3.47-.208 6.45 3.527 6.594 8.277l2.548 84.565c.143 4.75-2.6 8.827-6.068 9.033 0 0-7.83 13.128-14.514 21.117-4.013 4.796-6.616 6.146-9.655 6.146-2.526 0-5.377-.297-9.654-3.51-9.396-7.07-21.35-20.44-21.35-20.44-3.473.208-6.446-3.528-6.59-8.28l-2.55-84.562c-.146-4.744 2.595-8.827 6.07-9.034l27.574-1.662"/><path fill="#FFF" stroke="#010101" stroke-width="3.522" stroke-miterlimit="11.5" d="M407.367 338.422c3.47-.21 6.45 3.526 6.594 8.276l2.548 84.565c.143 4.752-2.6 8.827-6.068 9.032 0 0-7.83 13.13-14.514 21.12-4.013 4.794-6.616 6.144-9.655 6.144-2.526 0-5.377-.298-9.654-3.51-9.396-7.072-21.35-20.44-21.35-20.44-3.473.208-6.446-3.528-6.59-8.28l-2.55-84.563c-.146-4.744 2.595-8.827 6.07-9.036l27.586-1.654 27.577-1.66.007.006z"/><path fill="#4752A4" d="M379.125 451.985c0-5.454 2.998-9.88 6.694-9.88 3.7 0 6.697 4.426 6.697 9.88 0 5.46-2.998 9.887-6.698 9.887s-6.695-4.434-6.695-9.887"/><path fill="none" stroke="#010101" stroke-width="2.641" stroke-miterlimit="14.3" d="M385.82 442.097c3.7 0 6.697 4.426 6.697 9.878 0 5.463-2.998 9.888-6.698 9.888-3.697 0-6.695-4.425-6.695-9.888 0-5.44 2.995-9.875 6.694-9.875v-.003z"/><path fill="#4AB749" d="M380.58 352.036l20.116-1.208c2.533-.154 4.71 2.716 4.816 6.353l1.955 64.847c.11 3.632-1.888 6.752-4.413 6.908l-40.23 2.41c-2.533.15-4.707-2.716-4.817-6.36l-1.954-64.833c-.112-3.644 1.885-6.757 4.416-6.91l20.12-1.218"/><path fill="none" stroke="#010101" stroke-width="2.641" stroke-miterlimit="14.3" d="M380.58 352.036l20.116-1.208c2.533-.154 4.71 2.716 4.816 6.353l1.955 64.847c.11 3.632-1.888 6.752-4.413 6.908l-40.23 2.41c-2.533.15-4.707-2.716-4.817-6.36l-1.954-64.833c-.112-3.644 1.885-6.757 4.416-6.91l20.12-1.218-.01.012z"/><path fill="#BE872C" d="M390.445 293.652h-47.138l1.555 45.677 48.542-3.956s6.213-9.18 9.17-12.104c2.96-2.914 2.072-17.94-.59-20.03-2.8-2.223-11.543-9.61-11.543-9.61"/><path fill="none" stroke="#010101" stroke-width="3.522" stroke-miterlimit="11.5" d="M390.445 293.652h-47.138l1.555 45.677 48.542-3.956s6.213-9.18 9.17-12.104c2.96-2.914 2.072-17.94-.59-20.03-2.8-2.223-11.543-9.61-11.543-9.61l.005.022z"/><path fill="#FFF" d="M343.622 294.972l1.245 43.042s7.792-11.42 10.905-14.495c3.113-3.075 2.18-18.886-.626-21.082-2.95-2.302-11.525-7.468-11.525-7.468"/><path fill="none" stroke="#010101" stroke-width="2.641" stroke-miterlimit="14.3" d="M344.864 338.015s7.79-11.42 10.906-14.495c3.113-3.074 2.178-18.885-.626-21.08-2.944-2.305-11.523-7.468-11.523-7.468l1.242 43.042h.002z"/><path fill="#FFF" d="M328.37 389.31l-15.494 2.276-2.038-27.504 15.483-2.29"/><path fill="none" stroke="#010101" stroke-width="3.522" stroke-miterlimit="11.5" d="M328.323 389.327l-15.488 2.287-2.04-27.522 15.487-2.287z"/><path fill="#B3B4B4" d="M357.68 290.526s0-15.32-.836-18.867c-.833-3.53-5.016-6.48-11.703-5.887-6.69.585-7.105 8.835-7.105 8.835l1.252 17.68 18.385-1.764"/><path fill="none" stroke="#010101" stroke-width="3.522" stroke-miterlimit="11.5" d="M357.68 290.526s0-15.32-.836-18.867c-.833-3.53-5.016-6.48-11.703-5.887-6.69.585-7.105 8.835-7.105 8.835l1.252 17.68 18.385-1.764.007.002z"/><path fill="#FFF" d="M279.526 480.313c-.42 2.95 5.848 7.072 9.606 9.43 3.763 2.356 10.03 7.068 12.96 7.655 2.922.594 10.443-5.88 14.206-8.25 3.765-2.358 3.765-4.706 3.765-4.706s2.086-24.166 2.086-35.368c0-11.198-2.927-20.034-8.776-25.344-5.854-5.297-16.717-1.763-24.242 5.31-7.52 7.07-8.776 20.63-9.607 28.287-.834 7.678 0 22.992 0 22.992"/><path fill="none" stroke="#010101" stroke-width="3.522" stroke-miterlimit="11.5" d="M279.526 480.313c-.42 2.95 5.848 7.072 9.606 9.43 3.763 2.356 10.03 7.068 12.96 7.655 2.922.594 10.443-5.88 14.206-8.25 3.765-2.358 3.765-4.706 3.765-4.706s2.086-24.166 2.086-35.368c0-11.198-2.927-20.034-8.776-25.344-5.854-5.297-16.717-1.763-24.242 5.31-7.52 7.07-8.776 20.63-9.607 28.287-.834 7.678 0 22.992 0 22.992v-.007z"/><path fill="#695B25" d="M284.514 476.73c-.32 2.437 4.54 5.854 7.453 7.808 2.918 1.95 7.777 5.858 10.043 6.342 2.27.497 8.1-4.876 11.016-6.828 2.915-1.952 2.915-3.913 2.915-3.913s1.622-20.022 1.622-29.298c0-9.275-2.268-16.6-6.803-21.002-4.537-4.39-12.96-1.454-18.792 4.4-5.833 5.86-6.803 17.086-7.455 23.44-.64 6.356.01 19.056.01 19.056"/><path fill="none" stroke="#010101" stroke-width="2.641" stroke-miterlimit="14.3" d="M284.514 476.73c-.32 2.437 4.54 5.854 7.453 7.808 2.918 1.95 7.777 5.858 10.043 6.342 2.27.497 8.1-4.876 11.016-6.828 2.915-1.952 2.915-3.913 2.915-3.913s1.622-20.022 1.622-29.298c0-9.275-2.268-16.6-6.803-21.002-4.537-4.39-12.96-1.454-18.792 4.4-5.833 5.86-6.803 17.086-7.455 23.44-.64 6.356.01 19.056.01 19.056l-.01-.007z"/><path fill="#B3B4B4" d="M465.697 414.997c-.945-1.342 1.898-29.412.952-48.135-.95-18.716-5.69-37.438-8.534-50.81-2.845-13.368-15.17-32.083-16.12-44.112-.948-12.04-16.117-20.064-16.117-20.064s9.478 16.048 9.478 26.74c0 10.697 9.48 20.054 13.278 32.092 3.787 12.03 10.425 26.742 12.32 49.47 1.893 22.718 4.74 54.813 4.74 54.813"/><path fill="none" stroke="#010101" stroke-width="2.641" stroke-miterlimit="14.3" d="M161.41 620.896l8.532-181.834m44.55 2.682l2.844 13.37v25.41s1.896 21.394 4.737 38.767c2.846 17.383.952 18.726-.945 36.1-1.896 17.38.945 29.42 4.737 40.11 3.798 10.7 2.584 25.118 2.584 25.118s8.043-1.41 10.753 0l-2.908-5.056s-2.844-21.394-5.688-40.11c-2.844-18.72-.946-28.08 0-44.122.948-16.052-3.792-18.724-5.69-40.11-1.895-21.395-1.895-49.476-1.895-49.476m242.694-26.734c-.947-1.34 1.9-29.412.95-48.135-.947-18.717-5.69-37.438-8.533-50.81-2.845-13.368-15.17-32.082-16.12-44.112-.946-12.04-16.115-20.064-16.115-20.064s9.48 16.047 9.48 26.738c0 10.698 9.48 20.055 13.278 32.093 3.785 12.03 10.425 26.744 12.32 49.47 1.893 22.73 4.74 54.827 4.74 54.827v-.007z"/><path fill="#CADB2A" d="M399.05 525.513c0-7.83 4.116-14.183 9.192-14.183 5.07 0 9.19 6.353 9.19 14.183 0 7.828-4.12 14.188-9.19 14.188-5.07.015-9.19-6.354-9.19-14.176"/><path fill="none" stroke="#010101" stroke-width="2.641" stroke-miterlimit="14.3" d="M408.24 511.323c5.07 0 9.187 6.354 9.187 14.184 0 7.827-4.117 14.188-9.188 14.188-5.074 0-9.192-6.36-9.192-14.188 0-7.82 4.117-14.177 9.19-14.177v-.007z"/><path fill="#E74125" d="M377.698 527.658c0-4.853 2.92-8.793 6.52-8.793s6.52 3.938 6.52 8.793c0 4.848-2.92 8.79-6.52 8.79-3.588 0-6.518-3.95-6.518-8.79"/><ellipse fill="none" stroke="#010101" stroke-width="2.641" stroke-miterlimit="14.3" cx="384.215" cy="527.658" rx="6.521" ry="8.791"/><path fill="#CADB2A" d="M350.985 528.012c0-7.828 4.113-14.178 9.19-14.178 5.07 0 9.192 6.35 9.192 14.178 0 7.826-4.12 14.19-9.193 14.19-5.082.012-9.19-6.356-9.19-14.19"/><path fill="none" stroke="#010101" stroke-width="2.641" stroke-miterlimit="14.3" d="M360.174 513.835c5.072 0 9.192 6.35 9.192 14.178 0 7.827-4.12 14.19-9.192 14.19-5.076 0-9.19-6.363-9.19-14.19 0-7.822 4.107-14.177 9.19-14.178z"/><linearGradient id="b" gradientUnits="userSpaceOnUse" x1="62.277" y1="-98.424" x2="344.565" y2="-98.424" gradientTransform="matrix(1 0 0 -1 119.04 554.34)"><stop offset=".301" stop-color="#FFF"/><stop offset="1" stop-color="#B3B4B5"/></linearGradient><path fill="url(#b)" d="M203.514 605.855c1.274-.896-4.582 9.503-7.396 22.603-1.275 5.954 1.912 13.402-.057 18.958-2.095 5.93-4.562 11.027-7.333 14.068-8.025 8.812-7.398 38.24-7.398 38.24h282.275l-4.936-26.066s3.697-27.817 3.697-39.99c0-12.165-8.63-22.59-8.63-22.59s-33.277 12.16-43.14 12.16c-9.86 0-39.445 6.955-51.77 6.955-12.33 0-50.54-3.47-64.097-3.47-13.56 0-44.378-8.695-60.397-8.695-16.026 0-30.818-12.174-30.818-12.174"/><g fill="none" stroke="#010101"><path stroke-width="3.522" stroke-miterlimit="11.5" d="M203.514 605.855c1.274-.896-4.582 9.503-7.396 22.603-1.275 5.954 1.912 13.402-.057 18.958-2.095 5.93-4.562 11.027-7.333 14.068-8.025 8.812-7.398 38.24-7.398 38.24h282.275l-4.936-26.066s3.697-27.817 3.697-39.99c0-12.165-8.63-22.59-8.63-22.59s-33.277 12.16-43.14 12.16c-9.86 0-39.445 6.955-51.77 6.955-12.33 0-50.54-3.47-64.097-3.47-13.56 0-44.378-8.695-60.397-8.695-16.026 0-30.818-12.174-30.818-12.174z"/><path stroke-width="2.641" stroke-miterlimit="14.3" d="M199.824 623.237s11.2 5.223 17.422 6.956c6.224 1.738 19.913 0 31.12 0 11.197 0 36.09 10.44 54.756 12.174 18.67 1.738 36.092 1.738 54.762 1.738s41.076-1.738 58.498-6.958c17.42-5.216 39.82-15.644 39.82-15.644"/><path stroke-width="3.522" stroke-miterlimit="11.5" d="M214.622 701.463s1.236-19.108 1.236-29.537c0-10.438 4.933-15.647 4.933-15.647l8.63-1.738s-2.47 6.946-3.7 19.12c-1.235 12.173 0 27.803 0 27.803m-30.83-52.147s11.63 5.207 18.097 6.954c6.46 1.738 20.68-3.478 32.31-3.478 11.633 0 36.212 6.953 55.598 8.69 19.387 1.737 39.78 0 59.166 0 19.39 0 41.622 3.483 59.716-1.737 18.094-5.22 41.356-12.166 41.356-12.166"/></g><path fill="#FFF" d="M209.43 172.346c-.636-1.8-1.908 17.94-1.908 17.94s8.267-2.694 10.18-8.076c1.91-5.38 3.183-14.353 3.183-14.353s-2.548 2.69-6.364 4.49c-3.81 1.803-5.09.012-5.09.012"/><path fill="#010101" d="M211.96 229.71s-9.917-.25-16.834 12.557c-6.922 12.81-5.085 19.107-7.532 29.324-2.45 10.212-7.3 17.003-7.527 29.326-.223 12.318-.604 16.512-1.013 27.524-.407 11.012-.812 22.025-.812 22.025s-1.862.514-2.993 6.273c-1.137 5.76-13.03 3.594-19.947 16.398-6.918 12.81-19.396 20.34-19.396 20.34l4.136 106.48s27.526-3.503 36.285-10.01c8.757-6.503 18.042-2.245 21.6-11.406 3.564-9.16 2.246-4.708 6.92-12.807 4.672-8.104 15.737-21.07 15.737-21.07s-10.16-69.934-12.467-126.99c-2.164-53.64 6.042-84.73 6.58-84.22"/><path fill="none" stroke="#010101" stroke-width="8.805" stroke-linejoin="round" stroke-miterlimit="11.5" d="M208.743 232.404s-6.708-2.944-13.625 9.864c-6.92 12.81-5.083 19.107-7.53 29.324-2.45 10.21-7.3 17.002-7.528 29.326-.222 12.315-.605 16.51-1.014 27.523l-.81 22.026s-1.863.514-2.994 6.273c-1.135 5.76-13.03 3.593-19.945 16.398-6.918 12.81-19.396 20.34-19.396 20.34l4.136 106.48s27.526-3.504 36.284-10.01c8.757-6.504 18.042-2.246 21.6-11.407 3.565-9.157 2.247-4.707 6.92-12.806 4.672-8.104 15.737-22.95 15.737-22.95s-10.16-68.054-12.467-125.108c-2.164-53.64 4.18-85.476 4.72-84.966l-4.082-.288-.005-.018z"/><path fill="#010101" d="M53.94 596.217s1.364 1.43 5.302.345c3.93-1.084 6.663-2.436 7.063-7.962.4-5.533-5.78-8.037-5.78-8.037s-7.23 2.592-7.392 5.645c-.157 3.048 2.253 12.02.807 10.004"/><path fill="none" stroke="#010101" stroke-width="8.805" stroke-linejoin="round" stroke-miterlimit="11.5" d="M53.94 596.217s1.364 1.43 5.302.345c3.93-1.084 6.663-2.436 7.063-7.962.4-5.533-5.78-8.037-5.78-8.037s-7.23 2.592-7.392 5.645c-.157 3.048 2.253 12.02.807 10.004v.005z"/><path fill="#010101" d="M47.635 609.623s1.455 2.073 5.39.99c3.935-1.087 6.636-2.655 6.77-10.102.134-7.45-6.257-11.458-6.257-11.458s-7.196 2.817-7.21 6.94c0 4.108 2.873 16.48 1.315 13.617"/><path fill="none" stroke="#010101" stroke-width="8.805" stroke-linejoin="round" stroke-miterlimit="11.5" d="M47.635 609.623s1.455 2.073 5.39.99c3.935-1.087 6.636-2.655 6.77-10.102.134-7.45-6.257-11.458-6.257-11.458s-7.196 2.817-7.21 6.94c0 4.108 2.873 16.48 1.315 13.617l-.008.013z"/><path fill="#010101" d="M36.305 603.71s-1.48 6.166 2.784 7.465c4.264 1.293 9.775-1.054 9.775-1.054l.586-8.397-12.582-36.04s-11.803 3.257-12.27 8.335c-.462 5.06.06 17.268 3.53 21.24 3.487 3.99 8.29 9.247 8.18 8.463"/><path fill="none" stroke="#010101" stroke-width="8.805" stroke-linejoin="round" stroke-miterlimit="11.5" d="M36.305 603.71s-1.48 6.166 2.784 7.465c4.264 1.293 9.775-1.054 9.775-1.054l.586-8.397-12.582-36.04s-11.803 3.257-12.27 8.335c-.462 5.06.06 17.268 3.53 21.24 3.487 3.99 8.29 9.247 8.18 8.463l-.003-.01z"/><path fill="#010101" d="M147.995 403.37s-3.46-8.096-8.505-10.82c-5.043-2.727-6.5-4.796-11.79-.865-5.29 3.928-20.15 14.61-27.808 22.485-7.66 7.872-7.11 11.836-16.8 21.917-9.69 10.08-16.997 12.097-20.393 21.256-3.4 9.17-5.648 9.79-7.358 18.495-1.713 8.695-1.173 16.78-6.806 22.45-5.634 5.67-5.756 8.996-12.058 14.026-6.31 5.03-11.597 8.957-13.09 19.25-1.492 10.287 3.886 15.387-.395 18.206-4.273 2.83-4.386 2.032-7.89 10.408-3.507 8.375-6 15.647-3.326 22.315 2.677 6.67 6.352 16.354 6.352 16.354s30.128-9.958 32.83-11.52c2.702-1.573 4.95-2.193 7.77-7.088 2.826-4.888 5.65-9.78 9.83-17.526 4.176-7.734 2.834-9.005 6.88-9.307 4.043-.293 11.03-8.804 19.012-10.175 7.977-1.376 12.458 1.495 21.125-3.362 8.663-4.854 8.11-8.815 17.103-11.297 8.994-2.48 13.28-9.43 24.644-15.856 11.366-6.418 12.94-7.687 16.214-13.52 3.278-5.848 5.183-4.72 1.192-20.903-3.996-16.18-.365-27.878-9.2-41.082-8.832-13.206-11.617-20.66-13.508-25.906-1.9-5.23-5.156-7.624-4.034-7.925"/><path fill="none" stroke="#010101" stroke-width="8.805" stroke-linejoin="round" stroke-miterlimit="11.5" d="M147.995 403.37s-3.46-8.096-8.505-10.82c-5.043-2.727-6.5-4.796-11.79-.865-5.29 3.928-20.15 14.61-27.808 22.485-7.66 7.872-7.11 11.836-16.8 21.917-9.69 10.08-16.997 12.097-20.393 21.256-3.4 9.17-5.648 9.79-7.358 18.495-1.713 8.695-1.173 16.78-6.806 22.45-5.634 5.67-5.756 8.996-12.058 14.026-6.31 5.03-11.597 8.957-13.09 19.25-1.492 10.287 3.886 15.387-.395 18.206-4.273 2.83-4.386 2.032-7.89 10.408-3.507 8.375-6 15.647-3.326 22.315 2.677 6.67 6.352 16.354 6.352 16.354s30.128-9.958 32.83-11.52c2.702-1.573 4.95-2.193 7.77-7.088 2.826-4.888 5.65-9.78 9.83-17.526 4.176-7.734 2.834-9.005 6.88-9.307 4.043-.293 11.03-8.804 19.012-10.175 7.977-1.376 12.458 1.495 21.125-3.362 8.663-4.854 8.11-8.815 17.103-11.297 8.994-2.48 13.28-9.43 24.644-15.856 11.366-6.418 12.94-7.687 16.214-13.52 3.278-5.848 5.183-4.72 1.192-20.903-3.996-16.18-.365-27.878-9.2-41.082-8.832-13.206-11.617-20.66-13.508-25.906-1.9-5.23-5.156-7.624-4.034-7.925l.007-.01z"/><path fill="#010101" d="M40.06 550.808l-4.81-5.256s-3.83 1.87-7.1 7.716c-3.277 5.847-4.17 3.616-7.117 11.834-2.943 8.22-5.876 12.33-4.093 16.77 1.786 4.45 4.46 11.12 4.46 11.12l-2.155 5.524s2.568 5.885 6.037 9.856c3.472 3.987 8.08 3.54 9.552-2.635 1.482-6.164 2.84-9.014-.52-12.196-3.36-3.187-5.696-11.604-5.696-11.604s2.72-5.68 5.42-7.25c2.696-1.57 2.916.02 2.916.02s-4.518 9.478-.61 16.62c3.906 7.16 2.86 6.704 6.268 7.33 7.182 1.31 13.072-15.13 11.276-15.46-6.476-1.185-13.132-2.138-14.244-5.954-1.104-3.792.426-26.432.426-26.432"/><path fill="none" stroke="#010101" stroke-width="8.805" stroke-linejoin="round" stroke-miterlimit="11.5" d="M40.06 550.808l-4.81-5.256s-3.83 1.87-7.1 7.716c-3.277 5.847-4.17 3.616-7.117 11.834-2.943 8.22-5.876 12.33-4.093 16.77 1.786 4.45 4.46 11.12 4.46 11.12l-2.155 5.524s2.568 5.885 6.037 9.856c3.472 3.987 8.08 3.54 9.552-2.635 1.482-6.164 2.84-9.014-.52-12.196-3.36-3.187-5.696-11.604-5.696-11.604s2.72-5.68 5.42-7.25c2.696-1.57 2.916.02 2.916.02s-4.518 9.478-.61 16.62c3.906 7.16 2.86 6.704 6.268 7.33 7.182 1.31 13.072-15.13 11.276-15.46-6.476-1.185-13.132-2.138-14.244-5.954-1.104-3.792.426-26.432.426-26.432l-.01-.002z"/><path fill="#010101" d="M45.836 499.84s7.722 9.395 15.896 17.838c8.173 8.446 10.64 9.413 15.564 15.465 4.927 6.05 6.815 11.283 6.815 11.283s2.032-2.2-.01 4.12c-2.042 6.33-5.413 7.26-5.413 7.26s3.7 1.447 9.892-4.38c6.198-5.827 6.316-9.154 4.55-17.72-1.77-8.562-8.49-14.942-12.292-21.3-3.8-6.36-9.284-12.252-15.11-16.404-10.286-7.328-12.55-10.537-12.55-10.537s-2.137 1.414-5.18 4.73c-3.043 3.322-.483 9.194-2.16 9.652"/><path fill="none" stroke="#010101" stroke-width="8.805" stroke-linejoin="round" stroke-miterlimit="11.5" d="M45.836 499.84s7.722 9.395 15.896 17.838c8.173 8.446 10.64 9.413 15.564 15.465 4.927 6.05 6.815 11.283 6.815 11.283s2.032-2.2-.01 4.12c-2.042 6.33-5.413 7.26-5.413 7.26s3.7 1.447 9.892-4.38c6.198-5.827 6.316-9.154 4.55-17.72-1.77-8.562-8.49-14.942-12.292-21.3-3.8-6.36-9.284-12.252-15.11-16.404-10.286-7.328-12.55-10.537-12.55-10.537s-2.137 1.414-5.18 4.73c-3.043 3.322-.483 9.194-2.16 9.652l-.002-.007z"/><path fill="#010101" d="M37.63 575.357s.34-1.743 2.272-8.86c1.933-7.115 2.264-4.74 3.193-14.87.93-10.13-2.295-20.766-2.295-20.766"/><path fill="#FFF" d="M212.833 232.705s-10.595-3-17.514 9.807c-6.92 12.808-5.08 19.11-7.528 29.322-2.446 10.208-7.302 16.994-7.527 29.32-.222 12.328-.61 16.515-1.013 27.53-.41 11.01-.813 22.02-.813 22.02s-1.864.516-3 6.275c-1.13 5.767-13.022 3.592-19.938 16.398-6.92 12.81-19.4 20.33-19.4 20.33l4.14 106.488s27.526-3.5 36.284-10.01c8.755-6.503 18.042-2.254 21.6-11.413 3.564-9.15 2.246-4.7 6.92-12.803 4.675-8.1 15.535-27.202 15.535-27.202s-9.958-63.81-12.265-120.858c-2.167-53.634 5.84-84.972 6.38-84.463"/><path fill="#797979" d="M54.134 596.438s1.366 1.43 5.3.345c3.936-1.087 6.665-2.442 7.068-7.967.402-5.52-5.782-8.032-5.782-8.032s-7.227 2.598-7.388 5.65c-.158 3.048 2.252 12.005.807 10.005"/><path fill="#FFF" stroke="#010101" stroke-width="3.522" stroke-miterlimit="11.5" d="M54.134 596.438s1.366 1.43 5.3.345c3.936-1.087 6.665-2.442 7.068-7.967.402-5.52-5.782-8.032-5.782-8.032s-7.227 2.598-7.388 5.65c-.158 3.048 2.252 12.005.807 10.005l-.006-.002z"/><path fill="#797979" d="M47.83 609.87s1.453 2.066 5.388.98c3.935-1.085 6.636-2.654 6.772-10.1.134-7.445-6.256-11.438-6.256-11.438s-7.198 2.808-7.21 6.93c-.01 4.12 2.873 16.493 1.314 13.628"/><path fill="#FFF" stroke="#010101" stroke-width="3.522" stroke-miterlimit="11.5" d="M47.83 609.87s1.453 2.066 5.388.98c3.935-1.085 6.636-2.654 6.772-10.1.134-7.445-6.256-11.438-6.256-11.438s-7.198 2.808-7.21 6.93c-.01 4.12 2.873 16.493 1.314 13.628h-.008z"/><path fill="#797979" d="M36.5 603.934s-1.48 6.173 2.787 7.472c4.265 1.293 9.774-1.052 9.774-1.052l.59-8.396-12.584-36.035s-11.804 3.258-12.27 8.327c-.466 5.062.062 17.264 3.53 21.25 3.468 3.962 8.28 9.22 8.168 8.423"/><g fill="#FFF"><path stroke="#010101" stroke-width="3.522" stroke-miterlimit="11.5" d="M36.5 603.934s-1.48 6.173 2.787 7.472c4.265 1.293 9.774-1.052 9.774-1.052l.59-8.396-12.584-36.035s-11.804 3.258-12.27 8.327c-.466 5.062.062 17.264 3.53 21.25 3.468 3.962 8.28 9.22 8.168 8.423l.006.01z"/><path d="M148.18 403.62s-3.454-8.095-8.503-10.822c-5.044-2.725-6.498-4.787-11.79-.865-5.29 3.935-20.146 14.615-27.807 22.484-7.662 7.882-7.114 11.838-16.802 21.917-9.69 10.083-16.996 12.1-20.39 21.258-3.4 9.173-5.648 9.793-7.36 18.496-1.71 8.705-1.173 16.78-6.804 22.453-5.636 5.67-5.755 8.996-12.063 14.027-6.304 5.03-11.594 8.954-13.086 19.24-1.492 10.293 3.882 15.383-.393 18.215-4.277 2.83-4.387 2.034-7.89 10.41-3.508 8.373-6.003 15.645-3.327 22.313 2.675 6.66 6.352 16.354 6.352 16.354s30.127-9.962 32.827-11.53c2.702-1.57 4.95-2.188 7.773-7.075 2.824-4.896 5.645-9.79 9.823-17.524 4.182-7.735 2.835-9.014 6.88-9.305 4.045-.294 11.035-8.805 19.013-10.19 7.98-1.373 12.462 1.508 21.126-3.352 8.66-4.863 8.11-8.82 17.104-11.3 8.992-2.48 13.283-9.43 24.644-15.855 11.36-6.427 12.938-7.686 16.212-13.523 3.275-5.846 5.18-4.718 1.187-20.907-3.993-16.173-.362-27.87-9.193-41.075-8.833-13.206-11.62-20.662-13.51-25.894-1.91-5.245-5.165-7.652-4.043-7.953"/></g><path fill="none" stroke="#010101" stroke-width="5.284" stroke-miterlimit="11.5" d="M148.18 403.62s-3.454-8.095-8.503-10.822c-5.044-2.725-6.498-4.787-11.79-.865-5.29 3.935-20.146 14.615-27.807 22.484-7.662 7.882-7.114 11.838-16.802 21.917-9.69 10.083-16.996 12.1-20.39 21.258-3.4 9.173-5.648 9.793-7.36 18.496-1.71 8.705-1.173 16.78-6.804 22.453-5.636 5.67-5.755 8.996-12.063 14.027-6.304 5.03-11.594 8.954-13.086 19.24-1.492 10.293 3.882 15.383-.393 18.215-4.277 2.83-4.387 2.034-7.89 10.41-3.508 8.373-6.003 15.645-3.327 22.313 2.675 6.66 6.352 16.354 6.352 16.354s30.127-9.962 32.827-11.53c2.702-1.57 4.95-2.188 7.773-7.075 2.824-4.896 5.645-9.79 9.823-17.524 4.182-7.735 2.835-9.014 6.88-9.305 4.045-.294 11.035-8.805 19.013-10.19 7.98-1.373 12.462 1.508 21.126-3.352 8.66-4.863 8.11-8.82 17.104-11.3 8.992-2.48 13.283-9.43 24.644-15.855 11.36-6.427 12.938-7.686 16.212-13.523 3.275-5.846 5.18-4.718 1.187-20.907-3.993-16.173-.362-27.87-9.193-41.075-8.833-13.206-11.62-20.662-13.51-25.894-1.91-5.245-5.165-7.652-4.043-7.953l.022.002z"/><path fill="#ABABAB" d="M74.718 555.543s3.263-1.724 4.633-8.687c1.37-6.972 8.813-16.432 11.965-18.942 3.153-2.51 11.72-12.282 12.146-4.99.43 7.29 4.338 14.436-1.612 13.608-5.952-.835-10.12 2.79-10.12 2.79"/><path fill="#FFF" stroke="#010101" stroke-width="2.641" stroke-miterlimit="14.3" d="M74.718 555.543s3.263-1.724 4.633-8.687c1.37-6.972 8.813-16.432 11.965-18.942 3.153-2.51 11.72-12.282 12.146-4.99.43 7.29 4.338 14.436-1.612 13.608-5.952-.835-10.12 2.79-10.12 2.79"/><path fill="#ABABAB" d="M40.254 551.056l-4.81-5.253s-3.83 1.88-7.104 7.722c-3.274 5.838-4.166 3.618-7.11 11.837-2.947 8.222-5.88 12.32-4.094 16.77 1.786 4.44 4.458 11.113 4.458 11.113l-2.15 5.533s2.564 5.874 6.033 9.85c3.47 3.985 8.077 3.53 9.556-2.636 1.476-6.166 2.837-9.008-.523-12.197-3.36-3.19-5.695-11.603-5.695-11.603s2.714-5.678 5.415-7.253c2.7-1.57 2.922.02 2.922.02s-4.525 9.47-.615 16.622c3.91 7.157 2.86 6.712 6.27 7.328 7.182 1.31 13.072-15.13 11.275-15.458-6.476-1.183-13.132-2.136-14.242-5.945-1.113-3.78.417-26.418.417-26.418"/><g fill="#FFF"><path stroke="#010101" stroke-width="3.522" stroke-miterlimit="11.5" d="M24.5 559.52l8.493 14.937m-14.39 5.623l9.998.53m-5.99 11.523l7.762-2.963m9.884-38.11l-4.81-5.254s-3.83 1.88-7.104 7.723c-3.276 5.835-4.167 3.615-7.11 11.835-2.947 8.222-5.878 12.32-4.094 16.77 1.785 4.44 4.458 11.112 4.458 11.112l-2.15 5.533s2.564 5.875 6.034 9.85c3.47 3.985 8.076 3.53 9.556-2.636 1.476-6.164 2.837-9.007-.524-12.197-3.36-3.19-5.695-11.602-5.695-11.602s2.715-5.68 5.415-7.252c2.7-1.57 2.92.02 2.92.02s-4.524 9.47-.613 16.623c3.91 7.155 2.86 6.71 6.27 7.327 7.18 1.31 13.07-15.13 11.274-15.46-6.476-1.18-13.133-2.135-14.243-5.942-1.112-3.78.418-26.42.418-26.42l-.002-.03z"/><path d="M46.03 500.088s7.72 9.385 15.892 17.84c8.176 8.437 10.642 9.403 15.565 15.44 4.924 6.052 6.818 11.296 6.818 11.296s2.026-2.21-.01 4.12c-2.043 6.32-5.414 7.25-5.414 7.25s3.7 1.448 9.894-4.368c6.197-5.827 6.318-9.15 4.55-17.72-1.77-8.562-8.49-14.938-12.287-21.29-3.8-6.36-9.287-12.253-15.115-16.412-10.285-7.33-12.547-10.53-12.547-10.53s-2.14 1.417-5.183 4.72c-3.05 3.31-.493 9.195-2.17 9.652"/></g><path fill="none" stroke="#010101" stroke-width="2.641" stroke-miterlimit="14.3" d="M178.433 352.48s9.244 7.748 13.43 16.897c4.188 9.146 9.05 18.964 12.796 33.378 3.754 14.422 9.096 36.12 9.096 36.12l.938 15.202-7.74 7.287s-.048-17.157-3.913-32.4c-3.86-15.255-3.187-14.578-9.192-32.66-6.01-18.09-6.23-15.455-10.186-22.953-3.957-7.488-9.714-15.345-9.714-15.345M37.826 575.585s.343-1.735 2.273-8.852c1.93-7.112 2.26-4.74 3.19-14.87.933-10.132-2.293-20.766-2.293-20.766m5.045-30.995s7.72 9.384 15.89 17.84c8.176 8.436 10.643 9.403 15.565 15.44 4.925 6.05 6.817 11.297 6.817 11.297s2.027-2.213-.01 4.117c-2.042 6.32-5.414 7.25-5.414 7.25s3.7 1.448 9.893-4.368c6.197-5.828 6.32-9.152 4.55-17.72-1.77-8.563-8.49-14.94-12.287-21.29-3.8-6.36-9.287-12.254-15.116-16.413-10.284-7.327-12.547-10.53-12.547-10.53s-2.14 1.417-5.183 4.72c-3.05 3.298-.482 9.183-2.17 9.654l.012.002z"/></svg>