<?xml version="1.0" encoding="utf-8"?>
<!-- Generator: Adobe Illustrator 16.0.0, SVG Export Plug-In . SVG Version: 6.00 Build 0)  -->
<!DOCTYPE svg PUBLIC "-//W3C//DTD SVG 1.1//EN" "http://www.w3.org/Graphics/SVG/1.1/DTD/svg11.dtd">
<svg version="1.1" id="Capa_1" xmlns="http://www.w3.org/2000/svg" xmlns:xlink="http://www.w3.org/1999/xlink" x="0px" y="0px"
	 width="700px" height="700px" viewBox="0 0 700 700" enable-background="new 0 0 700 700" xml:space="preserve">
<path id="svg_2_1_" fill="#010101" d="M204.756,604.13c1.276-0.893-4.583,9.507-7.392,22.606c-1.276,5.95,1.91,13.405-0.06,18.958
	c-2.098,5.921-4.564,11.03-7.335,14.071c-8.025,8.802-7.396,38.232-7.396,38.232h282.274l-4.933-26.059
	c0,0,3.705-27.819,3.705-39.992c0-12.164-8.632-22.591-8.632-22.591s-33.278,12.166-43.141,12.166
	c-9.86,0-39.445,6.955-51.771,6.955c-12.327,0-50.539-3.483-64.094-3.483c-13.558,0-44.378-8.689-60.399-8.689
	c-16.024,0-30.818-12.174-30.818-12.174"/>
<path id="svg_3_1_" fill="none" stroke="#010101" stroke-width="8.8054" stroke-miterlimit="11.5" d="M204.756,604.13
	c1.276-0.893-4.583,9.507-7.392,22.606c-1.276,5.95,1.91,13.405-0.06,18.958c-2.098,5.921-4.564,11.03-7.335,14.071
	c-8.025,8.802-7.396,38.232-7.396,38.232h282.274l-4.933-26.059c0,0,3.705-27.819,3.705-39.992c0-12.164-8.632-22.591-8.632-22.591
	s-33.278,12.166-43.141,12.166c-9.86,0-39.445,6.955-51.771,6.955c-12.327,0-50.539-3.483-64.094-3.483
	c-13.558,0-44.378-8.689-60.399-8.689c-16.024,0-30.818-12.174-30.818-12.174L204.756,604.13z"/>
<path id="svg_4_1_" fill="#010101" d="M233.963,620.334l97.272-67.9l135.566-294.168c0,0,0-30.751-0.948-37.436
	c-0.946-6.68-13.27-5.345-13.27-5.345l-64.469,1.333l-231.316-16.042l-18.009,177.82l-6.634,118.994c0,0-5.692,93.592-2.848,101.619
	c2.845,8.022,10.425,17.373,10.425,17.373l94.23,3.734"/>
<path id="svg_5_1_" fill="none" stroke="#010101" stroke-width="8.8054" stroke-linejoin="round" stroke-miterlimit="11.5" d="
	M233.963,620.334l97.272-67.9l135.566-294.168c0,0,0-30.751-0.948-37.436c-0.946-6.68-13.27-5.345-13.27-5.345l-64.469,1.333
	l-231.316-16.042l-18.009,177.82l-6.634,118.994c0,0-5.692,93.592-2.848,101.619c2.845,8.022,10.425,17.373,10.425,17.373
	l94.23,3.734v0.038L233.963,620.334z"/>
<path id="svg_6_1_" fill="#010101" d="M420.348,246.241c-1.897,4.013-59.726-34.763-59.726-34.766l-148.841,6.691l-18.962,29.415
	l-12.322,61.496c0,0,5.684,94.932,9.477,104.288c3.799,9.357-0.946,25.407-1.894,50.808c-0.948,25.41-6.638,44.121-5.688,58.833
	c0.946,14.702,16.115,33.426,15.17,56.15c-0.952,22.731,7.431,29.127,15.963,41.166h30.111l83.802-0.517l123.742,0.517
	c15.171-10.697,6.132-49.188,6.132-58.547c0-9.358,0.48-18.326,0.48-29.023c0-10.69,1.18-17.808,3.073-32.51
	c1.896-14.711,11.617-22.699,9.724-32.058c-1.895-9.362-6.64-14.71-1.895-34.764c4.739-20.057-5.69-21.387-5.69-21.387
	s12.328-72.201,13.272-92.256c0.946-20.064-55.938-73.543-55.938-73.543"/>
<path id="svg_7_1_" fill="none" stroke="#010101" stroke-width="8.8054" stroke-linejoin="round" stroke-miterlimit="11.5" d="
	M420.348,246.241c-1.897,4.013-59.726-34.763-59.726-34.766l-148.841,6.691l-18.962,29.415l-12.322,61.496
	c0,0,5.684,94.932,9.477,104.288c3.799,9.357-0.946,25.407-1.894,50.808c-0.948,25.41-6.638,44.121-5.688,58.833
	c0.946,14.702,16.115,33.426,15.17,56.15c-0.952,22.731,7.431,29.127,15.963,41.166h30.111l83.802-0.517l123.742,0.517
	c15.171-10.697,6.132-49.188,6.132-58.547c0-9.358,0.48-18.326,0.48-29.023c0-10.69,1.18-17.808,3.073-32.51
	c1.896-14.711,11.617-22.699,9.724-32.058c-1.895-9.362-6.64-14.71-1.895-34.764c4.739-20.057-5.69-21.387-5.69-21.387
	s12.328-72.201,13.272-92.256c0.946-20.064-55.938-73.543-55.938-73.543L420.348,246.241z"/>
<path id="svg_8_1_" fill="#010101" d="M268.965,231.829c-0.852,0-4.692,1.802-13.656,1.199c-8.962-0.598-16.214,6.623-16.214,6.623
	s-9.388-4.818-22.624-9.632c-13.229-4.815-21.764-4.815-21.335-20.465c0.428-15.65,17.068-116.77,21.763-128.207
	c4.699-11.441,14.509-6.024,18.777-7.827c4.27-1.804,49.508-4.211,55.056,0.603c5.55,4.814-1.705,18.659-4.266,36.713
	c-2.564,18.059,2.56,56.584,1.279,77.052c-1.279,20.469-18.775,43.946-18.775,43.946"/>
<path id="svg_9_1_" fill="none" stroke="#010101" stroke-width="8.8054" stroke-linejoin="round" stroke-miterlimit="11.5" d="
	M255.307,233.032c-8.963-0.598-16.215,6.623-16.215,6.623s-9.387-4.818-22.625-9.632c-13.229-4.815-21.764-4.815-21.335-20.465
	s17.068-116.771,21.764-128.205c4.699-11.442,14.509-6.026,18.777-7.829c4.27-1.805,49.507-4.211,55.056,0.603
	c5.55,4.813-1.706,18.659-4.267,36.712c-2.564,18.059,2.56,56.585,1.279,77.054c-1.279,20.458-18.778,43.938-18.778,43.938
	c-0.854,0-4.693,1.805-13.658,1.204L255.307,233.032z"/>
<path id="svg_10_1_" fill="#010101" d="M452.28,121.535c0,3.031-25.807-27.3-25.807-27.3l-20.438,151.674l13.981,10.606
	c0,0,10.757-13.65,12.904-22.744c4.306-9.105,10.759-25.792,16.135-50.051c5.368-24.273,3.218-62.189,3.218-62.189"/>
<path id="svg_11_1_" fill="none" stroke="#010101" stroke-width="8.8054" stroke-linejoin="round" stroke-miterlimit="11.5" d="
	M452.28,121.535c0,3.031-25.807-27.3-25.807-27.3l-20.438,151.674l13.981,10.606c0,0,10.757-13.65,12.904-22.744
	c4.306-9.105,10.759-25.792,16.135-50.051c5.368-24.273,3.218-62.189,3.218-62.189L452.28,121.535z"/>
<polyline id="svg_12_1_" fill="#010101" points="478.011,76.976 449.38,125.419 427.125,99.406 439.857,50.06 461.479,55.435 
	478.011,76.976 "/>
<polygon id="svg_13_1_" fill="none" stroke="#010101" stroke-width="8.8054" stroke-linejoin="round" stroke-miterlimit="11.5" points="
	449.38,125.419 427.125,99.406 439.857,50.06 461.479,55.435 478.011,76.976 "/>
<polyline id="svg_14_1_" fill="#010101" points="443.658,116.447 454.479,65.297 474.839,71.587 "/>
<polyline id="svg_15_1_" fill="none" stroke="#010101" stroke-width="8.8054" stroke-linejoin="round" stroke-miterlimit="11.5" points="
	443.658,116.447 454.479,65.297 474.839,71.587 "/>
<path id="svg_16_1_" fill="#010101" d="M459.569,73.379l-11.457,52.034l14.633,3.596c0,0,3.181,1.789,5.725-0.902
	c2.546-2.693,2.546-4.484,2.546-4.484l7.63-35.889c0,0,1.277-1.789,0.643-6.28c-0.64-4.484-2.544-3.586-2.544-3.586l-17.165-4.499"
	/>
<path id="svg_17_1_" fill="none" stroke="#010101" stroke-width="8.8054" stroke-linejoin="round" stroke-miterlimit="11.5" d="
	M459.569,73.379l-11.457,52.034l14.633,3.596c0,0,3.181,1.789,5.725-0.902c2.546-2.693,2.546-4.484,2.546-4.484l7.63-35.889
	c0,0,1.277-1.789,0.643-6.28c-0.64-4.484-2.544-3.586-2.544-3.586l-17.165-4.499L459.569,73.379z"/>
<path id="svg_18_1_" fill="#010101" d="M437.316,56.337l-2.548,12.558c0,0-8.266-14.354-13.988-22.429
	c-5.726-8.076-19.083-19.741-40.712-20.63c-21.626-0.898-54.698,35.882-54.698,35.882l-30.534-25.116
	c0,0,22.896-26.92,56.609-31.406c28.56-3.801,40.074,2.69,53.433,10.767c21.823,13.182,32.44,40.36,32.44,40.36"/>
<path id="svg_19_1_" fill="none" stroke="#010101" stroke-width="8.8054" stroke-linejoin="round" stroke-miterlimit="11.5" d="
	M434.767,68.893c0,0-8.266-14.354-13.99-22.429c-5.724-8.076-19.082-19.74-40.712-20.63c-21.626-0.899-54.697,35.881-54.697,35.881
	L294.835,36.6c0,0,22.894-26.92,56.608-31.406c28.559-3.801,40.072,2.69,53.432,10.768c21.824,13.197,32.439,40.374,32.439,40.374
	l-2.549,12.544L434.767,68.893z"/>
<path id="svg_24_1_" fill="#010101" d="M251.562,99.406c0,0-19.084-4.486-22.265-8.972c-3.181-4.484-1.907-9.869-1.907-9.869
	s3.179-42.165,5.088-50.241c1.91-8.076,17.174-15.255,17.174-15.255s2.548-1.791,6.362-2.69c3.817-0.895,7,0,7,0l17.173,6.28"/>
<path id="svg_25_1_" fill="none" stroke="#010101" stroke-width="8.8054" stroke-linejoin="round" stroke-miterlimit="11.5" d="
	M441.748,50.06l19.083,24.207 M251.562,99.405c0,0-19.084-4.485-22.264-8.971c-3.181-4.484-1.907-9.869-1.907-9.869
	s3.179-42.165,5.087-50.241c1.911-8.076,17.175-15.255,17.175-15.255s2.549-1.791,6.362-2.689c3.817-0.896,7,0,7,0l17.173,6.28"/>
<path id="svg_26_1_" fill="#010101" d="M303.744,31.227c0-0.899-10.177,1.793-14.63,0.889c-4.452-0.889-2.545-6.273-2.545-6.273
	l-13.36-11.669l4.454-1.8c0,0,12.087,0,15.267-0.895c3.186-0.901,11.452,6.277,12.725,10.768c1.281,4.499-1.891,8.986-1.891,8.986"
	/>
<path id="svg_27_1_" fill="none" stroke="#010101" stroke-width="8.8054" stroke-linejoin="round" stroke-miterlimit="11.5" d="
	M303.744,31.227c0-0.899-10.177,1.793-14.63,0.889c-4.452-0.889-2.545-6.273-2.545-6.273l-13.36-11.669l4.454-1.8
	c0,0,12.087,0,15.267-0.895c3.186-0.901,11.452,6.277,12.725,10.768c1.281,4.499-1.891,8.986-1.891,8.986L303.744,31.227z"/>
<path id="svg_28_1_" fill="#010101" d="M285.923,12.38c0,0,4.451,2.694,8.904,7.184c4.457,4.485,3.818,9.869,3.818,9.869"/>
<path id="svg_29_1_" fill="none" stroke="#010101" stroke-width="8.8054" stroke-linejoin="round" stroke-miterlimit="11.5" d="
	M285.923,12.38c0,0,4.451,2.694,8.904,7.184c4.457,4.485,3.818,9.869,3.818,9.869"/>
<path id="svg_36_1_" fill="#010101" d="M451.437,51.551c0.394-2.415,3.63-3.424,7.221-2.262c3.593,1.161,6.194,4.063,5.799,6.474
	c-0.393,2.416-3.629,3.43-7.223,2.267c-3.604-1.151-6.192-4.054-5.805-6.473"/>
<path id="svg_37_1_" fill="none" stroke="#010101" stroke-width="8.8054" stroke-linejoin="round" stroke-miterlimit="11.5" d="
	M458.688,49.309c3.596,1.163,6.193,4.066,5.8,6.484c-0.396,2.417-3.628,3.432-7.223,2.268c-3.597-1.165-6.193-4.067-5.8-6.484
	C451.858,49.16,455.094,48.145,458.688,49.309z"/>
<path id="svg_46_1_" fill="#010101" d="M441.209,268.972c0.459-0.646,16.034,34.992,21.207,88.221
	c5.501,56.618,0.6,131.05,0.6,131.05s17.066,6.683,22.752,13.368c5.689,6.682,3.791,2.672,8.534,10.695
	c4.738,8.027,13.272,1.333,22.752,5.348c9.48,4.012,36.975,0,36.975,0L543.6,412.032c0,0-13.271-4.013-21.804-14.709
	c-8.527-10.695-19.907-5.35-21.804-10.695c-1.896-5.346-3.793-5.346-3.793-5.346s-1.896-10.699-3.792-21.396
	c-1.898-10.698-2.846-14.71-4.738-26.739c-1.899-12.033-7.585-17.384-11.376-26.743c-3.795-9.366-2.848-16.042-11.382-26.739
	c-8.53-10.673-23.7-10.673-23.7-10.673"/>
<path id="svg_47_1_" fill="none" stroke="#010101" stroke-width="8.8054" stroke-linejoin="round" stroke-miterlimit="11.5" d="
	M441.209,268.972c0.459-0.646,16.034,34.992,21.207,88.221c5.501,56.618,0.6,131.05,0.6,131.05s17.066,6.683,22.752,13.368
	c5.689,6.682,3.791,2.672,8.534,10.695c4.738,8.027,13.272,1.333,22.752,5.348c9.48,4.012,36.975,0,36.975,0L543.6,412.032
	c0,0-13.271-4.013-21.804-14.709c-8.527-10.695-19.907-5.35-21.804-10.695c-1.896-5.346-3.793-5.346-3.793-5.346
	s-1.896-10.699-3.792-21.396c-1.898-10.698-2.846-14.71-4.738-26.739c-1.899-12.033-7.585-17.384-11.376-26.743
	c-3.795-9.366-2.848-16.042-11.382-26.739c-8.53-10.673-23.7-10.673-23.7-10.673L441.209,268.972z"/>
<path id="svg_48_1_" fill="#010101" d="M651.646,588.815c-1.145,2.365,0-7.084-0.572-10.044c-0.572-2.953-8.019-3.538-8.019-3.538
	s-5.728,4.132-4.583,9.453c1.147,5.314,4.011,5.902,8.018,5.902c3.987,0.013,5.191-1.767,5.191-1.767"/>
<path id="svg_49_1_" fill="none" stroke="#010101" stroke-width="8.8054" stroke-linejoin="round" stroke-miterlimit="11.5" d="
	M651.09,578.77c-0.574-2.952-8.02-3.537-8.02-3.537s-5.729,4.131-4.581,9.452c1.146,5.314,4.007,5.901,8.017,5.901
	c4.012,0,5.157-1.771,5.157-1.771c-1.206,2.38,0-7.063-0.557-10.032L651.09,578.77z"/>
<path id="svg_50_1_" fill="#010101" d="M659.62,600.272c-1.145,3.229,0-9.688-0.572-13.729c-0.574-4.045-8.021-4.861-8.021-4.861
	s-5.728,5.662-4.583,12.94c1.146,7.271,4.009,8.078,8.02,8.078c4.079,0.014,5.191-2.419,5.191-2.419"/>
<path id="svg_51_1_" fill="none" stroke="#010101" stroke-width="8.8054" stroke-linejoin="round" stroke-miterlimit="11.5" d="
	M659.62,600.272c-1.145,3.229,0-9.688-0.572-13.729c-0.574-4.045-8.021-4.861-8.021-4.861s-5.728,5.662-4.583,12.94
	c1.146,7.271,4.009,8.078,8.02,8.078c4.079,0.014,5.191-2.419,5.191-2.419L659.62,600.272z"/>
<path id="svg_52_1_" fill="#010101" d="M669.911,591.391c0,0.802,4.005-5.66,6.872-10.507c2.865-4.84,1.719-16.962,0.577-21.801
	c-1.149-4.859-13.175-4.859-13.175-4.859l-7.445,38.775l1.717,8.084c0,0,5.728,0.808,9.738-1.613
	c3.986-2.433,1.668-8.082,1.668-8.082"/>
<path id="svg_53_1_" fill="none" stroke="#010101" stroke-width="8.8054" stroke-linejoin="round" stroke-miterlimit="11.5" d="
	M676.864,580.889c2.867-4.839,1.721-16.961,0.577-21.802c-1.149-4.858-13.176-4.858-13.176-4.858l-7.446,38.776l1.72,8.084
	c0,0,5.727,0.809,9.737-1.613c4.009-2.431,1.717-8.079,1.717-8.079c-0.184,0.811,3.895-5.65,6.769-10.502L676.864,580.889z"/>
<path id="svg_54_1_" fill="#010101" d="M533.077,425.016c1.147,0-1.717,3.23-2.871,8.88c-1.142,5.66-2.86,13.729-9.733,29.08
	s-1.719,25.849-3.438,42.81c-1.717,16.962,0,15.34,4.012,20.189c4.007,4.84,5.724,5.661,17.753,8.882
	c12.026,3.23,17.179,8.891,26.343,8.891c9.163,0,9.159,4.039,18.322,6.457c9.166,2.42,13.174-1.611,21.191-2.418
	c8.018-0.815,16.035,5.645,20.041,4.838c4.015-0.799,2.867,0.81,8.018,7.271c5.155,6.471,8.594,10.508,12.029,14.54
	c3.436,4.04,5.725,4.04,8.592,4.853c2.864,0.799,33.787,2.418,33.787,2.418s2.289-10.499,4.009-17.771
	c1.716-7.268-1.72-13.729-6.302-21c-4.577-7.271-4.577-6.459-9.159-8.08c-4.58-1.607,0-8.069-2.864-17.76
	c-2.863-9.698-8.587-12.119-15.463-15.35c-6.869-3.229-7.442-6.461-13.745-10.501c-6.297-4.04-6.868-12.121-9.732-20.189
	c-2.861-8.081-5.152-8.081-9.735-16.161c-4.581-8.069-12.023-8.069-22.907-15.34c-10.879-7.272-10.879-11.31-19.468-16.963
	c-8.588-5.655-24.623-12.116-30.351-14.54c-5.728-2.425-6.874,0-11.454,4.041c-4.563,4.055-6.86,12.935-6.86,12.935"/>
<path id="svg_55_1_" fill="none" stroke="#010101" stroke-width="8.8054" stroke-linejoin="round" stroke-miterlimit="11.5" d="
	M530.211,433.896c-1.141,5.66-2.861,13.729-9.732,29.08c-6.874,15.352-1.722,25.849-3.439,42.81c-1.714,16.962,0,15.34,4.012,20.189
	c4.01,4.841,5.727,5.661,17.755,8.882c12.025,3.231,17.179,8.893,26.341,8.893c9.164,0,9.161,4.037,18.324,6.455
	c9.166,2.42,13.172-1.61,21.189-2.418c8.019-0.815,16.037,5.645,20.043,4.838c4.013-0.799,2.867,0.81,8.019,7.271
	c5.152,6.471,8.594,10.507,12.029,14.539c3.436,4.04,5.726,4.04,8.589,4.853c2.866,0.799,33.789,2.418,33.789,2.418
	s2.289-10.499,4.009-17.771c1.717-7.268-1.72-13.729-6.303-21c-4.577-7.271-4.577-6.459-9.158-8.079
	c-4.582-1.608,0-8.07-2.863-17.76c-2.864-9.699-8.59-12.12-15.465-15.351c-6.868-3.229-7.443-6.461-13.742-10.501
	c-6.298-4.04-6.87-12.121-9.734-20.188c-2.86-8.081-5.154-8.081-9.736-16.162c-4.58-8.069-12.023-8.069-22.906-15.34
	c-10.879-7.271-10.879-11.31-19.468-16.963c-8.59-5.654-24.624-12.116-30.353-14.54c-5.725-2.424-6.872,0-11.452,4.042
	c-4.58,4.039-6.873,12.921-6.873,12.921c1.159,0.013-1.705,3.243-2.855,8.894L530.211,433.896z"/>
<path id="svg_56_1_" fill="#010101" d="M659.063,540.502c0,0,4.583,21.807,4.006,25.834c-0.572,4.046-6.977,6.784-13.172,9.701
	c-1.717,0.81,6.302,15.35,13.172,12.117c3.258-1.537,2.293-0.806,5.152-8.891c2.865-8.069-2.861-16.146-2.861-16.146
	s0-1.618,2.861-0.808c2.865,0.811,6.305,5.649,6.305,5.649s-1.146,8.891-4.009,12.931c-2.866,4.03-1.146,6.461,1.146,12.109
	c2.288,5.661,6.868,4.853,9.732,0c2.864-4.839,4.583-11.308,4.583-11.308l-2.865-4.841c0,0,1.717-7.267,2.865-12.117
	c1.146-4.844-2.294-8.081-6.298-15.353c-4.012-7.269-4.584-4.839-8.595-9.688c-4.008-4.851-8.018-5.652-8.018-5.652l-3.986,6.475"/>
<path id="svg_57_1_" fill="none" stroke="#010101" stroke-width="8.8054" stroke-linejoin="round" stroke-miterlimit="11.5" d="
	M659.063,540.502c0,0,4.583,21.807,4.006,25.834c-0.572,4.046-6.977,6.784-13.172,9.701c-1.717,0.81,6.302,15.35,13.172,12.117
	c3.258-1.537,2.293-0.806,5.152-8.891c2.865-8.069-2.861-16.146-2.861-16.146s0-1.618,2.861-0.808
	c2.865,0.811,6.305,5.649,6.305,5.649s-1.146,8.891-4.009,12.931c-2.866,4.03-1.146,6.461,1.146,12.109
	c2.288,5.661,6.868,4.853,9.732,0c2.864-4.839,4.583-11.308,4.583-11.308l-2.865-4.841c0,0,1.717-7.267,2.865-12.117
	c1.146-4.844-2.294-8.081-6.298-15.353c-4.012-7.269-4.584-4.839-8.595-9.688c-4.008-4.851-8.018-5.652-8.018-5.652l-3.986,6.475
	L659.063,540.502z"/>
<path id="svg_58_1_" fill="#010101" d="M646.452,492.045c-1.714,0,0-6.459-3.434-8.88c-3.438-2.431-5.728-3.24-5.728-3.24
	s-1.785,3.762-10.882,13.739c-5.154,5.65-9.733,12.92-12.6,20.189c-2.865,7.267-8.592,15.35-9.165,24.231
	c-0.567,8.886,0,12.119,6.88,16.157c6.866,4.044,10.303,1.62,10.303,1.62s-3.437,0-6.301-5.659c-2.864-5.65-0.572-4.04-0.572-4.04
	s1.142-5.647,5.155-12.917c4.008-7.274,6.3-8.892,13.172-19.393c6.889-10.49,13.176-21.803,13.176-21.803"/>
<path id="svg_59_1_" fill="none" stroke="#010101" stroke-width="8.8054" stroke-linejoin="round" stroke-miterlimit="11.5" d="
	M646.452,492.045c-1.714,0,0-6.459-3.434-8.88c-3.438-2.431-5.728-3.24-5.728-3.24s-1.785,3.762-10.882,13.739
	c-5.154,5.65-9.733,12.92-12.6,20.189c-2.865,7.267-8.592,15.35-9.165,24.231c-0.567,8.886,0,12.119,6.88,16.157
	c6.866,4.044,10.303,1.62,10.303,1.62s-3.437,0-6.301-5.659c-2.864-5.65-0.572-4.04-0.572-4.04s1.142-5.647,5.155-12.917
	c4.008-7.274,6.3-8.892,13.172-19.393c6.889-10.49,13.176-21.803,13.176-21.803L646.452,492.045z"/>
<path id="svg_60_1_" fill="#010101" d="M655.634,521.118c0,0-1.72,11.312,0.572,21.001c2.289,9.69,2.289,7.271,5.154,13.731
	c2.865,6.46,3.436,8.079,3.436,8.079"/>
<path id="svg_61_1_" fill="none" stroke="#010101" stroke-width="8.8054" stroke-linejoin="round" stroke-miterlimit="11.5" d="
	M161.55,620.608l8.537-181.834 M655.632,521.118c0,0-1.72,11.312,0.572,21.001c2.291,9.691,2.291,7.271,5.156,13.731
	c2.863,6.46,3.434,8.079,3.434,8.079"/>
<path id="svg_62_1_" fill="#EBEBEB" d="M215.847,621.512l115.241-68.813l135.565-294.143c0,0,0-30.746-0.949-37.431
	c-0.945-6.683-13.275-5.347-13.275-5.347l-64.458,1.334l-231.316-16.045l-18.006,177.819l-6.634,118.999
	c0,0-5.69,93.584-2.845,101.607c2.846,8.024,10.429,17.382,10.429,17.382l76.26,4.635"/>
<path id="svg_63_1_" fill="#FFFFFF" stroke="#010101" stroke-width="3.5218" stroke-miterlimit="11.5" d="M215.847,621.512
	l115.241-68.813l135.565-294.143c0,0,0-30.746-0.949-37.431c-0.945-6.683-13.275-5.347-13.275-5.347l-64.458,1.334l-231.316-16.045
	l-18.006,177.819l-6.634,118.999c0,0-5.69,93.584-2.845,101.607c2.846,8.024,10.429,17.382,10.429,17.382l76.26,4.635h-0.009
	L215.847,621.512z"/>
<path id="svg_64_1_" fill="#FFFFFF" d="M420.198,246.542c-1.893,4.015-59.724-34.761-59.722-34.761l-148.843,6.685l-18.962,29.41
	l-12.323,61.505c0,0,5.688,94.929,9.48,104.287c3.793,9.359-0.947,25.4-1.896,50.809c-0.949,25.4-6.637,44.122-5.691,58.825
	c0.95,14.709,16.115,33.425,15.169,56.151c-0.948,22.727,7.437,29.124,15.967,41.16h30.11l83.29,35.686l124.264-35.686
	c15.166-10.693,6.132-49.178,6.132-58.545c0-9.356,0.475-18.313,0.475-29.015c0-10.698,1.178-17.807,3.071-32.518
	c1.895-14.699,11.622-22.7,9.728-32.047c-1.896-9.367-6.637-14.71-1.896-34.767c4.74-20.055-5.69-21.395-5.69-21.395
	s12.326-72.196,13.273-92.253c0.944-20.088-55.938-73.568-55.938-73.568"/>
<linearGradient id="shadow_1_" gradientUnits="userSpaceOnUse" x1="203.5508" y1="129.6279" x2="350.8434" y2="86.5759" gradientTransform="matrix(1 0 0 -1 119.04 554.3398)">
	<stop  offset="0.3011" style="stop-color:#FFFFFF"/>
	<stop  offset="1" style="stop-color:#B3B4B5"/>
</linearGradient>
<path id="shadow" fill="url(#shadow_1_)" d="M384.226,271.876l-2.902,20.412L347.86,569.363l-11.574,57.899l22.831,1.091
	c0,0,33.214-1.898,43.798-5.723c5.903-2.131,11.377-0.793,19.454-2.86c15.814-4.048,31.762-11.119,31.762-11.119
	s0.933,1.696,1.249,1.364c7.192-7.544,1.853-46.585,1.853-46.585l0.45-33.011l4.52-41.363l1.404-42.2l0.716-27.25l-1.629-39.27
	l-2.938-30.269l-8.598-31.927l-16.115-34.929c0,0,0.528-4.155,0.314-5.501c-2.937-18.599-8.93-21.197-8.93-21.197l-3.043,11.702
	l-8.022,3.109l-17.058,0.923l-14.074-0.354L384.226,271.876z"/>
<path id="svg_65_1_" fill="none" stroke="#010101" stroke-width="5.2836" stroke-miterlimit="11.5" d="M420.198,246.542
	c-1.893,4.015-59.724-34.761-59.722-34.761l-148.843,6.685l-18.962,29.41l-12.323,61.505c0,0,5.688,94.929,9.48,104.287
	c3.793,9.359-0.947,25.4-1.896,50.809c-0.949,25.4-6.637,44.122-5.691,58.825c0.95,14.709,16.115,33.425,15.169,56.151
	c-0.948,22.727,7.437,29.124,15.967,41.16h30.11l83.29,35.686l124.264-35.686c15.166-10.693,6.132-49.178,6.132-58.545
	c0-9.356,0.475-18.313,0.475-29.015c0-10.698,1.178-17.807,3.071-32.518c1.895-14.699,11.622-22.7,9.728-32.047
	c-1.896-9.367-6.637-14.71-1.896-34.767c4.74-20.055-5.69-21.395-5.69-21.395s12.326-72.196,13.273-92.253
	c0.944-20.088-55.938-73.568-55.938-73.568L420.198,246.542z"/>
<path id="svg_66_1_" fill="#FFFFFF" d="M224.441,416.371c1.133-1.601-33.999,25.174-33.999,25.174s0.366,37.146-3.403,53.557
	c-6.234,27.181-2.815,32.568,3.966,47.96c13.032,29.578,7.934,41.562,9.065,54.353c1.136,12.784,27.769,17.186,27.769,17.186
	s-1.134-7.996-10.202-12.791c-9.067-4.797-1.132-6.391,6.801-6.391c7.932,0,26.07-12.796,35.135-14.388
	c9.069-1.601,1.134-14.391-9.065-12.793c-10.201,1.6-30.026-4.434-36.825-10.823c-6.798-6.398,20.958-32.337,26.625-40.335
	c5.665-7.988-12.748-9.106-30.878-10.696c-18.136-1.603,37.677-45.249,29.745-45.249c-7.937,0-25.491,0.219-25.491,0.219
	s18.687-21.003,27.756-35.388c9.066-14.389,0-9.593-4.534-4.796c-4.542,4.8-12.47-4.787-12.47-4.787"/>
<path id="svg_67_1_" fill="#C8C8C8" d="M268.808,232.116c-0.857,0-4.698,1.808-13.662,1.201c-8.964-0.603-16.22,6.624-16.22,6.624
	s-9.387-4.815-22.616-9.628c-13.23-4.817-21.766-4.817-21.337-20.469c0.427-15.646,17.072-116.763,21.763-128.202
	c4.698-11.436,14.507-6.021,18.778-7.828c4.272-1.805,49.509-4.207,55.058,0.606c5.546,4.815-1.71,18.661-4.267,36.715
	c-2.563,18.059,2.557,56.58,1.278,77.044c-1.29,20.482-18.786,43.945-18.786,43.945"/>
<path id="svg_68_1_" fill="#FFFFFF" stroke="#010101" stroke-width="3.5218" stroke-miterlimit="11.5" d="M268.808,232.116
	c-0.857,0-4.698,1.808-13.662,1.201c-8.964-0.603-16.22,6.624-16.22,6.624s-9.387-4.815-22.616-9.628
	c-13.23-4.817-21.766-4.817-21.337-20.469c0.427-15.646,17.072-116.763,21.763-128.202c4.698-11.436,14.507-6.021,18.778-7.828
	c4.272-1.805,49.509-4.207,55.058,0.606c5.546,4.815-1.71,18.661-4.267,36.715c-2.563,18.059,2.557,56.58,1.278,77.044
	c-1.29,20.482-18.786,43.945-18.786,43.945L268.808,232.116z"/>
<path id="svg_69_1_" fill="#B3B4B4" d="M452.115,121.823c0,3.028-25.811-27.303-25.811-27.303l-20.427,151.662l13.983,10.624
	c0,0,10.752-13.648,12.904-22.758c4.299-9.096,10.755-25.777,16.128-50.048c5.37-24.261,3.22-62.164,3.22-62.164"/>
<path id="svg_70_1_" fill="none" stroke="#010101" stroke-width="3.5218" stroke-miterlimit="11.5" d="M452.115,121.823
	c0,3.028-25.811-27.303-25.811-27.303l-20.427,151.662l13.983,10.624c0,0,10.752-13.648,12.904-22.758
	c4.299-9.096,10.755-25.777,16.128-50.048c5.37-24.261,3.22-62.164,3.22-62.164L452.115,121.823z"/>
<path id="svg_71_1_" fill="#FFFFFF" d="M341.779,244.764c0,0-9.392-9.63-13.231-13.845c-3.839-4.211-18.354-29.494-18.354-29.494
	l-3.839-15.646l-5.977-8.426c-4.691-13.243-5.546-39.728-5.974-51.164c-0.429-11.436,2.561-30.096,2.561-30.096l-17.07-21.667
	c0,0-6.409,25.875-7.688,43.935c-1.278,18.062,7.688,51.766,7.688,51.766s-0.857,4.21-2.136,7.225
	c-1.283,3.004-2.991,8.426-4.272,18.654c-1.279,10.23,1.282,14.445,1.282,14.445s-5.12,6.02-10.669,8.426
	c-5.546,2.409-14.083,9.63-23.898,10.837c-9.816,1.2-18.353,9.027-18.353,9.027"/>
<path id="svg_72_1_" fill="none" stroke="#010101" stroke-width="3.5218" stroke-miterlimit="11.5" d="M341.779,244.764
	c0,0-9.392-9.63-13.231-13.845c-3.839-4.211-18.354-29.494-18.354-29.494l-3.839-15.646l-5.977-8.426
	c-4.691-13.243-5.546-39.728-5.974-51.164c-0.429-11.436,2.561-30.096,2.561-30.096l-17.07-21.667c0,0-6.409,25.875-7.688,43.935
	c-1.278,18.062,7.688,51.766,7.688,51.766s-0.857,4.21-2.136,7.225c-1.283,3.004-2.991,8.426-4.272,18.654
	c-1.279,10.23,1.282,14.445,1.282,14.445s-5.12,6.02-10.669,8.426c-5.546,2.409-14.083,9.63-23.898,10.837
	c-9.816,1.2-18.353,9.027-18.353,9.027"/>
<polyline id="svg_73_1_" fill="#FFFFFF" points="477.862,77.25 449.24,125.694 426.968,99.681 439.689,50.334 461.322,55.723 
	477.862,77.25 "/>
<polygon id="svg_74_1_" fill="none" stroke="#010101" stroke-width="3.5218" stroke-miterlimit="14.3" points="449.24,125.694 
	426.968,99.681 439.689,50.334 461.322,55.723 477.862,77.25 "/>
<g>
	<path id="svg_75_1_" fill="#FFFFFF" d="M274.389,214.473c0,0-2.701,2.079-5.728,3.862c-3.898,2.291-8.336,4.411-8.336,4.411
		s-10.095,9.805-22.927,8.089c-5.47-0.74-5.732-9.008-5.732-9.008l-8.335,17.633l-1.042,10.292l2.083,31.048
		c0,0,13.547-19.292,16.673-6.063c3.126,13.234,3.126,30.871,5.213,20.576c2.085-10.284,2.085-22.043,2.085-22.043
		s6.247,0,10.417,8.818c4.17,8.827,6.252,32.335,6.252,32.335s4.172-19.11,3.128-32.335c-1.048-13.226-11.464-27.925-11.464-36.743
		c0-8.822,6.253,1.477,10.416-5.884c4.172-7.346,12.509,2.94,12.509,2.94s-1.043-5.876,0-13.223c1.042-7.35,15.63-1.471,15.63-1.471
		l-9.378-10.29l-11.461-2.93"/>
	<path id="svg_76_1_" fill="#FFFFFF" stroke="#010101" stroke-width="5.2836" stroke-miterlimit="11.5" d="M274.343,95.862
		c0,0-3.195,27.013-5.322,39.025c-2.127,12.006,1.066,27.016,1.066,36.02c0,9.005,5.317,10.508,5.317,10.508
		s-1.061,1.5-2.125,16.511c-1.065,15.006-1.065,13.502-1.065,13.502s-17.027,9.008-23.408,13.513c-6.391,4.5-6.391,0-13.839,9.008
		c-7.451,9.008-12.771,12.004-12.771,12.004"/>
	<polyline id="svg_77_1_" fill="#FFFFFF" points="443.509,116.722 454.33,65.597 474.671,71.862 	"/>
</g>
<polyline id="svg_78_1_" fill="none" stroke="#010101" stroke-width="2.6409" stroke-miterlimit="14.3" points="443.509,116.722 
	454.33,65.597 474.671,71.862 "/>
<path id="svg_79_1_" fill="#FFFFFF" d="M432.697,76.349l7.007,0.896c0,0,3.816-0.896,3.18,8.971
	c-0.638,9.875-5.729,8.076-5.729,8.076"/>
<path id="svg_80_1_" fill="none" stroke="#010101" stroke-width="3.5218" stroke-miterlimit="11.5" d="M432.697,76.349l7.007,0.896
	c0,0,3.816-0.896,3.18,8.971c-0.638,9.875-5.729,8.076-5.729,8.076"/>
<path id="svg_81_1_" fill="#0070AB" d="M290.151,203.814l-11.526,1.207c0,0,0,7.82,7.255,13.841
	c7.258,7.82,25.184,24.072,37.556,31.9c12.373,7.822,24.753,13.838,47.372,18.049c22.621,4.219,36.274,1.808,40.117,1.215
	c3.841-0.604,4.693,1.798,7.253,1.195c2.561-0.602,5.975-5.416,5.975-5.416l1.707-13.836"/>
<path id="svg_82_1_" fill="none" stroke="#010101" stroke-width="2.6409" stroke-miterlimit="14.3" d="M290.151,203.814
	l-11.526,1.207c0,0,0,7.82,7.255,13.841c7.258,7.82,25.184,24.072,37.556,31.9c12.373,7.822,24.753,13.838,47.372,18.049
	c22.621,4.219,36.274,1.808,40.117,1.215c3.841-0.604,4.693,1.798,7.253,1.195c2.561-0.602,5.975-5.416,5.975-5.416l1.707-13.836"/>
<path id="svg_83_1_" fill="#C8C8C8" d="M419.884,244.764c-0.849,0.603-0.849,9.625-0.849,9.625s-7.684,4.211-17.07,6.019
	c-9.39,1.808-60.177-10.23-71.271-16.25c-11.096-6.016-19.629-33.709-20.062-39.122c-0.426-5.418-2.129-12.641-3.839-17.455
	c-1.705-4.818-6.83-10.234-8.108-16.255c-1.282-6.02-4.269-43.335-1.708-58.382c2.564-15.042,16.217-33.102,27.316-46.943
	c9.814-13.844,37.978-28.292,57.613-31.297c19.626-3.013,42.675,25.274,47.797,35.508c5.119,10.237,10.672,27.088,13.232,43.336
	c2.558,16.248,2.13,42.113-2.14,70.998c-4.266,28.904-20.908,60.228-20.908,60.228"/>
<path id="svg_84_1_" fill="#0095BF" stroke="#010101" stroke-width="3.5218" stroke-miterlimit="11.5" d="M419.031,254.39
	c0,0-7.684,4.211-17.07,6.018c-9.389,1.809-60.176-10.23-71.271-16.25c-11.096-6.016-19.628-33.71-20.062-39.122
	c-0.425-5.417-2.129-12.641-3.838-17.455c-1.706-4.819-6.832-10.234-8.109-16.254c-1.282-6.021-4.269-43.336-1.707-58.383
	c2.563-15.043,16.216-33.102,27.316-46.943c9.815-13.844,37.978-28.292,57.612-31.296c19.628-3.015,42.678,25.272,47.795,35.507
	c5.124,10.237,10.676,27.087,13.234,43.336c2.559,16.248,2.133,42.112-2.139,70.997c-4.264,28.896-20.911,60.22-20.911,60.22
	c-0.853,0.614-0.853,9.64-0.853,9.64L419.031,254.39z"/>
<path id="svg_85_1_" fill="#FFFFFF" d="M329.566,361.714c0,0-1.147-20.908-1.717-30.112c-0.571-9.205-10.309-24.27-15.464-32.636
	c-5.154-8.366-10.306-21.752-15.459-30.114c-5.157-8.364-14.317-18.406-16.609-24.265c-2.291-5.857-7.444-7.528-12.602-11.712
	c-5.153-4.181-16.035-7.528-16.035-7.528s8.594,10.04,15.466,15.055c6.87,5.023,7.447,12.557,10.882,15.068
	c3.436,2.509,7.446,8.364,9.735,12.549c2.287,4.185,9.165,15.887,12.6,25.931c3.435,10.04,8.589,23.428,12.602,30.122
	c4.004,6.691,5.723,5.857,7.439,18.406c1.724,12.542-1.14,22.583-1.14,22.583"/>
<path id="svg_86_1_" fill="none" stroke="#010101" stroke-width="2.6409" stroke-linejoin="round" stroke-miterlimit="11.5" d="
	M329.566,361.714c0,0-1.147-20.908-1.717-30.112c-0.571-9.205-10.309-24.27-15.464-32.636c-5.154-8.366-10.306-21.752-15.459-30.114
	c-5.157-8.364-14.317-18.406-16.609-24.265c-2.291-5.857-7.444-7.528-12.602-11.712c-5.153-4.181-16.035-7.528-16.035-7.528
	s8.594,10.04,15.466,15.055c6.87,5.023,7.447,12.557,10.882,15.068c3.436,2.509,7.446,8.364,9.735,12.549
	c2.287,4.185,9.165,15.887,12.6,25.931c3.435,10.04,8.589,23.428,12.602,30.122c4.004,6.691,5.723,5.857,7.439,18.406
	c1.724,12.542-1.14,22.583-1.14,22.583"/>
<path id="svg_87_1_" fill="#FFFFFF" d="M290.142,212.851c0,0,2.136,2.407,8.107,10.23c5.976,7.829,28.167,22.869,39.693,28.285
	c11.525,5.426,32.865,10.186,46.518,11.445c19.635,1.798,24.759-1.809,28.168-2.415c3.416-0.603,5.55,0,8.537,0
	s4.268-8.42,4.268-8.42l-5.551-5.424c0,0-7.215,12.533-27.313,10.841c-28.592-2.411-42.248-7.225-54.627-13.246
	c-15.075-7.332-30.302-18.658-30.302-18.658"/>
<path id="svg_88_1_" fill="#00A6BF" stroke="#010101" stroke-width="2.6409" stroke-miterlimit="14.3" d="M290.142,212.851
	c0,0,2.136,2.407,8.107,10.23c5.976,7.829,28.167,22.869,39.693,28.285c11.525,5.426,32.865,10.186,46.518,11.445
	c19.635,1.798,24.759-1.809,28.168-2.415c3.416-0.603,5.55,0,8.537,0s4.268-8.42,4.268-8.42l-5.551-5.424
	c0,0-7.215,12.533-27.313,10.841c-28.592-2.411-42.248-7.225-54.627-13.246c-15.075-7.332-30.302-18.658-30.302-18.658"/>
<path id="svg_91_1_" fill="#FFFFFF" d="M459.412,73.666l-11.453,52.037l14.63,3.584c0,0,3.183,1.793,5.726-0.897
	c2.543-2.691,2.543-4.491,2.543-4.491l7.641-35.884c0,0,1.268-1.793,0.633-6.273c-0.633-4.491-2.544-3.591-2.544-3.591
	l-17.173-4.473"/>
<path id="svg_92_1_" fill="none" stroke="#010101" stroke-width="3.5218" stroke-miterlimit="14.3" d="M459.412,73.666
	l-11.453,52.037l14.63,3.584c0,0,3.183,1.793,5.726-0.897c2.543-2.691,2.543-4.491,2.543-4.491l7.641-35.884
	c0,0,1.268-1.793,0.633-6.273c-0.633-4.491-2.544-3.591-2.544-3.591l-17.173-4.473L459.412,73.666z"/>
<path id="svg_93_1_" fill="#FFFFFF" d="M462.146,87.57c0.713-4.349,3.232-7.241,5.626-6.461c2.395,0.787,3.759,4.941,3.053,9.284
	c-0.715,4.337-3.232,7.23-5.629,6.453c-2.402-0.772-3.765-4.932-3.05-9.273"/>
<path id="svg_94_1_" fill="none" stroke="#010101" stroke-width="2.6409" stroke-miterlimit="14.3" d="M467.766,81.109
	c2.395,0.787,3.758,4.941,3.053,9.284c-0.715,4.337-3.233,7.23-5.629,6.453c-2.392-0.779-3.757-4.938-3.049-9.276
	c0.713-4.355,3.234-7.246,5.627-6.461H467.766z"/>
<path id="svg_95_1_" fill="#FFFFFF" d="M457.215,110.209c0.741-4.536,3.379-7.549,5.893-6.735c2.51,0.813,3.944,5.166,3.201,9.694
	c-0.741,4.54-3.381,7.556-5.896,6.743C457.9,119.088,456.464,114.746,457.215,110.209"/>
<path id="svg_96_1_" fill="none" stroke="#010101" stroke-width="2.6409" stroke-miterlimit="14.3" d="M463.101,103.473
	c2.511,0.812,3.945,5.165,3.202,9.694c-0.743,4.541-3.383,7.556-5.896,6.744c-2.508-0.821-3.944-5.165-3.201-9.703
	c0.744-4.538,3.384-7.56,5.897-6.736L463.101,103.473z"/>
<path id="svg_97_1_" fill="#FFFFFF" d="M437.148,56.625l-2.547,12.559c0,0-8.265-14.349-13.989-22.429
	c-5.727-8.075-19.086-19.729-40.707-20.631c-21.624-0.902-54.702,35.887-54.702,35.887L294.669,36.89
	c0,0,22.898-26.912,56.611-31.402c28.558-3.795,40.074,2.691,53.431,10.771c21.834,13.184,32.44,40.361,32.44,40.361"/>
<path id="svg_98_1_" fill="none" stroke="#010101" stroke-width="3.5218" stroke-miterlimit="14.3" d="M437.148,56.625
	l-2.547,12.559c0,0-8.265-14.349-13.989-22.429c-5.727-8.075-19.086-19.729-40.707-20.631
	c-21.624-0.902-54.702,35.887-54.702,35.887L294.669,36.89c0,0,22.898-26.912,56.611-31.402
	c28.558-3.795,40.074,2.691,53.431,10.771c21.834,13.184,32.44,40.361,32.44,40.361L437.148,56.625z"/>
<path id="svg_99_1_" fill="#FFFFFF" d="M329.019,49.445c0,0-9.542,32.3-11.452,41.268c-1.907,8.968-18.445,17.942-18.445,17.942
	l-26.719-15.255l1.91-65.486l25.446,0.9l29.262,20.626"/>
<path id="svg_100_1_" fill="none" stroke="#010101" stroke-width="3.5218" stroke-miterlimit="14.3" d="M317.569,90.708
	c-1.907,8.969-18.445,17.942-18.445,17.942l-26.718-15.255l1.909-65.486l25.447,0.9l29.259,20.631c0,0-9.541,32.291-11.45,41.263
	L317.569,90.708z"/>
<polyline id="svg_105_1_" fill="#010101" points="320.749,45.848 325.2,54.833 302.948,93.403 294.037,88.015 302.298,43.167 
	320.749,45.848 "/>
<polygon id="svg_106_1_" fill="none" stroke="#010101" stroke-width="3.5218" stroke-miterlimit="11.5" points="325.2,54.833 
	302.948,93.403 294.037,88.015 302.298,43.167 320.749,45.848 "/>
<path id="svg_107_1_" fill="#FFFFFF" d="M326.479,64.695c1.271,0,1.273-12.564,1.273-12.564s23.531-26.911,54.698-29.601
	c31.17-2.691,49.619,27.808,52.163,35.885c2.544,8.071-4.453,13.455-4.453,13.455s-13.011-31.795-41.003-37.175
	c-27.98-5.401-62.677,29.99-62.677,29.99"/>
<path id="svg_108_1_" fill="none" stroke="#010101" stroke-width="2.6409" stroke-miterlimit="14.3" d="M326.479,64.695
	c1.271,0,1.273-12.564,1.273-12.564s23.531-26.911,54.698-29.601c31.17-2.691,49.619,27.808,52.163,35.885
	c2.544,8.071-4.453,13.455-4.453,13.455s-13.011-31.795-41.003-37.175c-27.98-5.401-62.677,29.99-62.677,29.99L326.479,64.695z"/>
<path id="svg_109_1_" fill="#FFFFFF" d="M328.39,51.237c0,0-10.18,51.133-10.817,54.722c-0.634,3.591-3.818,2.69-3.818,2.69
	s-10.173,0-13.354-0.898c-3.181-0.895-1.912-8.966-1.912-8.966l8.271-50.241l21.632,2.682"/>
<path id="svg_110_1_" fill="none" stroke="#010101" stroke-width="3.5218" stroke-miterlimit="14.3" d="M328.39,51.237
	c0,0-10.18,51.133-10.817,54.722c-0.634,3.591-3.818,2.69-3.818,2.69s-10.173,0-13.354-0.898c-3.181-0.895-1.912-8.966-1.912-8.966
	l8.271-50.241l21.632,2.682L328.39,51.237z"/>
<path id="svg_111_1_" fill="#FFFFFF" d="M304.356,88.642c0.891-5.537,4.024-9.263,7-8.315c2.977,0.955,4.669,6.219,3.78,11.75
	c-0.889,5.533-4.02,9.259-6.997,8.31c-2.977-0.942-4.673-6.2-3.783-11.732"/>
<path id="svg_112_1_" fill="none" stroke="#010101" stroke-width="2.6409" stroke-miterlimit="14.3" d="M311.348,80.342
	c2.978,0.949,4.671,6.208,3.784,11.746c-0.887,5.538-4.02,9.257-6.996,8.308c-2.978-0.948-4.672-6.207-3.785-11.744
	C305.239,83.114,308.371,79.393,311.348,80.342z"/>
<path id="svg_113_1_" fill="#FFFFFF" d="M309.493,62.379c0.612-5.155,3.354-8.808,6.118-8.16c2.764,0.649,4.515,5.357,3.909,10.512
	c-0.613,5.156-3.348,8.809-6.117,8.161c-2.763-0.653-4.516-5.361-3.913-10.515"/>
<path id="svg_114_1_" fill="none" stroke="#010101" stroke-width="2.6409" stroke-miterlimit="14.3" d="M315.607,54.162
	c2.769,0.65,4.521,5.356,3.912,10.513c-0.608,5.157-3.345,8.811-6.114,8.16c-2.77-0.65-4.521-5.356-3.913-10.513
	C310.1,57.166,312.837,53.511,315.607,54.162z"/>
<path id="svg_115_1_" fill="#FFFFFF" d="M251.423,99.681c0,0-19.08-4.48-22.261-8.968c-3.184-4.487-1.912-9.867-1.912-9.867
	s3.179-42.167,5.091-50.238c1.907-8.074,17.172-15.251,17.172-15.251s2.546-1.79,6.362-2.69c3.815-0.902,6.995,0,6.995,0
	l17.176,6.278"/>
<g>
	<path id="svg_116_1_" fill="none" stroke="#010101" stroke-width="3.5218" stroke-miterlimit="14.3" d="M251.423,99.681
		c0,0-19.08-4.48-22.261-8.968c-3.184-4.487-1.912-9.867-1.912-9.867s3.179-42.167,5.091-50.238
		c1.907-8.074,17.172-15.251,17.172-15.251s2.546-1.79,6.362-2.69c3.815-0.902,6.995,0,6.995,0l17.176,6.278"/>
	
		<line id="svg_117_1_" fill="none" stroke="#010101" stroke-width="2.6409" stroke-miterlimit="14.3" x1="441.599" y1="50.334" x2="460.679" y2="74.557"/>
</g>
<path id="svg_118_1_" fill="#FFFFFF" d="M303.578,31.501c0-0.902-10.181,1.789-14.636,0.894c-4.45-0.894-2.546-6.28-2.546-6.28
	L273.04,14.45l4.453-1.79c0,0,12.085,0,15.267-0.901c3.181-0.889,11.45,6.281,12.724,10.767c1.29,4.498-1.892,8.985-1.892,8.985"/>
<path id="svg_119_1_" fill="none" stroke="#010101" stroke-width="3.5218" stroke-miterlimit="11.5" d="M285.756,12.667
	c0,0,4.452,2.69,8.907,7.175c4.45,4.487,3.818,9.869,3.818,9.869 M303.572,31.49c0-0.9-10.181,1.791-14.636,0.896
	c-4.451-0.896-2.546-6.28-2.546-6.28l-13.356-11.666l4.452-1.788c0,0,12.086,0,15.267-0.902c3.181-0.889,11.451,6.28,12.725,10.767
	c1.279,4.499-1.892,8.985-1.892,8.985L303.572,31.49z"/>
<path id="svg_120_1_" fill="#FFFFFF" d="M232.109,216.461c0.428,1.201-7.678,20.463-7.678,20.463s4.693,8.429,9.816,13.241
	c5.121,4.815,8.111,8.423,11.949,10.834c3.84,2.412,11.95,10.231,20.059,10.833c8.11,0.604,14.94-5.417,14.94-5.417
	s-5.551,3.014-11.527,0c-5.977-3.004-15.795-19.866-21.766-27.085c-5.989-7.219-15.799-22.861-15.799-22.861"/>
<path id="svg_121_1_" fill="none" stroke="#010101" stroke-width="3.5218" stroke-linejoin="round" stroke-miterlimit="11.5" d="
	M232.109,216.461c0.428,1.201-7.678,20.463-7.678,20.463s4.693,8.429,9.816,13.241c5.121,4.815,8.111,8.423,11.949,10.834
	c3.84,2.412,11.95,10.231,20.059,10.833c8.11,0.604,14.94-5.417,14.94-5.417s-5.551,3.014-11.527,0
	c-5.977-3.004-15.795-19.866-21.766-27.085c-5.989-7.219-15.799-22.861-15.799-22.861L232.109,216.461z"/>
<path id="svg_124_1_" fill="#FFFFFF" d="M252.777,72.817c0,0,12.72-18.669,18.403-25.445c5.688-6.784,14.529-14.106,18.475-12.988
	c3.946,1.118,5.589,9.69,7.639,15.481c3.323,9.396,2.277,14.245,2.35,19.474c0.074,5.227-10.426,11.22-17.767,16.659
	c-7.34,5.44-14.37,10.099-14.37,10.099l-14.733-23.28"/>
<path id="svg_125_1_" fill="none" stroke="#010101" stroke-width="3.5218" stroke-miterlimit="11.5" d="M271.181,47.378
	c5.689-6.782,14.528-14.105,18.475-12.988c3.947,1.118,5.589,9.69,7.639,15.481c3.323,9.396,2.277,14.245,2.35,19.474
	c0.074,5.226-10.426,11.22-17.767,16.659c-7.341,5.44-14.37,10.099-14.37,10.099l-14.729-23.282
	c0-0.013,12.721-18.677,18.404-25.451L271.181,47.378z"/>
<polyline id="svg_126_1_" fill="#FFFFFF" points="244.348,83.698 231.303,79.265 234.808,42.827 247.862,47.248 "/>
<polygon id="svg_127_1_" fill="none" stroke="#010101" stroke-width="2.6409" stroke-miterlimit="14.3" points="244.348,83.698 
	231.303,79.265 234.808,42.827 247.862,47.248 "/>
<path id="svg_128_1_" fill="#FFFFFF" d="M278.766,27.904c0-1.79-6.36,58.315-6.362,58.315l-12.722,13.458
	c0,0-3.818,0.894-6.999,0.894c-3.183,0-5.088-8.972-5.088-8.972l3.817-37.674c0,0,0.633-10.766,3.817-16.146
	c3.18-5.386,6.361-8.076,6.361-8.076s13.996-9.869,17.176-8.971c3.189,0.916,0,7.193,0,7.193"/>
<path id="svg_129_1_" fill="none" stroke="#010101" stroke-width="2.6409" stroke-miterlimit="14.3" d="M209.059,435.558
	c0,1.802-6.402,4.811-6.402,4.811s3.412,1.811,17.924,2.416c14.511,0.601,32.434-10.24,42.678-13.846
	c10.243-3.611,21.338-21.063,25.606-28.287c4.268-7.225,20.911-15.045,20.911-15.045l0.428-7.225c0,0-17.07,9.628-23.473,16.85
	c-6.399,7.226-16.644,19.255-42.251,32.502c-13.657,7.063-35.409,7.82-35.409,7.82L209.059,435.558z M323.93,13.57
	c0,0,5.725,0,15.266,6.276c9.542,6.277,10.18,13.456,10.18,13.456 M278.769,27.914c0-1.791-6.359,58.314-6.36,58.314l-12.722,13.458
	c0,0-3.819,0.894-6.998,0.894c-3.184,0-5.09-8.97-5.09-8.97l3.817-37.675c0,0,0.634-10.766,3.819-16.146
	c3.179-5.386,6.359-8.076,6.359-8.076s13.997-9.869,17.176-8.972c3.171,0.903-0.01,7.181-0.01,7.181L278.769,27.914z"/>
<path id="svg_130_1_" fill="#FFFFFF" d="M451.288,51.812c0.396-2.409,3.629-3.427,7.223-2.262c3.596,1.165,6.192,4.066,5.8,6.483
	c-0.395,2.412-3.63,3.43-7.221,2.262c-3.599-1.164-6.194-4.067-5.804-6.487"/>
<path id="svg_131_1_" fill="none" stroke="#010101" stroke-width="3.5218" stroke-miterlimit="11.5" d="M458.497,49.554
	c3.599,1.165,6.193,4.067,5.801,6.48c-0.394,2.414-3.627,3.425-7.223,2.261c-3.598-1.166-6.193-4.067-5.799-6.48
	C451.668,49.4,454.902,48.387,458.497,49.554z"/>
<path id="svg_132_1_" fill="#D7D7D7" d="M380.674,415.978l35.955-2.162c4.523-0.271,8.421,5.226,8.632,12.183l3.734,123.893
	c0.217,6.948-3.338,12.895-7.868,13.167l-71.904,4.318c-4.527,0.269-8.423-5.228-8.633-12.183l-3.74-123.885
	c-0.206-6.953,3.345-12.901,7.872-13.172l35.947-2.159"/>
<g>
	<path id="svg_133_1_" fill="#FFFFFF" stroke="#010101" stroke-width="3.5218" stroke-miterlimit="11.5" d="M380.674,415.978
		l35.955-2.162c4.523-0.271,8.421,5.226,8.632,12.183l3.734,123.893c0.217,6.948-3.338,12.895-7.868,13.167l-71.904,4.318
		c-4.527,0.269-8.423-5.228-8.633-12.183l-3.74-123.885c-0.206-6.953,3.345-12.901,7.872-13.172l35.947-2.159H380.674z"/>
	<path id="svg_134_1_" fill="#FFFFFF" d="M284.82,177.055c0,0-1.908,9.872-3.5,16.152c-1.593,6.28,2.86,17.94,2.86,17.94
		l13.042,1.346c0,0,3.818-4.938,4.135-18.393c0.318-13.456-4.77-16.146-4.77-16.146l-11.775-0.916"/>
</g>
<path id="svg_135_1_" fill="none" stroke="#010101" stroke-width="2.6409" stroke-miterlimit="14.3" d="M281.315,193.194
	c-1.594,6.28,2.86,17.94,2.86,17.94l13.043,1.346c0,0,3.818-4.938,4.134-18.393c0.318-13.456-4.77-16.146-4.77-16.146l-11.768-0.902
	c0,0.015-1.91,9.875-3.505,16.154L281.315,193.194z"/>
<path id="svg_136_1_" fill="#797979" d="M289.392,129.957c0,0-1.784,7.118-3.269,11.654c-1.484,4.524,2.677,12.941,2.677,12.941
	l12.183,0.971c0,0,3.568-3.558,3.867-13.27c0.293-9.707-4.459-11.651-4.459-11.651l-11.005-0.627"/>
<path id="svg_137_1_" fill="#FFFFFF" stroke="#010101" stroke-width="3.5218" stroke-miterlimit="11.5" d="M286.128,141.611
	c-1.484,4.524,2.676,12.941,2.676,12.941l12.183,0.971c0,0,3.569-3.558,3.867-13.27c0.294-9.707-4.459-11.651-4.459-11.651
	l-10.999-0.645c-0.01,0.015-1.791,7.129-3.274,11.667L286.128,141.611z"/>
<path id="svg_138_1_" fill="#797979" d="M282.261,142.579c0-6.795,2.929-12.299,6.539-12.299c3.61,0,6.538,5.504,6.538,12.299
	c0,6.782-2.926,12.294-6.538,12.294c-3.607,0-6.537-5.506-6.537-12.294"/>
<ellipse id="svg_139_1_" fill="none" stroke="#010101" stroke-width="3.5218" stroke-miterlimit="11.5" cx="288.816" cy="142.579" rx="6.537" ry="12.295"/>
<path id="svg_142_1_" fill="#FFFFFF" d="M277.18,194.541c0-9.409,3.138-17.038,7-17.041c3.86,0,6.995,7.631,6.995,17.041
	c0,9.407-3.133,17.047-6.995,17.047c-3.858,0.014-7-7.637-7-17.041"/>
<path id="svg_143_1_" fill="none" stroke="#010101" stroke-width="2.6409" stroke-miterlimit="14.3" d="M284.181,177.5
	c3.861,0,6.995,7.631,6.995,17.041c0,9.407-3.133,17.047-6.995,17.047c-3.863,0-7-7.64-7-17.047
	C277.181,185.138,280.324,177.5,284.181,177.5L284.181,177.5z"/>
<path id="svg_146_1_" fill="#FFFFFF" d="M275.585,122.778c0,0-1.907,9.864-3.501,16.146c-1.59,6.276,2.862,17.94,2.862,17.94
	l13.042,1.344c0,0,3.82-4.935,4.135-18.391c0.317-13.456-4.771-16.149-4.771-16.149l-11.766-0.903"/>
<path id="svg_147_1_" fill="none" stroke="#010101" stroke-width="3.5218" stroke-miterlimit="11.5" d="M272.08,138.93
	c-1.589,6.276,2.863,17.94,2.863,17.94l13.042,1.344c0,0,3.82-4.936,4.135-18.391c0.317-13.456-4.771-16.149-4.771-16.149
	l-11.769-0.892c0-0.014-1.909,9.848-3.505,16.139L272.08,138.93z"/>
<path id="svg_148_1_" fill="#FFFFFF" d="M267.946,140.277c0-9.406,3.133-17.044,6.997-17.047c3.863,0,7.001,7.641,7.001,17.047
	c0,9.41-3.139,17.042-7.001,17.042c-3.867,0-7.001-7.639-7.001-17.042"/>
<ellipse id="svg_149_1_" fill="none" stroke="#010101" stroke-width="3.5218" stroke-miterlimit="11.5" cx="274.955" cy="140.277" rx="6.999" ry="17.042"/>
<path id="svg_150_1_" fill="#010101" d="M405.161,447.445c-1.145-1.608-15.465,22.62-15.465,22.62l-38.939,1.611
	c0,0-5.154,0-6.872,3.229c-1.717,3.232,0.572,10.503,0.572,10.503l4.01,0.807v8.07l54.4-2.422l6.879,4.041l4.004-5.65l4.012,4.84
	c0,0,16.608-1.613,19.472-3.231c2.862-1.611,1.718-8.079,1.718-8.079s-0.575-28.259-1.718-33.911
	c-1.146-5.658-6.876-1.618-12.03-1.618s-20.045-0.811-20.045-0.811"/>
<g>
	<path id="svg_151_1_" fill="#FFFFFF" stroke="#010101" stroke-width="3.5218" stroke-miterlimit="11.5" d="M405.161,447.445
		c-1.145-1.608-15.465,22.62-15.465,22.62l-38.939,1.611c0,0-5.154,0-6.872,3.229c-1.717,3.232,0.572,10.503,0.572,10.503
		l4.01,0.807v8.07l54.4-2.422l6.879,4.041l4.004-5.65l4.012,4.84c0,0,16.608-1.613,19.472-3.231
		c2.862-1.611,1.718-8.079,1.718-8.079s-0.575-28.259-1.718-33.911c-1.146-5.658-6.876-1.618-12.03-1.618
		s-20.045-0.811-20.045-0.811L405.161,447.445z"/>
	<path id="svg_152_1_" fill="none" stroke="#010101" stroke-width="2.6409" stroke-miterlimit="14.3" d="M151.026,235.124
		c0,0-2.562,4.819-4.27,17.463c-1.713,12.63-0.854,19.254,0,33.102c0.853,13.835-3.418,29.491-4.698,41.531
		c-1.281,12.039,2.133,16.851,2.133,16.851"/>
</g>
<path id="svg_153_1_" fill="#FFFFFF" d="M258.571,386.8c-7.258,6.619-19.209,22.87-25.182,30.696
	c-5.977,7.829-17.5,15.045-17.5,15.045"/>
<path id="svg_154_1_" fill="none" stroke="#010101" stroke-width="3.5218" stroke-miterlimit="11.5" d="M258.571,386.8
	c-7.258,6.619-19.209,22.87-25.182,30.696c-5.977,7.829-17.5,15.045-17.5,15.045"/>
<path id="svg_155_1_" fill="#FFFFFF" d="M282.038,265.232c-6.827,6.009-14.083-2.407-14.083-2.407s9.39,1.195,11.953-4.221
	c2.556-5.418,17.493-33.099,19.204-39.124c1.709-6.016-0.855-16.245-0.855-16.245s6.833,4.812,7.686,13.841
	c0.85,9.03-3.414,11.43-6.405,17.455c-2.986,6.004-17.497,30.697-17.497,30.697"/>
<path id="svg_156_1_" fill="none" stroke="#010101" stroke-width="3.5218" stroke-miterlimit="11.5" d="M282.038,265.232
	c-6.827,6.009-14.083-2.407-14.083-2.407s9.39,1.195,11.953-4.221c2.556-5.418,17.493-33.099,19.204-39.124
	c1.709-6.016-0.855-16.245-0.855-16.245s6.833,4.812,7.686,13.841c0.85,9.03-3.414,11.43-6.405,17.455
	c-2.986,6.004-17.497,30.697-17.497,30.697L282.038,265.232z"/>
<path id="svg_157_1_" fill="#FFFFFF" d="M306.359,214.657c0,0,1.707-9.03-4.694-18.057c-6.407-9.026-5.975-15.049-10.247-24.076
	c-4.267-9.029-4.267-24.077-4.267-24.077l-8.537-0.603l-3.413,9.028c0,0,4.693,10.839,8.536,18.658
	c3.84,7.827,7.68,21.07,14.085,27.091c6.397,6.042,8.531,12.058,8.531,12.058"/>
<path id="svg_158_1_" fill="none" stroke="#010101" stroke-width="3.5218" stroke-miterlimit="11.5" d="M306.359,214.657
	c0,0,1.707-9.03-4.694-18.057c-6.407-9.026-5.975-15.049-10.247-24.076c-4.267-9.029-4.267-24.077-4.267-24.077l-8.537-0.603
	l-3.413,9.028c0,0,4.693,10.839,8.536,18.658c3.84,7.827,7.68,21.07,14.085,27.091c6.397,6.042,8.531,12.058,8.531,12.058
	L306.359,214.657z"/>
<path id="svg_159_1_" fill="#FFFFFF" d="M287.166,149.655c0,0,1.708-6.624-8.961-14.452c-4.028-2.945-2.561-2.4-8.113,0.604
	c-5.545,3.009-11.948,1.808-20.484,3.009c-8.537,1.204-11.951-4.814-11.951-4.814l-7.255,19.866c0,0,7.255,5.416,14.083,6.617
	c6.828,1.207,11.953,0,14.087-0.597c2.132-0.601,12.634-1.326,17.071-6.02c6.823-7.219,11.524-4.211,11.524-4.211"/>
<path id="svg_160_1_" fill="none" stroke="#010101" stroke-width="3.5218" stroke-miterlimit="11.5" d="M263.689,138.446
	l-0.854-3.248h-6.403c-2.564,0-4.691,1.627-4.691,1.627s-1.286,18.923-1.286,22.17c0,3.244,1.708,4.866,5.978,4.328
	c4.272-0.545,5.124,0.538,6.831-1.084c1.707-1.619,0.853-4.868,0.853-4.868 M287.157,149.655c0,0,1.707-6.624-8.962-14.452
	c-4.029-2.945-2.562-2.4-8.113,0.604c-5.545,3.009-11.949,1.808-20.485,3.009c-8.537,1.204-11.951-4.814-11.951-4.814l-7.256,19.866
	c0,0,7.256,5.416,14.085,6.617c6.83,1.207,11.952,0,14.087-0.597c2.131-0.601,12.633-1.326,17.07-6.02
	c6.843-7.219,11.534-4.211,11.534-4.211L287.157,149.655z"/>
<path id="svg_161_1_" fill="#FFFFFF" d="M340.451,288.33c0,0-6.876,43.609-8.021,49.258c-1.147,5.659,1.145,8.891,1.145,8.891
	l6.876,12.921"/>
<path id="svg_162_1_" fill="none" stroke="#010101" stroke-width="3.5218" stroke-miterlimit="11.5" d="M340.451,288.33
	c0,0-6.876,43.609-8.021,49.258c-1.147,5.659,1.145,8.891,1.145,8.891l6.876,12.921"/>
<path id="svg_165_1_" fill="#919191" d="M305.942,220.672c0-4.983,2.1-9.03,4.693-9.03c2.593,0,4.697,4.043,4.697,9.03
	c0,4.984-2.104,9.03-4.697,9.03c-2.593,0-4.691-4.042-4.691-9.025"/>
<g>
	
		<ellipse id="svg_166_1_" fill="#FFFFFF" stroke="#010101" stroke-width="3.5218" stroke-miterlimit="11.5" cx="310.633" cy="220.673" rx="4.696" ry="9.03"/>
	<path id="svg_172_1_" fill="#FFFFFF" d="M352.246,357.307l20.111-1.208c2.533-0.151,4.71,2.718,4.817,6.362l1.958,64.833
		c0.105,3.644-1.884,6.757-4.42,6.911l-40.223,2.419c-2.534,0.146-4.709-2.725-4.818-6.357l-1.954-64.837
		c-0.108-3.642,1.884-6.767,4.414-6.911l20.122-1.229"/>
</g>
<path id="svg_173_1_" fill="none" stroke="#010101" stroke-width="2.6409" stroke-miterlimit="14.3" d="M352.246,357.307
	l20.111-1.208c2.533-0.151,4.71,2.718,4.817,6.362l1.958,64.833c0.105,3.644-1.884,6.757-4.42,6.911l-40.223,2.419
	c-2.534,0.146-4.709-2.725-4.818-6.357l-1.954-64.837c-0.108-3.642,1.884-6.767,4.414-6.911l20.122-1.229L352.246,357.307z"/>
<path id="svg_174_1_" fill="#B3B4B4" d="M415.657,288.997l20.116-1.217c2.534-0.149,4.706,2.719,4.816,6.363l0.287,9.438
	c0.108,3.634-1.888,6.768-4.42,6.917l-40.23,2.415c-2.528,0.152-4.704-2.726-4.812-6.361l-0.284-9.44
	c-0.111-3.635,1.883-6.755,4.413-6.908l20.102-1.216"/>
<path id="svg_175_1_" fill="none" stroke="#010101" stroke-width="3.5218" stroke-miterlimit="11.5" d="M415.657,288.997
	l20.116-1.217c2.534-0.149,4.706,2.719,4.816,6.363l0.287,9.438c0.108,3.634-1.888,6.768-4.42,6.917l-40.23,2.415
	c-2.528,0.152-4.704-2.726-4.812-6.361l-0.284-9.44c-0.111-3.635,1.883-6.755,4.413-6.908l20.102-1.216L415.657,288.997z"/>
<polyline id="svg_176_1_" fill="#FFFFFF" points="433.319,363.414 392.115,364.943 390.919,301.159 432.143,299.629 "/>
<polygon id="svg_177_1_" fill="none" stroke="#010101" stroke-width="3.5218" stroke-miterlimit="11.5" points="433.285,363.403 
	392.064,364.934 390.875,301.156 432.093,299.625 "/>
<path id="svg_184_1_" fill="#B3B4B4" d="M441.052,269.261c0.458-0.646,16.036,34.992,21.203,88.215
	c5.499,56.611,0.599,131.05,0.599,131.05s17.063,6.686,22.752,13.37c5.689,6.684,3.793,2.674,8.534,10.69
	c4.74,8.026,13.274,1.342,22.753,5.354c9.479,4.016,36.972,0,36.972,0l-10.426-105.628c0,0-13.269-4.004-21.806-14.702
	c-8.53-10.696-19.906-5.343-21.802-10.696c-1.895-5.347-3.793-5.347-3.793-5.347s-1.896-10.699-3.792-21.394
	c-1.896-10.699-2.846-14.703-4.741-26.743c-1.899-12.036-7.587-17.381-11.377-26.737c-3.791-9.358-2.842-16.043-11.374-26.74
	c-8.529-10.672-23.7-10.672-23.7-10.672"/>
<path id="svg_185_1_" fill="none" stroke="#010101" stroke-width="3.5218" stroke-miterlimit="11.5" d="M441.052,269.261
	c0.458-0.646,16.036,34.992,21.203,88.215c5.499,56.611,0.599,131.05,0.599,131.05s17.063,6.686,22.752,13.37
	c5.689,6.684,3.793,2.674,8.534,10.69c4.74,8.026,13.274,1.342,22.753,5.354c9.479,4.016,36.972,0,36.972,0l-10.426-105.628
	c0,0-13.269-4.004-21.806-14.702c-8.53-10.696-19.906-5.343-21.802-10.696c-1.895-5.347-3.793-5.347-3.793-5.347
	s-1.896-10.699-3.792-21.394c-1.896-10.699-2.846-14.703-4.741-26.743c-1.899-12.036-7.587-17.381-11.377-26.737
	c-3.791-9.358-2.842-16.043-11.374-26.74c-8.529-10.672-23.7-10.672-23.7-10.672L441.052,269.261z"/>
<path id="svg_186_1_" fill="#656565" d="M417.753,352.127c0,0,24.052-4.037,31.5-0.808c7.441,3.232,7.441,17.772,7.441,17.772
	s4.009,41.996,1.717,47.65c-2.289,5.658-6.298,8.888-10.879,10.501c-4.58,1.614-31.501,0.806-31.501,0.806"/>
<g>
	<path id="svg_187_1_" fill="#FFFFFF" stroke="#010101" stroke-width="3.5218" stroke-miterlimit="11.5" d="M417.753,352.127
		c0,0,24.052-4.037,31.5-0.808c7.441,3.232,7.441,17.772,7.441,17.772s4.009,41.996,1.717,47.65
		c-2.289,5.658-6.298,8.888-10.879,10.501c-4.58,1.614-31.501,0.806-31.501,0.806"/>
	<path id="svg_196_1_" fill="#FFFFFF" d="M415.758,412.538l-8.78-66.598c0,0,12.96-4.715,16.303-3.537
		c3.345,1.176,5.014,7.663,5.014,7.663l1.257,28.872l-13.788,33.587"/>
</g>
<path id="svg_197_1_" fill="none" stroke="#010101" stroke-width="3.5218" stroke-miterlimit="11.5" d="M406.978,345.941
	c0,0,12.96-4.713,16.303-3.537c3.345,1.178,5.014,7.664,5.014,7.664l1.255,28.871l-13.791,33.599l-8.78-66.609V345.941z"/>
<path id="svg_198_1_" fill="#FFFFFF" d="M358.876,447.799l-0.624-105.411c0,0-8.096-1.315-13.083,4.389
	c-4.979,5.716-4.672,12.741-4.672,12.741l1.557,77.308c0,0,1.251,5.261,3.116,8.338c1.868,3.079,7.791,3.52,7.791,3.52l5.916-0.875"
	/>
<path id="svg_199_1_" fill="none" stroke="#010101" stroke-width="3.5218" stroke-miterlimit="11.5" d="M358.876,447.799
	l-0.624-105.411c0,0-8.096-1.315-13.083,4.389c-4.979,5.716-4.672,12.741-4.672,12.741l1.557,77.308c0,0,1.251,5.261,3.116,8.338
	c1.868,3.079,7.791,3.52,7.791,3.52l5.916-0.875V447.799z"/>
<path id="svg_200_1_" fill="#FFFFFF" d="M394.017,453.2c0,0,6.684,7.071,6.684,11.192c0,4.129-5.85,4.129-5.85,4.129l-38.446-0.594
	c0,0-3.348,1.181-5.019-2.355c-0.415-3.537,2.091-6.48,2.091-6.48l9.193-11.794"/>
<path id="svg_201_1_" fill="none" stroke="#010101" stroke-width="2.6409" stroke-miterlimit="14.3" d="M394.017,453.2
	c0,0,6.684,7.071,6.684,11.192c0,4.129-5.85,4.129-5.85,4.129l-38.446-0.594c0,0-3.348,1.181-5.019-2.355
	c-0.415-3.537,2.091-6.48,2.091-6.48l9.193-11.794"/>
<polyline id="svg_203_1_" fill="#B3B4B4" points="377.698,306.901 366.116,307.502 365.422,279.854 377.001,279.252 "/>
<polygon id="svg_204_1_" fill="none" stroke="#010101" stroke-width="3.5218" stroke-miterlimit="11.5" points="377.676,306.893 
	366.092,307.477 365.392,279.824 376.974,279.24 "/>
<path id="svg_207_1_" fill="#797979" d="M651.462,589.09c-1.146,2.356,0-7.087-0.575-10.037c-0.572-2.951-8.019-3.545-8.019-3.545
	s-5.728,4.138-4.583,9.447c1.148,5.311,4.011,5.903,8.021,5.903c4.08,0.013,5.193-1.765,5.193-1.765"/>
<path id="svg_208_1_" fill="#B3B4B4" stroke="#010101" stroke-width="3.5218" stroke-miterlimit="11.5" d="M651.462,589.09
	c-1.146,2.356,0-7.087-0.575-10.037c-0.572-2.951-8.019-3.545-8.019-3.545s-5.728,4.138-4.583,9.447
	c1.148,5.311,4.011,5.903,8.021,5.903c4.08,0.013,5.193-1.765,5.193-1.765L651.462,589.09z"/>
<path id="svg_209_1_" fill="#797979" d="M659.525,600.572c-1.145,3.229,0-9.689-0.57-13.729c-0.574-4.04-8.02-4.848-8.02-4.848
	s-5.729,5.649-4.583,12.919c1.146,7.271,4.011,8.079,8.02,8.079s5.008-2.42,5.008-2.42"/>
<path id="svg_210_1_" fill="#B3B4B4" stroke="#010101" stroke-width="3.5218" stroke-miterlimit="11.5" d="M659.525,600.572
	c-1.145,3.229,0-9.689-0.57-13.729c-0.574-4.04-8.02-4.848-8.02-4.848s-5.729,5.649-4.583,12.919
	c1.146,7.271,4.011,8.079,8.02,8.079s5.008-2.42,5.008-2.42L659.525,600.572z"/>
<path id="svg_211_1_" fill="#797979" d="M669.819,591.666c0,0.817,4.011-5.652,6.872-10.49c2.861-4.849,1.72-16.968,0.574-21.811
	c-1.146-4.849-13.174-4.849-13.174-4.849l-7.446,38.769l1.717,8.082c0,0,5.729,0.809,9.738-1.613
	c3.893-2.42,1.667-8.082,1.667-8.082"/>
<g>
	<path id="svg_212_1_" fill="#B3B4B4" stroke="#010101" stroke-width="3.5218" stroke-miterlimit="11.5" d="M669.819,591.666
		c0,0.817,4.011-5.652,6.872-10.49c2.861-4.849,1.72-16.968,0.574-21.811c-1.146-4.849-13.174-4.849-13.174-4.849l-7.446,38.769
		l1.717,8.082c0,0,5.729,0.809,9.738-1.613c3.893-2.42,1.667-8.082,1.667-8.082L669.819,591.666z"/>
	<path id="svg_213_1_" fill="#B3B4B4" d="M532.928,425.316c1.143,0-1.721,3.24-2.865,8.89c-1.146,5.647-2.864,13.72-9.737,29.071
		c-6.871,15.349-1.716,25.847-3.435,42.799c-1.717,16.969,0,15.351,4.008,20.198c4.011,4.844,5.729,5.653,17.755,8.883
		c12.022,3.232,17.179,8.888,26.344,8.888c9.162,0,9.162,4.032,18.321,6.462c9.164,2.422,13.172-1.618,21.189-2.43
		c8.017-0.802,16.034,5.66,20.044,4.852c4.011-0.81,2.862,0.81,8.019,7.271c5.153,6.459,8.589,10.499,12.028,14.54
		c3.435,4.03,5.725,4.03,8.589,4.839c2.863,0.81,33.786,2.431,33.786,2.431s2.289-10.508,4.008-17.771
		c1.718-7.269-1.719-13.729-6.301-21.001c-4.575-7.27-4.575-6.46-9.161-8.079c-4.58-1.621,0-8.072-2.864-17.77
		c-2.863-9.691-8.589-12.111-15.461-15.341c-6.873-3.229-7.443-6.46-13.745-10.5c-6.299-4.04-6.869-12.114-9.733-20.193
		c-2.863-8.077-5.153-8.077-9.739-16.161c-4.578-8.068-12.021-8.068-22.903-15.34c-10.882-7.271-10.882-11.301-19.471-16.961
		c-8.589-5.649-24.623-12.109-30.348-14.54c-5.729-2.415-6.876,0-11.456,4.039c-4.532,4.054-6.823,12.936-6.823,12.936"/>
</g>
<path id="svg_214_1_" fill="none" stroke="#010101" stroke-width="5.2836" stroke-miterlimit="11.5" d="M530.063,434.197
	c-1.146,5.646-2.864,13.718-9.737,29.069c-6.868,15.349-1.714,25.847-3.435,42.8c-1.715,16.967,0,15.35,4.01,20.198
	c4.009,4.843,5.728,5.651,17.753,8.883c12.022,3.232,17.179,8.889,26.344,8.889c9.162,0,9.162,4.03,18.323,6.46
	c9.162,2.422,13.173-1.618,21.188-2.43c8.019-0.801,16.036,5.661,20.047,4.852c4.008-0.809,2.861,0.811,8.019,7.271
	c5.15,6.459,8.586,10.499,12.025,14.54c3.435,4.031,5.725,4.031,8.591,4.839c2.862,0.81,33.784,2.43,33.784,2.43
	s2.289-10.506,4.01-17.77c1.718-7.269-1.721-13.729-6.303-21.001c-4.573-7.27-4.573-6.461-9.159-8.077
	c-4.582-1.623,0-8.073-2.864-17.771c-2.865-9.692-8.591-12.112-15.463-15.341c-6.871-3.23-7.443-6.461-13.745-10.501
	c-6.299-4.041-6.868-12.114-9.731-20.192c-2.865-8.078-5.155-8.078-9.741-16.161c-4.578-8.07-12.02-8.07-22.901-15.341
	c-10.881-7.271-10.881-11.301-19.471-16.961c-8.591-5.649-24.625-12.109-30.35-14.54c-5.728-2.415-6.874,0-11.454,4.04
	c-4.582,4.042-6.873,12.921-6.873,12.921c1.197,0.04-1.669,3.271-2.817,8.921L530.063,434.197z"/>
<path id="svg_215_1_" fill="#ABABAB" d="M606.799,543.222c0,0-4.584-2.431-10.313,0c-5.729,2.422-2.864-5.649-3.436-12.919
	c-0.574-7.271,9.164,0,12.599,1.611c3.438,1.61,12.025,8.879,14.319,15.349c2.291,6.465,5.729,7.272,5.729,7.272"/>
<path id="svg_216_1_" fill="#B3B4B4" stroke="#010101" stroke-width="2.6409" stroke-miterlimit="14.3" d="M606.799,543.222
	c0,0-4.584-2.431-10.313,0c-5.729,2.422-2.864-5.649-3.436-12.919c-0.574-7.271,9.164,0,12.599,1.611
	c3.438,1.61,12.025,8.879,14.319,15.349c2.291,6.465,5.729,7.272,5.729,7.272"/>
<path id="svg_217_1_" fill="#ABABAB" d="M658.878,540.789c0,0,4.583,21.81,4.008,25.849c-0.573,4.037-6.976,6.775-13.169,9.688
	c-1.719,0.81,6.301,15.35,13.169,12.119c3.261-1.528,2.292-0.807,5.155-8.888c2.863-8.08-2.863-16.147-2.863-16.147
	s0-1.619,2.863-0.811c2.863,0.813,6.3,5.651,6.3,5.651s-1.146,8.889-4.011,12.929c-2.863,4.04-1.143,6.461,1.146,12.112
	c2.292,5.651,6.874,4.851,9.738,0c2.861-4.84,4.581-11.3,4.581-11.3l-2.863-4.851c0,0,1.717-7.27,2.863-12.111
	c1.147-4.849-2.29-8.078-6.303-15.35c-4.003-7.268-4.576-4.85-8.587-9.69c-4.008-4.849-8.021-5.655-8.021-5.655l-3.894,6.474"/>
<g>
	<path id="svg_218_1_" fill="#B3B4B4" stroke="#010101" stroke-width="3.5218" stroke-miterlimit="11.5" d="M669.262,561.794
		l6.302-16.959 M674.358,566.65l9.739-3.228 M673.807,575.533l8.021,0.809 M658.925,540.793c0,0,4.585,21.812,4.006,25.848
		c-0.57,4.038-6.976,6.776-13.167,9.688c-1.719,0.81,6.299,15.35,13.167,12.12c3.263-1.529,2.293-0.809,5.157-8.889
		c2.863-8.08-2.864-16.148-2.864-16.148s0-1.618,2.864-0.808c2.863,0.811,6.3,5.649,6.3,5.649s-1.147,8.888-4.01,12.928
		c-2.865,4.041-1.144,6.463,1.143,12.114c2.294,5.65,6.876,4.85,9.741,0c2.861-4.841,4.582-11.301,4.582-11.301l-2.865-4.85
		c0,0,1.717-7.271,2.865-12.112c1.145-4.849-2.291-8.078-6.301-15.35c-4.008-7.268-4.579-4.85-8.59-9.689
		c-4.009-4.85-8.021-5.657-8.021-5.657l-3.895,6.476L658.925,540.793z"/>
	<path id="svg_219_1_" fill="#B3B4B4" d="M646.268,492.333c-1.716,0,0-6.471-3.433-8.889c-3.436-2.419-5.727-3.23-5.727-3.23
		s-1.785,3.755-10.884,13.731c-5.154,5.66-9.737,12.929-12.601,20.198c-2.861,7.26-8.59,15.339-9.161,24.222
		c-0.571,8.887,0,12.117,6.873,16.157c6.872,4.03,10.307,1.611,10.307,1.611s-3.437,0-6.302-5.651c-2.862-5.661-0.57-4.04-0.57-4.04
		s1.145-5.661,5.155-12.931c4.009-7.26,6.297-8.878,13.174-19.37c6.915-10.488,13.175-21.788,13.175-21.788"/>
</g>
<path id="svg_220_1_" fill="none" stroke="#010101" stroke-width="2.6409" stroke-miterlimit="14.3" d="M501.44,387.52
	c0,0-4.581,9.269-7.447,17.689c-2.862,8.43-3.434,5.903-6.87,25.282c-3.436,19.374-2.865,18.527-4.579,34.543
	c-1.72,16.007,0.567,32.856,0.567,32.856l-8.589-5.055l-1.146-15.172c0,0,2.288-22.742,4.012-37.911
	c1.715-15.163,5.154-26.112,8.018-36.226c2.863-10.11,10.882-20.216,10.882-20.216 M655.44,521.423c0,0-1.722,11.31,0.572,21.001
	c2.292,9.688,2.292,7.271,5.155,13.729c2.863,6.461,3.435,8.07,3.435,8.07 M642.814,483.462c-3.435-2.418-5.728-3.23-5.728-3.23
	s-1.784,3.756-10.884,13.731c-5.153,5.661-9.734,12.929-12.599,20.2c-2.863,7.259-8.591,15.337-9.163,24.221
	c-0.57,8.885,0,12.117,6.873,16.157c6.873,4.03,10.308,1.61,10.308,1.61s-3.437,0-6.3-5.65c-2.862-5.66-0.572-4.042-0.572-4.042
	s1.146-5.658,5.155-12.93c4.008-7.258,6.298-8.877,13.175-19.367c6.868-10.511,13.165-21.811,13.165-21.811
	c-1.669,0.025,0.094-6.449-3.429-8.867L642.814,483.462z"/>
<path id="svg_227_1_" fill="#ABABAB" d="M379.782,340.082l27.585-1.654c3.471-0.208,6.45,3.527,6.594,8.277l2.547,84.565
	c0.143,4.75-2.599,8.827-6.068,9.033c0,0-7.829,13.128-14.514,21.117c-4.013,4.796-6.616,6.146-9.655,6.146
	c-2.527,0-5.378-0.297-9.655-3.511c-9.396-7.07-21.349-20.439-21.349-20.439c-3.474,0.208-6.447-3.528-6.592-8.279l-2.549-84.563
	c-0.146-4.744,2.595-8.827,6.07-9.034l27.574-1.662"/>
<path id="svg_228_1_" fill="#FFFFFF" stroke="#010101" stroke-width="3.5218" stroke-miterlimit="11.5" d="M407.367,338.422
	c3.471-0.209,6.45,3.526,6.594,8.276l2.547,84.565c0.143,4.752-2.599,8.827-6.068,9.032c0,0-7.829,13.131-14.514,21.119
	c-4.013,4.795-6.616,6.145-9.655,6.145c-2.527,0-5.378-0.297-9.655-3.509c-9.396-7.072-21.349-20.441-21.349-20.441
	c-3.474,0.209-6.447-3.527-6.592-8.278l-2.549-84.564c-0.146-4.744,2.595-8.827,6.07-9.036l27.586-1.655l27.577-1.66
	L407.367,338.422z"/>
<path id="svg_229_1_" fill="#4752A4" d="M379.125,451.985c0-5.454,2.998-9.88,6.694-9.88c3.7,0,6.698,4.426,6.698,9.88
	c0,5.46-2.998,9.887-6.698,9.887C382.12,461.872,379.125,457.438,379.125,451.985"/>
<path id="svg_230_1_" fill="none" stroke="#010101" stroke-width="2.6409" stroke-miterlimit="14.3" d="M385.819,442.097
	c3.7,0,6.698,4.426,6.698,9.878c0,5.463-2.998,9.888-6.698,9.888c-3.696,0-6.694-4.425-6.694-9.888c0-5.439,2.995-9.875,6.694-9.875
	V442.097z"/>
<path id="svg_231_1_" fill="#4AB749" d="M380.58,352.036l20.116-1.208c2.533-0.154,4.71,2.716,4.816,6.353l1.955,64.846
	c0.111,3.632-1.888,6.752-4.413,6.908l-40.23,2.411c-2.533,0.15-4.707-2.717-4.817-6.36l-1.954-64.834
	c-0.112-3.644,1.885-6.757,4.416-6.91l20.121-1.218"/>
<path id="svg_232_1_" fill="none" stroke="#010101" stroke-width="2.6409" stroke-miterlimit="14.3" d="M380.58,352.036
	l20.116-1.208c2.533-0.154,4.71,2.716,4.816,6.353l1.955,64.846c0.111,3.632-1.888,6.752-4.413,6.908l-40.23,2.411
	c-2.533,0.15-4.707-2.717-4.817-6.36l-1.954-64.834c-0.112-3.644,1.885-6.757,4.416-6.91l20.121-1.218L380.58,352.036z"/>
<path id="svg_233_1_" fill="#BE872C" d="M390.445,293.652h-47.138l1.555,45.677l48.542-3.955c0,0,6.213-9.179,9.17-12.104
	c2.961-2.914,2.072-17.939-0.589-20.029c-2.8-2.224-11.544-9.612-11.544-9.612"/>
<path id="svg_234_1_" fill="none" stroke="#010101" stroke-width="3.5218" stroke-miterlimit="11.5" d="M390.445,293.652h-47.138
	l1.555,45.677l48.542-3.955c0,0,6.213-9.179,9.17-12.104c2.961-2.914,2.072-17.939-0.589-20.029
	c-2.8-2.224-11.544-9.612-11.544-9.612L390.445,293.652z"/>
<path id="svg_235_1_" fill="#FFFFFF" d="M343.622,294.972l1.245,43.042c0,0,7.792-11.419,10.905-14.495
	c3.113-3.074,2.18-18.885-0.626-21.081c-2.949-2.302-11.525-7.468-11.525-7.468"/>
<path id="svg_236_1_" fill="none" stroke="#010101" stroke-width="2.6409" stroke-miterlimit="14.3" d="M344.864,338.015
	c0,0,7.791-11.419,10.906-14.495c3.113-3.074,2.178-18.885-0.626-21.081c-2.944-2.304-11.523-7.467-11.523-7.467l1.241,43.042
	H344.864z"/>
<polyline id="svg_237_1_" fill="#FFFFFF" points="328.37,389.311 312.876,391.586 310.838,364.082 326.321,361.793 "/>
<polygon id="svg_238_1_" fill="none" stroke="#010101" stroke-width="3.5218" stroke-miterlimit="11.5" points="328.323,389.327 
	312.835,391.614 310.794,364.092 326.282,361.805 "/>
<path id="svg_239_1_" fill="#B3B4B4" d="M357.679,290.526c0,0,0-15.321-0.835-18.867c-0.833-3.528-5.016-6.48-11.703-5.886
	c-6.691,0.585-7.106,8.835-7.106,8.835l1.252,17.681l18.385-1.765"/>
<path id="svg_240_1_" fill="none" stroke="#010101" stroke-width="3.5218" stroke-miterlimit="11.5" d="M357.679,290.526
	c0,0,0-15.321-0.835-18.867c-0.833-3.528-5.016-6.48-11.703-5.886c-6.691,0.585-7.106,8.835-7.106,8.835l1.252,17.681l18.385-1.765
	L357.679,290.526z"/>
<path id="svg_241_1_" fill="#FFFFFF" d="M279.526,480.313c-0.42,2.95,5.848,7.072,9.606,9.429
	c3.763,2.357,10.031,7.069,12.959,7.656c2.923,0.594,10.444-5.881,14.207-8.25c3.765-2.358,3.765-4.706,3.765-4.706
	s2.086-24.166,2.086-35.368c0-11.198-2.926-20.034-8.775-25.344c-5.854-5.297-16.717-1.763-24.242,5.31
	c-7.521,7.069-8.776,20.631-9.607,28.287c-0.834,7.678,0,22.992,0,22.992"/>
<path id="svg_242_1_" fill="none" stroke="#010101" stroke-width="3.5218" stroke-miterlimit="11.5" d="M279.526,480.313
	c-0.42,2.95,5.848,7.072,9.606,9.429c3.763,2.357,10.031,7.069,12.959,7.656c2.923,0.594,10.444-5.881,14.207-8.25
	c3.765-2.358,3.765-4.706,3.765-4.706s2.086-24.166,2.086-35.368c0-11.198-2.926-20.034-8.775-25.344
	c-5.854-5.297-16.717-1.763-24.242,5.31c-7.521,7.069-8.776,20.631-9.607,28.287c-0.834,7.678,0,22.992,0,22.992L279.526,480.313z"
	/>
<path id="svg_243_1_" fill="#695B25" d="M284.514,476.729c-0.32,2.438,4.54,5.855,7.453,7.809c2.918,1.95,7.777,5.858,10.043,6.342
	c2.269,0.497,8.1-4.876,11.016-6.828c2.915-1.952,2.915-3.913,2.915-3.913s1.621-20.021,1.621-29.297
	c0-9.275-2.268-16.601-6.803-21.002c-4.536-4.389-12.959-1.454-18.791,4.401c-5.833,5.859-6.803,17.085-7.455,23.438
	c-0.64,6.357,0.009,19.057,0.009,19.057"/>
<path id="svg_244_1_" fill="none" stroke="#010101" stroke-width="2.6409" stroke-miterlimit="14.3" d="M284.514,476.729
	c-0.32,2.438,4.54,5.855,7.453,7.809c2.918,1.95,7.777,5.858,10.043,6.342c2.269,0.497,8.1-4.876,11.016-6.828
	c2.915-1.952,2.915-3.913,2.915-3.913s1.621-20.021,1.621-29.297c0-9.275-2.268-16.601-6.803-21.002
	c-4.536-4.389-12.959-1.454-18.791,4.401c-5.833,5.859-6.803,17.085-7.455,23.438c-0.64,6.357,0.009,19.057,0.009,19.057
	L284.514,476.729z"/>
<path id="svg_245_1_" fill="#B3B4B4" d="M465.697,414.997c-0.945-1.342,1.898-29.412,0.952-48.135
	c-0.95-18.716-5.689-37.438-8.533-50.809c-2.845-13.369-15.17-32.084-16.121-44.113c-0.947-12.039-16.116-20.064-16.116-20.064
	s9.479,16.048,9.479,26.739c0,10.698,9.481,20.055,13.278,32.093c3.787,12.03,10.425,26.742,12.321,49.47
	c1.892,22.718,4.739,54.813,4.739,54.813"/>
<path id="svg_246_1_" fill="none" stroke="#010101" stroke-width="2.6409" stroke-miterlimit="14.3" d="M161.411,620.896
	l8.531-181.834 M214.493,441.744l2.843,13.371v25.408c0,0,1.896,21.395,4.737,38.768c2.846,17.382,0.952,18.725-0.945,36.098
	c-1.896,17.382,0.945,29.422,4.737,40.111c3.798,10.701,2.584,25.118,2.584,25.118s8.044-1.41,10.754,0l-2.908-5.056
	c0,0-2.844-21.394-5.688-40.111c-2.844-18.72-0.946-28.08,0-44.121c0.948-16.052-3.792-18.724-5.69-40.11
	c-1.895-21.395-1.895-49.476-1.895-49.476 M465.716,415.01c-0.947-1.341,1.899-29.412,0.949-48.135
	c-0.946-18.717-5.688-37.438-8.532-50.809c-2.845-13.369-15.169-32.083-16.12-44.113c-0.946-12.039-16.115-20.064-16.115-20.064
	s9.479,16.048,9.479,26.739c0,10.698,9.482,20.055,13.279,32.093c3.785,12.03,10.425,26.743,12.32,49.47
	c1.893,22.73,4.739,54.826,4.739,54.826V415.01z"/>
<path id="svg_247_1_" fill="#CADB2A" d="M399.05,525.513c0-7.83,4.116-14.183,9.192-14.183c5.071,0,9.189,6.353,9.189,14.183
	c0,7.828-4.118,14.188-9.189,14.188c-5.071,0.014-9.19-6.355-9.19-14.177"/>
<path id="svg_248_1_" fill="none" stroke="#010101" stroke-width="2.6409" stroke-miterlimit="14.3" d="M408.239,511.323
	c5.071,0,9.188,6.354,9.188,14.184c0,7.827-4.117,14.188-9.188,14.188c-5.073,0-9.191-6.36-9.191-14.188
	c0-7.821,4.117-14.177,9.189-14.177L408.239,511.323z"/>
<path id="svg_249_1_" fill="#E74125" d="M377.698,527.658c0-4.853,2.921-8.793,6.52-8.793s6.52,3.938,6.52,8.793
	c0,4.848-2.92,8.791-6.52,8.791c-3.588,0-6.518-3.951-6.518-8.79"/>
<ellipse id="svg_250_1_" fill="none" stroke="#010101" stroke-width="2.6409" stroke-miterlimit="14.3" cx="384.215" cy="527.658" rx="6.521" ry="8.791"/>
<path id="svg_251_1_" fill="#CADB2A" d="M350.985,528.012c0-7.828,4.113-14.178,9.189-14.178c5.072,0,9.193,6.35,9.193,14.178
	c0,7.826-4.121,14.189-9.193,14.189C355.092,542.214,350.985,535.846,350.985,528.012"/>
<path id="svg_252_1_" fill="none" stroke="#010101" stroke-width="2.6409" stroke-miterlimit="14.3" d="M360.174,513.835
	c5.072,0,9.192,6.35,9.192,14.178c0,7.827-4.12,14.19-9.192,14.19c-5.076,0-9.189-6.363-9.189-14.19
	C350.984,520.191,355.091,513.836,360.174,513.835L360.174,513.835z"/>
<linearGradient id="svg_253_2_" gradientUnits="userSpaceOnUse" x1="62.2773" y1="-98.4238" x2="344.5654" y2="-98.4238" gradientTransform="matrix(1 0 0 -1 119.04 554.3398)">
	<stop  offset="0.3011" style="stop-color:#FFFFFF"/>
	<stop  offset="1" style="stop-color:#B3B4B5"/>
</linearGradient>
<path id="svg_253_1_" fill="url(#svg_253_2_)" d="M203.514,605.855c1.274-0.896-4.582,9.503-7.396,22.603
	c-1.275,5.954,1.912,13.402-0.057,18.958c-2.096,5.93-4.563,11.027-7.334,14.068c-8.025,8.812-7.398,38.241-7.398,38.241h282.276
	l-4.936-26.067c0,0,3.698-27.817,3.698-39.989c0-12.166-8.629-22.591-8.629-22.591s-33.278,12.159-43.14,12.159
	c-9.86,0-39.446,6.956-51.771,6.956c-12.329,0-50.54-3.47-64.097-3.47c-13.561,0-44.378-8.695-60.397-8.695
	c-16.026,0-30.818-12.174-30.818-12.174"/>
<g>
	<path id="svg_254_1_" fill="none" stroke="#010101" stroke-width="3.5218" stroke-miterlimit="11.5" d="M203.514,605.855
		c1.274-0.896-4.582,9.503-7.396,22.603c-1.275,5.954,1.912,13.402-0.057,18.958c-2.096,5.93-4.563,11.027-7.334,14.068
		c-8.025,8.812-7.398,38.241-7.398,38.241h282.276l-4.936-26.067c0,0,3.698-27.817,3.698-39.989c0-12.166-8.629-22.591-8.629-22.591
		s-33.278,12.159-43.14,12.159c-9.86,0-39.446,6.956-51.771,6.956c-12.329,0-50.54-3.47-64.097-3.47
		c-13.561,0-44.378-8.695-60.397-8.695c-16.026,0-30.818-12.174-30.818-12.174L203.514,605.855z"/>
	<path id="svg_255_1_" fill="none" stroke="#010101" stroke-width="2.6409" stroke-miterlimit="14.3" d="M199.824,623.237
		c0,0,11.199,5.223,17.422,6.956c6.224,1.738,19.913,0,31.119,0c11.198,0,36.09,10.439,54.757,12.174
		c18.669,1.738,36.092,1.738,54.762,1.738c18.67,0,41.076-1.738,58.498-6.958c17.421-5.216,39.821-15.644,39.821-15.644"/>
	<path id="svg_256_1_" fill="none" stroke="#010101" stroke-width="3.5218" stroke-miterlimit="11.5" d="M214.622,701.463
		c0,0,1.236-19.108,1.236-29.537c0-10.438,4.933-15.647,4.933-15.647l8.629-1.737c0,0-2.469,6.946-3.7,19.119
		c-1.235,12.174,0,27.804,0,27.804 M194.89,649.318c0,0,11.63,5.207,18.097,6.954c6.46,1.738,20.681-3.478,32.31-3.478
		c11.633,0,36.212,6.953,55.598,8.689c19.387,1.738,39.779,0,59.166,0c19.388,0,41.621,3.484,59.715-1.736
		c18.094-5.219,41.356-12.166,41.356-12.166"/>
</g>
<path id="svg_265_1_" fill="#FFFFFF" d="M209.43,172.346c-0.636-1.8-1.908,17.94-1.908,17.94s8.267-2.694,10.18-8.076
	c1.91-5.38,3.183-14.353,3.183-14.353s-2.548,2.689-6.364,4.489c-3.811,1.804-5.09,0.013-5.09,0.013"/>
<path id="svg_46_2_" fill="#010101" d="M211.96,229.71c0,0-9.917-0.251-16.834,12.557c-6.922,12.809-5.085,19.107-7.532,29.324
	c-2.449,10.211-7.3,17.002-7.527,29.325c-0.223,12.318-0.604,16.512-1.013,27.524c-0.407,11.012-0.812,22.025-0.812,22.025
	s-1.862,0.514-2.993,6.273c-1.136,5.76-13.03,3.594-19.946,16.398c-6.918,12.81-19.396,20.34-19.396,20.34l4.136,106.48
	c0,0,27.526-3.503,36.285-10.01c8.757-6.503,18.042-2.245,21.601-11.406c3.563-9.159,2.245-4.708,6.92-12.807
	c4.671-8.104,15.736-21.071,15.736-21.071s-10.161-69.933-12.467-126.989c-2.164-53.64,6.042-84.729,6.58-84.22"/>
<path id="svg_47_2_" fill="none" stroke="#010101" stroke-width="8.8054" stroke-linejoin="round" stroke-miterlimit="11.5" d="
	M208.743,232.404c0,0-6.708-2.944-13.625,9.864c-6.921,12.81-5.083,19.107-7.531,29.324c-2.449,10.211-7.3,17.002-7.527,29.326
	c-0.222,12.315-0.605,16.51-1.014,27.523c-0.406,11.012-0.811,22.025-0.811,22.025s-1.862,0.514-2.993,6.273
	c-1.135,5.76-13.03,3.594-19.945,16.399c-6.918,12.809-19.396,20.339-19.396,20.339l4.135,106.48c0,0,27.526-3.503,36.284-10.01
	c8.757-6.503,18.042-2.245,21.601-11.406c3.564-9.158,2.246-4.708,6.92-12.807c4.671-8.104,15.736-22.951,15.736-22.951
	s-10.161-68.053-12.467-125.107c-2.164-53.64,4.179-85.476,4.719-84.966l-4.081-0.288L208.743,232.404z"/>
<path id="svg_48_2_" fill="#010101" d="M53.939,596.217c0,0,1.365,1.43,5.303,0.345c3.931-1.084,6.663-2.436,7.063-7.962
	c0.401-5.533-5.781-8.037-5.781-8.037s-7.229,2.592-7.391,5.645c-0.157,3.048,2.253,12.019,0.807,10.004"/>
<path id="svg_49_2_" fill="none" stroke="#010101" stroke-width="8.8054" stroke-linejoin="round" stroke-miterlimit="11.5" d="
	M53.939,596.217c0,0,1.365,1.43,5.303,0.345c3.931-1.084,6.663-2.436,7.063-7.962c0.401-5.533-5.781-8.037-5.781-8.037
	s-7.229,2.592-7.391,5.645c-0.157,3.048,2.253,12.019,0.807,10.004L53.939,596.217z"/>
<path id="svg_50_2_" fill="#010101" d="M47.635,609.623c0,0,1.455,2.073,5.391,0.989c3.934-1.086,6.635-2.654,6.77-10.101
	c0.133-7.452-6.258-11.459-6.258-11.459s-7.196,2.817-7.211,6.941c0,4.107,2.874,16.48,1.316,13.616"/>
<path id="svg_51_2_" fill="none" stroke="#010101" stroke-width="8.8054" stroke-linejoin="round" stroke-miterlimit="11.5" d="
	M47.635,609.623c0,0,1.455,2.073,5.391,0.989c3.934-1.086,6.635-2.654,6.77-10.101c0.133-7.452-6.258-11.459-6.258-11.459
	s-7.196,2.817-7.211,6.941c0,4.107,2.874,16.48,1.316,13.616L47.635,609.623z"/>
<path id="svg_52_2_" fill="#010101" d="M36.305,603.711c0,0-1.479,6.165,2.784,7.464c4.265,1.293,9.776-1.054,9.776-1.054
	l0.586-8.398l-12.583-36.04c0,0-11.803,3.257-12.27,8.335c-0.462,5.059,0.061,17.268,3.531,21.241
	c3.486,3.988,8.29,9.246,8.178,8.462"/>
<path id="svg_53_2_" fill="none" stroke="#010101" stroke-width="8.8054" stroke-linejoin="round" stroke-miterlimit="11.5" d="
	M36.305,603.711c0,0-1.479,6.165,2.784,7.464c4.265,1.293,9.776-1.054,9.776-1.054l0.586-8.398l-12.583-36.04
	c0,0-11.803,3.257-12.27,8.335c-0.462,5.059,0.061,17.268,3.531,21.241c3.486,3.988,8.29,9.246,8.178,8.462L36.305,603.711z"/>
<path id="svg_54_2_" fill="#010101" d="M147.995,403.371c0,0-3.46-8.097-8.505-10.822c-5.043-2.726-6.5-4.795-11.79-0.864
	c-5.29,3.928-20.149,14.609-27.808,22.485c-7.661,7.872-7.111,11.836-16.8,21.917c-9.691,10.081-16.997,12.097-20.393,21.256
	c-3.398,9.171-5.647,9.791-7.357,18.495c-1.713,8.695-1.173,16.78-6.806,22.45c-5.634,5.671-5.756,8.996-12.058,14.026
	c-6.31,5.03-11.597,8.957-13.089,19.25c-1.493,10.287,3.885,15.387-0.396,18.206c-4.273,2.83-4.386,2.032-7.89,10.408
	c-3.507,8.375-6.001,15.647-3.326,22.315c2.677,6.669,6.352,16.354,6.352,16.354s30.129-9.958,32.832-11.52
	c2.701-1.573,4.948-2.193,7.77-7.088c2.825-4.887,5.65-9.779,9.829-17.525c4.176-7.734,2.834-9.005,6.881-9.307
	c4.042-0.293,11.03-8.804,19.011-10.175c7.977-1.376,12.458,1.495,21.125-3.362c8.663-4.854,8.111-8.815,17.103-11.297
	c8.994-2.479,13.28-9.431,24.644-15.856c11.366-6.418,12.941-7.687,16.214-13.521c3.278-5.847,5.183-4.72,1.192-20.902
	c-3.996-16.18-0.365-27.878-9.2-41.082c-8.832-13.206-11.617-20.661-13.508-25.906c-1.901-5.23-5.156-7.624-4.034-7.925"/>
<path id="svg_55_2_" fill="none" stroke="#010101" stroke-width="8.8054" stroke-linejoin="round" stroke-miterlimit="11.5" d="
	M147.995,403.371c0,0-3.46-8.097-8.505-10.822c-5.043-2.726-6.5-4.795-11.79-0.864c-5.29,3.928-20.149,14.609-27.808,22.485
	c-7.661,7.872-7.111,11.836-16.8,21.917c-9.691,10.081-16.997,12.097-20.393,21.256c-3.398,9.171-5.647,9.791-7.357,18.495
	c-1.713,8.695-1.173,16.78-6.806,22.45c-5.634,5.671-5.756,8.996-12.058,14.026c-6.31,5.03-11.597,8.957-13.089,19.25
	c-1.493,10.287,3.885,15.387-0.396,18.206c-4.273,2.83-4.386,2.032-7.89,10.408c-3.507,8.375-6.001,15.647-3.326,22.315
	c2.677,6.669,6.352,16.354,6.352,16.354s30.129-9.958,32.832-11.52c2.701-1.573,4.948-2.193,7.77-7.088
	c2.825-4.887,5.65-9.779,9.829-17.525c4.176-7.734,2.834-9.005,6.881-9.307c4.042-0.293,11.03-8.804,19.011-10.175
	c7.977-1.376,12.458,1.495,21.125-3.362c8.663-4.854,8.111-8.815,17.103-11.297c8.994-2.479,13.28-9.431,24.644-15.856
	c11.366-6.418,12.941-7.687,16.214-13.521c3.278-5.847,5.183-4.72,1.192-20.902c-3.996-16.18-0.365-27.878-9.2-41.082
	c-8.832-13.206-11.617-20.661-13.508-25.906c-1.901-5.23-5.156-7.624-4.034-7.925L147.995,403.371z"/>
<path id="svg_56_2_" fill="#010101" d="M40.06,550.808l-4.811-5.256c0,0-3.828,1.871-7.099,7.716
	c-3.277,5.847-4.169,3.616-7.117,11.834c-2.943,8.221-5.876,12.329-4.093,16.771c1.786,4.45,4.459,11.118,4.459,11.118l-2.154,5.525
	c0,0,2.568,5.885,6.037,9.856c3.472,3.987,8.079,3.539,9.552-2.635c1.482-6.164,2.839-9.014-0.52-12.196
	c-3.361-3.188-5.696-11.605-5.696-11.605s2.72-5.68,5.419-7.251c2.697-1.568,2.917,0.021,2.917,0.021s-4.518,9.478-0.61,16.621
	c3.906,7.158,2.859,6.703,6.268,7.328c7.182,1.312,13.072-15.128,11.276-15.459c-6.476-1.185-13.132-2.138-14.244-5.954
	c-1.104-3.792,0.426-26.432,0.426-26.432"/>
<path id="svg_57_2_" fill="none" stroke="#010101" stroke-width="8.8054" stroke-linejoin="round" stroke-miterlimit="11.5" d="
	M40.06,550.808l-4.811-5.256c0,0-3.828,1.871-7.099,7.716c-3.277,5.847-4.169,3.616-7.117,11.834
	c-2.943,8.221-5.876,12.329-4.093,16.771c1.786,4.45,4.459,11.118,4.459,11.118l-2.154,5.525c0,0,2.568,5.885,6.037,9.856
	c3.472,3.987,8.079,3.539,9.552-2.635c1.482-6.164,2.839-9.014-0.52-12.196c-3.361-3.188-5.696-11.605-5.696-11.605
	s2.72-5.68,5.419-7.251c2.697-1.568,2.917,0.021,2.917,0.021s-4.518,9.478-0.61,16.621c3.906,7.158,2.859,6.703,6.268,7.328
	c7.182,1.312,13.072-15.128,11.276-15.459c-6.476-1.185-13.132-2.138-14.244-5.954c-1.104-3.792,0.426-26.432,0.426-26.432
	L40.06,550.808z"/>
<path id="svg_58_2_" fill="#010101" d="M45.836,499.84c0,0,7.722,9.395,15.896,17.838c8.173,8.446,10.64,9.413,15.564,15.465
	c4.927,6.05,6.815,11.283,6.815,11.283s2.031-2.2-0.011,4.12c-2.042,6.33-5.413,7.26-5.413,7.26s3.701,1.447,9.892-4.38
	c6.199-5.827,6.317-9.154,4.551-17.721c-1.771-8.561-8.491-14.941-12.292-21.299c-3.801-6.359-9.284-12.252-15.111-16.404
	c-10.285-7.328-12.549-10.537-12.549-10.537s-2.137,1.414-5.181,4.73c-3.042,3.322-0.482,9.194-2.16,9.652"/>
<path id="svg_59_2_" fill="none" stroke="#010101" stroke-width="8.8054" stroke-linejoin="round" stroke-miterlimit="11.5" d="
	M45.836,499.84c0,0,7.722,9.395,15.896,17.838c8.173,8.446,10.64,9.413,15.564,15.465c4.927,6.05,6.815,11.283,6.815,11.283
	s2.031-2.2-0.011,4.12c-2.042,6.33-5.413,7.26-5.413,7.26s3.701,1.447,9.892-4.38c6.199-5.827,6.317-9.154,4.551-17.721
	c-1.771-8.561-8.491-14.941-12.292-21.299c-3.801-6.359-9.284-12.252-15.111-16.404c-10.285-7.328-12.549-10.537-12.549-10.537
	s-2.137,1.414-5.181,4.73c-3.042,3.322-0.482,9.194-2.16,9.652L45.836,499.84z"/>
<path id="svg_60_2_" fill="#010101" d="M37.63,575.357c0,0,0.34-1.743,2.272-8.859c1.933-7.116,2.264-4.741,3.193-14.871
	c0.931-10.131-2.295-20.766-2.295-20.766"/>
<path id="svg_184_2_" fill="#FFFFFF" d="M212.833,232.705c0,0-10.595-3.001-17.514,9.807c-6.918,12.808-5.079,19.111-7.527,29.322
	c-2.446,10.208-7.302,16.994-7.527,29.321c-0.222,12.327-0.61,16.514-1.013,27.528c-0.409,11.01-0.813,22.022-0.813,22.022
	s-1.863,0.515-2.998,6.274c-1.13,5.768-13.023,3.593-19.939,16.399c-6.919,12.81-19.399,20.33-19.399,20.33l4.139,106.488
	c0,0,27.526-3.501,36.284-10.009c8.755-6.504,18.042-2.255,21.599-11.414c3.565-9.151,2.247-4.701,6.922-12.803
	c4.674-8.1,15.534-27.202,15.534-27.202s-9.959-63.811-12.266-120.858c-2.167-53.634,5.84-84.972,6.38-84.463"/>
<path id="svg_207_2_" fill="#797979" d="M54.134,596.438c0,0,1.366,1.429,5.301,0.345c3.935-1.087,6.664-2.442,7.067-7.967
	c0.402-5.521-5.782-8.032-5.782-8.032s-7.227,2.598-7.388,5.65c-0.158,3.048,2.252,12.005,0.807,10.005"/>
<path id="svg_208_2_" fill="#FFFFFF" stroke="#010101" stroke-width="3.5218" stroke-miterlimit="11.5" d="M54.134,596.438
	c0,0,1.366,1.429,5.301,0.345c3.935-1.087,6.664-2.442,7.067-7.967c0.402-5.521-5.782-8.032-5.782-8.032s-7.227,2.598-7.388,5.65
	c-0.158,3.048,2.252,12.005,0.807,10.005L54.134,596.438z"/>
<path id="svg_209_2_" fill="#797979" d="M47.83,609.871c0,0,1.453,2.065,5.388,0.979c3.935-1.085,6.636-2.654,6.772-10.099
	c0.134-7.446-6.256-11.439-6.256-11.439s-7.198,2.808-7.211,6.93c-0.01,4.119,2.874,16.493,1.315,13.628"/>
<path id="svg_210_2_" fill="#FFFFFF" stroke="#010101" stroke-width="3.5218" stroke-miterlimit="11.5" d="M47.83,609.871
	c0,0,1.453,2.065,5.388,0.979c3.935-1.085,6.636-2.654,6.772-10.099c0.134-7.446-6.256-11.439-6.256-11.439s-7.198,2.808-7.211,6.93
	c-0.01,4.119,2.874,16.493,1.315,13.628L47.83,609.871z"/>
<path id="svg_211_2_" fill="#797979" d="M36.5,603.934c0,0-1.479,6.173,2.787,7.472c4.265,1.293,9.774-1.052,9.774-1.052
	l0.588-8.396l-12.583-36.035c0,0-11.804,3.258-12.271,8.327c-0.465,5.062,0.063,17.264,3.531,21.249
	c3.468,3.963,8.279,9.22,8.168,8.424"/>
<g>
	<path id="svg_212_2_" fill="#FFFFFF" stroke="#010101" stroke-width="3.5218" stroke-miterlimit="11.5" d="M36.5,603.934
		c0,0-1.479,6.173,2.787,7.472c4.265,1.293,9.774-1.052,9.774-1.052l0.588-8.396l-12.583-36.035c0,0-11.804,3.258-12.271,8.327
		c-0.465,5.062,0.063,17.264,3.531,21.249c3.468,3.963,8.279,9.22,8.168,8.424L36.5,603.934z"/>
	<path id="svg_213_2_" fill="#FFFFFF" d="M148.179,403.619c0,0-3.453-8.094-8.502-10.821c-5.044-2.725-6.498-4.787-11.789-0.865
		c-5.29,3.935-20.147,14.615-27.808,22.484c-7.662,7.882-7.114,11.838-16.802,21.917c-9.691,10.083-16.996,12.099-20.391,21.258
		c-3.4,9.173-5.647,9.793-7.359,18.496c-1.711,8.705-1.173,16.781-6.804,22.453c-5.636,5.67-5.755,8.995-12.063,14.026
		c-6.305,5.03-11.595,8.954-13.087,19.239c-1.492,10.294,3.882,15.384-0.393,18.216c-4.278,2.829-4.388,2.034-7.892,10.409
		c-3.507,8.374-6.002,15.646-3.326,22.314c2.675,6.661,6.352,16.354,6.352,16.354s30.127-9.961,32.827-11.529
		c2.702-1.569,4.949-2.188,7.773-7.075c2.824-4.896,5.645-9.791,9.823-17.524c4.182-7.736,2.835-9.015,6.881-9.306
		c4.044-0.294,11.034-8.805,19.012-10.189c7.979-1.374,12.461,1.507,21.125-3.353c8.659-4.863,8.11-8.82,17.104-11.301
		c8.992-2.48,13.283-9.428,24.644-15.854c11.36-6.427,12.938-7.686,16.212-13.523c3.275-5.846,5.179-4.718,1.187-20.907
		c-3.993-16.173-0.362-27.87-9.193-41.075c-8.833-13.206-11.619-20.662-13.511-25.894c-1.909-5.244-5.164-7.651-4.042-7.952"/>
</g>
<path id="svg_214_2_" fill="none" stroke="#010101" stroke-width="5.2836" stroke-miterlimit="11.5" d="M148.179,403.619
	c0,0-3.453-8.094-8.502-10.821c-5.044-2.725-6.498-4.787-11.789-0.865c-5.29,3.935-20.147,14.615-27.808,22.484
	c-7.662,7.882-7.114,11.838-16.802,21.917c-9.691,10.083-16.996,12.099-20.391,21.258c-3.4,9.173-5.647,9.793-7.359,18.496
	c-1.711,8.705-1.173,16.781-6.804,22.453c-5.636,5.67-5.755,8.995-12.063,14.026c-6.305,5.03-11.595,8.954-13.087,19.239
	c-1.492,10.294,3.882,15.384-0.393,18.216c-4.278,2.829-4.388,2.034-7.892,10.409c-3.507,8.374-6.002,15.646-3.326,22.314
	c2.675,6.661,6.352,16.354,6.352,16.354s30.127-9.961,32.827-11.529c2.702-1.569,4.949-2.188,7.773-7.075
	c2.824-4.896,5.645-9.791,9.823-17.524c4.182-7.736,2.835-9.015,6.881-9.306c4.044-0.294,11.034-8.805,19.012-10.189
	c7.979-1.374,12.461,1.507,21.125-3.353c8.659-4.863,8.11-8.82,17.104-11.301c8.992-2.48,13.283-9.428,24.644-15.854
	c11.36-6.427,12.938-7.686,16.212-13.523c3.275-5.846,5.179-4.718,1.187-20.907c-3.993-16.173-0.362-27.87-9.193-41.075
	c-8.833-13.206-11.619-20.662-13.511-25.894c-1.909-5.244-5.164-7.651-4.042-7.952L148.179,403.619z"/>
<path id="svg_215_2_" fill="#ABABAB" d="M74.718,555.543c0,0,3.263-1.724,4.633-8.687c1.369-6.972,8.812-16.432,11.964-18.942
	c3.153-2.51,11.72-12.282,12.146-4.99c0.429,7.29,4.337,14.436-1.613,13.608c-5.952-0.835-10.12,2.79-10.12,2.79"/>
<path id="svg_216_2_" fill="#FFFFFF" stroke="#010101" stroke-width="2.6409" stroke-miterlimit="14.3" d="M74.718,555.543
	c0,0,3.263-1.724,4.633-8.687c1.369-6.972,8.812-16.432,11.964-18.942c3.153-2.51,11.72-12.282,12.146-4.99
	c0.429,7.29,4.337,14.436-1.613,13.608c-5.952-0.835-10.12,2.79-10.12,2.79"/>
<path id="svg_217_2_" fill="#ABABAB" d="M40.254,551.056l-4.81-5.253c0,0-3.83,1.88-7.104,7.722
	c-3.274,5.838-4.166,3.618-7.109,11.837c-2.948,8.222-5.88,12.321-4.095,16.771c1.786,4.438,4.458,11.112,4.458,11.112l-2.151,5.533
	c0,0,2.565,5.874,6.034,9.85c3.47,3.985,8.077,3.531,9.556-2.636c1.476-6.166,2.837-9.008-0.523-12.197
	c-3.36-3.19-5.695-11.603-5.695-11.603s2.714-5.678,5.415-7.253c2.701-1.569,2.922,0.021,2.922,0.021s-4.525,9.47-0.615,16.622
	c3.91,7.157,2.861,6.712,6.27,7.328c7.182,1.311,13.072-15.129,11.275-15.458c-6.476-1.183-13.132-2.136-14.242-5.945
	c-1.113-3.779,0.417-26.418,0.417-26.418"/>
<g>
	<path id="svg_218_2_" fill="#FFFFFF" stroke="#010101" stroke-width="3.5218" stroke-miterlimit="11.5" d="M24.501,559.519
		l8.492,14.938 M18.602,580.08l9.999,0.531 M22.611,592.133l7.761-2.963 M40.256,551.06l-4.81-5.254c0,0-3.83,1.881-7.104,7.723
		c-3.276,5.836-4.167,3.616-7.109,11.836c-2.948,8.222-5.879,12.321-4.095,16.77c1.785,4.44,4.458,11.112,4.458,11.112l-2.151,5.533
		c0,0,2.565,5.875,6.035,9.851c3.469,3.984,8.076,3.53,9.556-2.637c1.476-6.164,2.837-9.007-0.524-12.197
		c-3.36-3.19-5.695-11.602-5.695-11.602s2.715-5.679,5.415-7.252c2.701-1.571,2.921,0.019,2.921,0.019s-4.525,9.47-0.614,16.624
		c3.911,7.155,2.86,6.711,6.27,7.327c7.181,1.311,13.072-15.129,11.275-15.459c-6.476-1.182-13.133-2.136-14.243-5.943
		c-1.113-3.78,0.417-26.42,0.417-26.42L40.256,551.06z"/>
	<path id="svg_219_2_" fill="#FFFFFF" d="M46.031,500.088c0,0,7.719,9.385,15.891,17.84c8.176,8.437,10.642,9.403,15.565,15.441
		c4.924,6.051,6.818,11.295,6.818,11.295s2.026-2.21-0.01,4.12c-2.043,6.321-5.414,7.251-5.414,7.251s3.7,1.447,9.893-4.369
		c6.197-5.827,6.318-9.151,4.55-17.719c-1.771-8.563-8.49-14.939-12.287-21.291c-3.801-6.36-9.287-12.253-15.115-16.412
		c-10.285-7.329-12.547-10.53-12.547-10.53s-2.14,1.417-5.183,4.721c-3.05,3.31-0.493,9.194-2.17,9.651"/>
</g>
<path id="svg_220_2_" fill="none" stroke="#010101" stroke-width="2.6409" stroke-miterlimit="14.3" d="M178.433,352.48
	c0,0,9.244,7.748,13.431,16.897c4.187,9.146,9.05,18.964,12.795,33.378c3.755,14.422,9.097,36.121,9.097,36.121l0.938,15.201
	l-7.741,7.287c0,0-0.047-17.157-3.912-32.401c-3.861-15.254-3.188-14.577-9.193-32.659c-6.011-18.09-6.229-15.455-10.186-22.953
	c-3.957-7.489-9.714-15.346-9.714-15.346 M37.826,575.586c0,0,0.343-1.736,2.273-8.853c1.932-7.112,2.261-4.741,3.192-14.871
	c0.932-10.131-2.294-20.765-2.294-20.765 M46.042,500.102c0,0,7.719,9.384,15.89,17.839c8.176,8.437,10.643,9.404,15.565,15.441
	c4.925,6.051,6.817,11.297,6.817,11.297s2.027-2.212-0.009,4.118c-2.043,6.321-5.415,7.251-5.415,7.251s3.7,1.447,9.893-4.369
	c6.197-5.827,6.319-9.151,4.55-17.719c-1.771-8.563-8.491-14.94-12.287-21.291c-3.801-6.358-9.287-12.253-15.116-16.412
	c-10.284-7.327-12.547-10.53-12.547-10.53s-2.14,1.417-5.183,4.721c-3.05,3.297-0.482,9.182-2.169,9.653L46.042,500.102z"/>
</svg>
