<?xml version="1.0" encoding="UTF-8" standalone="no"?>
<svg width="200" xmlns="http://www.w3.org/2000/svg" xmlns:xlink="http://www.w3.org/1999/xlink" height="300">
 <g id="layer1" externalResourcesRequired="false">
  <text id="text4155" xml:space="preserve" transform="matrix(1.121 0 0 .89210 -2 -752.36)" font-size="20.118px" y="1556.07" x="55.3652" fill="#f0f"/>
  <g id="svg_1">
   <path id="path4047" d="m171.25 15.508c-1.458 0.0039-2.961 0.0757-4.457 0.1903-2.992 0.2291-5.922 0.6416-8.28 1.1226-1.179 0.2405-2.222 0.4904-3.07 0.7612-0.849 0.2708-1.451 0.447-2.12 1.0465-1.613 1.4461-2.374 3.3402-2.714 5.2328-0.34 1.8927-0.317 3.8277-0.317 5.6705 0.001007 1.8428-0.030991 3.5901-0.35599 4.9854-0.326 1.3953-0.85701 2.3994-1.942 3.1588-0.584 0.4094-2.955 0.6412-5.051 0.4186-2.096-0.2227-3.882-0.666-3.882-0.666l-0.793 2.9303s1.98 0.4916 4.339 0.7422c2.358 0.2505 5.131 0.4939 7.25-0.9895 1.8-1.2606 2.737-3.0779 3.169-4.9284 0.43199-1.8504 0.416-3.7893 0.416-5.6514-0.001007-1.8621 0.007004-3.652 0.27699-5.1567 0.27101-1.5047 0.765-2.6622 1.743-3.5393-0.17001 0.1528 0.31-0.1634 0.991-0.3805 0.681-0.2172 1.615-0.461 2.714-0.6851 2.196-0.4481 5.031-0.847 7.884-1.0655 2.852-0.2186 5.734-0.2377 8.002 0.0189 2.269 0.2567 3.813 0.9516 4.081 1.294 3.546 4.5246 4.153 12.335 2.199 21.749-1.954 9.4147-6.385 20.328-12.262 30.921-11.754 21.187-31.531 39.039-45.916 43.744l1.01 2.874c16.125-5.275 35.7-23.596 47.679-45.191 5.99-10.797 10.538-21.927 12.579-31.758 2.04-9.8315 1.678-18.486-2.773-24.166-1.351-1.7237-3.623-2.1797-6.22-2.4737-1.299-0.147-2.722-0.2129-4.18-0.2093z"/>
   <path id="path4061" d="m172.04 16.123c1.52-0.004 2.982 0.0616 4.336 0.2069 2.708 0.2906 5.075 0.7413 6.483 2.4449 4.64 5.6138 5.018 14.168 2.891 23.885-2.127 9.7172-6.847 20.717-13.091 31.389-12.487 21.344-32.826 39.428-49.634 44.642l-1.053-2.84c14.994-4.651 35.524-22.272 47.776-43.213 6.126-10.471 10.744-21.256 12.781-30.562 2.037-9.3052 1.404-17.025-2.292-21.497-0.27901-0.3384-1.889-1.0251-4.253-1.2789-2.365-0.2537-5.369-0.2347-8.342-0.0186-2.974 0.2159-5.928 0.6102-8.218 1.0531-1.145 0.2215-2.119 0.4624-2.829 0.6771-0.709 0.2146-1.21 0.5271-1.032 0.3761-1.02 0.8669-1.535 2.0109-1.817 3.4981-0.28201 1.4873-0.26901 3.2564-0.26901 5.0968 0.001007 1.8404-0.003998 3.7568-0.454 5.5857-0.45 1.829-1.426 3.625-3.303 4.8711-2.209 1.4661-5.099 1.2256-7.558 0.9779-2.458-0.2476-4.522-0.7334-4.522-0.7334l0.826-2.8963s1.863 0.4382 4.047 0.6582c2.185 0.2201 4.656-0.009003 5.266-0.4138 1.13-0.7505 1.704-1.7429 2.044-3.1219 0.339-1.3791 0.37199-3.1061 0.371-4.9275 0-1.8214-0.044006-3.7339 0.31-5.6046 0.354-1.8706 1.148-3.7426 2.829-5.1719 0.69701-0.5926 1.345-0.7667 2.23-1.0344 0.88501-0.2677 1.951-0.5146 3.18-0.7523 2.458-0.4754 5.512-0.8831 8.631-1.1096 1.559-0.1132 3.146-0.1846 4.666-0.1881v-0.000099z"/>
   <path id="path4045" d="m24.346 15.508c-1.4578-0.0041-2.861 0.0623-4.1598 0.2093-2.5978 0.294-4.8692 0.75-6.22 2.4737-4.4513 5.6798-4.8136 14.335-2.7732 24.166 2.0404 9.8316 6.5688 20.961 12.559 31.758 11.98 21.595 31.574 39.916 47.699 45.191l1.0102-2.874c-14.385-4.705-34.162-22.556-45.916-43.744-5.8769-10.594-10.308-21.506-12.262-30.921-1.9539-9.4147-1.3471-17.225 2.1988-21.75 0.2683-0.3424 1.8123-1.0372 4.0806-1.2939s5.1502-0.2376 8.0028-0.018999c2.8526 0.2185 5.6871 0.6174 7.8839 1.0656 1.0984 0.224 2.033 0.4678 2.7138 0.685s1.1608 0.5333 0.9904 0.3806c0.9783 0.877 1.473 2.0345 1.7432 3.5392 0.2703 1.5047 0.258 3.2946 0.2575 5.1568-0.0005 1.862 0.004002 3.8009 0.4358 5.6514s1.3686 3.6677 3.1694 4.9283c2.119 1.4834 4.8914 1.2401 7.2501 0.9895 2.3586-0.2506 4.3381-0.7421 4.3381-0.7421l-0.7924-2.9304s-1.7867 0.4433-3.8825 0.666-4.4663-0.008999-5.0512-0.4186c-1.0848-0.7594-1.6355-1.7635-1.9611-3.1587-0.3256-1.3953-0.3571-3.1427-0.3566-4.9854 0.0005-1.8429 0.042801-3.7779-0.2971-5.6705s-1.1009-3.7868-2.7138-5.2329c-0.6687-0.5995-1.2905-0.7757-2.1394-1.0465-0.8488-0.2708-1.8715-0.5207-3.0505-0.7611-2.3581-0.4811-5.2881-0.8935-8.2801-1.1227-1.496-0.1146-3.0189-0.1868-4.4768-0.1903z"/>
   <path id="path4059" d="m24.954 15.508c-1.5196-0.0041-2.9821 0.0616-4.336 0.2068-2.7078 0.2906-5.0754 0.7414-6.4835 2.445-4.6398 5.6138-5.0175 14.168-2.8907 23.885 2.1268 9.7173 6.8472 20.717 13.091 31.389 12.487 21.344 32.827 41.428 49.635 46.642l1.0531-2.84c-14.994-4.651-35.525-24.272-47.776-45.213-6.1259-10.47-10.744-21.256-12.781-30.562-2.0367-9.3051-1.4042-17.024 2.2919-21.497 0.2797-0.3383 1.8891-1.0251 4.2535-1.2788s5.3683-0.2348 8.3418-0.018801c2.9734 0.2159 5.928 0.6103 8.2178 1.0532 1.145 0.2214 2.1192 0.4624 2.8288 0.677 0.7096 0.2147 1.21 0.5272 1.0324 0.3762 1.0197 0.8668 1.5353 2.0109 1.817 3.4981s0.269 3.2563 0.2685 5.0968c-0.0005 1.8404 0.003998 3.7567 0.4542 5.5857 0.4501 1.8289 1.4266 3.625 3.3037 4.871 2.2087 1.4662 5.0985 1.2256 7.5571 0.978 2.4586-0.2477 4.5219-0.7335 4.5219-0.7335l-0.8259-2.8963s-1.8624 0.4382-4.047 0.6583c-2.1846 0.22-4.6555-0.009102-5.2652-0.4138-1.1307-0.7505-1.7048-1.7429-2.0442-3.122-0.3393-1.379-0.3722-3.1061-0.3716-4.9274 0.000504-1.8214 0.044601-3.734-0.3097-5.6046-0.3544-1.8706-1.1476-3.7427-2.8288-5.172-0.697-0.5925-1.3452-0.7667-2.23-1.0343-0.8848-0.2677-1.9508-0.5146-3.1798-0.7524-2.4579-0.4753-5.5121-0.8831-8.6308-1.1096-1.5594-0.1132-3.1468-0.1845-4.6665-0.188z"/>
   <path id="path4035" d="m44.35 249.57l107.05-0.786 4.408 14.147h-113.98l2.5188-13.361z"/>
   <path id="path4037" d="m92.944 30.731l0.0792 0.1903c-5.0483 0.1116-10.94 0.2563-14.698 0.4186-8.8353 0.3814-26.247 3.6915-26.247 3.6915l-1.2876 3.6915s18.718-3.314 28.188-3.6915c6.3425-0.2528 14.721-0.7544 18.838-1.0085 4.1293 0.2547 12.485 0.7561 18.818 1.0085 9.47 0.3775 28.168 3.6915 28.168 3.6915l-1.268-3.6915s-17.411-3.3101-26.246-3.6915c-3.759-0.1623-9.65-0.307-14.698-0.4186l0.079-0.1903s-3.0385 0.060699-4.8533 0.0951c-1.8277-0.0347-4.873-0.0951-4.873-0.0951h0.000099z"/>
   <path id="path4039" d="m95.499 33.813v0.1903c-13.348 0.3405-25.524-0.82-43.421 5.347 0 0-1.4223 31.089 3.2091 47.97 3.4542 12.591 9.3359 27.351 19.195 36.287 14.011 10.988 34.003 10.629 46.63 0 9.859-8.936 15.76-23.696 19.215-36.287 4.631-16.881 3.209-47.97 3.209-47.97-17.906-6.1701-30.085-5.0238-43.441-5.3661v-0.1712c-0.7739 0.044899-1.5356 0.083698-2.298 0.1142-0.75729-0.030499-1.5295-0.069698-2.2978-0.1142z"/>
   <path id="path4041" fill="#f0f" d="m89.761 128.65l1.6571 8.002 1.6572 18.483-4.9714 4.306 3.8609 4.935s4.8772 23.369-5.4561 32.212c-2.353 2.013-2.1397-1.175-2.1397-1.175l-5.7546 3.507-15.368 7.945c10.325 10.323 22.174 8.747 33.911 8.041 11.738 0.70601 23.603 2.282 33.929-8.041l-15.368-7.945-5.755-3.507s0.214 3.188-2.139 1.175c-10.334-8.843-5.456-32.212-5.456-32.212l3.861-4.935-4.972-4.306 1.657-18.483 1.657-8.002c-13.444 5.184-4.561 2.208-14.811 0z"/>
   <path id="path4043" d="m63.764 206.6l-12.82 0.237-3.8439 22.135c36.987 1.33 64.854 0.28299 102.33 0l-5.765-22.135c-5.238-0.104-17.166 0.12801-12.319-1.237-19.431 10.211-52.627 13.288-67.586 1z"/>
   <path id="path4049" fill="#f0f" d="m88.378 193.01c-2.6486 0.726-4.2902 1.744-4.2902 2.873 0 2.207 6.2956 3.996 14.054 3.996 7.7587 0 14.036-1.789 14.036-3.996 0-1.129-1.642-2.147-4.29-2.873-0.516 0.44299-1.095 0.854-1.739 1.218 1.2 0.467 1.924 1.033 1.924 1.655 0 1.56-4.448 2.817-9.9307 2.817s-9.9302-1.257-9.9302-2.817c0-0.62199 0.705-1.188 1.9047-1.655-0.6434-0.364-1.2229-0.77501-1.7383-1.218z"/>
   <g fill="#fff">
    <path id="path4051" d="m85.372 125.46c-15.43-12.894-25.572-14.588-29.455-86.113l3.8419-1.2302c0.6322 33.638-5.0292 61.712 25.613 87.343z"/>
    <path id="path4053" d="m104.58 131.61c15.43-12.894 31.975-20.124 35.857-91.649l-3.841-1.2301c-0.63301 33.638-1.374 67.248-32.016 92.879z"/>
    <path id="path4055" d="m71.285 38.894l8.3241 50.888 38.419-0.6971 6.403-51.586c-18.888-7.1965-35.898-2.1227-53.146 1.3942z"/>
   </g>
   <path id="path4063" d="m88.579 127.65l1.9215 8.092 1.9214 18.688-5.7643 4.355 4.4768 4.99s5.6348 21.094-6.9925 30.518c-2.8754 2.146-2.6148-1.252-2.6148-1.252l-7.0321 3.737-16.659 9.961c11.972 10.438 25.71 8.845 39.32 8.131 13.61 0.714 27.368 2.307 39.34-8.131l-16.659-9.961-7.032-3.737s0.26 3.398-2.615 1.252c-12.627-9.424-6.993-30.518-6.993-30.518l4.477-4.99-5.764-4.355 1.921-18.688 1.922-8.092c-15.59 5.242-5.289 2.232-17.174 0h-0.000099z"/>
   <rect id="rect4065" rx=".50903" ry=".50903" height="28.179" width="101.59" y="227.87" x="47.594"/>
   <rect id="rect4067" y="262.31" width="113.98" height="10.687" x="41.69"/>
   <path id="rect3285" fill="#fff" d="m71.006 232c0.004295 0.042999 0.033302 0.082993 0.033302 0.127 0 1.994 2.0594 3.64-3.0397 3.887v6.857c0 0.143 0.2318 0.25299 0.5318 0.25299-0.3 0-0.5318 0.10701-0.5318 0.25301v7.015c5.0991 0.252 3.0397 1.942 3.0397 3.982 0 0.044006-0.030106 0.083008-0.033302 0.12601h50.682c-0.063004-0.16901-0.132-0.34599-0.132-0.521 0-1.713-0.886-3.153 3.444-3.666v-6.936c0-0.146-0.232-0.25301-0.532-0.25301 0.3 0 0.532-0.10998 0.532-0.25299v-6.778c-4.33-0.502-3.444-1.912-3.444-3.587 0-0.172 0.069-0.341 0.132-0.506h-50.682z"/>
   <path id="path4105" opacity=".224" d="m93.5 194l2.5-11.5 1-16.5-3-4.5 2-3-2.5-26.5c-8.5345-2.613-12.614-7.898-14.5-14.5"/>
   <path id="path4119" d="m10.086 275.91l31 0.987 114.5 0.227 23.5-1.062-20-0.835h-113.5l-35.5 0.683z"/>
  </g>
 </g>
</svg>
