<svg width="200" xmlns="http://www.w3.org/2000/svg" height="300"><g externalResourcesRequired="false"><path d="M171.25 15.508c-1.458.004-2.96.076-4.457.19-2.992.23-5.922.642-8.28 1.123-1.18.24-2.222.49-3.07.762-.85.27-1.45.447-2.12 1.047-1.613 1.445-2.374 3.34-2.714 5.23-.34 1.894-.318 3.83-.318 5.672 0 1.843-.03 3.59-.356 4.985-.326 1.396-.857 2.4-1.942 3.16-.584.408-2.955.64-5.05.418-2.097-.223-3.883-.666-3.883-.666l-.792 2.93s1.98.49 4.34.74c2.357.252 5.13.495 7.25-.988 1.8-1.26 2.736-3.078 3.168-4.93.432-1.85.416-3.788.416-5.65 0-1.862.007-3.652.277-5.157.27-1.504.764-2.662 1.742-3.54-.17.154.31-.162.99-.38.682-.217 1.616-.46 2.715-.685 2.196-.448 5.03-.847 7.884-1.065 2.853-.22 5.735-.238 8.003.02 2.27.255 3.813.95 4.08 1.293 3.547 4.524 4.154 12.335 2.2 21.75-1.954 9.413-6.385 20.327-12.262 30.92-11.753 21.187-31.53 39.04-45.915 43.744l1.01 2.874c16.125-5.275 35.7-23.596 47.68-45.19 5.99-10.798 10.537-21.928 12.578-31.76 2.04-9.83 1.678-18.485-2.773-24.165-1.35-1.723-3.623-2.18-6.22-2.473-1.3-.147-2.722-.213-4.18-.21z"/><path d="M172.04 16.123c1.52-.004 2.982.062 4.336.207 2.708.29 5.075.74 6.483 2.445 4.64 5.614 5.017 14.168 2.89 23.885-2.127 9.717-6.847 20.717-13.09 31.39-12.488 21.343-32.827 39.427-49.635 44.64l-1.053-2.84c14.994-4.65 35.524-22.27 47.776-43.212 6.126-10.47 10.744-21.256 12.78-30.562 2.038-9.305 1.405-17.025-2.29-21.497-.28-.34-1.89-1.026-4.254-1.28-2.365-.254-5.37-.235-8.342-.02-2.974.217-5.928.612-8.218 1.054-1.145.222-2.12.463-2.83.678-.708.214-1.21.527-1.03.376-1.02.867-1.536 2.01-1.818 3.498-.282 1.487-.27 3.256-.27 5.097.002 1.84-.003 3.756-.453 5.585-.45 1.83-1.426 3.625-3.303 4.87-2.21 1.467-5.1 1.227-7.558.98-2.458-.248-4.522-.734-4.522-.734l.826-2.896s1.863.438 4.047.658c2.185.22 4.656-.01 5.266-.414 1.13-.75 1.703-1.743 2.043-3.122.34-1.38.372-3.106.37-4.928 0-1.82-.043-3.733.31-5.604.355-1.87 1.15-3.743 2.83-5.172.697-.593 1.345-.767 2.23-1.034.885-.268 1.95-.515 3.18-.753 2.458-.476 5.512-.884 8.63-1.11 1.56-.114 3.147-.185 4.667-.188zM24.346 15.508c-1.458-.004-2.86.062-4.16.21-2.598.293-4.87.75-6.22 2.473-4.45 5.68-4.813 14.336-2.773 24.167 2.04 9.832 6.57 20.96 12.56 31.758 11.98 21.595 31.573 39.916 47.698 45.19l1.01-2.873c-14.384-4.705-34.16-22.556-45.915-43.744-5.877-10.594-10.308-21.506-12.262-30.92-1.954-9.416-1.347-17.226 2.2-21.75.267-.343 1.81-1.038 4.08-1.295s5.15-.237 8.002-.02c2.853.22 5.687.62 7.884 1.067 1.098.224 2.032.468 2.713.685s1.16.533.99.38c.98.877 1.473 2.035 1.744 3.54.27 1.504.258 3.294.257 5.156 0 1.863.004 3.802.436 5.653s1.37 3.667 3.17 4.928c2.118 1.484 4.89 1.24 7.25.99 2.358-.25 4.338-.742 4.338-.742l-.793-2.93s-1.787.443-3.882.666-4.467-.01-5.052-.42c-1.083-.758-1.634-1.762-1.96-3.157-.325-1.396-.357-3.143-.356-4.986 0-1.842.043-3.777-.297-5.67s-1.1-3.786-2.714-5.232c-.67-.6-1.29-.776-2.14-1.047-.848-.27-1.87-.52-3.05-.76-2.358-.48-5.288-.893-8.28-1.122-1.496-.115-3.02-.187-4.477-.19z"/><path d="M24.954 15.508c-1.52-.004-2.982.062-4.336.207-2.708.29-5.075.74-6.483 2.445-4.64 5.614-5.018 14.168-2.89 23.885 2.126 9.717 6.846 20.717 13.09 31.39 12.487 21.343 32.827 41.427 49.635 46.64l1.053-2.84c-14.994-4.65-35.525-24.27-47.776-45.212-6.126-10.47-10.744-21.256-12.78-30.562-2.038-9.304-1.405-17.023 2.29-21.496.28-.34 1.89-1.025 4.254-1.28s5.37-.234 8.343-.018c2.973.216 5.928.61 8.218 1.053 1.146.22 2.12.462 2.83.676.71.215 1.21.528 1.032.377 1.02.866 1.535 2.01 1.817 3.498s.268 3.257.268 5.097c0 1.84.004 3.757.454 5.586.45 1.83 1.426 3.625 3.303 4.87 2.21 1.467 5.1 1.227 7.558.98 2.458-.25 4.52-.734 4.52-.734l-.824-2.898s-1.864.44-4.048.66c-2.185.22-4.656-.01-5.266-.415-1.13-.75-1.704-1.743-2.044-3.122-.34-1.38-.372-3.106-.37-4.928 0-1.82.043-3.734-.31-5.604-.355-1.87-1.15-3.743-2.83-5.172-.697-.592-1.345-.766-2.23-1.033-.885-.268-1.95-.515-3.18-.753-2.458-.475-5.512-.883-8.63-1.11-1.56-.113-3.147-.184-4.667-.187zM44.35 249.57l107.05-.786 4.408 14.147H41.828l2.52-13.36z"/><path d="M92.944 30.73l.08.19c-5.05.113-10.94.258-14.7.42-8.834.38-26.246 3.69-26.246 3.69l-1.287 3.693s18.72-3.314 28.19-3.692c6.34-.25 14.72-.753 18.837-1.007 4.13.255 12.485.756 18.818 1.008 9.47.38 28.168 3.693 28.168 3.693l-1.268-3.692s-17.41-3.31-26.246-3.69c-3.76-.162-9.65-.307-14.7-.42l.08-.19s-3.04.062-4.854.096l-4.873-.095z"/><path d="M95.5 33.813v.19c-13.35.34-25.525-.82-43.422 5.347 0 0-1.422 31.09 3.21 47.97 3.453 12.59 9.335 27.35 19.194 36.287 14.01 10.988 34.003 10.63 46.63 0 9.86-8.936 15.76-23.696 19.215-36.287 4.63-16.88 3.21-47.97 3.21-47.97-17.907-6.17-30.086-5.023-43.442-5.366v-.17c-.774.044-1.535.083-2.298.113-.757-.03-1.53-.07-2.298-.114z"/><path fill="#f0f" d="M89.76 128.65l1.658 8.002 1.657 18.483-4.97 4.306 3.86 4.936s4.877 23.37-5.456 32.212c-2.354 2.013-2.14-1.175-2.14-1.175l-5.756 3.507-15.368 7.945c10.325 10.323 22.174 8.747 33.91 8.04 11.74.707 23.604 2.283 33.93-8.04l-15.368-7.945-5.755-3.507s.214 3.188-2.14 1.175c-10.333-8.843-5.455-32.212-5.455-32.212l3.86-4.935-4.97-4.305 1.656-18.483 1.657-8.002c-13.443 5.184-4.56 2.208-14.81 0z"/><path d="M63.764 206.6l-12.82.237-3.844 22.135c36.987 1.33 64.854.283 102.33 0l-5.765-22.135c-5.238-.104-17.166.128-12.32-1.237-19.43 10.21-52.626 13.288-67.585 1z"/><path fill="#f0f" d="M88.378 193.01c-2.65.726-4.29 1.744-4.29 2.873 0 2.207 6.295 3.996 14.054 3.996 7.76 0 14.036-1.79 14.036-3.997 0-1.13-1.642-2.147-4.29-2.873-.516.443-1.095.854-1.74 1.218 1.2.467 1.925 1.033 1.925 1.655 0 1.56-4.448 2.817-9.93 2.817s-9.93-1.257-9.93-2.817c0-.622.704-1.188 1.904-1.655-.644-.364-1.223-.775-1.74-1.218z"/><g fill="#fff"><path d="M85.372 125.46c-15.43-12.894-25.572-14.588-29.455-86.113l3.842-1.23c.63 33.638-5.03 61.712 25.612 87.343zM104.58 131.61c15.43-12.894 31.975-20.124 35.857-91.65l-3.84-1.23c-.634 33.64-1.375 67.25-32.017 92.88zM71.285 38.894l8.324 50.888 38.418-.697L124.43 37.5c-18.887-7.198-35.897-2.124-53.145 1.393z"/></g><path d="M88.58 127.65l1.92 8.092 1.922 18.688-5.764 4.355 4.476 4.99s5.635 21.094-6.992 30.518c-2.876 2.146-2.615-1.252-2.615-1.252l-7.032 3.738-16.66 9.96c11.973 10.44 25.71 8.846 39.32 8.132 13.61.714 27.37 2.307 39.34-8.13l-16.658-9.962-7.032-3.737s.26 3.4-2.615 1.253c-12.627-9.424-6.993-30.518-6.993-30.518l4.477-4.99-5.764-4.355 1.92-18.688 1.923-8.092c-15.59 5.242-5.29 2.232-17.174 0z"/><rect rx=".509" ry=".509" height="28.179" width="101.59" y="227.87" x="47.594"/><path d="M41.69 262.31h113.98v10.687H41.69z"/><path fill="#fff" d="M71.006 232c.004.043.033.083.033.127 0 1.994 2.06 3.64-3.04 3.887v6.857c0 .144.23.254.53.254-.3 0-.53.107-.53.253v7.015c5.1.252 3.04 1.942 3.04 3.982 0 .044-.03.083-.034.126h50.682c-.063-.17-.132-.346-.132-.52 0-1.714-.886-3.154 3.444-3.667v-6.936c0-.146-.232-.253-.532-.253.3 0 .532-.11.532-.253v-6.777c-4.33-.502-3.444-1.912-3.444-3.587 0-.172.07-.34.132-.506H71.006z"/><path opacity=".224" d="M93.5 194l2.5-11.5 1-16.5-3-4.5 2-3-2.5-26.5c-8.534-2.613-12.614-7.898-14.5-14.5"/><path d="M10.086 275.91l31 .987 114.5.227 23.5-1.062-20-.835h-113.5l-35.5.683z"/></g></svg>