<svg xmlns="http://www.w3.org/2000/svg" xmlns:xlink="http://www.w3.org/1999/xlink" viewBox="0 0 800.00001 800.00001" height="800" width="800"><defs><linearGradient id="a"><stop offset="0"/><stop offset="1" stop-opacity="0"/></linearGradient><linearGradient gradientUnits="userSpaceOnUse" y2="697.679" x2="108.73" y1="415.02" x1="391.389" id="b" xlink:href="#a"/></defs><g transform="translate(0 -252.362)" color="#000" fill-rule="evenodd"><circle style="isolation:auto;mix-blend-mode:normal" cx="400" cy="652.362" r="400" overflow="visible" solid-color="#000000" fill="#1c8adb"/><path transform="translate(0 252.362)" d="M257.857 210L2.46 440.31a400 400 0 0 0 356.91 357.586L590 542.143 449.066 401.207 590 257.857 542.143 210l-143.35 140.934L257.857 210z" style="isolation:auto;mix-blend-mode:normal" overflow="visible" opacity=".42" solid-color="#000000" fill="url(#b)"/><path style="isolation:auto;mix-blend-mode:normal" d="M257.857 462.362L210 510.22l142.143 142.142L210 794.505l47.857 47.857L400 700.22l142.143 142.142L590 794.505 447.857 652.362 590 510.22l-47.857-47.858L400 604.505 257.857 462.362z" overflow="visible" solid-color="#000000" fill="#fff"/></g></svg>