<?xml version="1.0" encoding="utf-8"?>
<!-- Generator: Adobe Illustrator 16.0.0, SVG Export Plug-In . SVG Version: 6.00 Build 0)  -->
<!DOCTYPE svg PUBLIC "-//W3C//DTD SVG 1.1//EN" "http://www.w3.org/Graphics/SVG/1.1/DTD/svg11.dtd">
<svg version="1.1"
	 id="svg2" inkscape:version="0.91 r13725" sodipodi:docname="eksplozja.svg" xmlns:cc="http://creativecommons.org/ns#" xmlns:svg="http://www.w3.org/2000/svg" xmlns:dc="http://purl.org/dc/elements/1.1/" xmlns:inkscape="http://www.inkscape.org/namespaces/inkscape" xmlns:sodipodi="http://sodipodi.sourceforge.net/DTD/sodipodi-0.dtd" xmlns:rdf="http://www.w3.org/1999/02/22-rdf-syntax-ns#"
	 xmlns="http://www.w3.org/2000/svg" xmlns:xlink="http://www.w3.org/1999/xlink" x="0px" y="0px" width="382.168px"
	 height="285.597px" viewBox="0 0 382.168 285.597" enable-background="new 0 0 382.168 285.597" xml:space="preserve">
<filter  height="1.0246053" width="1.023596" style="color-interpolation-filters:sRGB" id="filter4850" y="-0.012302635" x="-0.011798065" inkscape:collect="always">
	<feGaussianBlur  stdDeviation="1.9466377" id="feGaussianBlur4852" inkscape:collect="always"></feGaussianBlur>
</filter>
<sodipodi:namedview  id="base" fit-margin-bottom="0" fit-margin-right="0" inkscape:window-maximized="1" inkscape:window-y="-8" inkscape:window-x="-8" inkscape:window-height="716" inkscape:window-width="1366" inkscape:showpageshadow="false" inkscape:current-layer="layer1" inkscape:document-units="px" inkscape:pageopacity="0.0" inkscape:pageshadow="2" fit-margin-top="0" inkscape:cy="303.56385" inkscape:zoom="0.73417969" borderopacity="1.0" inkscape:cx="497.8411" showguides="false" fit-margin-left="0" showgrid="false" bordercolor="#666666" showborder="true" borderlayer="false" pagecolor="#ffffff">
	</sodipodi:namedview>
<g id="g4810" transform="matrix(1.0515945,0,0,0.91750507,-30.077154,16.530614)" filter="url(#filter4850)">
	
		<path id="path4812_1_" inkscape:connector-curvature="0" sodipodi:nodetypes="ccccccccccccccccccccccccccccccccccccccccccccccccccc" fill="#FF0000" d="
		M187.798-4.985l3.373,113.903l2.303,7.928l-0.216,1.363l-33.337-61.117l20.61,52.697l-0.513-0.775L89.764,29.728l77.701,90.514
		l-65.679-21.755l65.327,34.397l-83.344,4.12l70.275,7.455l-85.381,39.328l69.202-11.039l-31.636,21.788l52.886-25.178l4.815-0.767
		l-70.016,87.702l83.789-78.963l-17.156,39.539l29.058-48.42l-11.689,97.292l18.216-76.539l4.818,79.464l4.716-91.306l22.923,58.149
		l-10.493-54.636l72.319,96.444l-57.428-102.785l51.583,39.125l-42.35-43.262l73.308,32.929l-38.773-26.236l47.097,10.566
		l-78.638-41.634l122.708-10.202l-128.46-2.942l60.888-23.809l-53.035,10.942l48.239-29.369l-57.609,23.351l84.854-93.629
		l-90.901,75.233l31.48-57.832l-46.512,64.011l15.518-52.1l-27.861,63.418l1.545-75.805l-6.996,44.2L187.798-4.985z"/>
	
		<path id="path4814_1_" inkscape:connector-curvature="0" sodipodi:nodetypes="ccccccccccccccccccccccccccccccccccccccccccccccccccc" fill="#FF0000" d="
		M194.959-14.279l-3.442,119.92l1.93,8.491l-0.31,1.417L161.919,49l18.386,56.812l-0.49-0.85L90.017,15.342l75.945,100.54
		l-67.55-27.45l66.406,40.709l-87.662-1.498l73.245,12.745l-91.954,35.356l73.254-6.761l-34.514,20.681l57.008-22.757l5.096-0.47
		l-78.805,87.258l92.714-77.112l-20.416,40.346l33.443-48.846l-18.22,101.411l23.794-79.148l0.184,83.833l10.54-95.609
		l20.478,62.701l-7.657-58.142l69.937,106.394l-53.931-112.014l51.702,44.716l-41.765-48.419l74.866,39.725l-39.057-30.277
		l48.748,14.395l-79.922-49.244l129.318-2.142l-134.546-12.073l65.317-20.761l-56.293,7.79l52.391-27.487l-61.848,20.509
		l94.729-92.448l-99.944,72.696l36.559-58.566l-52.703,64.007l19.466-53.659l-33.105,64.689l6.265-79.544l-10.045,45.954
		L194.959-14.279z"/>
	
		<path id="path4816_1_" inkscape:connector-curvature="0" sodipodi:nodetypes="ccccccccccccccccccccccccccccccccccccccccccccccccccc" fill="#D45500" d="
		M215.041,2.176L198.31,106.303l0.691,7.662l-0.43,1.195l-19.308-62.198l9.35,51.997l-0.325-0.807l-67.221-90.124l54.011,97.803
		l-55.152-32.94l52.643,44.352l-75.488-12.986l61.755,20.875l-83.422,18.583l64,3.863l-32.161,13.439l51.814-12.252l4.453,0.269
		l-78.028,65.601l88.869-54.9l-22.25,32.467l34.468-38.145l-27.361,86.016l29.617-65.857l-9.46,73.137l20.067-81.98l10.48,57.412
		l0.063-51.727l48.154,102.108l-33.693-104.877l39.491,45.888l-30.491-47.793l60.058,44.621l-30.236-31.61l40.422,19.049
		l-63.33-53.596l111.86,15.362l-114.74-28.455l58.757-9.404l-49.48-0.707l48.372-16.992l-55.734,9.646l92.367-68.006l-94.602,50.084
		l38.273-46.206l-52.831,48.801l22.958-44.204l-35.996,52.006l14.533-68.538l-13.942,38.739L215.041,2.176z"/>
	
		<path id="path4818_1_" inkscape:connector-curvature="0" sodipodi:nodetypes="ccccccccccccccccccccccccccccccccccccccccccccccccccc" fill="#FF7F2A" d="
		M208.84,23.289l-10.31,89.084l0.95,6.454l-0.33,1.035l-19.884-51.674l10.587,43.556l-0.324-0.667l-63.691-72.813l52.287,80.012
		l-50.46-25.007l48.73,34.805l-67.661-7.036l55.801,14.44l-73.33,20.123l57.052-0.088l-27.996,13.073l45.515-13.1l3.969-0.006
		l-46.789,62.043l56.893-53.547l-18.354,28.672l28.965-34.123l-20.551,74.3l23.44-57.343l-5.205,62.451l14.246-70.497l11.828,48.083
		l-2.208-43.822l47.268,83.966l-34.538-87.071l37.109,36.797l-29.193-38.885l55.332,34.645l-28.258-25.189l36.762,14.015
		l-58.633-42.076l100.09,7.139L234.72,136.956l51.809-11.051l-44.008,2l42.248-16.934l-49.113,11.098l68.754-57.707l-71.526,42.643
		l31.994-41.151l-44.818,44.113l18.469-38.651l-29.715,45.944l9.916-58.822l-10.695,33.548L208.84,23.289z"/>
	
		<path id="path4820_1_" inkscape:connector-curvature="0" sodipodi:nodetypes="ccccccccccccccccccccccccccccccccccccccccccccccccccc" fill="#FFCC00" d="
		M209.576,56.479l-8.987,63.636l0.828,4.61l-0.288,0.739l-17.331-36.912l9.228,31.113l-0.283-0.476l-55.514-52.013l45.574,57.155
		l-43.982-17.864l42.474,24.863l-58.974-5.026l48.637,10.315l-63.915,14.374l49.727-0.063l-24.402,9.338l39.671-9.357l3.46-0.005
		l-57.943,42.623l66.749-36.554l-15.997,20.481l25.246-24.375l-17.913,53.076l20.431-40.961l-4.537,44.61l12.417-50.358
		l10.31,34.347l-1.926-31.303l41.201,59.98l-30.105-62.2l32.344,26.286L230.33,158.78l48.228,24.749l-24.63-17.994l32.042,10.011
		l-51.105-30.057l87.24,5.099l-89.972-12.913l45.158-7.894l-38.359,1.428l36.825-12.097l-42.807,7.928l68.958-44.616l-71.373,33.855
		l27.886-29.395l-39.065,31.512l16.097-27.61l-25.9,32.82l8.643-42.018l-9.323,23.964L209.576,56.479z"/>
	
		<path id="path4822_1_" inkscape:connector-curvature="0" sodipodi:nodetypes="ccccccccccccccccccccccccccccccccccccccccccccccccccc" fill="#FFFF00" d="
		M217.873,85.639L206.3,126.341l0.165,3.089l-0.259,0.455l-8.589-25.742l3.587,21.188l-0.151-0.337l-33.207-39.214l26.018,41.631
		l-28.317-15.824l26.691,20.252l-39.597-8.86l32.126,11.336l-44.62,3.341l33.758,4.662l-17.366,3.79l27.732-2.359l2.349,0.325
		l-42.995,22.351l48.45-17.556l-12.62,11.861l19.232-13.528l-16.724,32.962l17.391-24.815l-6.917,28.701l12.76-31.71l4.043,23.403
		l1.386-20.621l22.807,43.062l-15.085-43.462l19.694,20.223l-14.882-20.543l30.606,20.722l-15.17-14.079l20.887,9.568l-32.102-24.46
		l58.777,11.582L226.2,140.793l31.331-0.883l-26.158-2.696l26.035-4.416l-29.738,1.128l50.644-22.61l-51.357,15.356l21.456-16.557
		l-29.226,16.881l13.301-16.505l-20.402,18.98l9.481-26.619l-8.388,14.767L217.873,85.639z"/>
	
		<path id="path4824_1_" inkscape:connector-curvature="0" sodipodi:nodetypes="ccccccccccccccccccccccccccccccccccccccccccccccccccc" opacity="0.75" fill="#FFFFFF" enable-background="new    " d="
		M215.632,114.147l-6.077,20.082l0.087,1.524l-0.136,0.225l-4.509-12.701l1.883,10.454l-0.079-0.167l-17.436-19.348l13.661,20.54
		l-14.868-7.808l14.015,9.992l-20.791-4.371l16.868,5.593l-23.428,1.648l17.725,2.301l-9.118,1.869l14.561-1.162l1.234,0.16
		l-22.575,11.027l25.44-8.661l-6.626,5.851l10.098-6.674l-8.781,16.264l9.131-12.244l-3.631,14.161l6.699-15.645l2.124,11.547
		l0.727-10.174l11.975,21.246l-7.92-21.444l10.341,9.978l-7.814-10.136l16.07,10.223l-7.965-6.946l10.967,4.72l-16.857-12.068
		l30.862,5.714l-31.482-8.36l16.45-0.435l-13.735-1.329l13.67-2.179l-15.614,0.557l26.592-11.156l-26.966,7.576l11.265-8.169
		l-15.345,8.329l6.984-8.144l-10.713,9.365l4.978-13.134l-4.405,7.286L215.632,114.147z"/>
</g>
<g id="g4201" transform="matrix(1.0515945,0,0,0.91750507,-23.697797,19.340936)">
	
		<path id="path4136" inkscape:connector-curvature="0" sodipodi:nodetypes="ccccccccccccccccccccccccccccccccccccccccccccccccccc" fill="#FF0000" d="
		M186.585-5.597l3.373,113.903l2.303,7.928l-0.216,1.363l-33.337-61.117l20.61,52.697l-0.513-0.775L88.551,29.116l77.701,90.514
		l-65.679-21.755l65.327,34.397l-83.344,4.121l70.275,7.454l-85.38,39.329l69.202-11.04l-31.636,21.788l52.886-25.177l4.815-0.768
		L92.7,255.681l83.789-78.963l-17.157,39.539l29.059-48.42l-11.689,97.292l18.216-76.539l4.818,79.464l4.716-91.306l22.922,58.149
		l-10.492-54.636l72.319,96.444L231.773,173.92l51.583,39.124l-42.35-43.262l73.308,32.929l-38.773-26.235l47.097,10.566
		L244,145.408l122.708-10.202l-128.46-2.943l60.888-23.809L246.1,119.396l48.239-29.369l-57.609,23.351l84.854-93.628
		l-90.901,75.232l31.48-57.832l-46.512,64.011l15.518-52.1l-27.861,63.418l1.545-75.805l-6.996,44.2L186.585-5.597z"/>
	
		<path id="path4189" inkscape:connector-curvature="0" sodipodi:nodetypes="ccccccccccccccccccccccccccccccccccccccccccccccccccc" fill="#FF0000" d="
		M193.746-14.892l-3.442,119.919l1.93,8.492l-0.31,1.417l-31.218-66.549l18.385,56.812l-0.489-0.85L88.804,14.73l75.945,100.54
		l-67.55-27.451l66.406,40.709l-87.662-1.498l73.245,12.745l-91.954,35.356l73.254-6.761l-34.514,20.681l57.008-22.757l5.096-0.47
		l-78.805,87.258l92.714-77.112l-20.416,40.347l33.443-48.846l-18.22,101.411l23.794-79.148l0.184,83.832l10.54-95.608l20.478,62.7
		l-7.657-58.142l69.937,106.394l-53.931-112.014l51.702,44.716l-41.765-48.418l74.866,39.725l-39.057-30.278l48.748,14.396
		l-79.922-49.245l129.318-2.141l-134.546-12.073l65.317-20.76l-56.293,7.79l52.391-27.487l-61.848,20.509l94.729-92.448
		l-99.944,72.696l36.559-58.566l-52.703,64.007l19.466-53.659l-33.105,64.689l6.265-79.544l-10.045,45.954L193.746-14.892z"/>
	
		<path id="path4187" inkscape:connector-curvature="0" sodipodi:nodetypes="ccccccccccccccccccccccccccccccccccccccccccccccccccc" fill="#D45500" d="
		M213.828,1.563L197.097,105.69l0.691,7.662l-0.43,1.195L178.05,52.349l9.35,51.998l-0.325-0.807l-67.221-90.124l54.011,97.803
		l-55.152-32.941l52.643,44.352l-75.488-12.986l61.755,20.875L74.202,149.1l64,3.863l-32.161,13.439l51.814-12.251l4.452,0.268
		L84.28,220.02l88.869-54.9l-22.25,32.467l34.468-38.145l-27.361,86.016l29.617-65.857l-9.46,73.137l20.067-81.98l10.48,57.413
		l0.062-51.727l48.154,102.107l-33.694-104.877l39.492,45.888l-30.491-47.792l60.058,44.62l-30.236-31.61l40.422,19.05
		l-63.33-53.597l111.86,15.362l-114.74-28.456l58.757-9.403l-49.48-0.707l48.372-16.992l-55.734,9.646l92.367-68.005l-94.602,50.084
		l38.273-46.206l-52.832,48.801l22.959-44.204l-35.996,52.006l14.533-68.538l-13.943,38.74L213.828,1.563z"/>
	
		<path id="path4191" inkscape:connector-curvature="0" sodipodi:nodetypes="ccccccccccccccccccccccccccccccccccccccccccccccccccc" fill="#FF7F2A" d="
		M207.626,22.676l-10.309,89.084l0.95,6.455l-0.33,1.035l-19.884-51.674l10.587,43.556l-0.324-0.667L124.624,37.65l52.287,80.011
		l-50.461-25.007l48.73,34.805l-67.661-7.035l55.801,14.44l-73.33,20.122l57.052-0.088l-27.996,13.073l45.515-13.1l3.969-0.006
		l-46.789,62.044l56.893-53.548l-18.354,28.672l28.965-34.123l-20.551,74.3l23.44-57.342l-5.205,62.451l14.245-70.498l11.828,48.083
		l-2.208-43.821l47.268,83.966l-34.538-87.072l37.109,36.797l-29.193-38.883l55.332,34.644l-28.258-25.189l36.762,14.015
		l-58.633-42.076l100.09,7.139l-103.224-18.078l51.809-11.051l-44.008,2l42.248-16.934l-49.113,11.098l68.754-57.707l-71.526,42.644
		l31.994-41.151l-44.818,44.113l18.469-38.65l-29.715,45.944l9.916-58.821l-10.695,33.548L207.626,22.676z"/>
	
		<path id="path4193" inkscape:connector-curvature="0" sodipodi:nodetypes="ccccccccccccccccccccccccccccccccccccccccccccccccccc" fill="#FFCC00" d="
		M208.363,55.866l-8.986,63.636l0.828,4.611l-0.288,0.739l-17.331-36.913l9.228,31.113l-0.283-0.476l-55.514-52.013l45.574,57.155
		l-43.982-17.863l42.474,24.863l-58.974-5.026l48.637,10.314l-63.915,14.375l49.727-0.064l-24.402,9.339l39.671-9.358l3.46-0.005
		l-57.943,42.623l66.749-36.554l-15.997,20.481l25.246-24.374l-17.913,53.075l20.431-40.961l-4.537,44.61l12.417-50.358
		l10.31,34.348l-1.926-31.304l41.201,59.98l-30.105-62.198l32.344,26.286l-25.445-27.777l48.229,24.749l-24.63-17.994l32.042,10.011
		l-51.105-30.056l87.239,5.098l-89.971-12.913l45.158-7.895l-38.359,1.428l36.825-12.096l-42.807,7.927l68.958-44.616
		l-71.373,33.855l27.886-29.396l-39.065,31.512l16.097-27.609l-25.9,32.819l8.644-42.018l-9.324,23.965L208.363,55.866z"/>
	
		<path id="path4195" inkscape:connector-curvature="0" sodipodi:nodetypes="ccccccccccccccccccccccccccccccccccccccccccccccccccc" fill="#FFFF00" d="
		M216.66,85.026l-11.574,40.702l0.165,3.089l-0.259,0.456l-8.589-25.742l3.587,21.189l-0.151-0.338l-33.207-39.214l26.018,41.632
		l-28.317-15.824l26.691,20.252l-39.597-8.86l32.126,11.336l-44.62,3.342l33.758,4.662l-17.367,3.789l27.732-2.359l2.349,0.325
		l-42.995,22.351l48.45-17.555l-12.62,11.86l19.232-13.528l-16.724,32.962l17.391-24.815l-6.917,28.701l12.76-31.709l4.043,23.402
		l1.386-20.621l22.807,43.062l-15.085-43.462l19.694,20.223l-14.882-20.542l30.606,20.721l-15.17-14.079L258.271,170l-32.102-24.46
		l58.777,11.582l-59.959-16.943l31.331-0.883l-26.158-2.695l26.035-4.416l-29.738,1.127l50.644-22.61l-51.357,15.356l21.456-16.557
		l-29.226,16.881l13.301-16.506l-20.402,18.981l9.481-26.619l-8.388,14.766L216.66,85.026z"/>
	
		<path id="path4199" inkscape:connector-curvature="0" sodipodi:nodetypes="ccccccccccccccccccccccccccccccccccccccccccccccccccc" opacity="0.75" fill="#FFFFFF" enable-background="new    " d="
		M214.418,113.535l-6.077,20.082l0.087,1.524l-0.137,0.225l-4.51-12.701l1.883,10.454l-0.079-0.167l-17.436-19.348l13.661,20.541
		l-14.868-7.808l14.015,9.992l-20.791-4.371l16.868,5.592l-23.428,1.649l17.725,2.3l-9.118,1.869l14.561-1.162l1.233,0.16
		l-22.575,11.028l25.44-8.662l-6.626,5.852l10.098-6.675l-8.781,16.264l9.131-12.243l-3.632,14.16l6.699-15.645l2.124,11.547
		l0.727-10.174l11.975,21.246l-7.92-21.444l10.341,9.978l-7.814-10.136l16.07,10.224l-7.965-6.946l10.967,4.719l-16.857-12.068
		l30.862,5.714l-31.482-8.358l16.45-0.436l-13.735-1.329l13.67-2.179l-15.614,0.557l26.592-11.156l-26.966,7.576l11.265-8.169
		l-15.345,8.329l6.984-8.143l-10.713,9.364l4.978-13.133l-4.405,7.286L214.418,113.535z"/>
</g>
</svg>
