<svg xmlns="http://www.w3.org/2000/svg" width="382.168" height="285.597" viewBox="0 0 382.168 285.597"><filter height="1.025" width="1.024" id="a" y="-.012" x="-.012" color-interpolation-filters="sRGB"><feGaussianBlur stdDeviation="1.947"/></filter><g transform="matrix(1.0516 0 0 .9175 -30.077 16.53)" filter="url(#a)"><path fill="#F00" d="M187.798-4.985l3.373 113.903 2.304 7.928-.216 1.363L159.92 57.09l20.61 52.697-.512-.776-90.254-79.286 77.7 90.514-65.678-21.755 65.327 34.397-83.344 4.12 70.274 7.455-85.38 39.327 69.2-11.04-31.635 21.79 52.885-25.18 4.815-.766-70.016 87.703 83.79-78.963-17.157 39.54 29.058-48.42-11.69 97.29 18.217-76.538 4.818 79.464 4.716-91.306 22.923 58.15-10.494-54.637 72.32 96.444-57.43-102.785 51.584 39.125-42.35-43.262 73.308 32.93-38.773-26.237 47.097 10.566-78.638-41.634 122.708-10.202-128.46-2.942 60.888-23.81-53.035 10.943 48.24-29.37-57.61 23.35L322.8 20.363l-90.902 75.233 31.48-57.832-46.512 64.01 15.518-52.1-27.86 63.42 1.544-75.806-6.996 44.2-11.274-86.472z"/><path fill="#F00" d="M194.96-14.28l-3.443 119.92 1.93 8.492-.31 1.417L161.92 49l18.385 56.812-.49-.85-89.798-89.62 75.945 100.54-67.55-27.45 66.406 40.71-87.662-1.5L150.4 140.39l-91.953 35.356 73.254-6.76-34.513 20.68 57.008-22.757 5.096-.47-78.804 87.258 92.714-77.112-20.416 40.346 33.443-48.847-18.22 101.41 23.794-79.147.185 83.833 10.54-95.61 20.478 62.7-7.657-58.14 69.937 106.393-53.93-112.014 51.7 44.715-41.764-48.42 74.865 39.726-39.057-30.276 48.748 14.395-79.922-49.245 129.318-2.142-134.546-12.073 65.317-20.76-56.293 7.79 52.39-27.488-61.847 20.51 94.73-92.45-99.945 72.697 36.56-58.567-52.704 64.007 19.466-53.66-33.105 64.69 6.265-79.544-10.045 45.954-6.526-91.65z"/><path fill="#D45500" d="M215.04 2.176l-16.73 104.127.69 7.662-.43 1.195-19.307-62.198 9.35 51.997-.325-.808-67.22-90.124 54.01 97.803-55.152-32.94 52.643 44.353-75.49-12.986 61.756 20.875-83.422 18.583 64 3.863-32.16 13.44 51.813-12.253 4.453.27-78.028 65.6 88.87-54.9-22.25 32.467 34.467-38.145-27.362 86.016 29.617-65.857-9.46 73.137 20.067-81.98 10.48 57.412.063-51.727 48.154 102.108-33.694-104.877 39.49 45.887-30.49-47.793 60.058 44.62-30.236-31.61 40.422 19.05-63.33-53.596 111.86 15.362-114.74-28.455 58.757-9.404-49.48-.706 48.372-16.992-55.735 9.646 92.367-68.006-94.602 50.084 38.273-46.206-52.83 48.8 22.957-44.203-35.996 52.006 14.533-68.538-13.942 38.74 4.886-80.8z"/><path fill="#FF7F2A" d="M208.84 23.29l-10.31 89.083.95 6.454-.33 1.035-19.884-51.674 10.587 43.556-.324-.667-63.692-72.813 52.287 80.012-50.46-25.007 48.73 34.804-67.66-7.036 55.8 14.44-73.33 20.123 57.052-.087-27.996 13.073 45.516-13.1 3.97-.006-46.79 62.043 56.893-53.547-18.355 28.672 28.965-34.123-20.55 74.3 23.44-57.343-5.206 62.45 14.246-70.496 11.828 48.083-2.208-43.823 47.268 83.966-34.538-87.07 37.11 36.796-29.194-38.886 55.332 34.645-28.258-25.19 36.762 14.015L237.86 147.9l100.09 7.138-103.23-18.082 51.81-11.05-44.01 2 42.25-16.935-49.114 11.1L304.41 64.36l-71.526 42.643 31.994-41.15-44.818 44.112 18.47-38.65-29.716 45.943 9.916-58.822-10.695 33.548.805-68.697z"/><path fill="#FC0" d="M209.576 56.48l-8.987 63.635.827 4.61-.288.74-17.332-36.913 9.228 31.113-.283-.476-55.514-52.014 45.573 57.155-43.982-17.863 42.475 24.863-58.974-5.026 48.638 10.315-63.915 14.373 49.727-.063-24.402 9.338 39.67-9.357 3.46-.004-57.942 42.623 66.75-36.555-15.998 20.48 25.246-24.374-17.913 53.077 20.432-40.96-4.537 44.61 12.417-50.36 10.31 34.348-1.926-31.303 41.2 59.98-30.104-62.2 32.344 26.286-25.446-27.778 48.228 24.75-24.63-17.995 32.042 10.01-51.105-30.056 87.24 5.098-89.972-12.913 45.158-7.894-38.358 1.43 36.825-12.098-42.807 7.928 68.958-44.616-71.373 33.855 27.886-29.396-39.064 31.512 16.097-27.61-25.9 32.82 8.643-42.018-9.323 23.964.703-49.073z"/><path fill="#FF0" d="M217.873 85.64l-11.573 40.7.165 3.09-.26.455-8.588-25.742 3.587 21.188-.15-.336-33.208-39.214 26.018 41.63-28.317-15.823 26.69 20.252-39.596-8.86 32.127 11.335-44.62 3.34 33.758 4.663-17.366 3.79 27.73-2.36 2.35.326-42.995 22.35 48.45-17.555-12.62 11.86 19.232-13.528-16.724 32.962 17.39-24.815-6.916 28.7 12.76-31.71 4.043 23.403 1.386-20.62 22.807 43.06-15.085-43.46 19.694 20.222-14.882-20.543 30.606 20.722-15.17-14.08 20.887 9.57-32.102-24.46 58.778 11.58-59.958-16.94 31.33-.884-26.157-2.696 26.035-4.416-29.738 1.128 50.644-22.61-51.357 15.356 21.456-16.557-29.226 16.88 13.3-16.504-20.4 18.98 9.48-26.618-8.388 14.767 4.693-31.98z"/><path opacity=".75" fill="#FFF" enable-background="new" d="M215.632 114.147l-6.077 20.082.087 1.523-.136.225-4.51-12.7 1.884 10.453-.08-.166-17.435-19.348 13.66 20.54-14.867-7.808 14.015 9.992-20.79-4.37 16.867 5.592-23.428 1.648 17.725 2.3-9.118 1.87 14.56-1.162 1.234.16-22.575 11.027 25.44-8.66-6.627 5.85 10.098-6.674-8.78 16.265 9.13-12.244-3.63 14.162 6.7-15.645 2.123 11.547.727-10.174 11.975 21.246-7.92-21.444 10.34 9.978-7.813-10.136 16.07 10.223-7.965-6.946 10.967 4.72-16.857-12.067 30.862 5.714-31.483-8.36 16.45-.435-13.735-1.33 13.67-2.178-15.614.557 26.592-11.155-26.966 7.576 11.265-8.168-15.346 8.33 6.984-8.145-10.713 9.365 4.978-13.134-4.405 7.286 2.464-15.777z"/></g><path fill="#F00" d="M172.514 14.206l3.547 104.506 2.423 7.274-.227 1.25L143.2 71.163l21.672 48.35-.54-.712-94.91-72.745 81.71 83.047-69.068-19.96 68.698 31.56-87.644 3.78 73.9 6.84-89.785 36.084 72.773-10.13-33.268 19.99 55.614-23.1 5.064-.703-73.63 80.467 88.11-72.45-18.04 36.278 30.557-44.426-12.292 89.266 19.157-70.225 5.066 72.91 4.96-83.775 24.104 53.352-11.033-50.13 76.05 88.49-60.39-94.307 54.244 35.897-44.535-39.693 77.09 30.212-40.773-24.07 49.527 9.693-82.696-38.2 129.04-9.36-135.088-2.7 64.03-21.845-55.772 10.04 50.727-26.947-60.58 21.426 89.23-85.904-95.59 69.025 33.104-53.06-48.91 58.73 16.318-47.802L190.1 122.54l1.624-69.55-7.356 40.553-11.854-79.337z"/><path fill="#F00" d="M180.044 5.677l-3.62 110.027 2.03 7.79-.326 1.3L145.3 63.737l19.333 52.126-.514-.78-94.432-82.226 79.863 92.246-71.034-25.187 69.832 37.35-92.185-1.373 77.024 11.693-96.698 32.44 77.033-6.204-36.295 18.976 59.95-20.88 5.358-.43-82.87 80.06 97.497-70.752-21.47 37.02 35.17-44.818-19.16 93.046 25.02-72.62.194 76.917L188 182.617l21.535 57.528-8.052-53.346 73.546 97.617-56.715-102.773 54.37 41.027-43.92-44.423 78.728 36.448-41.072-27.78 51.264 13.208-84.045-45.182 135.99-1.964L228.14 141.9l68.688-19.048L237.63 130l55.095-25.22-65.04 18.817 99.617-84.82-105.1 66.697 38.445-53.734-55.422 58.727 20.47-49.233-34.813 59.353 6.588-72.982-10.563 42.163-6.863-84.09z"/><path fill="#D45500" d="M201.163 20.775l-17.595 95.537.727 7.03-.452 1.096L163.54 67.37l9.83 47.71-.34-.74-70.69-82.69 56.798 89.735L101.14 91.16l55.36 40.695-79.384-11.915 64.942 19.153-87.725 17.048 67.302 3.545-33.82 12.33 54.487-11.24 4.68.246-82.05 60.19 93.453-50.37-23.398 29.788 36.246-34.998-28.773 78.92 31.146-60.424-9.95 67.103 21.104-75.218 11.02 52.677.066-47.46 50.638 93.683-35.432-96.225 41.53 42.102-32.065-43.85 63.157 40.94-31.796-29.002 42.507 17.478-66.597-49.176 117.63 14.095-120.66-26.108 61.79-8.628-52.033-.65 50.868-15.59-58.61 8.85 97.133-62.394-99.483 45.952 40.247-42.394-55.557 44.775 24.143-40.558-37.853 47.715 15.283-62.884-14.663 35.545 5.14-74.133z"/><path fill="#FF7F2A" d="M194.64 40.146L183.8 121.88l1 5.924-.348.95-20.91-47.412 11.133 39.963-.34-.612-66.98-66.808 54.986 73.41-53.064-22.944 51.245 31.935-71.15-6.454 58.68 13.25-77.115 18.46 59.996-.08-29.44 11.995 47.864-12.02 4.173-.005-49.203 56.926 59.83-49.13-19.302 26.306 30.46-31.308-21.612 68.17 24.65-52.61-5.474 57.298 14.98-64.682 12.438 44.116-2.322-40.206 49.707 77.04-36.32-79.89 39.022 33.762-30.7-35.675 58.188 31.786-29.716-23.11 38.66 12.858-61.66-38.604 105.255 6.55-108.55-16.587 54.48-10.14-46.278 1.835 44.428-15.537-51.647 10.182 72.302-52.946-75.217 39.126 33.645-37.756-47.13 40.473 19.422-35.46-31.25 42.153 10.43-53.97-11.248 30.782.844-63.036z"/><path fill="#FC0" d="M195.416 70.598l-9.45 58.387.87 4.23-.302.678-18.225-33.868 9.703 28.547-.298-.437-58.378-47.722 47.925 52.44-46.25-16.39 44.664 22.812-62.016-4.61 51.146 9.462-67.212 13.19 52.292-.06-25.66 8.57 41.717-8.587 3.638-.004-60.93 39.106 70.192-33.538-16.823 18.79 26.548-22.362-18.837 48.697 21.486-37.583-4.77 40.93 13.056-46.204 10.842 31.514-2.025-28.72 43.326 55.03-31.658-57.066L244 189.95l-26.758-25.485 50.718 22.707-25.9-16.51 33.694 9.186-53.74-27.577 91.74 4.677L219.14 145.1l47.487-7.245-40.338 1.31 38.724-11.098L220 135.34l72.515-40.935-75.056 31.062 29.324-26.97-41.08 28.91 16.927-25.33-27.235 30.112 9.09-38.553-9.806 21.988.736-45.027z"/><path fill="#FF0" d="M204.14 97.353l-12.17 37.344.173 2.834-.272.42-9.03-23.62 3.77 19.442-.158-.31-34.92-35.98 27.36 38.2-29.778-14.52 28.068 18.58-41.64-8.128 33.784 10.4-46.923 3.067 35.5 4.28-18.263 3.475 29.163-2.164 2.47.3-45.213 20.506 50.95-16.107-13.272 10.88 20.225-12.41-17.587 30.242 18.288-22.768-7.274 26.333 13.42-29.093 4.25 21.47 1.458-18.918 23.983 39.51-15.862-39.877 20.71 18.553-15.65-18.847 32.185 19.01-15.952-12.916 21.97 8.777-33.76-22.442 61.81 10.626-63.053-15.544 32.948-.81-27.508-2.473 27.378-4.052-31.272 1.035L267.7 120.91 213.693 135l22.563-15.19-30.734 15.487 13.988-15.144-21.455 17.415 9.97-24.423-8.82 13.548 4.936-29.34z"/><path opacity=".75" fill="#FFF" enable-background="new" d="M201.783 123.51l-6.39 18.425.09 1.398-.143.207-4.743-11.653 1.98 9.59-.083-.152-18.335-17.752 14.364 18.847-15.635-7.164 14.737 9.167-21.863-4.01 17.738 5.13-24.637 1.514 18.64 2.11-9.59 1.715 15.314-1.066 1.295.146-23.74 10.12 26.753-7.95-6.968 5.37 10.62-6.124-9.235 14.922 9.602-11.233-3.82 12.992 7.046-14.355 2.233 10.594.765-9.335 12.593 19.493-8.328-19.675 10.874 9.155-8.218-9.3 16.9 9.38-8.377-6.372 11.533 4.33-17.726-11.073 32.454 5.243-33.106-7.67 17.298-.4-14.443-1.218 14.375-2-16.42.51 27.964-10.234-28.357 6.95 11.846-7.494-16.137 7.642 7.345-7.472-11.265 8.592 5.235-12.05-4.632 6.685 2.595-14.477z"/></svg>