<svg viewBox="-0.258 -0.548 123.547 123.539" xmlns="http://www.w3.org/2000/svg"><path d="M90.625 107.004c-5.172 0-9.703-4.25-9.703-9.102v-36.14c0-1.648-1.344-2.992-2.992-2.992h-7.188l-.04 47.992-38.07-.633V23.98c0-4.29 3.5-7.78 7.798-7.78h22.477c4.297 0 7.797 3.49 7.797 7.78v.93c0 5.03-.023 28.734-.562 28.766h7.703c4.406 0 7.984 3.578 7.984 7.984l-.048 36.242c0 2.39 2.602 4.242 4.844 4.242 2.422 0 5.492-2 5.352-5.36l-3.836-20.68-.852-7.007.61-20.438-1.712-.024c-3.812 0-6.898-3.078-6.898-6.875l.188-10.694s-6.336-6.29-6.336-7.172c0 0 2.438-2.43 3.32-2.43l12.766 12.703c2 2.016 2.97 4.414 2.97 7.367v27.562s.788 5.97.788 6.016c0 0 3.906 21.586 3.992 22.79 0 5.22-5.47 9.102-10.353 9.102zm18.46-107.78H15.063C6.914-.777.296 5.84.296 13.995v94.008c0 8.156 6.617 14.773 14.766 14.773h94.023c8.148 0 14.766-6.617 14.766-14.773V13.996c.002-8.156-6.616-14.773-14.764-14.773z" fill="#231f20"/><path d="M15.062 1.723c-6.766 0-12.266 5.508-12.266 12.273v94.008c0 6.773 5.5 12.28 12.266 12.28h94.023c6.773 0 12.266-5.507 12.266-12.28V13.996c0-6.766-5.49-12.273-12.265-12.273H15.062z" fill="#fff"/><path d="M65.055 42.934c0 1.195-.945 2.125-2.148 2.125H40.43c-1.21 0-2.148-.93-2.148-2.126V23.98c0-1.195.938-2.125 2.148-2.125h22.477c1.203 0 2.148.93 2.148 2.125v18.954zm26.203 2.42c-2.844-.624-3.875-2.085-3.875-3.43v-4.897s1.89.422 2.344.54c.922.24 1.508 1.655 1.53 2.89.032 1.234 0 4.898 0 4.898zm5.726 29.76c0-.048-.79-6.017-.79-6.017V41.535c0-2.953-.968-5.352-2.968-7.367L80.46 21.465c-.882 0-3.32 2.43-3.32 2.43 0 .883 6.337 7.172 6.337 7.172l-.188 10.695c0 3.797 3.085 6.875 6.897 6.875l1.71.023-.608 20.438.85 7.008 3.837 20.68c.14 3.36-2.93 5.36-5.352 5.36-2.242 0-4.844-1.853-4.844-4.243l.048-36.242c0-4.405-3.578-7.983-7.984-7.983H70.14c.54-.03.563-23.734.563-28.766v-.93c0-4.288-3.5-7.78-7.797-7.78H40.43c-4.297 0-7.797 3.492-7.797 7.78v82.15l38.07.632.04-47.992h7.187c1.648 0 2.992 1.344 2.992 2.992v36.14c0 4.853 4.53 9.103 9.703 9.103 4.883 0 10.352-3.883 10.352-9.102-.086-1.204-3.993-22.79-3.993-22.79z" fill="#231f20"/></svg>