<svg xmlns="http://www.w3.org/2000/svg" xmlns:xlink="http://www.w3.org/1999/xlink" viewBox="0 0 800.00001 800.00001" height="800" width="800"><defs><linearGradient id="a"><stop offset="0"/><stop offset="1" stop-opacity="0"/></linearGradient><mask id="d" maskUnits="userSpaceOnUse"><circle style="isolation:auto;mix-blend-mode:normal" cx="400" cy="652.362" r="400" color="#000" overflow="visible" solid-color="#000000" fill="#fff" fill-rule="evenodd" stroke-width="1.585" stroke-miterlimit="10"/></mask><mask id="b" maskUnits="userSpaceOnUse"><circle style="isolation:auto;mix-blend-mode:normal" cx="400" cy="400" r="400" color="#000" overflow="visible" solid-color="#000000" fill="#fff" fill-rule="evenodd" stroke-width="1.585" stroke-miterlimit="10"/></mask><linearGradient gradientUnits="userSpaceOnUse" y2="685.731" x2="143.676" y1="496.833" x1="376.987" id="c" xlink:href="#a"/></defs><g transform="translate(0 -252.362)"><circle r="400" cy="652.362" cx="400" style="isolation:auto;mix-blend-mode:normal" color="#000" overflow="visible" solid-color="#000000" fill="#1c8adb" fill-rule="evenodd"/><path mask="url(#b)" transform="translate(0 252.362)" d="M397.02 215.37c-5.01 0-9.674.948-13.993 2.85-4.32 1.726-8.12 4.232-11.402 7.514l-343.14 343.14s50.53 186.487 270.03 221.544L504.3 584.63v-37.57h-77.48V324.462H373.7l48.456-48.457c3.283-3.282 5.786-7.084 7.514-11.402 1.9-4.32 2.85-8.898 2.85-13.735 0-5.01-.95-9.59-2.85-13.735-1.728-4.32-4.23-8.118-7.514-11.4-3.11-3.283-6.823-5.79-11.142-7.516-4.32-1.902-8.985-2.85-13.994-2.85z" style="line-height:125%;-inkscape-font-specification:Consolas" font-family="Consolas" letter-spacing="0" word-spacing="0" fill="url(#c)" opacity=".42"/><path mask="url(#d)" style="line-height:125%;-inkscape-font-specification:Consolas" d="M381.213 614.14H304.25v-37.315h122.57V799.42h77.48v37.574H295.7V799.42h85.513V614.14zm15.807-146.41q7.515 0 13.993 2.85 6.478 2.592 11.143 7.516 4.923 4.923 7.515 11.402 2.85 6.22 2.85 13.734 0 7.255-2.85 13.734-2.59 6.478-7.514 11.4-4.665 4.925-11.143 7.775-6.478 2.593-13.993 2.593-7.515 0-13.993-2.592-6.478-2.85-11.402-7.773-4.664-4.923-7.515-11.4-2.59-6.48-2.59-13.735 0-7.515 2.59-13.734 2.85-6.48 7.515-11.402 4.924-4.924 11.402-7.515 6.478-2.85 13.993-2.85z" font-family="Consolas" letter-spacing="0" word-spacing="0" fill="#fff"/></g></svg>