<svg viewBox="0 0 24 40" xmlns="http://www.w3.org/2000/svg"><path d="M13.312.942c-9.59-.43-8.52 6.958-9.586 12.78-1.162 1.168-2.584 2.69-2.734 4.938.467 2.466.817 4.262 1.846 7.37-1.662 11.243.113 14.126 5.075 13.344 1.724-.73 4.923-6.708 1.08-10.34l-.06-3.828c2.413-.14 3.993-.54 7.84-2.63 3.067-.286 6.64-1.24 6.776-3.85.12-1.773-1.123-2.616-2.17-3.617-.036-1.568-.05-3.088.098-4.628-.572-1.668-3.586-2.596-3.61-5.477-.946-1.497-3.03-2.71-4.556-4.063z" fill="#ff0728" fill-rule="evenodd"/><path d="M9.308 1.753C7.842 3.03 8.31 4.305 9.515 5.58c-2.185 1.468-3.29 3.337-.622 5.213-1.06 3.35.255 5.372 2.486 7.008-.587 2.864.588 4.704 2.84 5.92-3.105 2.124-5.688 1.203-8.167-.324-1.52.592-1.856 1.63-2.19 2.414 1.055 3.725-1.892 7.954 3.196 13.664-3.352.565-4.095-1.702-4.913-3.887-.526-3.643-.037-7.185.533-10.72L.846 18.685l3.373-6.36c.017-4.79.628-10.313 5.088-10.57z" fill="#913333" fill-opacity=".562" fill-rule="evenodd" opacity=".64"/><path d="M3.522 9.548c.136-2.08.363-3.275.802-4.214C5 3.886 6.99 1.63 8.217.92c.77-.447 2.65-.9 3.81-.918 1.12-.018 1.387.11 1.95.938.67.98 1.432 1.63 2.56 2.18 1.514.74 1.857 1.206 1.868 2.537.01 1.075.308 1.606 1.323 2.353 1.32.97 2.024 1.863 2.232 2.826.17 1.267-.86 2.59-.43 3.832.767.66 1.438 1.14 2.084 1.933.846 1.66.245 4.075-1.258 5.044-.885.43-2.263.752-3.823.897-1.597.15-2.28.38-3.713 1.256-1.797.966-2.866 1.538-5.295 1.56l-.145 3.18c2.085 1.992 2.425 3.567 1.7 6.298-.716 2.094-.562 3.705-2.748 4.733-1.12.464-1.977.55-2.888.285-1.54-.446-2.55-1.2-3.094-2.312-1.018-2.077-1.173-6.545-.363-10.426.483-1.616.215-3.11-.51-4.595C.434 19.93.892 19.356 0 18.6c2.428-3.79 3.154-4.49 3.522-9.052zm-.896 13.004c.793 1.475.688 3.207.29 4.776-.622 3.188-1.012 7.344.487 10.288.608.88 2.043 1.59 3.214 1.59 2.782-.074 2.85-2.15 3.5-4.255.502-1.12.546-2.483.028-3.604-.994-1.908-3.022-2.793-4.612-4.098.97-.15 1.868.28 2.752.603l-.115-2.825c-2.973-1.373-3.187-4.037-2.08-6.78-1.01-.745-1.917-2.137-1.905-4.136-.547 1.543-1.83 2.782-2.39 4.31-.343 1.536.116 2.825.83 4.132zm6.885-12.32c1.08-.29 2.126-.392 1.907-.19-.06.057-.797.408-1.634.78-3.963 1.206-6.093 6.192-1.164 7.163 2.358.03 5.082-2.435 7.334-1.08-1.39-.264-2.598.325-3.828.91-1.558.77-2.344.978-3.703.984-1.837.11-1.794 2.12-1.44 3.493 1.95 3.46 5.663 1.727 8.32.436 1.462-.73 2.204-.934 4.294-1.19 2.412-.154 3.397-1.173 3.45-3.683.058-1.59-2.5-1.85-2.544-3.232.053-1.108.38-2.183.466-3.286.003-1.012-.617-1.792-2.046-2.572-1.115-.61-1.246-.842-1.345-2.387-.042-.64-.124-1.245-.182-1.34-1.774-1.234-2.84-1.53-4.25-3.415-2.16-.783-6.783.683-6.306 3.632 1.937-.197 3.702-.31 5.163.814-.6.148-1.22.135-1.833.1-5.235-1.364-7 6.237-.66 4.06z"/></svg>