<?xml version="1.0" encoding="utf-8"?>
<!-- Generator: Adobe Illustrator 16.0.0, SVG Export Plug-In . SVG Version: 6.00 Build 0)  -->
<!DOCTYPE svg PUBLIC "-//W3C//DTD SVG 1.1//EN" "http://www.w3.org/Graphics/SVG/1.1/DTD/svg11.dtd">
<svg version="1.1" id="Capa_1" xmlns="http://www.w3.org/2000/svg" xmlns:xlink="http://www.w3.org/1999/xlink" x="0px" y="0px"
	 width="1080px" height="300px" viewBox="0 0 1080 300" enable-background="new 0 0 1080 300" xml:space="preserve">
<path fill="#D1D1D2" d="M1080,294.675c0.012,154.187-241.577,279.183-539.606,279.191C242.366,573.871,0.757,448.885,0.742,294.7
	c0-0.007,0-0.017,0-0.025C0.728,140.49,242.315,15.494,540.344,15.485C838.372,15.48,1079.984,140.464,1080,294.647
	C1080,294.658,1080,294.668,1080,294.675z"/>
<linearGradient id="SVGID_1_" gradientUnits="userSpaceOnUse" x1="-2133.3564" y1="-1215.0664" x2="-2437.6609" y2="-552.5742" gradientTransform="matrix(0.4011 0 0 -0.4011 1098.8711 -25.9363)">
	<stop  offset="0" style="stop-color:#ADADB0"/>
	<stop  offset="1" style="stop-color:#B7B7B9;stop-opacity:0.3878"/>
</linearGradient>
<path fill="url(#SVGID_1_)" d="M34.556,392.024c-42.333-63.376-50.684-134.974,13.929-212.152
	c2.713-3.24,11.072,8.041,11.072,11.556v15.317c0,6.556,1.638,7.85,5.837,12.257l9.736,10.214c3.837,4.03,2.913,6.119,5.836,12.257
	c1.705,3.576,3.663,9.97,7.787,14.298c5.286,5.545,6.225,11.642,11.682,17.362c4.671,4.903,10.884,11.607,13.624,17.366
	c2.81,5.892,8.155,11.616,13.628,17.359c4.121,4.327,5.782,10.186,11.677,13.279c5.031,2.639,9.667,4.841,19.464,6.127
	c12.126,1.589,31.111,3.055,42.827,6.128c7.81,2.05,19.617,3.104,27.25,5.107c5.756,1.51,10.926,4.397,17.518,6.127
	c9.736,2.555,14.937,4.774,21.414,8.171c3.224,1.692,13.625,6.844,13.625,10.215v15.318c0,2.426-2.91,13.792,0,15.32
	c4.413,2.315,7.589,7.712,17.518,5.105c6.324-1.66,11.777-3.114,17.518-6.129c3.323-1.739,10.042-7.107,17.523-6.125
	c3.798,0.497,11.44,0.893,17.518,4.083c5.013,2.631,9.625,4.03,15.573,7.151c3.669,1.926,10.027,5.695,15.569,7.147
	c2.771,0.728,16.532,4.051,17.523,6.131c1.727,3.628,3.96,8.926-5.842,10.212c-8.788,1.152-12.806,1.828-21.414,4.084
	c-4.747,1.249-13.377,4.309-19.464,5.108c-10.422,1.366-15.111,1.561-19.464,6.125c-3.473,3.646-7.533,4.976-13.627,8.173
	c-4.725,2.477-12.345,4.757-3.896,9.19c4.25,2.23,9.008,5.428,15.573,7.15c7.664,2.012,13.662,4.095,21.414,6.128
	c5.157,1.354,15.365,2.954,19.464,5.108c8.793,4.61,5.684,4.574-5.836,3.062c-8.604-1.128-15.861-3.101-23.358-4.083
	c-8.613-1.129-16.71-1.022-27.256-1.022c-10.571,0-18.615-1.02-29.195-1.02c-11.813,0-21.74-1.024-33.092-1.024
	c-5.844,0-25.155,0.786-17.518,6.13c7.045,4.93,9.275,5.105,23.36,5.105c9.888,0,17.46-0.03,23.359,3.065
	c5.203,2.73,8.131,5.472,11.677,9.191c4.264,4.474,9.651,8.083,13.627,12.257c4.593,4.82,7.279,6.881,15.572,11.232
	c5.017,2.631,14.714,4.453,25.305,3.065c6.492-0.853,24.698-4.721,27.25-2.044c-3.507-3.678-4.19,8.328-9.732,11.234
	c-6.984,3.666-15.569,1.536-21.414,0c-6.643-1.742-15.101-2.427-21.413-4.084c-7.948-2.084-12.276-4.241-19.464-6.128
	c-11.356-2.979-9.632-3.276-7.787-7.151c3.331-6.992-1.589-4.083-13.623-4.083c-10.907,0-18.009,1.086-25.305,2.041
	c-12.625,1.655-5.042,4.507,0,7.149c10.667,5.601-5.549,0.079-9.736-1.021c-6.974-1.83-13.156-4.86-17.519-7.148
	c-6.697-3.515-13.343-4.959-19.464-8.169c-5.552-2.916-11.536-4.56-17.518-6.129c-7.019-1.841-11.072-4.789-15.573-7.15
	c-4.071-2.136,7.786-3.558,7.786-9.192c0-7.186-1.439-7.903-7.786-11.237c-5.37-2.813-2.418,8.421-7.787,11.237
	c-1.565,0.821-18.493-4.851-19.464-5.105c-7.077-1.858-12.326-3.404-17.522-6.129c-5.276-2.769-7.797-7.499-11.677-10.214
	c-5.123-3.584-7.376-6.074-15.573-7.148c-4.164-0.548-11.122-6.86-13.624-8.172c-5.947-3.121-8.614-5.541-13.627-8.171
	c-6.374-3.345-2.652-8.451,0-11.236c3.281-3.441,9.383-5.943,13.627-8.17c0.127-0.064-16.965,2.738-19.468,3.066
	c-11.082,1.452-9.797-2.077-15.572-5.105c-4.458-2.343-3.891-8.729-3.891-13.279C53.716,392.985,40.066,392.747,34.556,392.024
	L34.556,392.024z"/>
<linearGradient id="SVGID_2_" gradientUnits="userSpaceOnUse" x1="-665.5747" y1="-1364.2241" x2="-1175.9666" y2="-488.0777" gradientTransform="matrix(0.4011 0 0 -0.4011 1098.8711 -25.9363)">
	<stop  offset="0" style="stop-color:#ADADB0"/>
	<stop  offset="1" style="stop-color:#B7B7B9;stop-opacity:0.3878"/>
</linearGradient>
<path fill="url(#SVGID_2_)" d="M895.099,411.769c-20.158,9.657-3.698,25.184,17.626,28.427c-3.371,15.33-36.23,11.723-52.353,20.708
	c-8.2,8.358,53.392,1.607,22.087,10.585c-16.147,0.863-37.032,32.593-18.012,17.147c19.427-1.605,34.552-18.074,54.356-10.392
	c16.722-3.114,18.323,0.439,4.167,5.027c-13.607,6.23-23.301,22.277-41.304,15.295c-13.384,10.167-39.429,15.54-62.68,15.623
	c-17.137,1.577,10.75,15.152-15.58,16.308c-25.968,7.029-4.018-16.69,9.898-16.881c-0.018-10.387,11.423-15.253,31.42-14.367
	c19.593-15.379,10.708-19.23-6.987-9.306c-15.861,8.486-40.563,12.577-62.953,11.709c-8.183-10.693-33.134-4.873-45.337-9.872
	c21.228-11.825,55.508-12.435,80.596-21.258c14.646-3.471,39.587-2.441,30.891-14.269c6.544-7.64,35.897-7.413,37.47-12.229
	c-13.393-0.853-22.297-0.379-23.725-6.196c-21.708,2.441-23.617,11.681-21.335,21.05c-11.971,11.54-39.611,6.453-58.646,11.781
	c-23.895,2.259-50.694,3.696-72.786-2.452c-15.993-3.914-42.072,7.998-50.355,4.118c14.767-9.015,39.605-5.681,58.143-11.267
	c19.513-6.095,52.393-20.639,42.692-32.992c-29.292-3.557-41.005,18.04-58.7,23.598c-14.368-2.939-24.249-8.098-40.405-4.965
	c1.853-7.322,1.343-14.342-18.9-14.559c-25.437,4.575-50.08-10.868-22.015-19.083c1.876-9.438-30.444,1.143-38.584,3.579
	c-33.034,6.911-9.534-16.673,0.664-22.261c1.277-11.522,10.87-25.127-1.353-35.54c-14.893-3.607-42.207-19.678-13.333-22.766
	c23.978,5.786,58.101-1.617,40.991-17.219c-4.604-7.154-20.202-24.946,4.322-24.51c6.8-7.505-13.11-19.726,13.132-23.251
	c13.781-9.324,27.017-17.607,49.919-20.146c23.366-7.98,39.91-19.383,51.221-32.678c6.633-16.179,45.823-4.48,66.791-3.808
	c15.347,5.819,4.651,22.171,0.556,31.182c-7.936,11.109-6.124,23.923-1.956,35.387c9.903,12.031,32.53,19.494,45.628,30.229
	c10.919,12.159-3.143,30.067,19.71,38.074c18.871,9.927,32.002,33.157,42.554,45.744c2.819,1.822,42.18,5.165,55.836-5.179
	c16.41,3.52,27.413,10.961,26.121,11.801c-3.793,2.467,18.814,12.726-2.111,17.133c-10.247,2.155-15.492-7.496-24.239-10.325
	c-8.746-2.828-23.067,1.717-26.558,1.78C907.709,410.539,897.188,409.566,895.099,411.769L895.099,411.769z"/>
<path fill="#B3B3B5" d="M659.089,256.793c-13.074,4.082-8.399,12.952-10.361,19.482c-4.128,6.832-19.008,8.443-30.777,9.697
	c-13.856,1.252-24.345,8.102-39.355,6.679c-12.734-0.295-27.156,1.022-37.473-3.919c-95.182-54.962-46.69-98.223-37.757-109.18
	c-39.446-39.818,245.155-25.159,211.358,25.762c3.333,5.716,1.161,11.868,0.313,17.67c-6.061,4.872-17.863,7.743-18.428,14.225
	C691.669,243.416,663.792,255.731,659.089,256.793z"/>
<path fill="#FBFBFC" d="M773.932,222.066c-2.415,1.295-6.55,1.341-9.802,1.856c-6.162,0.612-12.424,1.304-18.726,1.151
	c-7.449-0.86-12.227-4.323-18.65-6.188c-4.375-1.364-8.612,0.943-9.004,3.187c-0.359,1.98-2.21,5.01,1.896,6.215
	c6.029,1.591,12.87,1.934,19.25,2.971c4.235,1.166,0.64,3.729-1.665,4.948c-2.986,1.616-6.291,3.115-10.014,4.243
	c-3.84,0.441-8.808,1.625-8.476,4.069c-0.431,2.053,4.339,3.852,2.038,5.769c-4.127,3.254-12.348,4.701-14.853,8.573
	c-1.612,1.462,1.461,2.816,3.2,1.09c2.192-1.711,3.863-3.736,7.853-4.521c4.582-1.29,9.593-2.074,14.574-2.812
	c3.052-1.256,3.204-3.547,3.94-5.405c0.831-2.389,0.616-4.872,1.752-7.224c2.539-2.632,9.078-2.953,12.425-5.205
	c4.307-2.492,8.492-5.207,14.528-6.592c3.738-0.61,7.357-1.325,7.895-3.675C772.7,223.699,773.311,222.883,773.932,222.066z"/>
<linearGradient id="SVGID_3_" gradientUnits="userSpaceOnUse" x1="-838.9995" y1="-318.603" x2="-1733.9958" y2="-73.4994" gradientTransform="matrix(0.4011 0 0 -0.4011 1098.8711 -25.9363)">
	<stop  offset="0" style="stop-color:#ADADB0"/>
	<stop  offset="1" style="stop-color:#B7B7B9;stop-opacity:0.3878"/>
</linearGradient>
<path fill="url(#SVGID_3_)" d="M789.409,139.841c7.048-7.885,10.723-11.707,0-17.334c-11.003-5.772-24.776,4.197-24.776-8.666
	c0-5.205,14.111-7.946,16.518-12.998c2.345-4.924-7.398-13.542-11.012-17.334c-6.901-7.242-7.035-8.023-16.516-12.998
	c-11.547-6.059,2.238-23.563,9.63-27.444c5.887-3.085-145.233-42.515-346.85-15.165c-2.069,0.279-13.389,18.578-15.14,19.499
	c-10.035,5.265-14.548,5.576-11.013,13c0.356,0.749,48.756-2.809,52.485-2.809c13.765,0,16.398,3.489,30.099,2.809
	c62.194-3.064,262.719,18.328,280.789,21.666c13.866,2.559,9.7,8.597,5.503,12.998c-2.575,2.706-21.089,6.737-24.774,8.668
	c-2.414,1.266,9.456,8.855,5.506,12.998c-5.175,5.432-12.233,6.582,0,13c8.924,4.681,10.421,8.354,19.269,13
	C763.927,145.247,788.023,140.131,789.409,139.841L789.409,139.841z"/>
<radialGradient id="SVGID_4_" cx="303.2114" cy="-187.4824" r="100.8457" gradientTransform="matrix(3.9297 0 0 2.0619 -1027.209 593.3477)" gradientUnits="userSpaceOnUse">
	<stop  offset="0" style="stop-color:#7D7D7F"/>
	<stop  offset="1" style="stop-color:#515056"/>
</radialGradient>
<path fill="url(#SVGID_4_)" d="M492.386,219.402c-0.483,0.511,13.893-1.821,16.517-2.166c6.697-0.876,10.411-2.37,15.14-3.609
	c9.639-2.528,3.656-1.445,9.636-1.445c6.558,0,9.232-1.021,12.387-4.333c2.322-2.437,6.63-4.203,9.632-5.777
	c2.807-1.471,6.825-2.158,12.388-2.889c8.007-1.049,10.53-0.47,15.143-2.888c6.127-3.212-12.447-2.89-15.143-2.89
	c-8.228,0-10.503,1.103-8.257-3.612c0.107-0.22-17.73-1.422-17.893-1.443c-5.545-0.726-9.775-4.009-13.763-5.055
	c-5.923-1.553-9.623-2.887-15.141-3.611c-6.477-0.851-7.068-4.723-8.257-7.222c-1.77-3.709,4.773-5.852,8.257-7.221
	c5.506-2.17,7.982-1.952,15.141-2.89c7.776-1.021,13.465,0.566,16.515,2.167c4.246,2.226,10.896,2.15,16.519,2.887
	c4.512,0.593,2.487,4.334,12.386,4.334c10.836,0,11.352,0.899,13.766,2.168c1.866,0.977-28.705,6.498-4.13,6.498
	c6.948,0,5.784,4.335,15.14,4.335c6.631,0,9.341-2.127,15.139-2.89c3.303-0.435,6.218-5.822,6.886-7.221
	c1.373-2.888,5.472-4.267,6.879-7.225c1.583-3.316,4.055-4.892,5.507-7.943c1.532-3.215,5.505-3.973,5.505-7.943
	c0-4.07,1.915-5.918,6.885-7.224c4.61-1.209-1.235-3.312-2.756-6.499c-1.838-3.864-3.86-5.941-5.503-9.388
	c-1.481-3.109,3.669-6.018,5.503-7.943c3.983-4.177-5.894-5.288-9.634-5.779c-3.058-0.401-7.961,3.754-12.386,4.334
	c-6.635,0.871-5.507-3.527-5.507-7.223c0-4.242-2.878-5.087-8.259-6.499c-4.697-1.232-10.146,2.167-16.518,2.167
	c-4.131,0-7.223-4.511-9.636-5.779c-3.322-1.745-4.187-5.179-5.502-7.941c-1.894-3.971-6.451-2.892-15.143-2.892
	c-2.261,0-9.449-3.043-13.763-3.609l-16.517-2.167c-5.484-0.72-8.834-2.061-15.144-2.889c-5.764-0.756-12.529-0.702-17.89,0
	c-1.531,0.203-8.454-3.711-9.636-4.332c-8.83-4.634-29.722,1.659-34.411,2.889c-4.762,1.249-10.462,2.276-15.139,2.887
	c-6.834,0.897-10.707,3.17-15.139,4.334c-4.706,1.235-8.397,3.267-11.014,3.612c-0.987,0.13-11.06-3.258-13.76-3.612
	c-6.495-0.852-13.466-0.722-20.647-0.722c-7.07,0-10.346,1.629-15.144,2.889c-4.086,1.072-6.554,4.712-8.257,6.499
	c-3.004,3.154-5.504,3.124-5.504,7.943c0,3.388,4.521,4.228,2.752,7.946c-1.352,2.833-12.219-2.483-13.765-2.889
	c-0.496-0.129-8.912,4.78-11.011,5.054c-5.229,0.687-5.879,5.113-6.883,7.224c-1.132,2.379-7.12,4.457-9.633,5.776
	c-4.375,2.295-7.321,4.07-9.636,6.501c-4.014,4.211-8.273,1.412-9.636-1.444c-1.075-2.26,8.462-5.779-4.129-5.779
	c-4.854,0-9.813,2.576-13.762,3.611c-6.663,1.747-10.081-3.099-11.013-5.054c-1.133-2.379,3.929-6.288,5.505-7.946
	c2.942-3.087,2.418-5.8,4.13-9.388c1.24-2.602,5.319-2.498,6.88-5.777c1.797-3.77,11.098,0.81,5.507-5.056
	c-3.097-3.251,5.158-8.721,6.881-10.833c3.04-3.72,7.226-3.024,13.765-2.167c6.002,0.789,14.422,0,20.646,0
	c8.968,0,9.544-1.395,13.765-3.609c3.612-1.895,8.715-3.371,12.388-4.334c6.593-1.73,10.573-0.491,15.139-2.889
	c2.871-1.506,11.471-2.648,15.144-3.609c5.702-1.497,10.552-1.386,16.518-2.167c5.337-0.701,10.978-1.796,15.139-2.889
	c6.818-1.79-8.542-4.19-9.636-4.334c-5.845-0.765-10.12-1.443-17.891-1.443H364.38c-6.701,0-10.994,1.438-16.517,2.888
	c-5.069,1.329-9.82,2.011-16.521,2.889c-5.779,0.76-9.575,2.16-15.14,2.889c-4.754,0.624-4.646,3.362-13.765,2.167
	c-4.04-0.531-9.597,2.165-16.517,2.165c-7.249,0-9.493-1.874-11.009-5.054c-1.735-3.64,4.102-4.997,5.506-7.944
	c1.447-3.038-11.183,2.21-16.516,3.61L250.137,66.3c-5.714,1.499-8.784,2.443-12.388,4.332c-7.352,3.859-21.932,8.75-34.411,11.555
	c-4.87,1.097-7.678,3.1-12.387,4.334c-4.184,1.098-6.889,4.339-9.633,5.776c-4.536,2.38-7.185,3.926-9.637,6.501
	c-3.173,3.328,8.048-1.029,9.637-1.445c9.92-2.604,4.458,1.27,1.373,2.889c-4.206,2.205-7.463,3.196-11.01,5.054
	c-4.206,2.207-6.091,3.919-9.635,5.779c-5.638,2.958-8.29,1.409-11.011-1.445c-0.237-0.248-9.901,5.916-11.014,6.499
	c-3.342,1.756-6.416,4.811-9.632,6.501c-5.472,2.871-6.738,4.674,1.374,3.609c4.841-0.632-5.318,3.516-6.88,4.334
	c-5.583,2.93-3.892-0.212-11.011,0.723c-3.939,0.517-8.772,3.881-11.014,5.054c-6.899,3.621-3.599,3.276-2.751,5.057
	c0.76,1.596,3.354,1.853-2.75,5.054c-4.206,2.207-7.468,3.196-11.015,5.057c-4.06,2.13-6.021,4.152-8.258,6.498
	c-2.13,2.238-7.751,4.068-12.387,6.502c-1.748,0.916,3.86,2.45,2.754,3.609l-6.885,7.224c-3.531,3.704,9.387-6.664,13.766-10.11
	c3.703-2.916,6.151-5.396,9.637-7.225l11.009-5.776c2.618-1.373,0.281,4.043-1.377,5.776c-2.625,2.758-5.88,4.005-8.259,6.502
	c-2.413,2.535-7.206,3.231-9.632,5.776c-2.571,2.695-7.142,3.159-9.634,5.779c-3.644,3.822-5.624,2.646-4.132,5.776
	c1.184,2.483,7.453-3.489,9.638-5.776c2.816-2.956,8.926-0.679,11.01-5.057c1.531-3.209,7.424-4.044,9.635-4.332
	c3.588-0.472,6.044,2.417,9.632,2.888c4.797,0.63-5.502,4.629-5.502,7.221c0,6.735-7.921-2.877-11.015,3.611
	c-0.985,2.075-6.344,4.492-8.258,6.499c-2.625,2.76-5.879,4.003-8.258,6.501c-3.108,3.265-6.882-5.724-6.882-7.222
	c0-3.981-0.609-1.845-5.505,0.721c-3.408,1.79-5.223,5.483-6.881,7.224c-2.514,2.637-1.113,7.051,0,9.388
	c1.938,4.065,8.056,2.58,12.387,1.445c6.9-1.811,4.132,1.516,4.132,5.776c0,4.917-6.974,2.168-13.766,2.168
	c-3.792,0-7.273,5.464-8.259,6.497c-2.341,2.458-1.565,6.899-2.751,9.392c-1.823,3.827-6.236,5.318,2.751,6.498
	c3.128,0.409,8.558-5.746,9.636-6.498c2.875-2.012,2.752-6.156,2.752-9.392c0-3.378,1.377,6.733,1.377,10.111
	c0,4.578,7.717,2.167,13.766,2.167c5.23,0-0.553,6.719,4.128,7.946c7.805,2.046,0.269,2.816-5.506,4.331
	c-0.967,0.256,5.506,3.637,5.506,5.057c0,6.242-8.258-1.159-8.258,5.055c0,4.915,1.132,5.65,5.503,7.943
	c4.205,2.207,6.09,3.918,9.636,5.778c5.299,2.781,1.054,5.947-1.378,7.222c-2.701,1.419-6.381-6.824-9.631,0
	c-0.891,1.867,0,7.341,0,9.388c0,3.522-3.661,6.011-5.506,7.944c-2.284,2.397-6.68,4.119-6.882,4.333
	c-2.184,2.291,7.453,3.489,9.632,5.779c3.515,3.688,9.348,1.594,12.387,0c7.706-4.043,5.507,0.302,5.507,4.332
	c0,4.714,4.206,4.355,9.637,5.779c9.847,2.581,8.257,2.534,8.257,11.555c0,3.187,4.782,5.017,6.881,7.221
	c3.231,3.39,6.121,3.048,4.129,7.222c-1.432,3.008-2.908,5.446-1.377,8.665c1.416,2.969,6.125,3.938,9.636,5.777
	c4.059,2.132,13.581,0.05,16.517-0.721c2.522-0.661,1.377-8.014,1.377-10.113c0-0.8,11.002-4.148,12.388-4.331
	c0.679-0.09,2.751,7.728,2.751,9.388c0,2.798-9.075,1.172-6.881,5.777c1.339,2.816,8.258,0.488,8.258,6.501
	c0,5.43,7.199,1.277,9.632,0c3.439-1.804,11.778-2.006,15.143-2.887c4.913-1.289-4.928-6.006-5.506-7.224
	c-1.374-2.887-5.473-4.266-6.881-7.225c-2.015-4.225,10.016,1.848,11.01,2.893c2.64,2.768,5.277,4.301,11.015,5.055
	c5.928,0.778,0.674-10.137,4.125-2.891c2.425,5.083,14.951,1.856,19.272,0.726c3.315-0.871,6.385-3.843,11.008-5.057
	c0.496-0.132,10.979,4.686,12.389,5.057c6.435,1.686-2.595,4.887-4.13,6.499c-4.354,4.57,72.458,26.979,74.327,25.997
	c5.587-2.932,10.503-0.988,13.765,0.723c8.412,4.414,10.043,1.496,17.895-1.444c0.341-0.128-11.647,0.665-6.885-4.333
	c2.445-2.563,1.202-7.756,2.755-9.39c2.479-2.602,4.337,3.361,11.702,2.531c5.844-0.661,4.129-2.643,4.129-5.78
	c0-1.836,7.138-0.125,8.944-0.36c9.521-1.251,4.433-2.451,11.01-0.725c1.328,0.35,0,9.666,0,10.835c0,2.691-1.508,5.333-2.751,7.943
	c-0.898,1.884-7.702-0.144-11.01,0.723c-2.725,0.718-4.13-3.047-4.13,4.331c0,3.224-6.884,2.28-6.884,7.224
	c0,3.381-5.675,2.168-13.765,2.168c-4.151,0,1.562-4.959-1.374-6.501c-5.692-2.987-10.074,1.638-11.013,3.611
	c-2.077,4.36,52.931,9.674-1.375,6.499c-6.447,1.692-3.756,4.724-1.377,7.224c1.305,1.369,157.248-57.261,158.289-84.497
	c0.133-3.486,4.213-10.79,5.506-10.11c2.89,1.516,17.384,0.723,22.02,0.723c7.188,0,13.876-0.738,19.272-1.445
	c10.159-1.334,2.226-2.958-2.756-3.611c-8.373-1.099-10.354-0.378-15.138-2.889c-4.476-2.347-0.592-1.856,4.128-4.333
	c0.143-0.075-5.598-3.057,4.13-4.333c6.351-0.834,6.879-5.638,6.879-8.666c0-5.984,5.856,1.09,6.885,2.167
	c2,2.099,9.39,4.268,12.387,5.054c0.053,0.015,6.62-6.947,6.881-7.221c2.295-2.411,4.129-5.475,4.129-8.666
	c0-4.28-9.954-1.223-13.764-0.724c-7.191,0.943-9.632,0.492-9.632-4.333c0-4.84,0.989-4.964,2.751-8.666
	c0.314-0.663,9.456-3.423,11.011-5.054c1.678-1.76-6.854-0.723-13.762-0.723c-9.29,0-2.207-4.404,2.751-5.057
	c7.273-0.954,13.006,0.803,17.896,1.445c3.237,0.424,2.749-3.304,2.749-5.055c0-2.455,9.227,2.04,13.767,1.441
	c7.782-1.02,1.688-3.167,11.011-0.719c4.645,1.218,12.489-2.195,15.14-2.891c6.101-1.603,8.465-2.319,15.142-1.443
	c5.116,0.671,9.479,3.528,12.388,5.053c5.311,2.791,4.259,3.955,12.386,2.891c7.545-0.99,13.153,0.82,17.892,1.444
	c4.998,0.656,5.296,4.125,12.388,5.057c6.743,0.883,11.975-0.058,17.896,0.722c11.313,1.482,8.097-1.614,5.506-4.333
	c-0.782-0.819,6.697-5.388,6.88-5.78c1.091-2.284-5.545-4.25-4.127-7.221c0.116-0.24,24.747-1.446,8.257-3.609
	c-6.197-0.814-12.929-0.65-17.894,0c-7.761,1.018-1.35,7.234-11.01,2.166c-6.943-3.644,2.982-5.265,6.881-5.777
	c4.337-0.569,14.859-0.578,2.756-2.167c-6.571-0.862-10.297-1.792-13.767-3.611c-2.361-1.239-6.395-1.021-9.636-1.445l6.886-2.164
	c3.31-1.044,4.501-5.975,6.88-7.224c3.626-1.903,8.787,2.96,13.764,3.611c8.109,1.063,4.323,4.232,1.376,5.776
	c-6.307,3.31,6.947,5.057,11.012,5.057c4.595,0,6.883,7.507,6.883,0c0-2.685,4.432-5.776,9.635-5.776
	c8.285,0,7.312-3.436,5.503-7.224c-2.011-4.224-6.881-3.146-6.881,1.444c0,4.672-6.079,3.611-11.01,3.611
	c-8.588,0-10.633-0.652-12.388-4.333c-1.378-2.891,11.44,0.835,16.519,2.166c5.283,1.387-3.411-4.506-5.509-5.057
	c-2.63-0.688,7.583-2.518,5.509-3.608c-3.729-1.955-13.728,2.517-15.144,2.887c-7.477,1.964-10.14-0.854-15.139-2.164
	c-6.201-1.63-5.792-3.289-13.766-4.335c-8.138-1.066-9.741,2.392-11.01,5.055c-1.227,2.575,9.274,1.636,1.378,5.778
	c-6.145,3.225-9.771-2.237-12.389-3.612c-3.867-2.027-11.703-1.441-17.895-1.441c-8.424,0-3.652-4.607-2.753-6.501
	c1.026-2.152-7.615-4.719-9.635-5.777c-5.971-3.134-6.524-1.473-8.259,2.166c-1.923,4.036-5.433,5.057,5.508,5.057
	c9.229,0,3.219,4.81,1.374,5.775c-5.841,3.066-10.758-1.709-15.141,2.89c-3.618,3.796-10.091,0.963-5.507,5.779
	c2.169,2.272-4.924,2.773-1.374,6.499c2.765,2.902,5.408,4.125,6.881,7.223c2.814,5.899-3.752,5.316-11.009,7.222
	c-8.693,2.277-8.259-1.147-8.259-5.057c0-3.657,1.375-5.981,1.375-10.111c0-4.952-1.989-4.774-9.633-5.775
	c-7.114-0.935-14.585,0.575-17.896,1.444c-7.241,1.9-4.946,1.949-12.388,0c-4.496-1.181-2.751-6.046-2.751-9.389
	c0-2.979-11.014,1.442-16.517,2.165c-7.287,0.956-14.59-0.576-20.646-2.165V219.402z M346.318,321.09
	c1.33,2.605-6.682,3.593-6.24,5.19c0.219,0.883,0.901,1.707,1.611,2.506c-0.886,1.369-3.281,2.199-5.101,3.2
	c-2.184,0.994-4.447,2.15-4.973,3.711c-0.864,2.061,4.452,10.222,3.15,12.25c-0.649,0.677-6.773-5.265-7.702-5.804
	c-1.697-0.71-3.309-1.642-5.593-1.769c-3.062-0.382-7.544-0.132-10.576-0.592c-1.946-0.61-3.723-2.429-3.963-3.524
	c-0.296-1.128-0.491-2.33,0.368-3.408c0.894-0.564,2.437-0.645,3.741-0.555c1.351-0.132,1.812-1.131,0.944-1.646
	c-0.994-1.353-1.711-4.124-1.642-5.635c0.367-1.384,2.486-2.377,4.467-3.196c1.984-0.776,4.539-1.234,5.898-2.39
	c0.699-0.514,0.986-1.284,2.283-1.484c1.463-0.023,2.317,0.725,2.844,1.336c0.896,0.98,3.059,3.799,3.347,4.874
	c-0.709,0.61,0.914,1.507,2.053,1.028c2.318-0.804,3.569-2.166,5.607-3.121C338.504,321.513,343.221,320.825,346.318,321.09z"/>
<linearGradient id="SVGID_5_" gradientUnits="userSpaceOnUse" x1="-1876.5747" y1="-1212.377" x2="-1875.9696" y2="-887.271" gradientTransform="matrix(0.3903 0 0 -0.3903 1098.4019 -25.1658)">
	<stop  offset="0" style="stop-color:#4A4A4C"/>
	<stop  offset="1" style="stop-color:#626266"/>
</linearGradient>
<path fill="url(#SVGID_5_)" d="M228.117,342.902c0.491-0.132,10.975,4.683,12.387,5.054c6.437,1.686-2.598,4.887-4.127,6.499
	c-4.36,4.57,8.661,3.612,13.76,3.612c8.512,0,4.506,4.985,4.129,5.775c-1.631,3.425-3.085,4.708,0,7.943
	c2.94,3.086-1.374,4.479-1.374,8.666c0,4.051-6.251,3.614-13.766,3.614c-8.546,0-11.767-0.887-17.895,0.721
	c-1.193,0.313-6.183,6.486-6.88,7.221c-2.311,2.426-8.785,3.388-12.39,4.334c-5.274,1.384,0.77,8.031,1.375,8.665
	c2.229,2.34,8.197,2.823,11.014,5.78c3.772,3.961-0.975,5.986,4.129,8.666c4.375,2.294,3.557,4.079,11.01,5.054
	c6.771,0.889,4.19-0.369,12.387-1.442c4.732-0.621,6.187,3.966,9.636,5.776c1.757,0.923,1.374,6.497,2.752,7.944
	c3.454,3.623,11.309-2.266,13.765,2.889c2.026,4.256,9.397,0.783,12.388,0c4.679-1.229,1.789,5.488,4.129,7.943
	c2.636,2.767,12.867,2.419,5.507-1.444c-3.8-1.99,4.201-5.208,5.502-7.944c0.514-1.078-15.239-1.996-16.517-2.164
	c-8.454-1.11-3.719-4.551-1.373-5.779c4.114-2.159,11.911,3.834,12.388,4.332c0.007,0.009,5.852-5.055,11.01-5.055
	c10.107,0,7.273-3.406,2.751-5.778c-8.381-4.397-0.111-3.552,0-3.609c2.271-1.192,8.201,1.508,9.636,0
	c4.302-4.514,4.129,3.618,4.129,5.776c0,0.878,11.352-1.039,13.767-0.72c9.551,1.251,8.453-0.418,9.631-2.89
	c0.26-0.542-11.705-3.978-12.388-4.334c-5.81-3.05-8.258-2.188-8.258-7.221c0-5.657-1.646-5.635-6.881-2.89
	c-4.482,2.351-5.814-0.884-9.636-2.891c-4.463-2.341-6.88,6.87-6.88,0c0-2.945-3.474-5.809-5.508-7.942
	c-2.356-2.474,0.596-8.472,1.378-10.111c1.889-3.961,1.688-0.722,8.259-0.722c3.941,0,7.763-4.795,9.635-5.779
	c5.584-2.932,10.5-0.986,13.762,0.723c8.417,4.414,10.046,1.496,17.895-1.442c0.341-0.127-11.644,0.663-6.882-4.335
	c2.442-2.561,1.198-7.756,2.752-9.388c2.479-2.604,4.341,3.362,11.702,2.529c5.848-0.661,4.129-2.64,4.129-5.78
	c0-1.836,7.138-0.125,8.944-0.358c9.521-1.251,4.433-2.448,11.01-0.722c1.328,0.347,0,9.661,0,10.83
	c0,2.694-1.508,5.335-2.751,7.943c-0.898,1.884-7.702-0.144-11.01,0.723c-2.725,0.718-4.13-3.045-4.13,4.334
	c0,3.223-6.884,2.277-6.884,7.224c0,3.378-5.675,2.165-13.762,2.165c-4.155,0,1.558-4.957-1.377-6.499
	c-5.692-2.989-10.07,1.636-11.01,3.609c-2.08,4.36,9.349,3.688-1.378,6.502c-6.447,1.692-3.756,4.724-1.377,7.223
	c1.305,1.367,9.445,4.28,12.388,5.055c2.049,0.537,5.338,6.409,6.884,7.221c1.836,0.963,4.468-0.739,6.882,4.334
	c1.073,2.257,3.519,0.888,5.506,5.057c2.515,5.273-6.857,3.609-12.388,3.609c-7.647,0-8.576,2.497-11.013,5.057
	c-3.806,3.994,1.627,6.351-8.258,5.052c-5.791-0.759-9.168-4.563-4.13,0.724c1.938,2.034-4.417,4.185,1.378,7.223
	c4.548,2.384,4.394,4.333,12.388,4.333c9.432,0,10.742-0.441,13.766-3.611c3.292-3.456,4.666-4.334,13.761-4.334
	c16.294,0-3.416,1.494-1.375,5.779c1.447,3.035,11.156,1.966,15.14,1.444c5.246-0.688-12.069-5.558,2.751-3.611
	c6.555,0.858,9.632,0.002,13.765-2.168c3.873-2.03,7.61-5.778-1.378-5.778c-6.131,0-12.455,0.715-17.89,0
	c-6.19-0.81-9.962-1.442-17.894-1.442c-10.484,0-0.649-3.27,1.377-4.334c2.077-1.089,2.878-2.92,5.504-3.609
	c2.498-0.656,7.011,0.588,8.258-0.723c1.029-1.078-3.277-1.874-5.502-2.167c-4.387-0.573,9.19,1.211,12.387,2.89
	c2.595,1.362,7.729,0.861,11.011,0c2.444-0.64,20.45,4.229,23.397,5.776c3.265,1.713,4.121,0.007,8.258-2.167
	c2.587-1.354-3.93-5.361-2.75-2.89c1.35,2.835,13.787,1.081,16.516,0.724c5.204-0.682,3.374-3.611,13.766-3.611
	c7.878,0,11.401-0.722,19.269-0.722c7.656,0,12.514-2.186,17.896-2.89c4.381-0.576,0.985,6.499,5.506,6.499
	c3.112,0,6.696-5.682,8.259-6.499c6.512-3.418,8.258-0.343,8.258,3.611c0,2.515,9.478-1.043,13.761-2.164
	c5.506-1.447,1.347-6.534,0-7.945c-3.73-3.919,1.604-4.483,8.258-3.612c4.977,0.651,0.874-6.041-2.752-7.943
	c-3.092-1.622-11.831-2.456-15.139-2.891c-6.19-0.809-12.212-0.407-2.755-2.889c7.732-2.027,6.4-6.938-1.374-9.386
	c-4.342-1.369,3.116-6.161,4.128-7.224c2.921-3.066,5.953-3.848,9.633-5.776c4.206-2.208,7.467-3.198,11.013-5.057
	c3.94-2.067,4.128-5.309,4.128-8.666c0-2.858,1.374-6.366,1.374-10.11c0-0.653-8.86,3.047-11.01,3.611
	c-6.473,1.697-10.042,1.697-16.516,0c-6.594-1.729-7.964-2.992-9.637-6.5c-2.394-5.028,1.954-5.671,8.259-6.502
	c5.288-0.691,7.679,6.008,8.257,7.226c1.631,3.418,0-4.399,0-6.501c0-2.97-5.188-5.448-6.879-7.224
	c-2.461-2.583-6.403-3.547-12.389-4.333c-6.45-0.846-8.646-2.571-11.009-5.055c-2.867-3.008-2.755-5.563-2.755-9.386
	c-13.678,3.587-20.121,3.666-35.809,3.666c-4.39,0-9.482-10.111-10.373-11.978c-2.069-4.337-6.229-9.197-6.229-14.155
	c0-3.833-9.122-8.054-12.449-9.799c-7.103-3.728-10.115-4.355-22.825-4.355c-9.707,0-11.667,5.031-16.606,7.62
	c-6.85,3.596-13.658,1.447-16.602,7.623c-2.198,4.615-6.754,7.089-10.373,10.889c-4.203,4.408,4.474,4.488,2.072,9.528
	c-2.095,4.396,14.448,5.068-15.043,15.242c-7.537,2.602,9.317,11.27,5.707,13.611c-5.354,3.471-10.077,1.129-13.489-2.45
	c-4.267-4.476,6.554-3.35-3.113-4.354c-8.53-0.891-24.867-6.798-32.166-8.712c-8.957-2.348-11.585-3.268-24.9-3.268
	c-12.327,0-22.75,1.616-32.168,4.083C231.474,335.159,224.705,339.224,228.117,342.902L228.117,342.902z"/>
<path fill="#E5E5E6" d="M916.838,210.234c4.612,1.251,8.45,3.357,13.573,4.03c5.523,0.309,8.25-2.788,12.449-4.051
	c1.896,1.246-2.207,3.963-2.467,5.753c-0.448,1.657-3.61,5.611,1.53,5.684c4.216-0.994,7.517-2.865,10.368-4.729
	c1.567-1.968,5.604-3.996,9.013-1.666c2.671,2.389,7.086,0.946,10.038-0.473c2.859-1.376,4.938,0.147,2.552,1.479
	c-2.473,2.555-6.396,4.953-6.555,7.936c-0.253,1.689,4.237,3.662,4.248,4.508c-2.44-0.014-7.422-1.671-8.408-0.675
	c2.997,2.488,7.043,4.634,11.371,6.494c2.276,0.517,9.538,2.583,3.845,3.245c-2.908,0.726-7.963-0.895-9.513,0.654
	c1.005,2.763,4.477,5.057,6.797,7.547c1.047,1.186,3.587,3.253,2.971,3.985c-2.894-0.793-7.346-1.632-9.761,0.015
	c-2.785,2.109-0.189,4.954-2.667,7.086c-3.722-0.528-4.532-3.352-6.563-4.95c-3.452-3.488-4.373-7.782-10.28-10.503
	c-5.245-2.809-9.435-6.106-14.808-8.856c-5.898-3.322-6.501-8.007-9.081-12.122c-2.354-3.286-7.106-6.021-8.304-9.554
	C917.06,210.794,916.946,210.515,916.838,210.234L916.838,210.234z"/>
<radialGradient id="SVGID_6_" cx="-1631.4526" cy="-1769.1812" r="229.9356" gradientTransform="matrix(1.2579 0.3199 0.1761 -0.1907 3191.7764 525.5813)" gradientUnits="userSpaceOnUse">
	<stop  offset="0" style="stop-color:#7D7D7F"/>
	<stop  offset="1" style="stop-color:#515056"/>
</radialGradient>
<path fill="url(#SVGID_6_)" d="M631.122,156.45c6.235,1.359,10.679-0.634,16.517-2.165c5.645-1.482,5.132-3.383,12.388-4.334
	c1.673-0.22,2.566-8.994,2.754-9.389c1.915-4.024-0.468-6.258,6.88-7.221c5.295-0.694,7.674-3.302,11.01-5.056
	c3.086-1.617,13.897,1.445,17.896,1.445c9.03,0,12.272-0.062,16.517,2.167c4.76,2.498,8.271,2.708,15.14,3.612
	c7.854,1.029,9.847,2.944,15.144,4.332c4.543,1.192,16.609-0.374,19.268-0.723c9.065-1.189-5.383-6.468-5.507-6.499
	c-5.055-1.326-9.15-2.636-12.387-4.334c-5.587-2.932-5.504-1.822-5.504-3.612c0-0.746-15.579-2.29,0-4.332
	c8.688-1.14,11.651-0.384,5.504-3.611c-5.224-2.741,12.173,0.666,12.387,0.722c6.402,1.681,8.4,2.24,12.389,4.334
	c3.799,1.992-12.738,0.369-15.14,2.887c-1.708,1.794,8.968,4.707,11.008,5.779c6.871,3.603-4.392,4.839,8.261,6.499
	c2.938,0.387,10-5.245,11.014-5.776c6.158-3.232,8.259-1.766,8.259,1.444c0,2.807-9.293,4.376,1.373,5.777
	c7.561,0.992,7.641,2.743,5.508,7.221c-1.586,3.331-4.13,4.589-4.13,9.391c0,2.972,6.086,4.407,11.01,5.054
	c7.606,0.999,8.178,0.914,15.144,0c5.357-0.703-2.717,5.854-1.378,8.666c1.291,2.703,9.675,4.353,12.388,5.778
	c4.916,2.579-3.975,5.015-6.88,5.777c-6.991,1.834-3.397,5.103-1.378,7.223c2.916,3.06,5.753,3.866,8.258,6.5
	c3.617,3.792,7.211,4.607-2.752,7.221c-3.306,0.869,3.991,4.404,1.372,5.778c-5.823,3.06-8.102,1.603-4.127,5.777
	c0.997,1.045,11.217-0.723,16.518-0.723c5.13,0-0.457,5.537-2.753,7.946c-1.525,1.6,12.963,0,15.141,0
	c5.609,0,10.946,3.477,8.261-2.168c-1.806-3.791-1.123-6.045,1.374-8.669c0.539-0.562,14.445,4.691,15.144,5.057
	c3.892,2.042,2.46-6.081,0-8.666c-2.291-2.402-4.376-6.287-5.508-8.668c-2.679-5.617,8.907-1.274,11.011-0.72
	c7.026,1.844,12.388-0.453,12.388,5.055c0,2.548-5.504,4.282-5.504,7.942c0,3.431,9.483,1.445,15.14,1.445
	c6.793,0,8.26,2.758,8.26,6.502c0,2.557-9.83,2.573-11.01,5.054c-0.419,0.879,7.548,5.014,8.258,6.502c1.5,3.148,0,7.565,0,10.832
	c0,3.043,8.138,3.609,13.761,3.609c5.273,0,12.261,1.607,16.517,2.167c2.71,0.354-1.333,3.978,1.378,4.335
	c11.95,1.566,8.327-0.147,6.881,2.886c-0.215,0.456-2.73,7.688,6.146,7.688c6.375,0,15.428,1.943,20.005,3.145
	c3.257,0.855,0,7.554,0,7.946c0,3.064,9.78,3.758,12.39,6.499l6.884,7.222c2.713,2.849,4.813,4.691,8.26,6.501
	c5.226,2.745,6.63-1.444,15.138-1.444c5.782,0,6.88,4.726,6.88,5.775c0,2.597-8.894,0.777-4.127,5.778
	c2.253,2.361,4.369,5.563,5.508,7.944c1.545,3.249,2.751,5.227,2.751,9.388c0,4.137,1.376,5.982,1.376,10.113
	c0,4.186-2.752,5.936-2.752,10.108c0,4.221-1.455,6.659-2.756,9.391c-1.781,3.736-2.823,5.128-5.502,7.944l-6.886,7.221
	c-2.751,2.886-5.125,6.047-7.883,8.939c-2.804,2.945-6.23,3.782-8.472,6.131c-2.154,2.262-3.271,7.346-4.291,9.482
	c-1.439,3.024-4.547,5.057-11.01,5.057c-2.863,0,1.072-9.067-5.508-2.168c-2.778,2.915-0.666,7.202-2.75,9.392
	c-1.908,1.997-9.529,3.581-12.388,4.331c-5.283,1.387-8.918,2.073-15.144,2.888c-1.289,0.169,1.378-3.756,1.378-7.219
	c0-5.055-4.933-3.138-6.88-7.224c-1.206-2.524,8.77-5.188,11.01-5.777c5.613-1.473,12.388,0.308,12.388-4.331
	c0-6.324,3.637-2.828,6.239-0.1c0.486,0.513,13.165-3.808,13.165-5.632c0-2.779,9.229-4.713,11.122-6.697
	c4.613-4.839-16.993-6.952-20.891-4.905c-5.745,3.012-5.576,3.229-12.388,1.442c-6.369-1.669-2.514-4.12-9.636-5.055
	c-0.113-0.014-9.858,5.175-11.01,5.778c-5.914,3.101-10.97,1.398-6.886-2.889c3.581-3.756,1.851-4.087-2.751-6.501
	c-5.588-2.932-1.743-5.586,1.378-7.221c4.574-2.402,8.051-2.916,13.761-2.167c4.105,0.537-5.852,3.339-9.632,4.333
	c-8.328,2.184,11.632,3.612,13.762,3.612c6.569,0,0.518-7.677-4.13-10.113c-4.728-2.481-5.417-3.656-11.011-0.72
	c-2.007,1.053-8.691,0.951-12.386,2.888c-6.585,3.455-11.01-0.749-11.01-3.61c0-3.503,5.954-4.392,11.01-5.056
	c3.802-0.499,8.237,0.713,11.009,2.167c3.45,1.811-6.187-3.966-9.632-5.777c-4.938-2.591-5.076-3.432-6.885-7.224
	c-1.758-3.691,6.47-4.334,12.388-4.334c6.183,0,5.506,4.835,5.506,7.945c0,5.204,2.382,2.945,4.133-0.722
	c2.024-4.256-2.171-6.607-4.133-8.666c-2.523-2.65-5.91-4.034-8.257-6.499c-2.803-2.943,5.706-6.606-2.752-2.167
	c-7.3,3.827-3.665,0.955-1.377-1.444l6.88-7.224c2.316-2.431,4.21-5.219,5.506-7.942c1.088-2.279,6.3-4.443,8.26-6.5
	c2.596-2.722,1.992-6.423,4.129-8.668c3.369-3.533,0.863-6.046,6.882-2.89c4.263,2.238,3.842,5.664,2.753,7.946
	c-1.865,3.914-1.188,5.253,0,6.502c2.4,2.518,4.204-5.214,5.505-7.947c1.34-2.807,1.465-6.682,2.756-9.388
	c2.364-4.964-2.566-6.522-8.261-5.779c-3.115,0.409,0,3.371,0,5.057c0,2.42-9.639-1.804-13.764-0.722
	c-3.856,1.013-5.36,5.628-6.881,7.221c-2.927,3.071,0.03,5.848,1.372,8.668c0.984,2.057-2.313,1.903,1.382,5.776
	c1.823,1.915-12.352,0.021-15.142-1.442c-8.184-4.296-3.207,4.577-2.756,5.054c6.067,6.367-6.085,1.861-8.256,0.721
	c-3.736-1.96-8.127-1.374-12.389-3.608c-1.64-0.86-7.948,2.306-12.388,2.888c-8.206,1.075-5.479-3.561-6.882-6.497
	c-1.259-2.645-8.688-3.344-11.01-5.78c-5.338-5.596-6.666-0.262-5.506,2.168c1.853,3.888,4.13,5.051,1.377,7.943
	c-3.951,4.147,0.442,5.718-11.015,7.223c-3.04,0.397-6.224,5.841-6.879,7.222c-1.764,3.696-0.293,5.165,1.373,8.666
	c0.643,1.353-4.404,5.635-5.505,7.943c-2.113,4.44,2.573,6.615,5.505,8.666c4.288,3,4.455,5.102,2.756,8.666
	c-1.249,2.618,10.414,2.889,15.138,2.889c9.011,0,12.281-0.056,16.518,2.168c5.81,3.048-2.188,5.129,8.258,6.5
	c8.484,1.112,7.795,2.636,9.636,6.5c0.557,1.165-5.456,6.448-6.878,7.943c-2.231,2.337-0.443,8.142-1.38,10.11l-4.128,8.666
	c-0.451,0.942,5.508,5.075,5.508,7.946c0,4.029,0.116,4.929-2.758,7.942c-2.966,3.114-2.307,4.816-9.632,5.777
	c-10.023,1.314-2.923-3.433-1.378-5.054c3.024-3.175,2.486-5.218,4.129-8.666c1.243-2.613-11.471-1.204-13.766-3.614
	c-0.057-0.06-6.496,3.513-9.632,4.333c-3.729,0.98-8.073-4.957-9.635-5.775c-12.478-6.546-8.548-0.151-4.129,2.167
	c4.656,2.443,4.204,4.896,2.75,7.943c-1.343,2.821-11.221-1.556-15.14-3.611c-6.531-3.426-7.45-1.868-1.376-5.057
	c4.685-2.455,10.308-0.756,8.259-5.052c-1.163-2.441-9.115,2.772-13.763,2.164c-4.142-0.543-11.229-11.576-1.378-25.998
	c1.554-2.279,11.587-0.24,15.712-1.32c4.769-1.253,6.492-1.257,10.441-2.291c7.905-2.074-1.417-5.51-1.546-5.778
	c-0.377-0.793-7.858-4.209-9.467-5.055c-4.732-2.483-0.723-4.296-5.505,0.723c-2.635,2.767-5.528,4.334-11.014,5.056
	c-7.02,0.919-6.88-3.953-6.88-7.223c0-5.031-2.424-6.326-6.885-8.666c-3.573-1.874-9.472,1.604-13.761,2.167
	c-9.248,1.213-8.259-2.701-8.259-6.501c0-2.684,1.319-6.621,0-9.389c-0.719-1.501-7.822,0.723-11.015,0.723
	c-4.874,0,6.186-3.968,9.635-5.775c5.157-2.707,17.896-3.639,17.896-7.946c0-3.825,0.033-6.537,1.372-7.944
	c2.403-2.521-10.333-1.629-15.138-2.889c-5.922-1.554-5.359,0.573-8.258,3.611c-2.63,2.759-10.116-3.142-11.01-3.611
	c-7.328-3.843-2.182-2.165-13.767-2.165c-1.339,0-6.234,1.06-11.01-1.444c-5.483-2.878-1.477-5.045,4.13-5.777
	c8.119-1.066,9.558,4.18,9.63,4.332c1.308,2.733,4.208-5.209,5.51-7.943c0.32-0.676-11.598-7.636-16.518-5.057
	c-3.258,1.712,0.687,5.059-1.378,7.225c-2.397,2.518-5.502-5.128-5.502-7.947c0-2.91-8.919-2.224-6.886-6.501
	c0.89-1.866,4.633-4.003,2.756-7.94c-0.748-1.572,11.643,0.608,9.632-3.612c-1.277-2.684-5.469-5.037-8.258-6.501
	c-5.25-2.752-8.454-3.198-6.882-6.499c1.001-2.103,11.622,2.807,5.508-3.612c-2.449-2.565-5.971-4.82-8.258-7.221
	c-3.197-3.354-5.508-3.163-5.508-6.499c0-1.94,8.396,0.649,11.01-0.722c5.321-2.791,4.454-3.27,8.258,0.722
	c4.705,4.937,5.508-0.243,5.508-3.611c0-4.089,3.653-5.408,8.258-7.222c1.835-0.722,3.886,3.018,5.506,2.167
	c4.876-2.558,5.712-2.889,12.388-2.889c2.43,0,6.007,5.285,15.141,2.889c5.847-1.534-0.402-5.184-1.378-7.224
	c-0.223-0.47-12.767,3.351-13.763,3.612c-10.021,2.63-5.869-2.507-4.127-4.334c3.887-4.079-5.401-0.555-9.637,0
	c-6.189,0.812-9.96,1.445-17.896,1.445c-5.947,0-9.13-2.102-15.139-2.891c-7.434-0.975-11.619-1.963-17.895-3.608
	c-4.801-1.261-9.858-2.918-15.138-3.612c-5.505-0.722-8.132-2.873-13.766-3.611c-8.306-1.089-0.937,3.118,1.378,4.333
	c5.956,3.126-6.09,3.612-11.01,3.612c-9.833,0-1.805-4.223,1.371-5.056c0.225-0.058-9.688-3.641-12.386-5.057
	c-5.975-3.135-4.721-1.646-6.882,2.889c-1.066,2.24-10.244-0.162-12.388,4.335c-0.951,1.993-7.206-1.67-11.008-2.167
	c-4.813-0.631-3.682,4.569-11.016,0.722c-5.294-2.778-5.679-3.255-6.88-5.778c-1.463-3.072,11.859,1.443,17.896,1.443
	c5.521,0-1.099-6.072,1.374-8.666c1.738-1.819-1.083-7.112,0-9.388c0.586-1.228,6.733-3.297,8.258-6.499
	c1.199-2.516-1.908-4.664-1.374-5.778c0.617-1.303,5.504-3.151,5.504-7.943c0-3.696-8.784-1.444-15.14-1.444
	c-10.059,0-1.673,0.41-6.883-5.055C626.954,161.467,628.805,159.49,631.122,156.45L631.122,156.45z"/>
<path fill="#504F55" d="M1035.787,212.782c-5.387-5.652,8.09,11.925,11.009,18.056c2.905,6.098-10.194,0.859-12.385,0
	c-0.551-0.217,4.233,7.277,5.505,7.943c4.428,2.323-1.937,6.071-4.129,7.222c-2.792,1.467-6.526,4.684-8.259,6.498
	c-2.887,3.026-9.386,2.167-16.517,2.167c-9.313,0-10.288-3.23-15.14-5.778c-4.924-2.58-1.096-4.62-8.258-6.499
	c-5.088-1.333-9.068-4.456-11.014-6.498c-2.591-2.717-5.821-3.942-8.258-6.499c-4.597-4.828-0.994-2.791,4.128-1.445
	c10.467,2.746,2.564-3.811,1.38-5.057c-3.965-4.159-8.103-2.329-4.13-6.498c2.923-3.069,9.172-2.648,0-5.057
	c-5.961-1.563-8.261-2.467-8.261-6.499c0-2.918,5.313-4.955,8.261-6.501c4.784-2.51,4.654-5.33,8.258-7.222
	c4.166-2.188,9.521-2.164,16.518-2.164c8.403,0,10.24,2.325,15.138,3.609c4.28,1.124,6.837,4.311,9.636,5.776
	c4.206,2.207,4.712,4.641,8.259,6.501c5.46,2.865,6.857,7.025,13.766,11.556"/>
<radialGradient id="SVGID_7_" cx="-4438.1055" cy="2981.2061" r="229.9345" gradientTransform="matrix(0.3167 -0.1271 -0.449 -0.3079 3409.9475 440.9844)" gradientUnits="userSpaceOnUse">
	<stop  offset="0" style="stop-color:#8B8B8E"/>
	<stop  offset="1" style="stop-color:#58575D"/>
</radialGradient>
<path fill="url(#SVGID_7_)" d="M774.27,75.565c-6.636,0.872-3.324,7.347-1.377,9.389c3.245,3.406-5.178,0.585-9.64,0
	c-6.146-0.805-6.738-2.545-15.136-1.445c-9.188,1.207-12.411-0.746-8.26,3.611c3.854,4.044-8.94,1.266-11.008,0.723
	c-4.307-1.131-9.638-6.954-9.638,0c0,3.553-5.714,4.36-11.01,5.057c-8.758,1.147-9.637,0.479-9.637,5.777
	c0,4.683-1.634,3.904-8.257,2.167c-5.627-1.475-9.855-1.293-16.519-2.167c-6.095-0.801-10.249-1.608-15.138-2.89
	c-5.859-1.537-5.021-3.366-12.388-4.332c-5.746-0.753-9.622-2.523-13.766-3.612c-5.438-1.426-8.649-2.373-13.766-5.057
	c-6.112-3.208-7.59-3.958-2.752-6.499c6.911-3.625-1.308-2.177-6.88-1.445c-5.097,0.668-7.898,2.842-13.766,3.612
	c-7.875,1.031-9.269,0.051-11.01-3.612c-1.946-4.077,6.079-3.821-4.131-6.499c-5.719-1.501-16.15-1.216-23.4-2.167
	c-7.168-0.939-10.272-2.07-16.515-2.889c-6.428-0.843-11.774-0.8-17.891,0c-5.836,0.767-9.43,2.861-15.144,3.612
	c-5.414,0.71-9.667,2.535-13.766,3.611c-6.001,1.575-12.707,0.276-16.516-0.722c-6.635-1.742-10.796,0.304-15.139,1.444
	c-8.766,2.297-5.643,0.793-1.378-1.444c4.577-2.401,5.891-2.581,13.765-3.612c10.822-1.418-5.58-1.444-9.636-1.444
	c-8.607,0-10.257,1.346-16.518,2.167c-9.136,1.199-7.644,1.244-12.387,0c-3.888-1.02,23.525-3.118,1.377-5.056
	c-8.203-0.715-1.316-4.365,1.378-5.777c1.949-1.024-12.737-0.722-16.517-0.722c-10.775,0-11.187-0.814-13.765-2.167
	c-0.613-0.324,16.866-1.442,19.269-1.442c6.044,0,11.901-1.563,16.518-2.17c8.554-1.121,0.87,3.612,12.387,3.612
	c2.242,0,6.984-4.526,11.014-5.054c4.678-0.614,7.119,0.871,13.762,0c7.483-0.982,10.788,0.779,16.516-0.723
	c4.256-1.117,6.42-3.85,11.013-5.057c7.551-1.98,3.465,4.389,4.129,5.779c0.496,1.036,9.33,2.252,11.011,5.776
	c1.197,2.517,8.972-3.517,13.765-2.889c4.728,0.621,5.621,1.792,13.766,0.725c5.346-0.704,12.733-0.77,17.891-1.445
	c6.889-0.904,3.335-4.751,11.012-0.722c5.643,2.958-0.899,4.818,8.261,7.221c5.181,1.359,11.983,1.572,16.516,2.167
	c5.772,0.758,9.186,2.411,13.762,3.609c4.831,1.268,6.164,3.785,11.013,5.057c9.975,2.616,3.214-3.369,1.376-4.334
	c-7.085-3.718,4.642-4.58,8.259-5.054c5.829-0.765,20.883,5.84,26.152,7.222c5.275,1.383,10.533-3.362,12.389-4.334
	c2.636-1.381,15.559,1.14,17.895,1.444c8.279,1.089,12.735,2.179,11.008-1.444c-1.341-2.821,13.795,0.791,15.139,3.612
	c0.622,1.301,15.649,0.723,19.272,0.723c2.465,0,10.331,3.795,12.388,4.334c6.617,1.734,8.121,2.237,12.388,0
	C773.547,65.832,774.27,74.56,774.27,75.565z"/>
<path fill="#4F4F4F" d="M55.784,302.695c-7.959,1.53-10.227,6.632-9.874,10.63c0.438,3.574-0.349,7.517,4.126,10.531
	c3.154,2.625,11.109,4.551,15.867,1.947c5.424-3.614,3.336-8.512,3.554-12.759C69.834,308.538,65.079,303.38,55.784,302.695z"/>
<path fill="#4D4D53" d="M540.985,45.295c0,1.107-0.969,2.004-2.165,2.004c-1.197,0-2.167-0.897-2.167-2.004s0.97-2.006,2.167-2.006
	C540.016,43.289,540.985,44.188,540.985,45.295z"/>
<path fill="#5D5C63" d="M559.551,290.779c3.296-2.481,6.527-5.76,8.259-9.388c2.091-4.394,7.558-2.18,9.632,0
	c3.158,3.313,3.55,4.589,11.015,3.609c9.229-1.209-3.738-5.312-5.506-5.776c-7.442-1.953-5.286-3.729-1.379-5.779
	c5.587-2.93,7.96-1.603,12.389,0.723c1.981,1.041,4.479,6.867,5.505,7.942c2.444,2.566,4.253-4.924,2.752-6.499
	c-4.075-4.279,7.943-4.012,11.014-3.611c9.359,1.229,2.138,10.035,1.373,10.834c-3.372,3.543-4.697,3.739-1.373,7.224
	c2.955,3.101,5.791,3.731,4.13,7.221C617.015,298,600.997,298,598.087,298c-0.989,0-10.246,4.653-11.01,5.057
	c-4.962,2.602-3.737,4.102-11.01,5.055c-6.565,0.861-9.74-2.904-15.144-3.609c-5.395-0.711-6.88-4.25-6.88-7.224
	C554.044,294.472,555.993,293.889,559.551,290.779L559.551,290.779z"/>
<path fill="#5F5E64" d="M855.476,139.118c2.559,1.343,10.786-0.118,15.144,2.167c6.898,3.622-5.598,6.15-8.26,6.499
	c-7.862,1.031-7.67-0.824-11.014-4.332c-1.418-1.492-13.415-1.985-5.505,2.165c6.847,3.593,0.829,2.89-8.259,2.89
	c-1.318,0,6.877,4.329,8.259,5.056c1.146,0.602-14.736,0.468-16.518,0c-6.2-1.627-7.986-2.32-9.633-5.778
	c-1.973-4.134,6.708-4.379-4.128-7.222c-0.23-0.062,0.998,4.856-5.508,1.445c-6.959-3.652,3.728-5.778-6.88-5.778
	c-8.042,0-3.987,2.566-11.015,0.722c-3.336-0.873,9.394-5.651,9.637-5.776c1.691-0.888,14.97-1.762,16.516-2.167
	c4.786-1.255-6.96-4.5-8.258-7.221c-0.675-1.421,5.553-0.368,8.258-0.722c3.227-0.422,4.908,0.408,9.638,2.887
	c3.396,1.785,4.103-6.51,15.138-0.719c2.617,1.371-3.99,4.402-1.377,5.776c3.929,2.061,7.091,2.318-2.751,3.612
	C834.327,133.226,854.228,138.856,855.476,139.118z"/>
<path fill="#5F5E64" d="M1053.682,259.003c4.326-2.273,0.196,7.117-4.129,9.388c-4.527,2.375,1.247,7.089,2.751,8.666
	c2.928,3.074,0.522,6.672-1.376,8.666c-2.762,2.896-4.38,6.301-5.504,8.668c-1.568,3.286-4.13,3.938-4.13,8.666
	c0,2.691,11.01,0.38,11.01,5.055c0,4.527,6.882,0.229,6.882-3.612c0-2.763-6.882-4.934-6.882-9.385v-10.837
	c0-1.846,12.237,4.182,5.505-2.886c-3.613-3.794,6.188,2.159,6.883,2.886c2.674,2.808-1.378-6.248-1.378-9.388
	c0-1.664,5.918-3.466,4.13-7.221C1067.235,267.236,1054.308,259.414,1053.682,259.003z"/>
<path fill="#69686F" d="M933.931,382.496c0-3.229-5.503,5.777-8.259,8.666c-3.377,3.549,0.583,3.507,6.885,4.335
	c8.108,1.063,8.466,1.947,5.503,5.057c-2.481,2.604-6.124,4.261-8.258,6.499c-2.897,3.04-8.455,3.274-11.009,3.609
	c-4.978,0.652,4.588-4.813,6.879-7.223c3.359-3.52-2.083-6.521-4.129-8.664c-2.871-3.016-3.212-5.539-1.374-9.39
	c3.481-7.313,14.046-2.644,9.633-6.499C928.428,377.684,933.931,381.095,933.931,382.496z"/>
<path fill="#5F5E64" d="M913.285,112.398c-0.538-0.472-12.652-3.68-15.14-4.334c-2.408-0.633-6.467-6.281-8.259-7.221
	c-4.635-2.431-9.467-3.928-13.766-5.057c-5.627-1.475-5.544-3.621-11.01-5.054c-10.698-2.807-8.369,2.769-6.88,4.332
	c1.347,1.417,11.896,3.121,13.761,3.612c7.043,1.845,7.535,2.547,2.756,5.056c-5.315,2.786,1.57,6.702,2.751,7.943
	c3.187,3.341,3.819,4.169,8.259,6.5c7.307,3.833,7.68,0.116,5.508-2.167c-2.664-2.792-6.974-2.984-9.636-5.776
	c-4.583-4.809,3.022-4.298,8.257-3.611c2.887,0.377,9.268,4.14,11.011,5.056C904.468,113.548,907.744,112.979,913.285,112.398
	L913.285,112.398z"/>
<path fill="#5F5E64" d="M928.428,111.314c-5.428-4.122-17.102-10.97-12.387-1.083C916.603,111.423,926.135,111.074,928.428,111.314z
	"/>
<path fill="#56555B" d="M231.962,479.993c-1.481-3.115-12.418-0.731-17.891-2.167c-7.943-2.085-5.279,3.361-4.129,5.776
	c1.9,3.99,17.515,2.89,19.269,2.89C236.371,486.492,234.506,483.326,231.962,479.993z"/>
<path fill="#6B6A71" d="M233.34,464.827c7.943,0,6.881-6.552,6.881-10.834c0-4.209-5.147-3.58-6.881-7.222
	c-1.961-4.111,14.709,0.497,15.138,0.724c3.263,1.709,9.295-1.311,13.767-0.724c4.475,0.588-3.438,5.057-1.378,7.222
	c1.793,1.882,17.503-1.391,17.895-1.441c7.468-0.98-1.504,4.397-2.751,5.053c-5.012,2.631,0.292,4.645,2.751,7.223
	c4.122,4.326-1.455,5.065-6.88,5.775c-3.117,0.41-8.627-5.438-9.636-6.499c-2.452-2.573-7.86-3.403-11.01-5.054
	c-4.698-2.465-6.041,1.284-8.258,3.609C241.41,464.3,236.583,464.146,233.34,464.827L233.34,464.827z"/>
<path fill="#6B6A71" d="M300.786,459.05c-3.635,3.814,10.007,5.102,15.137,5.777c5.361,0.703-0.034-5.853-1.376-8.666
	C311.308,449.356,305.386,459.534,300.786,459.05z"/>
<path fill="#6B6A71" d="M344.828,456.161c-1.668-3.501,10.362,4.883,16.518,6.498c4.796,1.258-2.622-4.299-5.504-5.055
	C351.044,456.347,351.946,456.161,344.828,456.161z"/>
<path fill="#6B6A71" d="M358.593,471.327c-8.587-2.255-12.011-1.381-9.635,3.609c1.674,3.51,12.707,0.321,15.143,0
	c5.181-0.68,10.274,3.419,13.763,4.332c5.524,1.452,13.86-1.466,16.516-2.164c4.448-1.167-6.896-1.81-11.01-2.888
	c-6.563-1.723-8.872-2.89-16.516-2.89H358.593z"/>
<path fill="#6B6A71" d="M253.986,489.382c-7.891,0-8.258-2.751-8.258,5.053c0,4.269,6.258,5.644,8.258,1.445
	C254.684,494.419,253.986,490.393,253.986,489.382L253.986,489.382z"/>
<path fill="#6B6A71" d="M174.154,444.604c0.997-2.089-11.01,0.737-11.01,2.891c0,1.593,10.568,3.854,12.387,4.333
	C179.657,452.907,175.059,446.978,174.154,444.604z"/>
<path fill="#6B6A71" d="M174.154,463.384c5.353,1.402-6.958-5.14-9.633-7.946c-5.664-5.941-7.651,1.998-6.884,3.612
	c1.792,3.756,0.123,3.774-4.13,4.334C146.83,464.257,168.251,465.239,174.154,463.384c4.397-1.386-2.223,7.289,2.755,7.943
	C185.156,472.408,182.313,465.826,174.154,463.384z"/>
<path fill="#6B6A71" d="M189.296,409.938c2.847,0.377-6.221,2.118-5.507,3.612c0.734,1.537,11.998,3.146,13.766,3.611
	c2.217,0.581,3.768,7.907,4.128,8.666c1.075,2.262,6.881,7.243,6.881,1.442c0-4.338-3.008-5.322-5.506-7.942
	C199.543,415.638,198.023,413.604,189.296,409.938L189.296,409.938z"/>
<path fill="#6B6A71" d="M76.43,368.054c-2.294-2.407,1.906,6.568,6.88,7.222c9.586,1.257-6.964-7.445-8.258-10.833
	c-1.251-3.278-6.7-4.862-9.633-7.942c-4.857-5.098-14.341-0.303-2.755,5.775C67.221,364.664,70.164,365.423,76.43,368.054z"/>
<path fill="#6B6A71" d="M154.885,359.388c3.078,1.616-6.074,4.455-4.129,6.5c3.258,3.417,3.185,4.827-1.378,7.221
	c-2.625,1.378,5.305,6.932,8.259,0.723c2.01-4.219,2.148-4.896,8.258-6.501C167.02,367.034,157.698,361.846,154.885,359.388z"/>
<path fill="#56555B" d="M33.073,293.669c-9.451,4.463-2.386,8.868-1.377,9.929c1.147,1.204,5.757-1.395,7.572-2.35
	c1.926-1.01-1.152-4.453-1.378-4.69C36.421,295.012,37.637,294.624,33.073,293.669z"/>
<path fill="#A8A7AA" d="M653.146,120.341c-3.199,2.888-0.087,7.594-8.26,8.666c-2.715,0.357-13.788-2.533-15.141-2.889
	c-6.604-1.73-3.506-4.053-12.386-2.887c-4.24,0.555-3.374,7.794-4.13,9.388c-1.347,2.821-1.31,6.647,0,9.388
	c0.986,2.075,7.388,4.599,9.633,5.777c4.644,2.436,6.893,4.351,8.259,7.224c1.28,2.685,1.788,7.365,2.755,9.388
	c0.215,0.453-6.13,6.431-6.886,7.222c-4.067,4.268-11.31-0.881-13.761-2.167c-4.072-2.137-7.552-3.518-13.766-4.332
	c-5.224-0.688-8.082-3.588-13.766-4.334c-8.021-1.053-11.082,1.601-12.388,4.334c-2.099,4.402,5.039,4.809,8.26,6.499
	c5.587,2.932,4.578,4.099,0,6.501c-4.184,2.192-12.898-3.159-13.762-3.612c-3.305-1.735-4.566-5.972-5.507-7.943
	c-1.205-2.528-8.881-2.492-12.388-4.334c-4.854-2.545,0.334-7.572,1.378-8.666c3.737-3.928,23.546-0.722,30.278-0.722
	c4.878,0,5.272-4.634,9.636-5.779c8.875-2.327,4.239-0.72-5.508-0.72c-5.138,0-10.68,2.301-15.137,2.887
	c-9.073,1.19-3.903-5.292-2.753-6.499c3.796-3.985,2.947-4.955-1.378-7.221c-3.569-1.875-10.246,0.64-15.139,0
	c-4.437-0.583-8.547-3.761-11.013-5.057c-4.591-2.408-8.64-3.088-12.389-5.057c-5.772-3.029,4.611-5.181,6.884-5.776
	c5.042-1.325,11.413-1.445,17.891-1.445c8.439,0,9.637-1.565,9.637-5.777c0-3.952-5.31-4.334,6.881-4.334
	c5.449,0,8.926,2.795,15.143,3.611c1.843,0.241,11.12-2.167,16.517-2.167c7.206,0,12.218-0.369,13.761-3.612
	c2.938-6.156,9.456,3.234,9.637,3.612c2.406,5.049,0.138,5.127,5.506,7.943c5.146,2.701,8.977-3.68,9.635-5.054
	c1.89-3.97,12.06,3.645,12.388,4.332C652.334,117.922,652.685,119.138,653.146,120.341L653.146,120.341z M571.302,157.895
	c0,1.995-4.031,3.611-8.999,3.611c-4.971,0-9-1.616-9-3.611c0-1.992,4.029-3.609,9-3.609
	C567.271,154.285,571.302,155.902,571.302,157.895z M609.102,140.742c0,2.294-2.778,4.154-6.194,4.154
	c-3.419,0-6.192-1.86-6.192-4.154c0-2.292,2.773-4.152,6.192-4.152C606.323,136.59,609.102,138.45,609.102,140.742z"/>
<path fill="#959595" stroke="#B9B9B9" stroke-width="2.1183" d="M698.586,84.102c-1.355,3.31-10.12,5.12-19.575,4.044
	c-9.456-1.074-16.022-4.63-14.667-7.939c0.002-0.01,0.008-0.02,0.011-0.029c1.354-3.307,10.117-5.118,19.57-4.044
	c9.456,1.077,16.026,4.63,14.673,7.939C698.592,84.082,698.588,84.092,698.586,84.102z"/>
<path fill="#A7A7A7" stroke="#CACACA" stroke-width="1.6096" d="M822.147,159.878c-6.279,2.065-16.368-0.185-22.535-5.021
	c-6.166-4.837-6.076-10.432,0.204-12.495c0.015-0.004,0.035-0.012,0.05-0.016c6.277-2.063,16.367,0.184,22.534,5.021
	c6.167,4.835,6.078,10.432-0.201,12.495C822.181,159.865,822.163,159.872,822.147,159.878z"/>
<path fill="#959595" stroke="#B9B9B9" stroke-width="3.8944" d="M697.537,107.476c-2.76,2.105-9.575,2.08-15.231-0.059
	c-5.652-2.139-7.999-5.583-5.24-7.689c0.007-0.007,0.015-0.012,0.022-0.019c2.754-2.105,9.574-2.082,15.227,0.059
	c5.652,2.139,8.002,5.581,5.246,7.689C697.554,107.465,697.546,107.469,697.537,107.476z"/>
<path fill="#CACACA" d="M1020.594,355.075c-5.325-1.297-6.8-6.803-3.287-12.296c3.51-5.491,10.672-8.89,15.998-7.595
	c0.015,0.005,0.029,0.01,0.047,0.012c5.322,1.299,6.797,6.802,3.283,12.295c-3.512,5.492-10.672,8.893-15.998,7.596
	C1020.621,355.083,1020.604,355.078,1020.594,355.075z"/>
<path fill="#CDCDCD" d="M978.742,409.059c-4.865-1.728-4.644-7.287,0.491-12.412c5.134-5.129,13.239-7.887,18.103-6.159
	c0.014,0.006,0.025,0.01,0.04,0.015c4.864,1.728,4.646,7.284-0.495,12.414c-5.134,5.127-13.236,7.885-18.102,6.156
	C978.768,409.067,978.754,409.063,978.742,409.059z"/>
<path fill="#E7E6E8" stroke="#A9A9A9" stroke-width="3.6222" d="M673.679,229.216c0,1.974-3.05,3.574-6.813,3.574
	c-3.764,0-6.813-1.601-6.813-3.574c0-1.973,3.05-3.573,6.813-3.573C670.629,225.643,673.679,227.243,673.679,229.216z"/>
<path fill="#ECECED" d="M681.59,380.179c-1.257,0.958-2.955,1.721-4.487,2.55c-2.147,1.147-4.397,2.287-5.886,3.711
	c-0.7,0.685-1.195,1.612-0.215,2.29c0.994,0.547,2.623,0.49,3.926,0.358c4.001-0.458,7.475-2.208,8.128-4.363
	C683.663,382.842,682.414,379.726,681.59,380.179z"/>
<radialGradient id="SVGID_8_" cx="-1702.0215" cy="-183.5239" r="167.429" gradientTransform="matrix(1.6645 0.1428 0.5536 -1.7761 3424.9102 404.1055)" gradientUnits="userSpaceOnUse">
	<stop  offset="0" style="stop-color:#FDFDFE"/>
	<stop  offset="1" style="stop-color:#F1F1F2;stop-opacity:0.4694"/>
</radialGradient>
<path fill="url(#SVGID_8_)" d="M739.871,433.994c7.407-1.946,11.899-3.854,17.517,0c4.644,4.874-13.159,6.321-19.464,7.147
	c-8.524,1.119-14.029,3.17-21.412,5.109c-9.054,2.375,3.61-4.012,7.785-5.109C731.285,439.308,732.455,435.939,739.871,433.994z"/>
<path fill="#ECECED" d="M808.972,310.923c5.608-1.455,7.031,7.28-0.945,9.692c-7.112,4.108-21.497,4.104-24.298,10.297
	c-3.288,4.63-6.724,10.173,1.576,14.034c4.161,4.71,13.986,4.747,22.482,5.255c11.608-1.131,14.114,5.508,19.951,9.244
	c8.525,0.267,16.903-13.376,27.953-4.71c7.394,2.793,5.76,11.105-2.017,12.517c-7.124,1.822-16.999-1.506-19.965,2.864
	c0.295,3.91-6.67,10.225-6.422,15.936c6.226,3.681,2.795,0.886,3.42,6.352c3.235,3.667,10.36,8.46,2.261,9.801
	c-8.477,2.488-10.537,9.646-18.736,12.366c-6.884,3.826-16.198,6.046-23.186,9.806c-5.514,2.148-18.167,5.739-22.734,2.949
	c5.382-3.949,13.075-6.894,19.834-10.172c7.452-2.214,13.14-5.654,20.485-7.908c6.888-1.875,13.507-7.202,8.051-10.955
	c-6.013-3.145-18.147-3.549-19.038-8.911c-3.627-5.499,8.286-8.837,7.433-14.113c0.427-2.682-4.62-11.156-7.763-4.735
	c-0.656,3.265-8.263,5.373-9.426,0.94c-4.301-4.938-1.924-11.686-10.05-15.538c-8.221-0.709-16.862,0.935-25.252,1.143
	c-10.843,1.425-14.46,7.462-19.806,11.857c-10.387,3.248-9.996-7.392-9.325-10.729c0.833-3.726-1.808-13.246,10.681-9.813
	c7.317,1.82,22.089,7.636,23.623-0.295c3.856-5.489-2.487-10.438-13.428-10.935c-11.373-1.621,0.254-8.555,3.689-11.515
	c6.377-2.8,7.066-8.162,14.552-10.236c9.086-0.957,17.829,1.765,26.774,1.494C795.497,315.932,802.804,311.873,808.972,310.923
	L808.972,310.923z"/>
<path fill="#ECECED" d="M706.092,286.44c-3.492-2.378-18.684-6.254-21.59-6.436c-4.037-0.137-8.09-0.313-12.047-0.75
	c-1.337,1.06,0.047,2.571,0.286,3.767c1.077,2.613,1.713,11.988,0.37,14.059c-1.343,1.855-2.451,3.821-2.305,5.826
	c1.454,1.591,12.739,6.243,16.097,7.114c2.902,0.319,4.138-1.482,5.146-2.57c1.693-1.849,10.96-5.526,13.142-6.338
	c4.052-1.205,4.586-3.949,4.328-6.15C709.311,293.107,706.898,287.231,706.092,286.44z"/>
<path fill="#ECECED" d="M674.662,335.436c3.205,0.317,3.093,2.576,2.394,3.893c-1.257,2.651-15.518,6.191-16.58,7.387
	c-2.411,3.373-3.374,6.978-3.472,10.566c-0.203,2.01-14.27,5.408-16.342,3.861c-0.649-1.834,9.224-11.638,9.669-15.3
	c0.86-3.609-2.138-7.006-3.299-10.483c-0.727-4.122,2.993-7.988,6.628-11.5C656.722,322.617,670.813,332.109,674.662,335.436
	L674.662,335.436z"/>
<path fill="#ECECED" d="M639.622,385.479c0.959-0.566,0.226-1.436-1.271-1.087c-3.734,0.497-7.173,1.45-10.787,2.135
	c-3.656,0.691-7.481,1.484-11.442,1.277c-2.031-0.17-3.729-0.843-5.518-1.324c-2.859-0.864-5.755-2-6.756-3.728
	c-0.554-0.976-1.139-1.967-1.371-2.979c0.488-0.906,2.542-0.003,3.513,0.283c4.963,1.724,9.46,3.893,15.03,5.085
	c2.426,0.543,5.103,0.278,7.653,0.338H639.622z"/>
<radialGradient id="SVGID_9_" cx="-2053.54" cy="-498.7261" r="167.4236" gradientTransform="matrix(1.2769 0.2618 0.5771 -0.7749 3400.2148 638.0293)" gradientUnits="userSpaceOnUse">
	<stop  offset="0" style="stop-color:#FDFDFE"/>
	<stop  offset="1" style="stop-color:#F1F1F2;stop-opacity:0.4694"/>
</radialGradient>
<path fill="url(#SVGID_9_)" d="M466.384,479.442c-9.101-5.97-21.119-16.169-33.097-22.978
	c-15.088-7.854-25.776-17.507-34.733-27.518c-9.621-7.18-17.265-20.646-28.364-24.221c1.04,5.376-13.335,8.657,3.371,11.164
	c17.359,3.986,9.834,16.042,24.878,20.857c8.078,8.877,18.508,17.257,29.898,25.129c7.871,4.965,29.879,13.607,28.199,17.212
	c-7.425-9.732-29.281-15.014-48.133-15.36c-14.803,3.649,14.997,7.655,22.25,6.164c9.536-0.018,28.87,9.161,9.214,4.889
	c-11.363,4.548-23.337-5.408-32.803-1.186c3.18,3.076,28.842,4.457,22.311,6.136c-7.848,0.115-27.166-6.992-26.218,0.243
	c9.659,3.1,25.178,0.925,32.32,4.79c-5.53,4.461-13.851,3.864-20.98,6.253c-1.922,7.722,28.068,0.513,12.38,7.155
	c-17.118,8.784,18.966-0.053,17.197,0.443c-9.836,6.096,4.444,4.256,8.756,4.018c-7.355,8.354-18.442,15.41-27.323,23.278
	c-10.51,6.756-18.646,14.558-31.146,20.429c-5.779,6.518,11.225-2.667,14.357-4.394c17.226-5.497,27.733-15.082,38.197-23.693
	c5.515-4.976,12.658-11.56,18.656-15.192c9.663,7.197-0.819,16.106,2.758,24.895c14.027,5.253-3.63,14.532,3.776,19.27
	c24.458,0.622,15.489-13.438,14.736-21.092c-2.463-4.892,6.596-9.251,9.813-2.617c-0.97,4.509,5.546,7.966,5.527,1.536
	c-0.304-4.306,0.928-6.791,3.334-0.953c2.268,3.276,16.314,15.474,13.425,4.879c0.149-5.434-16.376-13.79-3.707-17.545
	c11.236,3.324,20.108,7.481,9.582,13.836c-11.147,2.862,9.479,12.227,14.974,5.942c10.649,1.026,14.207-3.603,17.753-6.96
	c12.626,5.834,35.735-0.219,43.069-5.802c-5.899,0.405-22.301-3.649-6.732-2.24c6.544,1.395,23.571,3.038,10.243-1.891
	c1.751-4.304,22.665,0.956,31.104,0.367c-0.425-5.716-22.914-3.04-16.226-11.535c-4.217-5.055-20.588,9.736-18.988-0.661
	c-5.605-6.479-11.271,2.865-8.235,5.767c-11.002-3.126-10.34,9.686-12.757,1.315c3.29-4.235,12.04-12.056,5.446-15.771
	c-6.857,4.139-21.929,3.406-28.92,1.66c17.146-0.131,33.833-2.504,50.143,0.807c13.94-0.08,19.954-5.321,28.144-9.586
	c10.741,0.4-4.636-14.079-8.381-5.909c-4.805,9.069-19.084,6.041-30.597,3.265c-4.349,1.997-23.049,4.284-21.34,2.069
	c13.754-2.433,33.029-1.562,42.446-6.495c-2.648-2.319,8.94-6.99,1.006-6.467c8.308-5.656,14.913,5.621,22.657-2.384
	c18.535-3.088,39.099-3.952,56.399-8.375c9.824-4.521,36.403-6.516,36.162-12.951c-17.146,0.72-31.07,11.383-50.779,10.958
	c-17.434,4.742-36.28,9.039-56.38,8.839c-6.736,0.225-25.947,0.333-8.764-2.042c14.282-0.501,35.051,0.81,43.358-6.633
	c-5.507-6.061-32.037,7.182-35.299,0.317c12.776-5.892,26.326-11.036,39.37-16.583c9.974-3.614,31.764-8.419,14.689-14.461
	c8.771-6.615,49.781-4.632,38.157-16.987c-19.641-8.35-21.223,10.079-36.848,10.548c-6.919-3.393-27.131,1.196-20.771-6.511
	c-12.846-2.335-31.179,10.639-7.616,9.454c-0.161,4.608,9.553,13.195,16.521,9.126c-3.896-7.528,16.183-2.835,3.917,1.598
	c-8.664,3.288-18.564,9.737-29.158,5.557c-12.143,2.867-12.365-2.343-5.146-5.686c-11.253-3.136-24.371,2.194-23.805-8.095
	c-9.358-0.576-28.063,1.317-12.94-5.563c15.961-5.815,18.456-16.194,31.292-23.331c8.378-2.239,13.9-11.123-0.679-6.468
	c-9.046,5.958-9.833,20.088-25.24,20.858c0.771-8.761-13.745,6.435-8.107-2.977c3.967-3.944,0.817-8.386-2.439-1.995
	c2.439,6.763-21.28,12.823-11.63,17.847c10.18-0.3-8.389,14.889-10.451,3.723c-2.104-3.248-0.916-11.551-9.73-5.106
	c-2.799,8.305-17.289,2.948-11.189-3.39c-3.004-6.024,9.285-12.833,7.778-17.2c-14.342,7.015-10.745-7.494-22.144-5.413
	c-4.167,7.838,22.666,9.457,12.149,18.551c-4.044,10.68-6.274-8.419-16.052-0.433c-13.742,1.412-8.352,14.705-26.629,12.127
	c-3.481-8.062-13.009-3.779-13.417,2.021c-10.139,0.503-12.41-7.587-23.93-2.687c-7.802-1.206-12.679-4.541-15.574,2.042
	c-7.505,1.462-21.62-5.734-20.78,3.478c0.211,6.789,18.437,3.574,16.989,11.276c8.935,2.761,2.211,1.013,0.204,3.104
	c9.854,3.12,24.688,9.438,15.733,15.788c-12.105-6.917-27.642-12.097-34.53-21.39c-12.331-7.23-14.261-17.497-24.623-25.401
	c-20.043-5.825-7.372-16.663-14.31-25.667c-10.703-8.4-23.658,4.854-9.025,8.328c8.335,8.025,16.103,15.64,23.625,23.846
	c4.543,9.357,15.332,17.156,24.322,25.382c10.139,6.6,24.81,11.646,31.564,19.534c-14.794-4.849-22.182-13.584-35.448-19.384
	c-1.753-2.092-14.314-12.313-13.117-6.938c10.285,8.67,25.147,15.368,36.299,23.698C454.218,471.708,467.12,474.521,466.384,479.442
	L466.384,479.442z"/>
<path fill="#E3E3E3" fill-opacity="0.4464" d="M773.411,116.638c1.503,5.814-5.419,11.095-2.706,16.874
	c0.064,5.802,2.914,12.405-5.53,17.06c-5.893,4.549-7.108,10.026-9.749,15.205c-2.627,3.967-6.181,7.734-7.592,11.905
	c-4.218,4.537-3.926,9.723-6.801,14.484c-1.5,4.202-1.673,8.508-2.1,12.765c2.1,2.733,4.099-4.137,5.372-5.318
	c2.372-5.062,8.259-9.479,9.998-14.599c-0.419-5.258,7.497-9.293,8.462-14.471c2.589-4.271,7.053-8.138,9.421-12.452
	c3.769-5.045,2.774-10.691,4.718-15.972c1.979-5.271,2.959-10.562,3.486-15.908c1.873-5.602,2.863-11.263,4.264-16.907
	c2.94-5.486,2.032-11.281,5.442-16.692c0.563-1.898,5.915-9.73,0.321-4.828c-4.411,4.934-7.013,10.304-10.023,15.524
	C779.526,104.708,770.759,110.245,773.411,116.638z"/>
<path fill="#54535A" d="M479.28,436.548c0,3.314-6.427,6.001-14.356,6.001c-7.927,0-14.354-2.687-14.354-6.001
	c0-3.312,6.427-6.001,14.354-6.001C472.853,430.547,479.28,433.236,479.28,436.548z"/>
<path fill="#E7E6E8" stroke="#A9A9A9" stroke-width="3.6222" d="M756.404,294.582c0,1.976-3.05,3.574-6.811,3.574
	c-3.766,0-6.815-1.599-6.815-3.574c0-1.974,3.05-3.574,6.815-3.574C753.354,291.008,756.404,292.608,756.404,294.582z"/>
<path fill="#E7E6E8" stroke="#A9A9A9" stroke-width="4.12" d="M795.745,227.174c0,1.975-2.36,3.574-5.27,3.574
	c-2.908,0-5.266-1.6-5.266-3.574s2.357-3.575,5.266-3.575C793.385,223.599,795.745,225.199,795.745,227.174z"/>
<path opacity="0.658" fill="#959595" stroke="#B9B9B9" stroke-width="3.8944" enable-background="new    " d="M494.573,174.313
	c-0.061,2.558-5.756,4.521-12.721,4.392c-6.965-0.133-12.564-2.31-12.503-4.866c0-0.01,0-0.015,0-0.021
	c0.061-2.556,5.76-4.522,12.726-4.391c6.964,0.13,12.559,2.31,12.501,4.866C494.576,174.299,494.573,174.306,494.573,174.313z"/>
<path fill="#94939A" fill-opacity="0.6548" d="M449.237,403.608c0,2.759-4.092,4.994-9.134,4.994s-9.133-2.235-9.133-4.994
	c0-2.758,4.092-4.997,9.133-4.997S449.237,400.851,449.237,403.608z"/>
<path fill="#94939A" fill-opacity="0.6548" d="M430.744,358.923c0,2.761-4.087,4.996-9.133,4.996c-5.043,0-9.133-2.235-9.133-4.996
	c0-2.756,4.09-4.994,9.133-4.994C426.656,353.929,430.744,356.167,430.744,358.923z"/>
<path fill="#94939A" fill-opacity="0.6548" d="M422.957,360.965c0,2.761-4.085,4.998-9.132,4.998c-5.044,0-9.134-2.237-9.134-4.998
	c0-2.757,4.09-4.992,9.134-4.992C418.871,355.973,422.957,358.208,422.957,360.965z"/>
<path fill="#94939A" fill-opacity="0.6548" d="M434.639,397.737c0,2.757-4.092,4.994-9.134,4.994c-5.046,0-9.133-2.237-9.133-4.994
	c0-2.76,4.086-4.998,9.133-4.998C430.547,392.739,434.639,394.978,434.639,397.737z"/>
<path fill="#94939A" fill-opacity="0.6548" d="M304.22,376.288c0,2.758-4.091,4.996-9.134,4.996c-5.046,0-9.132-2.238-9.132-4.996
	c0-2.759,4.086-4.997,9.132-4.997C300.129,371.291,304.22,373.529,304.22,376.288z"/>
<path fill="#94939A" fill-opacity="0.6548" d="M894.643,347.274c0,2.759-4.092,4.994-9.134,4.994c-5.046,0-9.135-2.235-9.135-4.994
	c0-2.758,4.089-4.994,9.135-4.994C890.551,342.28,894.643,344.517,894.643,347.274z"/>
<path fill="#FBFBFC" d="M72.3,383.222c0.706,1.829,6.137,7.88,8.258,10.108c5.451,5.719,9.791-0.883,11.01-2.168
	c2.959-3.105,15.62,5.308,16.519,5.777c4.757,2.497,12.494-0.749,15.142-1.442c7.58-1.988,14.061-0.801,5.503,1.442
	c-6.596,1.732-5.545,4.291-2.751,7.224c2.794,2.932,2.092,6.529,4.128,8.666c2.322,2.435-6.945,2.89-12.388,2.89
	c-6.224,0-10.491-2.506-15.139-4.333c-2.748-1.081-11.908,3.124-13.765,3.609c-4.264,1.117-5.127,8.737-8.259,2.167
	c-0.97-2.039,8.32-4.701,11.01-5.057c8.19-1.073,5.949-4.093-1.374-5.053c-8.557-1.124-2.029-3.27,1.374-5.057
	c3.512-1.842-8.875-2.49-12.387-4.332c-4.523-2.375-5.295-3.89-6.881-7.224C70.098,385.823,74.753,389.647,72.3,383.222z
	 M98.453,347.831c-0.08-0.166,9.599,5.741,11.011,7.224c3.332,3.496,6.792,7.036,8.258,10.11c2.614,5.481-5.191-0.557-6.879-1.444
	c-5.899-3.098-8.697-2.774-13.767-1.445c-11.707,3.071-2.535-3.723-1.377-4.334C99.989,355.691,98.453,351.584,98.453,347.831z
	 M749.815,37.087c113.421,24.586,200.248,66.872,254.652,114.933c-15.447,0.752-27.107-5.343-36.617-11.088
	c-8.92-5.078-7.818-16.687-23.29-17.046c-11.336,4.485-0.498,11.416,5.035,15.875c6.934,5.057-6.101,10.342-9.732,3.066
	c-8.035-7.002-8.792-15.585-18.155-22.207c-6.413-7.153-12.951-14.735-26.741-18.791c-11.263-4.584-25.553-6.671-37.653-10.618
	c-14.87-0.805,3.172,10.361,0.05,14.464c-7.53,4.372-8.495-12.25-13.185-3.338c-0.841,2.58-3.348,6.886-2.153,1.418
	c0.798-5.822,2.553-13.057,14.402-14.766c-2.053-9.35-24.906-1.622-31.972-9.249c-8.658-4.724-22.228-3.366-31.088-2.632
	c-0.503,9.303-16.271-2.63-18.087-5.992c-10.84-3.076-21.572-7.318-31.965-10.042c-4.701,2.224-28.898,4.931-15.367-0.685
	c6.241-2.491,20.517-6.891,4.163-5.602c-13.612-0.363-27.252,0.451-38.864,4.472c5.694-5.628,16.029-11.235,29.506-9.594
	c11.688,0.779,30.291,1.263,26.599-7.799C749.869,40.449,749.257,38.501,749.815,37.087L749.815,37.087z M280.273,49.761
	c101.292-28.767,241.439-47.248,397.968-25.19c-12.771,1.296-36.75,9.621-48.17,4.138c-10.218-2.991-29.067-1.78-20.748,6.371
	c-9.962,2.828-24.645-5.736-33.464,0.505c-3.119,3.119,13.432,7.696-2.003,7.139c-15.651,1.858-13.917-10.644-29.292-7.729
	c-16.861-0.625-6.423-10.045,5.853-9.365c9.934-0.04,9.797-4.119-0.325-4.147c-8.029-0.923-35.49-4.745-22.216,3.562
	c-4.69,2.726-25.255,0.826-12.02,5.996c6.935,6.685-19.533,4.181-15.91-1.584c-10.868,1.06-17.066-1.038-9.037-5.427
	c-13.644-0.46-27.329,1.905-41.155,1.548c-17.165,1.499-32.438,6.655-49.984,7.829c-23.999-0.119,1.688,14.007-16.152,18.309
	c-11.151,3.614-25.304,0.432-37.228,2.991c-14.045,1.501-28.518,3.446-37.83,9.664c-8.669,3.447-32.567,7.377-26.925-2.967
	C282.012,58.262,281.521,52.889,280.273,49.761z M1072.002,246.205c-11.036-34.262-36.147-66.743-61.826-89.155
	c-2.281-4.177-19.124-2.798-19.967,1.194c-3.081,3.741,8.516,7.105,3.524,10.122c-5.771,0.451-9.645,2.642-3.219,4.823
	c5.777,3.133,13.712,4.619,20.403,7.052c5.354,1.984,8.391,6.727-0.678,7.261c-7.091,2.092-4.367,7.722,3.197,8.566
	c6.224,1.732,14.617,1.172,19.383,4.204c4.586,3.98,0.271,9.008,4.798,13.045c4.482,4.104,2.989,8.883,4.758,13.333
	c1.634,5.052,2.786,10.67,10.538,14.304C1057.455,243.939,1065.489,244.719,1072.002,246.205z M1019.672,416.544
	c11.268-2.955-15.779,10.429-21.41,16.341c-3.869,4.058-8.175,7.353-13.63,10.215c-6.601,3.462-7.73,5.092-15.573,7.147
	c-9.803,2.573,0.638-7.483,1.949-8.172l15.571-8.171c5.428-2.847,8.8-6.164,11.683-9.19
	C1002.323,420.451,1009.281,418.723,1019.672,416.544L1019.672,416.544z M932.076,446.163c3.492-3.669-8.584,7.357-15.572,9.189
	c-8.092,2.125-11.677,5.265-11.677-3.062c0-3.33,8.128-8.352,11.677-10.216c5.428-2.846,11.755-4.615,17.52-6.127
	C939.856,434.419,934.498,442.986,932.076,446.163z M971.008,427.779c7.545-1.981-7.686,7.961-9.737,12.255
	c-2.276,4.793-9.85,5.107-19.461,5.107c-2.603,0-8.857,7.94-13.623,9.188c-11.483,3.015-13.666,6.088-9.736,10.218
	c4.227,4.433,16.449-3.524,17.519-4.089c5.947-3.118,6.67-6.56,11.682-9.19l15.572-8.169c3.968-2.083,6.309-8.136,7.785-11.237
	C971.639,430.543,971.008,429.141,971.008,427.779z M259.006,533.075c150.746,47.968,340.875,54.364,505.768,15.887
	c-10.773-1.713-30.146-4.89-44.998-2.758c-14.728,0.475-19.218,13.853-38.942,9.274c-11.755-6.313-30.331-2.62-42.826-6.879
	c-8.489,1.644-16.954,6.271-22.089,0.959c-15.42,0.308-28.422,6.532-43.15,0.604c-18.716-4.311-22.189,4.302-11.136,7.277
	c-16.019,1.88-34.727-2.667-44.404-9.223c2.478-5.009,3.237-13.626-11.421-10.46c0.499,6.799-12.657,10.271-19.154,12.729
	c-12.917-8.814-26.329-1.246-37.93,3.595c-15.991,1.432-30.463-6.432-46.849-2.327c-11.428,2.408-22.04-1.314-18.973-7.915
	c-10.868-0.347-36.419-5.453-17.426-11.126c-15.784-2.009-33.375-0.195-46.327-6.489c-5.795-3.385-34.281-5.729-17.733,0.553
	c14.947,1.298,24.844,14.131,2.452,11.796C287.595,539.917,273.715,525.195,259.006,533.075z M902.273,310.277
	c-5-0.656-11.941-2.677-13.764-6.498c-1.41-2.961,1.45-6.655,2.756-9.389c1.224-2.571-10.248,0.643-15.145,0
	c-6.546-0.86-5.482-3.653-8.258,2.167c-2.076,4.36,1.336,6.542-1.374,9.387c-1.478,1.551-10.335,3.255-12.388,4.333
	c-5.943,3.119-1.522,5.702,1.374,7.224c0.291,0.149,13.159-4.095,13.767-4.336c5.863-2.307,7.966-1.86,11.01-5.054
	c2.282-2.396,13.504,4.917,13.766,5.054C899.854,316.229,902.273,315.932,902.273,310.277z"/>
<path fill="#5F5E64" d="M584.301,45.554c0.177-1.081-1.715-3.614-2.656-3.486c-1.197,0.163-0.182,2.179,0,2.441
	C583.571,47.328,584.366,46.138,584.301,45.554z"/>
<path fill="#98989E" d="M918.465,214.408c0.451,0.941,9.471,3.947,11.68,5.105c2.011,1.054,7.473,2.728,10.705,3.574
	c3.621,0.948,6.224,2.245,8.758,3.574c3.449,1.811,5.354,3.404,7.788,5.108c2.016,1.41,1.943,4.319,1.943,6.638
	c0,2.502-3.89,3.036-3.89,6.129c0,1.372,7.151-0.822,7.784,0.51c0.85,1.782,3.542,3.718,4.866,5.105
	c2.68,2.81-0.087,4.099-3.893,4.597c-3.895,0.513-0.082,4.638-2.917,6.129c-3.225,1.689-5.035,2.041-10.708,2.041
	c-7.546,0-2.253,3.201,0,4.086c3.446,1.355,3.891,3.367,3.891,4.597c0,3.912-14.208-3.103-14.599-3.574
	c-2.436-2.985-8.71,2.504-8.758,2.552c-2.853,2.995-4.095-1.826-2.919-3.061c0.902-0.95,11.666-0.766,13.624-1.023
	c4.14-0.542-0.034-4.637-1.947-6.638c-1.172-1.228,5.252-0.846,7.787-0.513c3.521,0.463,2.304-3.76,4.867-5.105
	c3.707-1.946,2.476-4.087-2.921-4.087c-6.234,0-7.59-0.606-8.758-3.062c-1.059-2.224-7.029-1.563-10.705-2.044
	c-4.621-0.606-7.445-1.099-10.221-2.555c-3.098-1.624-4.287-2.354-5.355-4.596c-1.042-2.188-2.04-4.797-2.919-6.638
	c-1.469-3.089-1.023-4.141-2.921-6.127c-2.444-2.57-3.79-2.608,0-4.599C912.548,218.532,913.305,217.793,918.465,214.408z"/>
<path fill="#E7E6E8" d="M931.275,235.47c-1.002,0.354-2.544,0.071-3.441-0.633c-0.899-0.703-0.813-1.558,0.192-1.912
	s2.546-0.07,3.446,0.633C932.37,234.261,932.282,235.116,931.275,235.47z"/>
<radialGradient id="SVGID_10_" cx="-167.0615" cy="249.9951" r="11.2022" gradientTransform="matrix(2.6523 -0.4091 -0.8084 -1.1376 1137.3496 704.9326)" gradientUnits="userSpaceOnUse">
	<stop  offset="0" style="stop-color:#8C8C8C"/>
	<stop  offset="0.6731" style="stop-color:#8C8C8C"/>
	<stop  offset="1" style="stop-color:#8C8C8C;stop-opacity:0"/>
</radialGradient>
<path opacity="0.5958" fill="url(#SVGID_10_)" enable-background="new    " d="M521.851,484.309
	c5.024,7.027-4.184,14.784-20.569,17.326c-16.387,2.541-33.745-1.095-38.767-8.12c-0.011-0.017-0.024-0.033-0.032-0.047
	c-5.027-7.028,4.183-14.784,20.566-17.327c16.386-2.541,33.743,1.096,38.767,8.123C521.828,484.279,521.84,484.296,521.851,484.309z
	"/>
<path opacity="0.8497" fill="#FFFFFF" enable-background="new    " d="M506.827,486.631c2.483,3.468-2.063,7.297-10.15,8.553
	c-8.089,1.254-16.659-0.543-19.138-4.01c-0.004-0.009-0.011-0.018-0.016-0.022c-2.481-3.47,2.066-7.299,10.151-8.553
	c8.09-1.256,16.659,0.541,19.139,4.012C506.819,486.614,506.821,486.622,506.827,486.631z"/>
<path fill="#A8A7AA" fill-opacity="0.8671" d="M450.814,210.614c-0.215-8.816,4.516-17.466,2.751-26.358
	c-1.673-9.657,4.734-19.384,0.825-28.922c-7.265-3.254-6.037,10.403-6.333,13.845c3.811,7.877-7.207,15.948-0.103,23.051
	c4.67,6.742-4.487,15.529-12.027,20.558c-21.586,0.599-5.888-14.115-2.095-19.625c0.298-9.804-3.32-19.381-8.586-28.752
	c-0.471-4.617-11.501-18.562-9.275-6.277c-1.473,8.64,5.48,16.581,7.137,25.016c0.07,8.661,1.259,17.693-2.543,26.068
	c-9.095,2.764-37.075-0.045-29.706-6.328c20.669-0.152-20.634-13.741,5.373-14.95c9.678-1.491,18.248,4.379,18.254-4.271
	c8.738-12.424-19.608-8.611-30.105-4.164c-1.867-5.515-0.875-17.149-8.584-19.395c-10.296,7.461,5.876,15.263,2.106,23.226
	c-1.554,3.468,10.396,7.244-2.789,6.576c2.153,6.242,1.531,12.132-12.625,14.021c-4.156,10.082-23.367,1.577-34.354-0.171
	c-4.499-9.836-29.642-2.039-38.441-10.056c-4.363-3.251-14.625-3.678-4.053,0.301c12.872,6.779,34.515,7.74,43.173,16.899
	c-14.936,1.508-28.045-6.313-42.378-8.444c-5.154-2.795-35.459-5.295-16.145-0.771c16.828,5.287,35.785,8.813,51.07,15.405
	c-5.319,4.499-28.901-1.013-40.532-1.96c-4.912,1.204,19.722,6.529,27.1,7.243c-6.499,1.27-30.969,5.866-13.319,6.649
	c11.026,1.376,26.975-9.151,32.558-3.595c-3.23,5.273-0.134,9.401-3.703,14.008c3.089,4.587,31.368,8.682,9.041,9.844
	c-9.253-0.484-26.705,2.967-8.323,4.662c12.518-0.361,30.581-0.283,39.623-1.952c-13.651,3.118-29.008,5.057-43.204,6.931
	c-8.587-1.52-32.54-5.267-33.683-1.212c9.982,5.799,32.621,1.753,38.457,7.241c-10.722-1.429-34.911-4.194-26.602,5.958
	c-4.721,5.47-6.832,10.665,5.154,14.006c1.162,8.553,28.658,1.598,22.308,10.227c13.346,1.896,27.749,3.32,31.774,12.011
	c4.218,3.068,2.494,13.633,13.351,6.841c-4.433-7.524-4.938-15.477-12.894-22.4c-6.083-7.492,4.18,7.445,10.07,8.069
	c9.178,5.812,12.824-9.964,22.499-1.892c15.32,2.293-13.734-10.622,5.7-11.404c19.034-2.166,12.384,13.43,12.349,19.527
	c0.159,4.596-0.304,10.923-11.754,5.914c-15.408-2.585-4.432,6.886-12.733,9.762c-3.541,7.018,7.603,14.874,18.57,7.237
	c5.795,7.981,17.485,13.729,30.651,18.023c10.564,5.112,14.771,11.611,10.399,18.883c9.31,0.313,11.267-8.575,23.245-7.893
	c6.435-6.951-0.107-17.822-13.631-20.563c-9.732-5.285,18.056-5.007,13.163-12.536c4.728-3.99,0.81-18.139-7.578-10.664
	c7.647,5.46-2.652,13.283-5.849,4.164c7.906-7.042-4.943-10.434-11.375-14.558c4.233-10.286-14.003-17.481-5.085-27.747
	c1.083-3.633,10.577,5.077,18.091,2.945c14.977,1.565,30.38,1.068,45.535,1.813c23.098-0.995-12.169-9.416-20.601-8.613
	c-13.599,2.88-27.841,0.356-38.778-4.211c-20.101-6.061,13.548-9.105,22.504-5.579c10.829,2.192,17.496,10.347,25.68,11.457
	c10.086-4.81,4.291-14.587,18.72-16.261c0.061-4.602-26.41-9.809-3.765-10.745c16.709-6.044-15.277-6.784-22.322-9.344
	c2.18-5.057,23.243-10.328,7.66-16.314c-11.781-0.208-8.888-10.666-19.583-4.03c-18.927,6.462-2.119-7.591-4.206-9.591
	C460.105,205.768,455.657,209.531,450.814,210.614z"/>
<path fill="#B9B8BA" d="M412.273,228.672c-5.469-3.97-9.875-9.448-20.17-10.338c-6.792-1.234-15.384-0.592-17.454,3.581
	c-3.097,4.167,11.417,2.764,15.818,4.246c3.745,2.12,9.858,5.128,9.609,7.78c-6.961,1.797-14.36,3.554-22.331,3.374
	c-7.821,1.058-11.443-3.288-14.15-6.26c-3.507-3.808-11.244-6.455-11.772-10.959c0.367-2.837-3.862-9.55-8.297-3.998
	c-3.742,3.427,0.456,6.984,4.582,9.639c4.176,3.786-9.716,3.224-10.726,6.481c-3.569,4.134,3.281,8.916,11.539,9.117
	c4.28,0.363,19.266-0.203,11.41,3.307c-4.444,0.381-7.948,2.045-1.274,2.531c6.754,1.728,21.226-0.666,21.133,4.979
	c-5.971,2.962-15.338,4.615-17.275,9.297c-2.407,2.594-3.669,8.693,5.194,6.439c4.691-0.328,8.643-7.693,8.367-2.13
	c0.461,3.714-2.532,8.399,3.615,11.223c4.244,0.821,11.797-4.101,9.697,0.923c-2.532,2.786-0.015,5.744,6.301,3.765
	c8.949-3.371,7.96,6.213,17.561,5.498c9.458,0.794,6.927-5.054,2.183-7.038c-6.815-0.697-10.476-3.667-10.304-7.271
	c-2.098-3.623-15.192,0.68-15.488-4.155c0.974-3.307,4.539-8.286-5.402-8.462c-10.473-1.783,4.908-5.316,9.655-5.726
	c9.087-0.965,19.36,1.688,27.569-1.451c7.49-2.028,14.317-5.521,23.358-5.149c6.489,1.514,13.869,1.283,20.193,2.839
	c4.62,1.991,8.021,5.235,14.698,5.432c4.317,0.696,14.199,1.689,8.953-2.252c-2.747-3.471-9.528-4.773-15.419-6.327
	c-3.748-1.356-14.056-4.742-3.396-4.485c7.527,1.084,13.104-0.783,10.842-5.061c1.911-4.259-12.677-4.759-12.239-0.711
	c-1.189,3.522-4.328,8.008-11.98,8.567c-8.251,0.28-16.702-0.416-24.507-1.769c-4.513-1.782-11.969-7.237-1.727-7.443
	c4.376-0.673,14.668-1.565,7.476-4.617c-3.86-2.972-12.951-3.471-14.376-7.309c2.595-3.949-6.538-8.375-9.747-3.031
	C412.535,223.964,412.309,226.344,412.273,228.672z"/>
<path fill="#E5E5E6" d="M413.651,238.06c0.265-1.099-2.161-1.436-3.758-1.119c-5.196,0.64-9.834,2.28-15.205,2.559
	c-3.361-0.104-6.163,1.196-7.66,2.67c-1.508,1.507-2.709,3.183-2.655,4.903c0.042,1.506,2.322,2.687,4.881,3.18
	c3.535,0.7,7.273,1.061,10.918,1.563c5.69,0.685,11.631,0.879,17.43,0.511c2.956-0.183,5.787-1.013,7.307-2.382
	c1.964-1.547,3.188-3.527,1.922-5.345c-0.901-1.388-2.533-2.602-3.833-3.888c-2.307-1.294-5.668-1.847-8.701-2.518L413.651,238.06z"
	/>
<path fill="#A8A7AA" fill-opacity="0.8671" d="M289.771,236.614c-8.005-10.766-32.65-14.772-15.139-28.164
	c-37.354-3.048-3.15-15.798-26.799-26.725c19.565-0.055,30.498,11.448,19.396-5.05c11.485-14.759,28.091,5.224,47.463-7.025
	c37.681-5.741,7.713-18.168-16.664-9.589c-18.554,4.759-50.632-4.865-12.388-5.776c47.613-6.678-7.709-16.234-29.545-14.657
	c-26.279-0.042,15.355-32.65-16.943-17.995c11.33,26.161-67.175,11.076-62.243,22.542c25.825,6.983-42.943,16.302-50.929,28.165
	c-16.801,8.188-45.433,23.519-6.881,8.665c33.336-5.184,79.156-41.401,104.389-22.855c-17.215,14.575-33.954,30.377-68.417,16.8
	c-22.011,8.892,45.859,8.332,14.81,23.709c-2.713,21.092,27.88-18.786,23.241,5.843c8.606-18.581,10.937-3.924,21.505-1.624
	c39.29-12.193,12.061,11.979-10.082,15.851c-49.35,13.848,50.978,18.393,6.685,29.434c-5.046,7.491-93.932-0.884-39.829,6.507
	c26.779-1.714,49.565,2.798,11.037,6.124c-30.044,21.187,37.44-5.606,37.431,10.926c2.921,12.268,42.409,19.26,24.564,0.247
	c6.739-18.463,19.341,6.624,18.463,7.065C274.636,266.283,293.878,251.891,289.771,236.614z"/>
<path fill="#B9B8BA" d="M284.268,244.559c-3.999,0.642-7.971,2.377-12.329,1.694c-4.217-0.765-0.694-4.161-5.047-4.518
	c-4.213-0.68-7.724-2.701-7.398-5.121c0.041-1.806,0.149-5.19-4.954-4.818c-3.786,0.083-9.084,0.888-7.967,3.468
	c0.196,2.071,2.444,4.019,1.952,6.098c-2.774,1.884-7.844-2.129-10.073,0.425c-1.753,1.622-3.395,3.989-7.81,3.677
	c-2.297,0.245-5.59-0.754-7.203-0.435c2.537,1.584,5.542,2.964,8.404,4.372c1.032,2.48-5.653,2.213-8.704,2.659
	c-5.076,0.531-10.35,0.196-15.369,0.86c-3.986,0.347-1.255,1.872,1.351,1.657c8.028,0.41,16.002-0.513,23.777-1.407
	c4.214,0.736,3.511,3.703,4.582,5.562c0.227,1.305,1.851,2.935,2.54,3.812c-0.591-2.438,7.354-1.878,8.275-0.027
	c0.475,1.176,2.693,2.48,3.291,0.552c0.959-1.38,1.566-5.219,5.673-3.463c2.498,1.195,2.717,3.255,4.597,4.499
	c2.494-1.373,2.825-3.484,4.098-5.224c0.873-2.051,5.7-1.985,8.835-1.834c3.435-0.075,7.898,1.058,10.703,0.145
	c-2.494-1.88-6.708-2.904-9.966-4.387c-1.788-0.573-3.201-1.383-0.053-1.239c5.35-0.3,10.864-0.36,16.148-0.568
	c-5.173-0.816-10.622-1.164-15.979-1.434c1.036-1.728,4.644-2.84,6.987-4.176C283.178,245.113,283.758,244.853,284.268,244.559
	L284.268,244.559z"/>
<path fill="#F3F3F4" d="M222.331,173.784c-7.296-0.423-11.813,0.119-15.144,3.609c-0.165,0.177-11.333,3.781-12.388,4.334
	c-7.092,3.721,3.377,0.394,5.507-0.723c2.825-1.48,13.995-0.722,19.269-0.722C226.405,180.283,224.538,176.678,222.331,173.784z"/>
<path fill="#E5E5E6" d="M223.704,165.118c1.884,0,5.38,6.662-6.881,5.054c-4.951-0.648-0.177-7.034,0-7.221
	C218.02,161.695,221.413,164.396,223.704,165.118z"/>
<path fill="#E5E5E6" d="M256.737,247.447c0.303-0.315-14.141,5.054,1.378,5.054C264.465,252.501,258.763,249.216,256.737,247.447z"
	/>
<radialGradient id="SVGID_11_" cx="-1780.751" cy="302.1514" r="350.7969" gradientTransform="matrix(1.5383 0 0 -0.8165 3279.7598 534.1396)" gradientUnits="userSpaceOnUse">
	<stop  offset="0" style="stop-color:#FFFFFF;stop-opacity:0.4082"/>
	<stop  offset="0.5" style="stop-color:#DBDBDC;stop-opacity:0"/>
	<stop  offset="0.8197" style="stop-color:#121212;stop-opacity:0.1225"/>
	<stop  offset="0.9064" style="stop-color:#121212;stop-opacity:0.3569"/>
	<stop  offset="1" style="stop-color:#121212;stop-opacity:0.7551"/>
</radialGradient>
<path fill="url(#SVGID_11_)" d="M1080,287.432c0.012,158.187-241.577,286.426-539.606,286.435
	C242.366,573.871,0.757,445.644,0.742,287.461c0-0.01,0-0.021,0-0.029C0.728,129.249,242.315,1.007,540.344,1
	C838.372,0.993,1079.984,129.222,1080,287.405C1080,287.415,1080,287.425,1080,287.432z"/>
</svg>
