<svg xmlns="http://www.w3.org/2000/svg" width="1080" height="300" viewBox="0 0 1080 300"><path fill="#D1D1D2" d="M1080 294.675c.012 154.187-241.577 279.183-539.606 279.19C242.366 573.872.757 448.886.742 294.7v-.025C.728 140.49 242.315 15.495 540.344 15.485c298.028-.005 539.64 124.98 539.656 279.162v.028z"/><linearGradient id="a" gradientUnits="userSpaceOnUse" x1="-2133.356" y1="-1215.066" x2="-2437.661" y2="-552.574" gradientTransform="matrix(.401 0 0 -.401 1098.87 -25.936)"><stop offset="0" stop-color="#ADADB0"/><stop offset="1" stop-color="#B7B7B9" stop-opacity=".388"/></linearGradient><path fill="url(#a)" d="M34.556 392.024c-42.333-63.376-50.684-134.974 13.93-212.152 2.712-3.24 11.07 8.04 11.07 11.556v15.317c0 6.556 1.64 7.85 5.838 12.257l9.736 10.214c3.837 4.03 2.913 6.12 5.836 12.257 1.705 3.576 3.663 9.97 7.787 14.298 5.286 5.546 6.225 11.643 11.682 17.363 4.67 4.903 10.884 11.607 13.624 17.366 2.81 5.89 8.154 11.615 13.627 17.358 4.12 4.327 5.782 10.186 11.677 13.28 5.03 2.638 9.667 4.84 19.464 6.126 12.126 1.59 31.11 3.055 42.827 6.128 7.81 2.05 19.617 3.104 27.25 5.107 5.756 1.51 10.926 4.396 17.518 6.126 9.736 2.555 14.937 4.774 21.414 8.17 3.224 1.693 13.625 6.845 13.625 10.216v15.318c0 2.426-2.91 13.792 0 15.32 4.413 2.315 7.59 7.712 17.518 5.105 6.324-1.66 11.777-3.114 17.518-6.13 3.323-1.738 10.042-7.106 17.523-6.124 3.8.498 11.44.894 17.52 4.084 5.012 2.63 9.624 4.03 15.572 7.15 3.67 1.927 10.027 5.696 15.57 7.148 2.77.728 16.53 4.05 17.522 6.13 1.727 3.63 3.96 8.927-5.842 10.213-8.788 1.152-12.806 1.828-21.414 4.084-4.747 1.248-13.377 4.308-19.464 5.107-10.422 1.366-15.11 1.56-19.464 6.125-3.473 3.646-7.533 4.976-13.627 8.173-4.725 2.477-12.345 4.757-3.896 9.19 4.25 2.23 9.008 5.428 15.573 7.15 7.664 2.012 13.662 4.095 21.414 6.128 5.157 1.354 15.365 2.954 19.464 5.108 8.793 4.61 5.684 4.575-5.836 3.063-8.604-1.128-15.86-3.1-23.358-4.083-8.613-1.13-16.71-1.022-27.256-1.022-10.57 0-18.615-1.02-29.195-1.02-11.813 0-21.74-1.024-33.092-1.024-5.843 0-25.154.786-17.517 6.13 7.045 4.93 9.275 5.105 23.36 5.105 9.888 0 17.46-.03 23.36 3.064 5.202 2.73 8.13 5.472 11.676 9.19 4.263 4.475 9.65 8.084 13.626 12.258 4.593 4.82 7.28 6.88 15.572 11.232 5.017 2.63 14.714 4.453 25.305 3.065 6.492-.854 24.698-4.722 27.25-2.045-3.507-3.678-4.19 8.328-9.732 11.234-6.983 3.665-15.568 1.535-21.413 0-6.643-1.743-15.1-2.428-21.413-4.085-7.948-2.084-12.276-4.24-19.464-6.128-11.356-2.98-9.632-3.276-7.787-7.15 3.33-6.993-1.59-4.084-13.623-4.084-10.907 0-18.01 1.086-25.305 2.04-12.625 1.656-5.042 4.508 0 7.15 10.667 5.6-5.55.08-9.736-1.02-6.975-1.83-13.157-4.86-17.52-7.15-6.697-3.514-13.343-4.958-19.464-8.168-5.552-2.916-11.536-4.56-17.518-6.13-7.02-1.84-11.072-4.788-15.573-7.15-4.07-2.135 7.786-3.557 7.786-9.19 0-7.187-1.438-7.904-7.785-11.238-5.37-2.813-2.418 8.42-7.787 11.237-1.565.82-18.493-4.85-19.464-5.105-7.077-1.86-12.326-3.405-17.522-6.13-5.276-2.77-7.797-7.5-11.677-10.214-5.123-3.584-7.376-6.074-15.573-7.148-4.164-.548-11.122-6.86-13.624-8.172-5.947-3.12-8.614-5.54-13.627-8.17-6.373-3.346-2.65-8.452 0-11.237 3.282-3.442 9.384-5.944 13.628-8.17.127-.065-16.965 2.737-19.468 3.065-11.082 1.452-9.797-2.077-15.572-5.105-4.458-2.343-3.89-8.73-3.89-13.28-.002-3.725-13.652-3.963-19.162-4.686z"/><linearGradient id="b" gradientUnits="userSpaceOnUse" x1="-665.575" y1="-1364.224" x2="-1175.967" y2="-488.078" gradientTransform="matrix(.401 0 0 -.401 1098.87 -25.936)"><stop offset="0" stop-color="#ADADB0"/><stop offset="1" stop-color="#B7B7B9" stop-opacity=".388"/></linearGradient><path fill="url(#b)" d="M895.1 411.77c-20.16 9.656-3.7 25.183 17.625 28.426-3.37 15.33-36.23 11.723-52.353 20.708-8.2 8.358 53.392 1.607 22.087 10.585-16.148.862-37.033 32.592-18.013 17.146 19.427-1.605 34.552-18.074 54.356-10.392 16.722-3.114 18.323.44 4.167 5.027-13.607 6.23-23.3 22.278-41.304 15.296-13.384 10.167-39.43 15.54-62.68 15.623-17.137 1.576 10.75 15.15-15.58 16.307-25.968 7.03-4.018-16.69 9.898-16.88-.018-10.388 11.423-15.254 31.42-14.368 19.593-15.38 10.708-19.23-6.987-9.307-15.86 8.486-40.563 12.577-62.953 11.71-8.183-10.694-33.134-4.874-45.337-9.873 21.228-11.825 55.508-12.435 80.596-21.258 14.646-3.47 39.587-2.44 30.89-14.27 6.545-7.64 35.898-7.412 37.47-12.228-13.392-.853-22.296-.38-23.724-6.196-21.71 2.44-23.618 11.68-21.336 21.05-11.97 11.54-39.61 6.453-58.646 11.78-23.895 2.26-50.694 3.697-72.786-2.45-15.993-3.915-42.072 7.997-50.355 4.117 14.767-9.015 39.605-5.68 58.143-11.267 19.513-6.095 52.393-20.64 42.692-32.992-29.292-3.557-41.005 18.04-58.7 23.598-14.368-2.94-24.25-8.098-40.405-4.965 1.853-7.323 1.343-14.343-18.9-14.56-25.437 4.575-50.08-10.868-22.015-19.083 1.876-9.438-30.444 1.143-38.584 3.58-33.034 6.91-9.534-16.674.664-22.262 1.277-11.522 10.87-25.127-1.353-35.54-14.894-3.607-42.208-19.678-13.334-22.766 23.978 5.785 58.1-1.618 40.99-17.22-4.603-7.154-20.2-24.946 4.323-24.51 6.8-7.505-13.11-19.726 13.13-23.25 13.782-9.325 27.018-17.608 49.92-20.147 23.366-7.98 39.91-19.383 51.22-32.678 6.634-16.18 45.824-4.48 66.792-3.808 15.347 5.82 4.65 22.17.556 31.182-7.936 11.108-6.124 23.922-1.956 35.386 9.903 12.03 32.53 19.494 45.628 30.23 10.92 12.158-3.143 30.066 19.71 38.073 18.87 9.926 32.002 33.156 42.554 45.743 2.82 1.822 42.18 5.165 55.836-5.18 16.41 3.52 27.413 10.962 26.12 11.802-3.792 2.467 18.815 12.726-2.11 17.133-10.247 2.155-15.492-7.496-24.24-10.325-8.745-2.828-23.066 1.717-26.557 1.78-13.974.256-24.495-.717-26.584 1.486z"/><path fill="#B3B3B5" d="M659.09 256.793c-13.075 4.082-8.4 12.952-10.362 19.482-4.128 6.832-19.008 8.443-30.777 9.697-13.855 1.252-24.344 8.102-39.354 6.68-12.734-.296-27.156 1.02-37.473-3.92-95.182-54.962-46.69-98.223-37.757-109.18-39.446-39.818 245.155-25.16 211.358 25.762 3.333 5.716 1.16 11.868.313 17.67-6.06 4.872-17.863 7.743-18.428 14.225-4.94 6.206-32.818 18.52-37.52 19.583z"/><path fill="#FBFBFC" d="M773.932 222.066c-2.415 1.295-6.55 1.34-9.802 1.856-6.162.612-12.424 1.304-18.726 1.15-7.45-.86-12.227-4.322-18.65-6.187-4.375-1.364-8.612.943-9.004 3.187-.36 1.98-2.21 5.01 1.896 6.215 6.03 1.59 12.87 1.934 19.25 2.97 4.235 1.167.64 3.73-1.665 4.95-2.985 1.615-6.29 3.114-10.013 4.242-3.84.44-8.808 1.624-8.476 4.068-.43 2.053 4.34 3.852 2.04 5.77-4.128 3.253-12.35 4.7-14.854 8.572-1.612 1.462 1.46 2.816 3.2 1.09 2.192-1.71 3.863-3.736 7.853-4.52 4.58-1.29 9.592-2.075 14.573-2.813 3.052-1.256 3.204-3.547 3.94-5.405.83-2.39.616-4.872 1.752-7.224 2.54-2.632 9.078-2.953 12.425-5.205 4.307-2.492 8.492-5.207 14.528-6.592 3.738-.61 7.357-1.324 7.895-3.674.607-.817 1.218-1.633 1.84-2.45z"/><linearGradient id="c" gradientUnits="userSpaceOnUse" x1="-839" y1="-318.603" x2="-1733.996" y2="-73.499" gradientTransform="matrix(.401 0 0 -.401 1098.87 -25.936)"><stop offset="0" stop-color="#ADADB0"/><stop offset="1" stop-color="#B7B7B9" stop-opacity=".388"/></linearGradient><path fill="url(#c)" d="M789.41 139.84c7.047-7.884 10.722-11.706 0-17.333-11.004-5.772-24.777 4.197-24.777-8.666 0-5.204 14.11-7.945 16.518-12.997 2.346-4.924-7.397-13.542-11.01-17.334-6.902-7.243-7.036-8.024-16.517-13-11.547-6.058 2.238-23.562 9.63-27.443C769.14 39.982 618.02.552 416.403 27.902c-2.07.28-13.39 18.578-15.14 19.5-10.035 5.264-14.548 5.575-11.013 13 .356.748 48.756-2.81 52.485-2.81 13.765 0 16.398 3.49 30.1 2.81 62.193-3.065 262.718 18.327 280.788 21.665 13.866 2.56 9.7 8.597 5.503 12.998-2.575 2.706-21.09 6.737-24.774 8.668-2.414 1.266 9.456 8.855 5.506 12.998-5.175 5.433-12.233 6.583 0 13 8.924 4.682 10.42 8.355 19.27 13 4.8 2.517 28.895-2.6 30.28-2.89z"/><radialGradient id="d" cx="303.211" cy="-187.482" r="100.846" gradientTransform="matrix(3.9297 0 0 2.062 -1027.21 593.348)" gradientUnits="userSpaceOnUse"><stop offset="0" stop-color="#7D7D7F"/><stop offset="1" stop-color="#515056"/></radialGradient><path fill="url(#d)" d="M492.386 219.402c-.483.51 13.893-1.82 16.517-2.166 6.697-.876 10.41-2.37 15.14-3.61 9.64-2.527 3.656-1.444 9.636-1.444 6.557 0 9.23-1.02 12.386-4.333 2.322-2.438 6.63-4.204 9.632-5.778 2.807-1.47 6.825-2.158 12.388-2.89 8.007-1.048 10.53-.47 15.143-2.887 6.126-3.212-12.448-2.89-15.144-2.89-8.228 0-10.503 1.103-8.257-3.612.106-.22-17.73-1.422-17.894-1.443-5.545-.726-9.775-4.01-13.763-5.055-5.923-1.553-9.623-2.887-15.14-3.61-6.478-.852-7.07-4.724-8.258-7.223-1.77-3.71 4.773-5.852 8.257-7.22 5.506-2.17 7.982-1.953 15.14-2.89 7.777-1.022 13.466.565 16.516 2.166 4.246 2.226 10.896 2.15 16.52 2.887 4.51.593 2.486 4.334 12.385 4.334 10.836 0 11.352.898 13.766 2.167 1.865.977-28.706 6.498-4.13 6.498 6.947 0 5.783 4.335 15.14 4.335 6.63 0 9.34-2.127 15.138-2.89 3.303-.435 6.218-5.822 6.886-7.22 1.373-2.89 5.472-4.268 6.88-7.226 1.582-3.316 4.054-4.892 5.506-7.943 1.532-3.214 5.505-3.972 5.505-7.942 0-4.07 1.915-5.918 6.885-7.224 4.61-1.21-1.235-3.312-2.756-6.5-1.838-3.863-3.86-5.94-5.503-9.387-1.48-3.11 3.67-6.018 5.504-7.943 3.983-4.177-5.894-5.288-9.634-5.78-3.058-.4-7.96 3.755-12.386 4.335-6.635.87-5.507-3.528-5.507-7.224 0-4.242-2.878-5.087-8.26-6.5-4.696-1.23-10.145 2.168-16.517 2.168-4.13 0-7.223-4.51-9.636-5.78-3.322-1.744-4.187-5.178-5.502-7.94-1.894-3.97-6.45-2.892-15.143-2.892-2.262 0-9.45-3.043-13.764-3.61l-16.517-2.166c-5.485-.72-8.835-2.06-15.145-2.89-5.764-.755-12.53-.7-17.89 0-1.53.204-8.454-3.71-9.636-4.33-8.83-4.635-29.723 1.658-34.412 2.888-4.762 1.25-10.462 2.276-15.14 2.887-6.833.898-10.706 3.17-15.138 4.335-4.706 1.235-8.397 3.267-11.014 3.612-.987.13-11.06-3.258-13.76-3.612-6.495-.852-13.466-.722-20.647-.722-7.07 0-10.347 1.63-15.145 2.89-4.086 1.07-6.554 4.71-8.257 6.498-3.004 3.155-5.504 3.125-5.504 7.944 0 3.388 4.52 4.228 2.752 7.946-1.352 2.833-12.22-2.483-13.765-2.89-.495-.128-8.91 4.78-11.01 5.055-5.23.687-5.88 5.113-6.883 7.224-1.132 2.378-7.12 4.456-9.633 5.775-4.375 2.295-7.32 4.07-9.636 6.5-4.014 4.212-8.273 1.413-9.636-1.443-1.075-2.26 8.462-5.78-4.13-5.78-4.853 0-9.812 2.577-13.76 3.612-6.664 1.747-10.082-3.1-11.014-5.054-1.133-2.38 3.93-6.288 5.505-7.946 2.942-3.087 2.418-5.8 4.13-9.388 1.24-2.602 5.32-2.498 6.88-5.777 1.797-3.77 11.098.81 5.507-5.057-3.097-3.25 5.158-8.72 6.88-10.833 3.04-3.72 7.227-3.024 13.766-2.167 6.002.79 14.422 0 20.646 0 8.968 0 9.544-1.395 13.765-3.61 3.612-1.894 8.715-3.37 12.388-4.333 6.593-1.73 10.573-.49 15.14-2.89 2.87-1.505 11.47-2.647 15.143-3.608 5.702-1.497 10.552-1.386 16.518-2.167 5.337-.7 10.978-1.796 15.14-2.89 6.817-1.79-8.543-4.19-9.637-4.333-5.846-.765-10.12-1.443-17.892-1.443H364.38c-6.7 0-10.994 1.437-16.517 2.887-5.07 1.33-9.82 2.01-16.52 2.89-5.78.76-9.576 2.16-15.14 2.888-4.755.624-4.647 3.362-13.766 2.167-4.04-.53-9.597 2.165-16.517 2.165-7.25 0-9.493-1.874-11.01-5.054-1.734-3.64 4.103-4.997 5.507-7.944 1.447-3.04-11.183 2.21-16.516 3.61l-13.763 3.61c-5.714 1.5-8.784 2.443-12.388 4.332-7.353 3.86-21.933 8.75-34.412 11.555-4.87 1.097-7.678 3.1-12.387 4.334-4.183 1.1-6.888 4.34-9.632 5.777-4.536 2.38-7.185 3.926-9.637 6.5-3.172 3.33 8.05-1.028 9.638-1.444 9.92-2.604 4.458 1.27 1.373 2.89-4.205 2.204-7.462 3.195-11.01 5.053-4.205 2.207-6.09 3.92-9.634 5.78-5.638 2.957-8.29 1.408-11.01-1.446-.238-.248-9.902 5.916-11.015 6.5-3.34 1.755-6.415 4.81-9.63 6.5-5.473 2.87-6.74 4.674 1.373 3.61 4.84-.633-5.318 3.515-6.88 4.333-5.583 2.93-3.892-.212-11.01.723-3.94.517-8.773 3.88-11.015 5.054-6.9 3.62-3.6 3.276-2.75 5.057.76 1.596 3.353 1.853-2.75 5.054-4.207 2.208-7.47 3.197-11.016 5.058-4.06 2.13-6.02 4.152-8.258 6.498-2.13 2.238-7.75 4.068-12.387 6.502-1.748.916 3.86 2.45 2.754 3.61l-6.884 7.223c-3.53 3.705 9.387-6.663 13.766-10.11 3.703-2.915 6.15-5.395 9.637-7.224l11.008-5.776c2.618-1.373.28 4.043-1.377 5.776-2.624 2.758-5.88 4.005-8.258 6.502-2.413 2.535-7.206 3.23-9.632 5.776-2.57 2.695-7.142 3.16-9.634 5.78-3.644 3.82-5.624 2.645-4.132 5.775 1.184 2.482 7.453-3.49 9.638-5.777 2.816-2.956 8.926-.68 11.01-5.057 1.53-3.21 7.424-4.044 9.635-4.332 3.588-.472 6.044 2.417 9.632 2.888 4.796.63-5.503 4.63-5.503 7.22 0 6.736-7.92-2.876-11.015 3.612-.985 2.075-6.344 4.492-8.258 6.5-2.625 2.76-5.88 4.002-8.258 6.5-3.108 3.265-6.882-5.724-6.882-7.222 0-3.98-.61-1.845-5.505.72-3.41 1.79-5.224 5.484-6.882 7.225-2.514 2.637-1.113 7.05 0 9.388 1.938 4.065 8.056 2.58 12.387 1.445 6.9-1.81 4.132 1.516 4.132 5.776 0 4.917-6.974 2.168-13.766 2.168-3.79 0-7.272 5.464-8.258 6.497-2.34 2.46-1.565 6.9-2.75 9.393-1.824 3.827-6.237 5.318 2.75 6.498 3.128.41 8.558-5.745 9.636-6.497 2.875-2.012 2.752-6.156 2.752-9.392 0-3.377 1.377 6.734 1.377 10.112 0 4.578 7.717 2.167 13.766 2.167 5.23 0-.553 6.718 4.128 7.945 7.806 2.046.27 2.816-5.505 4.33-.967.257 5.506 3.638 5.506 5.058 0 6.242-8.257-1.16-8.257 5.055 0 4.915 1.132 5.65 5.503 7.943 4.205 2.208 6.09 3.92 9.636 5.78 5.3 2.78 1.054 5.946-1.378 7.22-2.7 1.42-6.38-6.823-9.63 0-.892 1.868 0 7.342 0 9.39 0 3.52-3.662 6.01-5.507 7.943-2.284 2.397-6.68 4.12-6.882 4.333-2.184 2.29 7.453 3.49 9.632 5.78 3.515 3.687 9.348 1.593 12.387 0 7.706-4.044 5.507.3 5.507 4.33 0 4.715 4.207 4.356 9.638 5.78 9.847 2.58 8.257 2.534 8.257 11.555 0 3.188 4.782 5.018 6.88 7.222 3.232 3.39 6.122 3.048 4.13 7.222-1.432 3.008-2.908 5.446-1.377 8.665 1.416 2.968 6.125 3.937 9.636 5.776 4.06 2.132 13.58.05 16.517-.72 2.523-.662 1.378-8.015 1.378-10.114 0-.8 11.002-4.148 12.388-4.33.68-.09 2.75 7.727 2.75 9.387 0 2.797-9.074 1.17-6.88 5.776 1.34 2.816 8.258.488 8.258 6.5 0 5.43 7.2 1.278 9.632 0 3.44-1.803 11.778-2.005 15.143-2.886 4.912-1.29-4.93-6.006-5.507-7.224-1.374-2.887-5.473-4.266-6.88-7.225-2.016-4.224 10.015 1.85 11.01 2.894 2.64 2.768 5.276 4.3 11.014 5.055 5.928.777.674-10.138 4.125-2.892 2.425 5.083 14.95 1.856 19.272.726 3.315-.87 6.385-3.843 11.008-5.057.496-.132 10.98 4.686 12.39 5.057 6.434 1.686-2.596 4.887-4.13 6.5-4.355 4.57 72.457 26.978 74.326 25.996 5.587-2.932 10.503-.988 13.765.723 8.412 4.414 10.043 1.496 17.895-1.444.34-.13-11.647.664-6.885-4.334 2.445-2.563 1.202-7.756 2.755-9.39 2.48-2.602 4.337 3.36 11.702 2.53 5.844-.66 4.13-2.642 4.13-5.78 0-1.835 7.137-.124 8.943-.36 9.52-1.25 4.433-2.45 11.01-.724 1.328.35 0 9.666 0 10.835 0 2.69-1.508 5.333-2.75 7.943-.9 1.884-7.703-.144-11.01.723-2.726.718-4.13-3.047-4.13 4.33 0 3.225-6.885 2.28-6.885 7.225 0 3.38-5.675 2.168-13.765 2.168-4.15 0 1.562-4.96-1.374-6.5-5.693-2.988-10.075 1.637-11.014 3.61-2.077 4.36 52.93 9.674-1.375 6.5-6.446 1.69-3.755 4.723-1.376 7.223 1.305 1.368 157.248-57.262 158.29-84.498.132-3.486 4.212-10.79 5.505-10.11 2.89 1.516 17.383.723 22.02.723 7.187 0 13.875-.738 19.27-1.445 10.16-1.334 2.227-2.958-2.755-3.61-8.373-1.1-10.354-.38-15.138-2.89-4.476-2.347-.592-1.856 4.128-4.333.143-.075-5.598-3.057 4.13-4.333 6.35-.834 6.88-5.638 6.88-8.666 0-5.984 5.855 1.09 6.884 2.167 2 2.1 9.39 4.268 12.386 5.054.053.014 6.62-6.948 6.88-7.222 2.296-2.41 4.13-5.475 4.13-8.666 0-4.28-9.954-1.223-13.764-.724-7.19.943-9.632.492-9.632-4.333 0-4.84.99-4.964 2.75-8.666.315-.664 9.457-3.424 11.012-5.055 1.678-1.76-6.854-.723-13.762-.723-9.29 0-2.207-4.404 2.75-5.057 7.274-.954 13.007.803 17.897 1.445 3.237.424 2.75-3.304 2.75-5.055 0-2.455 9.226 2.04 13.766 1.44 7.782-1.02 1.688-3.166 11.01-.718 4.646 1.218 12.49-2.195 15.14-2.89 6.102-1.604 8.466-2.32 15.143-1.444 5.116.67 9.48 3.528 12.388 5.053 5.31 2.79 4.26 3.955 12.386 2.89 7.545-.99 13.153.82 17.892 1.445 4.998.657 5.296 4.126 12.388 5.058 6.743.883 11.975-.058 17.896.722 11.313 1.482 8.097-1.614 5.506-4.333-.782-.82 6.697-5.388 6.88-5.78 1.09-2.284-5.545-4.25-4.127-7.22.116-.24 24.747-1.447 8.257-3.61-6.197-.814-12.93-.65-17.894 0-7.76 1.018-1.35 7.234-11.01 2.166-6.943-3.644 2.982-5.265 6.88-5.777 4.338-.57 14.86-.578 2.757-2.167-6.57-.863-10.297-1.793-13.767-3.612-2.36-1.24-6.395-1.02-9.636-1.445l6.886-2.164c3.31-1.045 4.5-5.976 6.88-7.225 3.626-1.903 8.787 2.96 13.764 3.61 8.11 1.064 4.323 4.233 1.376 5.777-6.307 3.31 6.947 5.057 11.012 5.057 4.595 0 6.883 7.506 6.883 0 0-2.686 4.432-5.777 9.635-5.777 8.285 0 7.312-3.436 5.503-7.224-2.01-4.225-6.88-3.147-6.88 1.443 0 4.672-6.08 3.61-11.01 3.61-8.588 0-10.633-.65-12.388-4.332-1.378-2.89 11.44.836 16.52 2.167 5.282 1.387-3.412-4.506-5.51-5.057-2.63-.688 7.583-2.518 5.51-3.608-3.73-1.955-13.73 2.517-15.145 2.887-7.477 1.963-10.14-.855-15.14-2.165-6.2-1.63-5.79-3.29-13.765-4.335-8.138-1.066-9.74 2.392-11.01 5.055-1.227 2.575 9.274 1.636 1.378 5.778-6.145 3.225-9.77-2.237-12.39-3.612-3.866-2.026-11.702-1.44-17.894-1.44-8.424 0-3.652-4.607-2.753-6.5 1.026-2.153-7.615-4.72-9.635-5.778-5.97-3.134-6.524-1.473-8.26 2.166-1.922 4.036-5.432 5.057 5.51 5.057 9.228 0 3.218 4.81 1.373 5.775-5.84 3.066-10.757-1.71-15.14 2.89-3.618 3.796-10.09.963-5.507 5.78 2.17 2.27-4.924 2.772-1.374 6.498 2.764 2.902 5.407 4.125 6.88 7.223 2.814 5.9-3.752 5.317-11.01 7.223-8.692 2.277-8.258-1.147-8.258-5.057 0-3.657 1.375-5.98 1.375-10.11 0-4.953-1.99-4.775-9.633-5.776-7.114-.935-14.585.575-17.896 1.444-7.24 1.9-4.946 1.95-12.388 0-4.496-1.18-2.75-6.046-2.75-9.39 0-2.978-11.015 1.443-16.518 2.166-7.287.956-14.59-.576-20.646-2.165v-.003zM346.318 321.09c1.33 2.605-6.682 3.593-6.24 5.19.22.883.9 1.707 1.61 2.506-.885 1.37-3.28 2.2-5.1 3.2-2.184.994-4.447 2.15-4.973 3.71-.864 2.062 4.452 10.223 3.15 12.25-.65.678-6.773-5.264-7.702-5.803-1.697-.71-3.31-1.642-5.593-1.77-3.062-.38-7.544-.13-10.576-.59-1.946-.61-3.723-2.43-3.963-3.525-.295-1.128-.49-2.33.37-3.408.893-.564 2.436-.645 3.74-.555 1.35-.132 1.812-1.13.944-1.646-.994-1.354-1.71-4.125-1.642-5.636.367-1.384 2.486-2.377 4.467-3.196 1.983-.776 4.538-1.234 5.897-2.39.7-.514.986-1.284 2.283-1.484 1.463-.023 2.317.725 2.844 1.336.896.98 3.06 3.8 3.347 4.874-.708.61.915 1.507 2.054 1.028 2.318-.804 3.57-2.166 5.607-3.12 1.664-.55 6.38-1.237 9.478-.972z"/><linearGradient id="e" gradientUnits="userSpaceOnUse" x1="-1876.575" y1="-1212.377" x2="-1875.97" y2="-887.271" gradientTransform="matrix(.3903 0 0 -.3903 1098.402 -25.166)"><stop offset="0" stop-color="#4A4A4C"/><stop offset="1" stop-color="#626266"/></linearGradient><path fill="url(#e)" d="M228.117 342.902c.49-.132 10.975 4.683 12.387 5.054 6.437 1.686-2.598 4.887-4.127 6.5-4.36 4.57 8.66 3.61 13.76 3.61 8.512 0 4.506 4.986 4.13 5.776-1.632 3.425-3.086 4.708 0 7.943 2.94 3.086-1.375 4.48-1.375 8.666 0 4.052-6.25 3.615-13.766 3.615-8.546 0-11.767-.887-17.895.72-1.192.314-6.182 6.487-6.88 7.222-2.31 2.426-8.784 3.388-12.39 4.334-5.273 1.385.77 8.032 1.376 8.666 2.23 2.34 8.197 2.823 11.014 5.78 3.772 3.96-.975 5.986 4.13 8.666 4.374 2.294 3.556 4.08 11.01 5.054 6.77.89 4.19-.37 12.386-1.442 4.732-.62 6.187 3.966 9.636 5.776 1.757.923 1.374 6.497 2.752 7.944 3.454 3.623 11.31-2.266 13.765 2.89 2.025 4.255 9.396.782 12.387 0 4.68-1.23 1.79 5.487 4.13 7.942 2.635 2.767 12.866 2.42 5.506-1.444-3.8-1.99 4.2-5.208 5.502-7.944.514-1.078-15.24-1.996-16.517-2.164-8.454-1.11-3.72-4.55-1.373-5.78 4.114-2.158 11.91 3.835 12.388 4.333.007.01 5.852-5.055 11.01-5.055 10.107 0 7.273-3.406 2.75-5.778-8.38-4.397-.11-3.552 0-3.61 2.272-1.19 8.202 1.51 9.637 0 4.302-4.513 4.13 3.62 4.13 5.777 0 .88 11.35-1.038 13.766-.72 9.55 1.252 8.453-.417 9.63-2.89.26-.54-11.704-3.977-12.387-4.333-5.81-3.05-8.26-2.188-8.26-7.22 0-5.658-1.645-5.636-6.88-2.89-4.482 2.35-5.814-.885-9.636-2.892-4.463-2.34-6.88 6.87-6.88 0 0-2.945-3.474-5.81-5.508-7.942-2.356-2.474.596-8.472 1.378-10.11 1.89-3.962 1.688-.723 8.26-.723 3.94 0 7.762-4.795 9.634-5.78 5.584-2.93 10.5-.985 13.762.724 8.417 4.414 10.046 1.496 17.895-1.442.34-.127-11.644.663-6.882-4.335 2.442-2.56 1.198-7.756 2.752-9.388 2.48-2.605 4.34 3.36 11.702 2.528 5.848-.66 4.13-2.64 4.13-5.78 0-1.836 7.137-.125 8.943-.358 9.52-1.25 4.433-2.448 11.01-.722 1.328.347 0 9.66 0 10.83 0 2.694-1.508 5.335-2.75 7.943-.9 1.885-7.703-.143-11.01.724-2.726.718-4.13-3.045-4.13 4.334 0 3.223-6.885 2.277-6.885 7.224 0 3.378-5.675 2.165-13.762 2.165-4.155 0 1.558-4.957-1.377-6.5-5.692-2.988-10.07 1.637-11.01 3.61-2.08 4.36 9.35 3.688-1.378 6.502-6.447 1.69-3.756 4.723-1.377 7.222 1.306 1.367 9.446 4.28 12.39 5.055 2.048.537 5.337 6.41 6.883 7.22 1.836.964 4.468-.738 6.882 4.335 1.073 2.257 3.52.888 5.506 5.057 2.516 5.272-6.856 3.608-12.387 3.608-7.647 0-8.576 2.497-11.013 5.057-3.806 3.994 1.627 6.35-8.258 5.052-5.79-.76-9.168-4.563-4.13.724 1.938 2.035-4.417 4.186 1.378 7.224 4.548 2.384 4.394 4.333 12.388 4.333 9.432 0 10.742-.44 13.766-3.61 3.292-3.457 4.666-4.335 13.76-4.335 16.295 0-3.415 1.494-1.374 5.78 1.447 3.034 11.156 1.965 15.14 1.443 5.246-.688-12.07-5.558 2.75-3.61 6.556.857 9.633 0 13.766-2.17 3.873-2.03 7.61-5.777-1.378-5.777-6.13 0-12.455.715-17.89 0-6.19-.81-9.962-1.442-17.894-1.442-10.484 0-.65-3.27 1.377-4.334 2.078-1.09 2.88-2.92 5.505-3.61 2.498-.655 7.01.59 8.258-.722 1.03-1.078-3.277-1.874-5.502-2.167-4.386-.573 9.19 1.21 12.388 2.89 2.595 1.362 7.73.86 11.01 0 2.445-.64 20.45 4.23 23.398 5.776 3.265 1.712 4.12.006 8.258-2.168 2.587-1.354-3.93-5.36-2.75-2.89 1.35 2.835 13.787 1.08 16.516.724 5.204-.682 3.374-3.61 13.766-3.61 7.878 0 11.4-.723 19.27-.723 7.655 0 12.513-2.186 17.895-2.89 4.382-.576.986 6.5 5.507 6.5 3.112 0 6.696-5.683 8.26-6.5 6.51-3.418 8.257-.343 8.257 3.61 0 2.516 9.478-1.042 13.76-2.163 5.507-1.447 1.348-6.534 0-7.945-3.73-3.92 1.605-4.483 8.26-3.612 4.976.65.873-6.04-2.753-7.943-3.09-1.622-11.83-2.456-15.138-2.89-6.19-.81-12.212-.408-2.755-2.89 7.732-2.027 6.4-6.938-1.374-9.386-4.342-1.37 3.116-6.16 4.128-7.224 2.922-3.066 5.954-3.848 9.634-5.776 4.206-2.208 7.467-3.198 11.013-5.057 3.94-2.067 4.128-5.31 4.128-8.666 0-2.857 1.374-6.365 1.374-10.11 0-.652-8.86 3.048-11.01 3.612-6.474 1.697-10.043 1.697-16.517 0-6.594-1.73-7.964-2.992-9.637-6.5-2.394-5.028 1.954-5.67 8.26-6.502 5.287-.69 7.678 6.008 8.256 7.226 1.63 3.418 0-4.4 0-6.5 0-2.97-5.188-5.45-6.88-7.225-2.46-2.582-6.402-3.546-12.388-4.332-6.45-.846-8.646-2.57-11.01-5.055-2.866-3.008-2.754-5.563-2.754-9.386-13.678 3.587-20.12 3.666-35.81 3.666-4.39 0-9.48-10.11-10.372-11.978-2.07-4.337-6.23-9.197-6.23-14.155 0-3.833-9.12-8.054-12.448-9.8-7.103-3.727-10.115-4.354-22.825-4.354-9.707 0-11.667 5.03-16.606 7.62-6.85 3.596-13.66 1.447-16.603 7.623-2.198 4.614-6.754 7.088-10.373 10.888-4.203 4.408 4.474 4.488 2.072 9.528-2.095 4.396 14.448 5.068-15.043 15.242-7.537 2.602 9.317 11.27 5.707 13.61-5.354 3.472-10.077 1.13-13.49-2.45-4.266-4.475 6.555-3.35-3.112-4.353-8.53-.89-24.867-6.798-32.166-8.712-8.957-2.348-11.585-3.268-24.9-3.268-12.327 0-22.75 1.616-32.168 4.083-2.78.73-9.55 4.796-6.137 8.474z"/><path fill="#E5E5E6" d="M916.838 210.234c4.612 1.25 8.45 3.357 13.573 4.03 5.524.31 8.25-2.788 12.45-4.05 1.896 1.245-2.207 3.962-2.467 5.752-.448 1.657-3.61 5.61 1.53 5.684 4.216-.994 7.517-2.865 10.368-4.73 1.568-1.967 5.605-3.995 9.014-1.665 2.67 2.39 7.086.946 10.038-.473 2.86-1.376 4.938.147 2.552 1.48-2.473 2.554-6.396 4.952-6.555 7.935-.254 1.69 4.236 3.662 4.247 4.508-2.44-.014-7.422-1.67-8.408-.675 2.996 2.488 7.042 4.634 11.37 6.494 2.276.517 9.538 2.583 3.845 3.245-2.908.725-7.963-.896-9.513.653 1.005 2.763 4.477 5.057 6.797 7.547 1.046 1.186 3.586 3.253 2.97 3.985-2.894-.793-7.346-1.632-9.76.015-2.786 2.11-.19 4.954-2.668 7.086-3.722-.528-4.532-3.352-6.563-4.95-3.453-3.488-4.374-7.782-10.28-10.503-5.246-2.81-9.436-6.106-14.81-8.856-5.897-3.322-6.5-8.007-9.08-12.122-2.354-3.286-7.106-6.02-8.304-9.554-.126-.276-.24-.555-.348-.836z"/><radialGradient id="f" cx="-1631.453" cy="-1769.181" r="229.936" gradientTransform="matrix(1.258 .32 .176 -.1907 3191.776 525.58)" gradientUnits="userSpaceOnUse"><stop offset="0" stop-color="#7D7D7F"/><stop offset="1" stop-color="#515056"/></radialGradient><path fill="url(#f)" d="M631.122 156.45c6.235 1.36 10.68-.634 16.517-2.165 5.644-1.482 5.13-3.383 12.387-4.334 1.673-.22 2.566-8.993 2.754-9.388 1.916-4.024-.467-6.258 6.88-7.22 5.296-.695 7.675-3.303 11.01-5.057 3.087-1.617 13.898 1.445 17.897 1.445 9.03 0 12.272-.062 16.517 2.167 4.76 2.498 8.27 2.708 15.14 3.612 7.854 1.028 9.847 2.943 15.144 4.33 4.543 1.193 16.61-.373 19.268-.722 9.065-1.19-5.383-6.468-5.507-6.5-5.056-1.325-9.15-2.635-12.388-4.333-5.587-2.932-5.504-1.822-5.504-3.612 0-.746-15.58-2.29 0-4.332 8.688-1.14 11.65-.383 5.504-3.61-5.224-2.74 12.173.666 12.387.722 6.4 1.68 8.4 2.24 12.388 4.334 3.8 1.992-12.738.37-15.14 2.887-1.708 1.794 8.968 4.707 11.008 5.78 6.87 3.602-4.392 4.838 8.26 6.498 2.94.388 10-5.244 11.015-5.775 6.16-3.232 8.26-1.766 8.26 1.444 0 2.806-9.293 4.375 1.373 5.776 7.56.992 7.64 2.743 5.508 7.22-1.585 3.332-4.13 4.59-4.13 9.392 0 2.972 6.087 4.407 11.01 5.054 7.607 1 8.18.914 15.145 0 5.357-.703-2.717 5.854-1.378 8.666 1.29 2.703 9.675 4.353 12.388 5.778 4.916 2.58-3.975 5.015-6.88 5.777-6.99 1.834-3.397 5.103-1.378 7.223 2.916 3.06 5.753 3.866 8.258 6.5 3.617 3.792 7.21 4.607-2.752 7.22-3.306.87 3.99 4.405 1.372 5.78-5.823 3.06-8.102 1.602-4.127 5.776.997 1.045 11.217-.723 16.518-.723 5.13 0-.457 5.536-2.753 7.945-1.525 1.6 12.963 0 15.14 0 5.61 0 10.947 3.477 8.262-2.168-1.806-3.79-1.123-6.045 1.374-8.67.538-.56 14.444 4.692 15.143 5.058 3.892 2.042 2.46-6.08 0-8.666-2.29-2.403-4.376-6.288-5.508-8.67-2.68-5.616 8.907-1.273 11.01-.72 7.027 1.845 12.39-.452 12.39 5.056 0 2.548-5.505 4.282-5.505 7.942 0 3.43 9.483 1.445 15.14 1.445 6.793 0 8.26 2.758 8.26 6.502 0 2.557-9.83 2.573-11.01 5.054-.42.878 7.548 5.013 8.258 6.5 1.5 3.15 0 7.566 0 10.833 0 3.043 8.138 3.61 13.76 3.61 5.274 0 12.262 1.606 16.518 2.166 2.71.353-1.333 3.977 1.378 4.334 11.95 1.566 8.327-.147 6.88 2.886-.214.456-2.73 7.688 6.147 7.688 6.376 0 15.43 1.943 20.006 3.145 3.257.855 0 7.554 0 7.946 0 3.063 9.78 3.757 12.39 6.498l6.884 7.222c2.713 2.85 4.813 4.69 8.26 6.5 5.226 2.746 6.63-1.443 15.138-1.443 5.782 0 6.88 4.726 6.88 5.775 0 2.597-8.894.777-4.127 5.778 2.254 2.36 4.37 5.563 5.51 7.944 1.544 3.25 2.75 5.227 2.75 9.388 0 4.137 1.376 5.982 1.376 10.113 0 4.186-2.752 5.936-2.752 10.108 0 4.22-1.455 6.66-2.756 9.39-1.78 3.737-2.823 5.13-5.502 7.945l-6.886 7.22c-2.75 2.887-5.125 6.048-7.883 8.94-2.804 2.945-6.23 3.782-8.472 6.13-2.154 2.263-3.27 7.347-4.29 9.483-1.44 3.025-4.548 5.058-11.01 5.058-2.864 0 1.07-9.067-5.51-2.168-2.777 2.915-.665 7.202-2.75 9.392-1.907 1.997-9.528 3.58-12.387 4.33-5.283 1.388-8.918 2.074-15.144 2.89-1.29.168 1.378-3.757 1.378-7.22 0-5.055-4.933-3.138-6.88-7.224-1.206-2.524 8.77-5.188 11.01-5.777 5.613-1.472 12.388.31 12.388-4.33 0-6.324 3.637-2.828 6.24-.1.485.513 13.164-3.808 13.164-5.632 0-2.78 9.23-4.713 11.122-6.697 4.613-4.838-16.993-6.95-20.89-4.904-5.746 3.012-5.577 3.23-12.39 1.442-6.368-1.67-2.513-4.12-9.635-5.055-.112-.014-9.857 5.175-11.01 5.778-5.913 3.102-10.97 1.4-6.885-2.888 3.58-3.756 1.85-4.087-2.75-6.5-5.59-2.933-1.744-5.587 1.377-7.222 4.574-2.402 8.05-2.916 13.76-2.167 4.106.537-5.85 3.34-9.63 4.333-8.33 2.184 11.63 3.612 13.76 3.612 6.57 0 .52-7.677-4.13-10.113-4.727-2.48-5.416-3.656-11.01-.72-2.007 1.053-8.69.95-12.386 2.888-6.585 3.455-11.01-.75-11.01-3.61 0-3.503 5.954-4.392 11.01-5.056 3.802-.5 8.237.713 11.01 2.167 3.45 1.81-6.188-3.966-9.633-5.777-4.938-2.59-5.076-3.432-6.885-7.224-1.758-3.69 6.47-4.334 12.388-4.334 6.183 0 5.506 4.834 5.506 7.944 0 5.204 2.382 2.945 4.133-.722 2.024-4.256-2.17-6.607-4.133-8.666-2.523-2.65-5.91-4.034-8.257-6.5-2.803-2.942 5.706-6.605-2.752-2.166-7.3 3.827-3.665.955-1.377-1.444l6.88-7.224c2.316-2.43 4.21-5.22 5.506-7.942 1.088-2.28 6.3-4.443 8.26-6.5 2.596-2.722 1.992-6.423 4.13-8.668 3.368-3.533.862-6.046 6.88-2.89 4.264 2.238 3.843 5.664 2.754 7.946-1.865 3.914-1.188 5.253 0 6.502 2.4 2.518 4.204-5.214 5.505-7.947 1.34-2.807 1.466-6.682 2.757-9.388 2.364-4.964-2.566-6.522-8.26-5.78-3.116.41 0 3.372 0 5.058 0 2.42-9.64-1.804-13.765-.722-3.856 1.014-5.36 5.63-6.88 7.222-2.928 3.07.03 5.848 1.37 8.668.985 2.057-2.312 1.903 1.383 5.776 1.823 1.915-12.352.02-15.142-1.442-8.184-4.296-3.207 4.577-2.756 5.054 6.067 6.367-6.085 1.86-8.256.72-3.735-1.96-8.126-1.373-12.388-3.607-1.64-.86-7.948 2.307-12.388 2.89-8.206 1.074-5.48-3.562-6.882-6.498-1.26-2.645-8.688-3.344-11.01-5.78-5.338-5.596-6.666-.262-5.506 2.168 1.853 3.888 4.13 5.05 1.377 7.943-3.95 4.147.442 5.718-11.015 7.223-3.04.397-6.224 5.84-6.88 7.222-1.763 3.696-.292 5.165 1.374 8.666.643 1.353-4.404 5.635-5.505 7.943-2.113 4.44 2.573 6.615 5.505 8.666 4.288 3 4.455 5.102 2.756 8.666-1.25 2.617 10.414 2.888 15.138 2.888 9.01 0 12.28-.056 16.518 2.168 5.81 3.048-2.188 5.13 8.258 6.5 8.484 1.112 7.795 2.636 9.636 6.5.557 1.165-5.456 6.448-6.878 7.943-2.23 2.336-.443 8.14-1.38 10.11l-4.128 8.665c-.45.942 5.508 5.075 5.508 7.946 0 4.03.116 4.93-2.758 7.943-2.966 3.114-2.307 4.816-9.632 5.777-10.023 1.314-2.923-3.433-1.378-5.054 3.024-3.175 2.486-5.218 4.13-8.666 1.242-2.613-11.472-1.204-13.767-3.614-.057-.06-6.496 3.513-9.632 4.333-3.73.98-8.073-4.958-9.635-5.776-12.478-6.546-8.548-.15-4.13 2.167 4.657 2.444 4.205 4.897 2.75 7.944-1.342 2.82-11.22-1.556-15.14-3.61-6.53-3.427-7.45-1.87-1.375-5.058 4.685-2.455 10.308-.756 8.26-5.052-1.164-2.44-9.116 2.772-13.764 2.164-4.143-.543-11.23-11.576-1.38-25.998 1.555-2.28 11.588-.24 15.713-1.32 4.77-1.253 6.492-1.257 10.44-2.29 7.906-2.075-1.416-5.51-1.545-5.78-.377-.792-7.858-4.208-9.467-5.054-4.73-2.483-.722-4.296-5.504.723-2.635 2.766-5.528 4.333-11.014 5.055-7.02.92-6.88-3.953-6.88-7.223 0-5.03-2.424-6.326-6.885-8.666-3.573-1.874-9.472 1.604-13.76 2.167-9.25 1.213-8.26-2.7-8.26-6.5 0-2.685 1.32-6.622 0-9.39-.72-1.5-7.822.723-11.015.723-4.874 0 6.186-3.968 9.635-5.775 5.157-2.706 17.896-3.638 17.896-7.945 0-3.825.033-6.537 1.372-7.944 2.403-2.52-10.333-1.628-15.138-2.888-5.922-1.554-5.36.573-8.258 3.61-2.63 2.76-10.117-3.14-11.01-3.61-7.33-3.843-2.183-2.165-13.768-2.165-1.34 0-6.234 1.06-11.01-1.444-5.483-2.878-1.477-5.045 4.13-5.777 8.12-1.066 9.558 4.18 9.63 4.332 1.308 2.733 4.208-5.21 5.51-7.943.32-.676-11.598-7.636-16.518-5.057-3.258 1.712.687 5.06-1.378 7.225-2.397 2.518-5.502-5.128-5.502-7.947 0-2.91-8.92-2.224-6.886-6.5.89-1.867 4.633-4.004 2.756-7.94-.748-1.573 11.643.607 9.632-3.613-1.277-2.684-5.47-5.037-8.258-6.5-5.25-2.753-8.454-3.2-6.882-6.5 1-2.103 11.622 2.807 5.508-3.612-2.45-2.564-5.97-4.82-8.258-7.22-3.197-3.354-5.508-3.163-5.508-6.5 0-1.94 8.396.65 11.01-.72 5.32-2.792 4.454-3.27 8.258.72 4.705 4.938 5.508-.242 5.508-3.61 0-4.09 3.653-5.408 8.258-7.222 1.835-.722 3.886 3.018 5.506 2.167 4.876-2.558 5.712-2.89 12.388-2.89 2.43 0 6.007 5.286 15.14 2.89 5.848-1.534-.4-5.184-1.377-7.224-.224-.47-12.768 3.352-13.764 3.613-10.02 2.63-5.87-2.507-4.127-4.334 3.886-4.08-5.402-.556-9.638 0-6.19.81-9.96 1.444-17.896 1.444-5.947 0-9.13-2.102-15.14-2.89-7.433-.976-11.618-1.964-17.894-3.61-4.8-1.26-9.858-2.917-15.138-3.61-5.505-.723-8.132-2.874-13.766-3.612-8.306-1.09-.937 3.118 1.378 4.333 5.956 3.126-6.09 3.612-11.01 3.612-9.833 0-1.805-4.223 1.37-5.056.226-.057-9.687-3.64-12.385-5.056-5.974-3.135-4.72-1.646-6.88 2.89-1.067 2.24-10.245-.163-12.39 4.334-.95 1.993-7.205-1.67-11.007-2.167-4.813-.63-3.682 4.57-11.016.723-5.294-2.778-5.68-3.255-6.88-5.778-1.463-3.072 11.86 1.443 17.896 1.443 5.52 0-1.1-6.072 1.374-8.666 1.738-1.82-1.083-7.112 0-9.388.586-1.228 6.733-3.297 8.258-6.5 1.2-2.515-1.908-4.663-1.374-5.777.618-1.303 5.505-3.15 5.505-7.943 0-3.696-8.784-1.444-15.14-1.444-10.06 0-1.673.41-6.883-5.055-2.788-2.928-.937-4.905 1.38-7.945z"/><path fill="#504F55" d="M1035.787 212.782c-5.387-5.652 8.09 11.925 11.01 18.056 2.904 6.098-10.195.86-12.386 0-.55-.217 4.234 7.277 5.506 7.943 4.428 2.324-1.937 6.072-4.13 7.223-2.79 1.467-6.525 4.684-8.258 6.498-2.887 3.027-9.386 2.168-16.517 2.168-9.312 0-10.287-3.23-15.14-5.778-4.923-2.58-1.095-4.62-8.257-6.5-5.088-1.332-9.068-4.455-11.014-6.497-2.592-2.717-5.822-3.942-8.26-6.5-4.596-4.827-.993-2.79 4.13-1.444 10.466 2.745 2.563-3.812 1.38-5.058-3.966-4.16-8.104-2.33-4.13-6.498 2.922-3.07 9.17-2.648 0-5.057-5.962-1.563-8.262-2.467-8.262-6.5 0-2.917 5.313-4.954 8.26-6.5 4.785-2.51 4.655-5.33 8.26-7.222 4.165-2.188 9.52-2.164 16.517-2.164 8.403 0 10.24 2.326 15.138 3.61 4.28 1.124 6.837 4.31 9.636 5.776 4.205 2.207 4.71 4.64 8.258 6.5 5.46 2.866 6.857 7.026 13.766 11.557"/><radialGradient id="g" cx="-4438.105" cy="2981.206" r="229.935" gradientTransform="matrix(.3167 -.127 -.449 -.308 3409.948 440.984)" gradientUnits="userSpaceOnUse"><stop offset="0" stop-color="#8B8B8E"/><stop offset="1" stop-color="#58575D"/></radialGradient><path fill="url(#g)" d="M774.27 75.565c-6.636.872-3.324 7.347-1.377 9.39 3.245 3.405-5.178.584-9.64 0-6.146-.806-6.738-2.546-15.136-1.446-9.188 1.206-12.41-.747-8.26 3.61 3.854 4.044-8.94 1.266-11.008.723-4.308-1.13-9.64-6.954-9.64 0 0 3.553-5.713 4.36-11.01 5.057-8.757 1.147-9.636.48-9.636 5.777 0 4.683-1.634 3.904-8.257 2.167-5.627-1.475-9.855-1.293-16.52-2.167-6.094-.8-10.248-1.608-15.137-2.89-5.86-1.537-5.02-3.366-12.388-4.332-5.746-.753-9.622-2.523-13.766-3.612-5.438-1.426-8.65-2.373-13.766-5.057-6.112-3.208-7.59-3.958-2.752-6.5 6.91-3.624-1.308-2.176-6.88-1.444-5.097.668-7.898 2.842-13.766 3.612-7.875 1.03-9.27.05-11.01-3.612-1.946-4.077 6.08-3.82-4.13-6.5-5.72-1.5-16.15-1.215-23.4-2.166-7.17-.94-10.273-2.07-16.516-2.89-6.428-.842-11.774-.8-17.89 0-5.837.768-9.43 2.862-15.145 3.613-5.413.71-9.666 2.534-13.765 3.61-6 1.575-12.707.276-16.516-.722-6.636-1.742-10.797.304-15.14 1.444-8.766 2.297-5.643.793-1.378-1.444 4.577-2.4 5.89-2.58 13.765-3.612 10.822-1.418-5.58-1.444-9.636-1.444-8.606 0-10.256 1.346-16.517 2.167-9.136 1.198-7.644 1.243-12.387 0-3.888-1.02 23.525-3.12 1.377-5.057-8.203-.715-1.316-4.365 1.378-5.777 1.95-1.024-12.736-.722-16.516-.722-10.775 0-11.187-.814-13.765-2.167-.614-.324 16.865-1.442 19.268-1.442 6.044 0 11.9-1.563 16.518-2.17 8.554-1.12.87 3.612 12.387 3.612 2.242 0 6.984-4.526 11.014-5.054 4.678-.614 7.12.87 13.762 0 7.482-.982 10.787.78 16.515-.723 4.256-1.117 6.42-3.85 11.013-5.057 7.55-1.98 3.465 4.39 4.13 5.78.495 1.035 9.33 2.25 11.01 5.775 1.197 2.517 8.972-3.517 13.765-2.89 4.728.622 5.62 1.793 13.766.726 5.345-.704 12.732-.77 17.89-1.445 6.89-.905 3.335-4.752 11.012-.723 5.643 2.958-.9 4.818 8.26 7.22 5.182 1.36 11.984 1.573 16.517 2.168 5.77.758 9.185 2.41 13.76 3.61 4.832 1.267 6.165 3.784 11.014 5.056 9.975 2.617 3.214-3.368 1.376-4.333-7.085-3.718 4.642-4.58 8.26-5.054 5.828-.765 20.882 5.84 26.15 7.222 5.276 1.383 10.534-3.362 12.39-4.334 2.636-1.38 15.56 1.14 17.895 1.445 8.28 1.09 12.735 2.18 11.008-1.444-1.34-2.82 13.795.792 15.14 3.613.62 1.3 15.648.723 19.27.723 2.466 0 10.332 3.795 12.39 4.334 6.616 1.734 8.12 2.237 12.387 0 7.537-3.958 8.26 4.77 8.26 5.775z"/><path fill="#4F4F4F" d="M55.784 302.695c-7.96 1.53-10.227 6.632-9.874 10.63.438 3.574-.35 7.517 4.126 10.53 3.154 2.626 11.11 4.552 15.867 1.948 5.424-3.614 3.336-8.512 3.554-12.76.377-4.505-4.378-9.663-13.673-10.348z"/><path fill="#4D4D53" d="M540.985 45.295c0 1.107-.97 2.004-2.165 2.004-1.197 0-2.167-.898-2.167-2.005s.97-2.006 2.167-2.006c1.196 0 2.165.898 2.165 2.005z"/><path fill="#5D5C63" d="M559.55 290.78c3.297-2.482 6.528-5.76 8.26-9.39 2.09-4.393 7.558-2.18 9.632 0 3.158 3.314 3.55 4.59 11.015 3.61 9.23-1.21-3.738-5.312-5.506-5.776-7.44-1.953-5.285-3.73-1.378-5.78 5.587-2.93 7.96-1.602 12.39.724 1.98 1.04 4.478 6.867 5.504 7.942 2.444 2.566 4.253-4.924 2.752-6.5-4.075-4.278 7.943-4.01 11.014-3.61 9.36 1.23 2.138 10.035 1.373 10.834-3.372 3.543-4.697 3.74-1.373 7.224 2.955 3.1 5.79 3.73 4.13 7.22-.347.722-16.365.722-19.275.722-.99 0-10.246 4.653-11.01 5.057-4.962 2.602-3.737 4.102-11.01 5.055-6.565.86-9.74-2.904-15.144-3.61-5.395-.71-6.88-4.25-6.88-7.223 0-2.808 1.95-3.39 5.508-6.5z"/><path fill="#5F5E64" d="M855.476 139.118c2.56 1.343 10.786-.118 15.144 2.167 6.898 3.622-5.598 6.15-8.26 6.5-7.862 1.03-7.67-.825-11.014-4.333-1.418-1.492-13.415-1.985-5.505 2.165 6.848 3.593.83 2.89-8.258 2.89-1.318 0 6.877 4.33 8.26 5.056 1.145.602-14.737.468-16.52 0-6.2-1.627-7.985-2.32-9.632-5.778-1.973-4.134 6.708-4.38-4.128-7.222-.23-.062.998 4.856-5.508 1.445-6.96-3.652 3.728-5.778-6.88-5.778-8.042 0-3.987 2.566-11.015.722-3.337-.873 9.393-5.65 9.636-5.776 1.69-.888 14.97-1.762 16.516-2.167 4.786-1.256-6.96-4.5-8.258-7.222-.675-1.42 5.553-.368 8.258-.722 3.227-.422 4.908.408 9.638 2.887 3.396 1.785 4.103-6.51 15.138-.72 2.617 1.372-3.99 4.403-1.377 5.777 3.93 2.06 7.092 2.318-2.75 3.612-4.633.604 15.268 6.234 16.516 6.496zM1053.682 259.003c4.326-2.273.196 7.117-4.13 9.388-4.526 2.376 1.248 7.09 2.752 8.667 2.928 3.074.522 6.672-1.376 8.666-2.762 2.896-4.38 6.3-5.504 8.668-1.568 3.287-4.13 3.94-4.13 8.667 0 2.69 11.01.38 11.01 5.055 0 4.527 6.882.23 6.882-3.612 0-2.763-6.882-4.934-6.882-9.385v-10.837c0-1.846 12.237 4.182 5.505-2.886-3.614-3.794 6.187 2.16 6.882 2.886 2.674 2.808-1.378-6.248-1.378-9.388 0-1.664 5.918-3.466 4.13-7.22-.21-.434-13.136-8.256-13.762-8.667z"/><path fill="#69686F" d="M933.93 382.496c0-3.23-5.502 5.777-8.258 8.666-3.377 3.55.583 3.507 6.885 4.335 8.108 1.063 8.466 1.947 5.503 5.057-2.48 2.604-6.124 4.26-8.258 6.5-2.897 3.04-8.455 3.273-11.01 3.608-4.977.652 4.59-4.813 6.88-7.223 3.36-3.52-2.083-6.522-4.13-8.665-2.87-3.016-3.21-5.54-1.373-9.39 3.48-7.313 14.045-2.644 9.632-6.5-1.374-1.2 4.13 2.21 4.13 3.61z"/><path fill="#5F5E64" d="M913.285 112.398c-.538-.472-12.652-3.68-15.14-4.334-2.408-.633-6.467-6.28-8.26-7.22-4.634-2.432-9.466-3.93-13.765-5.058-5.627-1.475-5.544-3.62-11.01-5.054-10.698-2.807-8.37 2.77-6.88 4.332 1.347 1.417 11.896 3.12 13.76 3.612 7.044 1.845 7.536 2.547 2.757 5.056-5.315 2.786 1.57 6.702 2.75 7.943 3.188 3.34 3.82 4.17 8.26 6.5 7.307 3.833 7.68.116 5.508-2.167-2.664-2.792-6.974-2.984-9.636-5.776-4.584-4.81 3.02-4.298 8.256-3.61 2.887.376 9.268 4.14 11.01 5.055 3.572 1.87 6.848 1.302 12.39.72zM928.428 111.314c-5.428-4.122-17.102-10.97-12.387-1.083.563 1.193 10.095.844 12.388 1.084z"/><path fill="#56555B" d="M231.962 479.993c-1.48-3.115-12.418-.73-17.89-2.167-7.944-2.085-5.28 3.36-4.13 5.776 1.9 3.99 17.515 2.89 19.27 2.89 7.16 0 5.294-3.166 2.75-6.5z"/><path fill="#6B6A71" d="M233.34 464.827c7.943 0 6.88-6.552 6.88-10.834 0-4.21-5.146-3.58-6.88-7.222-1.96-4.11 14.71.498 15.138.725 3.263 1.71 9.295-1.31 13.767-.724 4.475.59-3.438 5.058-1.378 7.223 1.793 1.882 17.503-1.39 17.895-1.44 7.468-.98-1.504 4.396-2.75 5.052-5.013 2.63.29 4.645 2.75 7.223 4.122 4.326-1.455 5.065-6.88 5.775-3.117.41-8.627-5.438-9.636-6.5-2.452-2.572-7.86-3.402-11.01-5.053-4.698-2.465-6.04 1.284-8.258 3.61-1.568 1.64-6.395 1.486-9.638 2.167zM300.786 459.05c-3.635 3.814 10.007 5.102 15.137 5.777 5.36.703-.034-5.853-1.376-8.666-3.24-6.804-9.16 3.374-13.76 2.89zM344.828 456.16c-1.668-3.5 10.362 4.884 16.518 6.5 4.796 1.257-2.622-4.3-5.504-5.056-4.798-1.257-3.896-1.443-11.014-1.443zM358.593 471.327c-8.587-2.255-12.01-1.38-9.635 3.61 1.674 3.51 12.707.32 15.143 0 5.182-.68 10.275 3.418 13.764 4.33 5.524 1.453 13.86-1.465 16.516-2.163 4.448-1.167-6.896-1.81-11.01-2.888-6.563-1.723-8.872-2.89-16.516-2.89h-8.26zM253.986 489.382c-7.89 0-8.258-2.75-8.258 5.053 0 4.27 6.258 5.644 8.258 1.445.698-1.46 0-5.487 0-6.498zM174.154 444.604c.997-2.09-11.01.737-11.01 2.89 0 1.594 10.568 3.855 12.387 4.334 4.127 1.08-.47-4.85-1.376-7.224zM174.154 463.384c5.353 1.402-6.958-5.14-9.633-7.946-5.663-5.94-7.65 1.998-6.883 3.612 1.792 3.756.123 3.774-4.13 4.334-6.677.873 14.744 1.855 20.647 0 4.397-1.386-2.223 7.29 2.755 7.943 8.246 1.08 5.403-5.5-2.756-7.943zM189.296 409.938c2.847.377-6.22 2.118-5.507 3.612.733 1.537 11.997 3.146 13.765 3.61 2.217.582 3.768 7.908 4.128 8.667 1.075 2.262 6.88 7.243 6.88 1.442 0-4.34-3.007-5.323-5.505-7.943-3.515-3.69-5.035-5.723-13.762-9.39zM76.43 368.054c-2.294-2.407 1.906 6.568 6.88 7.222 9.586 1.257-6.964-7.445-8.258-10.833-1.25-3.278-6.7-4.862-9.633-7.942-4.858-5.097-14.342-.302-2.756 5.776 4.557 2.388 7.5 3.147 13.766 5.778zM154.885 359.388c3.078 1.616-6.074 4.455-4.13 6.5 3.26 3.417 3.186 4.827-1.377 7.22-2.625 1.38 5.305 6.933 8.26.724 2.01-4.22 2.147-4.896 8.257-6.5 1.125-.298-8.197-5.486-11.01-7.944z"/><path fill="#56555B" d="M33.073 293.67c-9.45 4.462-2.386 8.867-1.377 9.928 1.147 1.204 5.757-1.395 7.572-2.35 1.926-1.01-1.152-4.453-1.378-4.69-1.47-1.546-.253-1.934-4.817-2.89z"/><path fill="#A8A7AA" d="M653.146 120.34c-3.2 2.89-.087 7.595-8.26 8.667-2.715.357-13.788-2.533-15.14-2.89-6.605-1.73-3.507-4.052-12.387-2.886-4.24.556-3.375 7.795-4.13 9.39-1.348 2.82-1.31 6.646 0 9.387.985 2.075 7.387 4.6 9.632 5.777 4.644 2.436 6.893 4.35 8.26 7.224 1.28 2.685 1.787 7.365 2.754 9.388.215.453-6.13 6.43-6.886 7.222-4.067 4.268-11.31-.88-13.76-2.167-4.073-2.136-7.553-3.517-13.767-4.33-5.224-.69-8.082-3.59-13.766-4.335-8.02-1.053-11.082 1.6-12.388 4.334-2.1 4.4 5.038 4.808 8.26 6.498 5.586 2.932 4.577 4.1 0 6.5-4.185 2.193-12.9-3.158-13.763-3.61-3.305-1.736-4.566-5.973-5.507-7.944-1.205-2.528-8.88-2.492-12.388-4.334-4.854-2.545.334-7.572 1.378-8.666 3.737-3.928 23.546-.722 30.278-.722 4.878 0 5.272-4.634 9.636-5.78 8.875-2.326 4.24-.72-5.508-.72-5.138 0-10.68 2.302-15.137 2.888-9.074 1.19-3.904-5.292-2.754-6.5 3.796-3.984 2.947-4.954-1.378-7.22-3.57-1.875-10.246.64-15.14 0-4.436-.583-8.546-3.76-11.012-5.057-4.59-2.408-8.64-3.088-12.39-5.057-5.77-3.03 4.612-5.18 6.885-5.776 5.043-1.325 11.414-1.445 17.892-1.445 8.44 0 9.637-1.565 9.637-5.777 0-3.952-5.31-4.334 6.88-4.334 5.45 0 8.926 2.795 15.143 3.61 1.843.242 11.12-2.166 16.517-2.166 7.206 0 12.218-.37 13.76-3.612 2.94-6.156 9.457 3.234 9.638 3.612 2.406 5.05.138 5.127 5.506 7.943 5.146 2.702 8.977-3.68 9.635-5.053 1.89-3.97 12.06 3.645 12.387 4.332.567 1.192.918 2.408 1.38 3.61zm-81.844 37.555c0 1.995-4.03 3.61-9 3.61s-9-1.615-9-3.61c0-1.992 4.03-3.61 9-3.61s9 1.617 9 3.61zm37.8-17.153c0 2.294-2.778 4.154-6.194 4.154-3.42 0-6.192-1.86-6.192-4.154 0-2.292 2.773-4.152 6.192-4.152 3.415 0 6.194 1.86 6.194 4.152z"/><path fill="#959595" stroke="#B9B9B9" stroke-width="2.118" d="M698.586 84.102c-1.355 3.31-10.12 5.12-19.575 4.044-9.455-1.074-16.02-4.63-14.666-7.94.002-.01.008-.02.01-.028 1.355-3.307 10.118-5.118 19.57-4.044 9.457 1.077 16.027 4.63 14.674 7.94-.006.008-.01.018-.012.028z"/><path fill="#A7A7A7" stroke="#CACACA" stroke-width="1.61" d="M822.147 159.878c-6.28 2.065-16.368-.185-22.535-5.02-6.166-4.838-6.076-10.433.204-12.496l.05-.016c6.277-2.063 16.367.184 22.534 5.02 6.167 4.836 6.078 10.433-.2 12.496-.02.003-.037.01-.053.016z"/><path fill="#959595" stroke="#B9B9B9" stroke-width="3.894" d="M697.537 107.476c-2.76 2.105-9.575 2.08-15.23-.06-5.653-2.138-8-5.582-5.24-7.688.006-.007.014-.012.02-.02 2.755-2.104 9.575-2.08 15.228.06 5.652 2.14 8.002 5.58 5.246 7.69-.006.007-.014.01-.023.018z"/><path fill="#CACACA" d="M1020.594 355.075c-5.325-1.297-6.8-6.803-3.287-12.296 3.51-5.492 10.672-8.89 15.998-7.596.015.005.03.01.047.012 5.322 1.3 6.797 6.802 3.283 12.295-3.512 5.493-10.672 8.894-15.998 7.597l-.043-.012z"/><path fill="#CDCDCD" d="M978.742 409.06c-4.865-1.73-4.644-7.288.49-12.413 5.135-5.13 13.24-7.887 18.104-6.16.014.007.025.01.04.016 4.864 1.728 4.646 7.284-.495 12.414-5.133 5.127-13.235 7.885-18.1 6.156-.012-.006-.026-.01-.038-.014z"/><path fill="#E7E6E8" stroke="#A9A9A9" stroke-width="3.622" d="M673.68 229.216c0 1.974-3.05 3.574-6.814 3.574-3.764 0-6.813-1.6-6.813-3.574 0-1.973 3.05-3.573 6.813-3.573s6.813 1.6 6.813 3.573z"/><path fill="#ECECED" d="M681.59 380.18c-1.257.957-2.955 1.72-4.487 2.55-2.147 1.146-4.397 2.286-5.886 3.71-.7.685-1.195 1.612-.215 2.29.994.547 2.623.49 3.926.358 4-.458 7.475-2.208 8.128-4.363.607-1.883-.642-5-1.466-4.546z"/><radialGradient id="h" cx="-1702.022" cy="-183.524" r="167.429" gradientTransform="matrix(1.6645 .1428 .5536 -1.776 3424.91 404.106)" gradientUnits="userSpaceOnUse"><stop offset="0" stop-color="#FDFDFE"/><stop offset="1" stop-color="#F1F1F2" stop-opacity=".469"/></radialGradient><path fill="url(#h)" d="M739.87 433.994c7.408-1.946 11.9-3.854 17.518 0 4.644 4.874-13.16 6.32-19.464 7.147-8.524 1.12-14.03 3.17-21.412 5.11-9.054 2.375 3.61-4.012 7.785-5.11 6.988-1.832 8.158-5.2 15.574-7.146z"/><path fill="#ECECED" d="M808.972 310.923c5.608-1.455 7.03 7.28-.945 9.692-7.112 4.108-21.497 4.104-24.298 10.297-3.29 4.63-6.725 10.173 1.575 14.034 4.16 4.71 13.986 4.747 22.482 5.255 11.608-1.13 14.114 5.51 19.95 9.245 8.526.267 16.904-13.376 27.954-4.71 7.395 2.793 5.76 11.105-2.016 12.517-7.124 1.822-17-1.506-19.965 2.864.294 3.91-6.67 10.225-6.423 15.936 6.226 3.68 2.795.886 3.42 6.352 3.235 3.667 10.36 8.46 2.26 9.8-8.476 2.49-10.536 9.647-18.735 12.367-6.884 3.827-16.198 6.047-23.186 9.807-5.514 2.148-18.167 5.74-22.734 2.95 5.382-3.95 13.075-6.895 19.834-10.173 7.452-2.214 13.14-5.654 20.485-7.908 6.89-1.875 13.508-7.202 8.052-10.955-6.013-3.144-18.147-3.548-19.038-8.91-3.627-5.5 8.286-8.837 7.433-14.113.427-2.682-4.62-11.156-7.763-4.735-.656 3.265-8.263 5.373-9.426.94-4.3-4.938-1.924-11.686-10.05-15.538-8.22-.71-16.862.935-25.252 1.143-10.843 1.425-14.46 7.462-19.806 11.857-10.387 3.248-9.996-7.392-9.325-10.73.833-3.725-1.808-13.245 10.68-9.812 7.318 1.82 22.09 7.636 23.624-.295 3.855-5.49-2.488-10.438-13.43-10.935-11.372-1.62.255-8.555 3.69-11.515 6.377-2.8 7.066-8.162 14.552-10.236 9.086-.956 17.83 1.766 26.774 1.495 6.15-.973 13.458-5.032 19.626-5.982zM706.092 286.44c-3.492-2.378-18.684-6.254-21.59-6.436-4.037-.137-8.09-.313-12.047-.75-1.337 1.06.047 2.57.286 3.767 1.078 2.614 1.714 11.99.37 14.06-1.342 1.855-2.45 3.82-2.304 5.826 1.454 1.59 12.74 6.243 16.097 7.114 2.902.32 4.138-1.482 5.146-2.57 1.692-1.85 10.96-5.526 13.14-6.338 4.053-1.205 4.587-3.95 4.33-6.15-.21-1.855-2.622-7.73-3.428-8.522zM674.662 335.436c3.205.317 3.093 2.576 2.394 3.893-1.257 2.65-15.518 6.19-16.58 7.386-2.41 3.373-3.374 6.978-3.472 10.566-.203 2.01-14.27 5.408-16.342 3.86-.65-1.833 9.224-11.637 9.67-15.3.86-3.608-2.14-7.005-3.3-10.482-.727-4.122 2.993-7.988 6.628-11.5 3.062-1.243 17.153 8.25 21.002 11.576zM639.622 385.48c.96-.567.226-1.437-1.27-1.088-3.735.497-7.174 1.45-10.788 2.135-3.656.69-7.48 1.484-11.442 1.277-2.03-.17-3.73-.843-5.518-1.324-2.86-.864-5.755-2-6.756-3.728-.554-.976-1.14-1.967-1.37-2.98.487-.905 2.54-.002 3.512.284 4.963 1.724 9.46 3.893 15.03 5.085 2.426.544 5.103.28 7.653.34h10.95z"/><radialGradient id="i" cx="-2053.54" cy="-498.726" r="167.424" gradientTransform="matrix(1.277 .2618 .577 -.775 3400.215 638.03)" gradientUnits="userSpaceOnUse"><stop offset="0" stop-color="#FDFDFE"/><stop offset="1" stop-color="#F1F1F2" stop-opacity=".469"/></radialGradient><path fill="url(#i)" d="M466.384 479.442c-9.1-5.97-21.12-16.17-33.097-22.978-15.088-7.854-25.776-17.507-34.733-27.518-9.62-7.18-17.265-20.646-28.364-24.22 1.04 5.375-13.335 8.656 3.37 11.163 17.36 3.985 9.835 16.04 24.88 20.856 8.077 8.877 18.507 17.257 29.897 25.13 7.87 4.964 29.88 13.606 28.2 17.21-7.426-9.73-29.282-15.013-48.134-15.36-14.803 3.65 14.997 7.656 22.25 6.165 9.536-.017 28.87 9.162 9.214 4.89-11.363 4.548-23.337-5.408-32.803-1.186 3.18 3.076 28.842 4.457 22.31 6.136-7.847.115-27.165-6.992-26.217.243 9.66 3.1 25.178.925 32.32 4.79-5.53 4.46-13.85 3.864-20.98 6.253-1.922 7.722 28.068.513 12.38 7.155-17.118 8.785 18.966-.052 17.197.444-9.836 6.096 4.444 4.256 8.756 4.018-7.355 8.354-18.442 15.41-27.323 23.278-10.51 6.756-18.646 14.558-31.146 20.43-5.778 6.517 11.226-2.668 14.358-4.395 17.226-5.497 27.733-15.082 38.197-23.693 5.515-4.976 12.658-11.56 18.656-15.192 9.664 7.197-.818 16.106 2.76 24.895 14.026 5.253-3.63 14.532 3.775 19.27 24.458.622 15.49-13.438 14.736-21.092-2.462-4.892 6.597-9.25 9.814-2.617-.97 4.51 5.546 7.966 5.527 1.536-.303-4.306.93-6.79 3.335-.953 2.268 3.275 16.314 15.473 13.425 4.878.15-5.434-16.376-13.79-3.707-17.545 11.236 3.324 20.108 7.48 9.582 13.836-11.147 2.86 9.48 12.226 14.974 5.94 10.648 1.027 14.206-3.602 17.752-6.96 12.626 5.835 35.735-.218 43.07-5.8-5.9.404-22.302-3.65-6.733-2.24 6.543 1.394 23.57 3.037 10.242-1.892 1.75-4.304 22.665.956 31.104.367-.425-5.716-22.914-3.04-16.226-11.535-4.217-5.055-20.588 9.736-18.988-.66-5.605-6.48-11.27 2.864-8.235 5.766-11.002-3.126-10.34 9.686-12.757 1.315 3.29-4.234 12.04-12.055 5.446-15.77-6.857 4.14-21.93 3.406-28.92 1.66 17.146-.13 33.833-2.504 50.143.807 13.94-.08 19.953-5.32 28.143-9.586 10.74.4-4.636-14.078-8.38-5.908-4.806 9.07-19.085 6.04-30.598 3.265-4.35 1.997-23.05 4.284-21.34 2.07 13.754-2.434 33.03-1.563 42.446-6.496-2.647-2.318 8.94-6.99 1.007-6.466 8.308-5.656 14.913 5.62 22.657-2.384 18.535-3.088 39.1-3.952 56.4-8.375 9.823-4.52 36.402-6.516 36.16-12.95-17.145.72-31.07 11.382-50.778 10.957-17.434 4.742-36.28 9.04-56.38 8.84-6.736.224-25.947.332-8.764-2.043 14.282-.502 35.05.81 43.358-6.634-5.507-6.06-32.037 7.182-35.3.317 12.777-5.892 26.327-11.036 39.37-16.583 9.975-3.614 31.765-8.42 14.69-14.46 8.77-6.616 49.78-4.633 38.157-16.988-19.64-8.35-21.223 10.08-36.848 10.548-6.92-3.393-27.132 1.196-20.772-6.51-12.846-2.336-31.18 10.638-7.616 9.453-.16 4.608 9.553 13.195 16.52 9.126-3.895-7.53 16.184-2.836 3.918 1.597-8.664 3.288-18.564 9.737-29.158 5.557-12.143 2.867-12.365-2.343-5.146-5.686-11.253-3.136-24.37 2.194-23.805-8.095-9.357-.576-28.062 1.317-12.94-5.563 15.962-5.815 18.457-16.194 31.293-23.33 8.378-2.24 13.9-11.124-.68-6.47-9.045 5.96-9.832 20.09-25.24 20.86.772-8.762-13.744 6.434-8.106-2.978 3.967-3.944.817-8.386-2.44-1.995 2.44 6.763-21.28 12.823-11.63 17.847 10.18-.3-8.388 14.89-10.45 3.723-2.104-3.248-.916-11.55-9.73-5.106-2.8 8.306-17.29 2.95-11.19-3.39-3.003-6.023 9.286-12.832 7.78-17.2-14.343 7.016-10.746-7.493-22.145-5.412-4.167 7.838 22.666 9.457 12.15 18.55-4.045 10.68-6.275-8.418-16.053-.432-13.743 1.412-8.353 14.705-26.63 12.127-3.48-8.062-13.01-3.78-13.417 2.02-10.14.504-12.41-7.586-23.93-2.686-7.802-1.206-12.68-4.54-15.574 2.042-7.506 1.46-21.62-5.735-20.78 3.477.21 6.79 18.436 3.574 16.988 11.276 8.935 2.76 2.21 1.013.204 3.104 9.854 3.12 24.688 9.438 15.733 15.788-12.105-6.917-27.642-12.097-34.53-21.39-12.33-7.23-14.26-17.497-24.623-25.4-20.043-5.826-7.372-16.664-14.31-25.668-10.703-8.4-23.658 4.854-9.025 8.328 8.335 8.025 16.103 15.64 23.625 23.846 4.543 9.358 15.332 17.157 24.322 25.383 10.14 6.6 24.81 11.646 31.564 19.534-14.794-4.85-22.182-13.584-35.448-19.384-1.753-2.092-14.314-12.313-13.117-6.938 10.285 8.67 25.147 15.368 36.3 23.698 2.615 4.615 15.517 7.428 14.78 12.35z"/><path fill="#E3E3E3" fill-opacity=".446" d="M773.41 116.638c1.504 5.814-5.418 11.095-2.705 16.874.064 5.802 2.914 12.405-5.53 17.06-5.893 4.55-7.108 10.026-9.75 15.205-2.626 3.967-6.18 7.734-7.59 11.905-4.22 4.537-3.927 9.723-6.802 14.484-1.5 4.202-1.673 8.508-2.1 12.765 2.1 2.734 4.1-4.136 5.372-5.317 2.372-5.062 8.26-9.48 9.998-14.6-.42-5.257 7.497-9.292 8.462-14.47 2.59-4.27 7.053-8.138 9.42-12.452 3.77-5.044 2.775-10.69 4.72-15.97 1.978-5.272 2.958-10.563 3.485-15.91 1.873-5.6 2.863-11.262 4.264-16.906 2.94-5.486 2.032-11.28 5.442-16.692.563-1.898 5.915-9.73.32-4.828-4.41 4.934-7.012 10.304-10.022 15.524-.868 1.4-9.635 6.937-6.983 13.33z"/><path fill="#54535A" d="M479.28 436.548c0 3.314-6.427 6-14.356 6-7.927 0-14.354-2.686-14.354-6 0-3.312 6.427-6 14.354-6 7.93 0 14.356 2.688 14.356 6z"/><path fill="#E7E6E8" stroke="#A9A9A9" stroke-width="3.622" d="M756.404 294.582c0 1.976-3.05 3.574-6.81 3.574-3.767 0-6.816-1.6-6.816-3.574 0-1.974 3.05-3.574 6.815-3.574 3.76 0 6.81 1.6 6.81 3.574z"/><path fill="#E7E6E8" stroke="#A9A9A9" stroke-width="4.12" d="M795.745 227.174c0 1.975-2.36 3.574-5.27 3.574-2.908 0-5.266-1.6-5.266-3.574s2.356-3.575 5.265-3.575c2.91 0 5.27 1.6 5.27 3.574z"/><path opacity=".658" fill="#959595" stroke="#B9B9B9" stroke-width="3.894" d="M494.573 174.313c-.06 2.558-5.756 4.52-12.72 4.392-6.966-.133-12.565-2.31-12.504-4.866v-.022c.06-2.556 5.76-4.522 12.725-4.39 6.964.13 12.56 2.31 12.5 4.865l-.002.02z"/><path fill="#94939A" fill-opacity=".655" d="M449.237 403.608c0 2.76-4.092 4.994-9.134 4.994s-9.133-2.235-9.133-4.994c0-2.758 4.092-4.997 9.133-4.997s9.134 2.24 9.134 4.998zM430.744 358.923c0 2.76-4.087 4.996-9.133 4.996-5.042 0-9.132-2.236-9.132-4.997 0-2.756 4.09-4.994 9.133-4.994 5.046 0 9.134 2.237 9.134 4.993z"/><path fill="#94939A" fill-opacity=".655" d="M422.957 360.965c0 2.76-4.085 4.998-9.132 4.998-5.044 0-9.134-2.237-9.134-4.998 0-2.757 4.09-4.992 9.135-4.992 5.046 0 9.132 2.235 9.132 4.992zM434.64 397.737c0 2.757-4.093 4.994-9.135 4.994-5.046 0-9.133-2.236-9.133-4.993 0-2.76 4.086-4.998 9.133-4.998 5.042 0 9.134 2.238 9.134 4.997zM304.22 376.288c0 2.758-4.09 4.996-9.134 4.996-5.046 0-9.132-2.238-9.132-4.996 0-2.76 4.086-4.997 9.132-4.997 5.043 0 9.134 2.24 9.134 4.998zM894.643 347.274c0 2.76-4.092 4.994-9.134 4.994-5.047 0-9.136-2.235-9.136-4.994 0-2.758 4.09-4.994 9.135-4.994 5.04 0 9.133 2.237 9.133 4.994z"/><path fill="#FBFBFC" d="M72.3 383.222c.706 1.83 6.137 7.88 8.258 10.108 5.45 5.72 9.79-.883 11.01-2.168 2.96-3.105 15.62 5.308 16.52 5.777 4.756 2.496 12.493-.75 15.14-1.443 7.58-1.988 14.062-.8 5.504 1.442-6.596 1.73-5.545 4.29-2.75 7.223 2.793 2.932 2.09 6.53 4.127 8.666 2.32 2.434-6.946 2.89-12.39 2.89-6.223 0-10.49-2.507-15.138-4.334-2.748-1.08-11.908 3.124-13.765 3.61-4.264 1.116-5.127 8.736-8.26 2.166-.97-2.04 8.32-4.7 11.01-5.057 8.19-1.073 5.95-4.093-1.373-5.053-8.557-1.124-2.03-3.27 1.374-5.057 3.512-1.842-8.875-2.49-12.387-4.332-4.522-2.375-5.294-3.89-6.88-7.224-2.202-4.617 2.453-.793 0-7.218zm26.153-35.39c-.08-.167 9.6 5.74 11.01 7.223 3.333 3.496 6.793 7.036 8.26 10.11 2.613 5.48-5.192-.557-6.88-1.444-5.9-3.097-8.697-2.773-13.767-1.444-11.707 3.07-2.535-3.723-1.377-4.334 4.29-2.25 2.753-6.358 2.753-10.11zM749.815 37.086c113.42 24.586 200.248 66.872 254.652 114.933-15.447.752-27.107-5.343-36.617-11.088-8.92-5.078-7.818-16.687-23.29-17.046-11.336 4.485-.498 11.416 5.035 15.875 6.934 5.058-6.1 10.343-9.732 3.067-8.035-7.002-8.792-15.585-18.155-22.207-6.413-7.153-12.95-14.735-26.74-18.79-11.264-4.585-25.554-6.672-37.654-10.62-14.87-.804 3.172 10.362.05 14.465-7.53 4.372-8.495-12.25-13.185-3.338-.842 2.58-3.35 6.886-2.154 1.418.798-5.822 2.553-13.057 14.402-14.766-2.053-9.35-24.906-1.623-31.972-9.25-8.658-4.724-22.228-3.366-31.088-2.632-.503 9.303-16.27-2.63-18.087-5.992-10.84-3.076-21.57-7.318-31.964-10.042-4.7 2.224-28.898 4.93-15.367-.685 6.24-2.492 20.516-6.892 4.162-5.603-13.612-.363-27.252.45-38.864 4.472 5.694-5.63 16.03-11.236 29.506-9.595 11.688.78 30.29 1.263 26.6-7.8.515-1.416-.097-3.364.46-4.778zM280.273 49.76C381.565 20.995 521.713 2.514 678.24 24.57c-12.77 1.297-36.75 9.622-48.17 4.14-10.217-2.992-29.066-1.78-20.747 6.37-9.962 2.828-24.645-5.736-33.464.505-3.12 3.12 13.43 7.696-2.004 7.14-15.65 1.857-13.917-10.645-29.292-7.73-16.86-.625-6.423-10.045 5.853-9.365 9.934-.04 9.797-4.12-.325-4.147-8.03-.923-35.49-4.745-22.216 3.562-4.69 2.726-25.255.826-12.02 5.996 6.935 6.686-19.533 4.182-15.91-1.583-10.868 1.06-17.066-1.038-9.037-5.427-13.645-.46-27.33 1.905-41.156 1.548-17.165 1.5-32.438 6.655-49.984 7.83-24-.12 1.688 14.006-16.152 18.308-11.15 3.614-25.304.432-37.228 2.99-14.045 1.502-28.518 3.447-37.83 9.665-8.67 3.448-32.567 7.378-26.925-2.966.377-3.142-.114-8.515-1.362-11.643zm791.73 196.445c-11.037-34.262-36.148-66.743-61.827-89.155-2.28-4.177-19.124-2.798-19.967 1.194-3.082 3.74 8.515 7.105 3.523 10.122-5.77.45-9.645 2.642-3.22 4.823 5.778 3.132 13.713 4.618 20.404 7.05 5.354 1.985 8.39 6.728-.678 7.262-7.092 2.092-4.368 7.722 3.196 8.566 6.224 1.732 14.617 1.172 19.383 4.204 4.585 3.98.27 9.008 4.797 13.045 4.482 4.104 2.99 8.883 4.758 13.333 1.634 5.052 2.786 10.67 10.538 14.304 4.542 2.985 12.576 3.765 19.09 5.25zm-52.33 170.34c11.267-2.956-15.78 10.428-21.41 16.34-3.87 4.058-8.176 7.353-13.63 10.215-6.602 3.462-7.73 5.092-15.574 7.147-9.804 2.573.637-7.483 1.948-8.172l15.57-8.17c5.43-2.848 8.8-6.165 11.684-9.19 4.06-4.264 11.02-5.992 21.41-8.17zm-87.597 29.618c3.492-3.67-8.584 7.357-15.572 9.19-8.092 2.124-11.677 5.264-11.677-3.063 0-3.33 8.128-8.352 11.677-10.216 5.428-2.846 11.755-4.615 17.52-6.127 5.832-1.528.474 7.04-1.948 10.216zm38.932-18.384c7.545-1.982-7.686 7.96-9.737 12.254-2.275 4.793-9.85 5.107-19.46 5.107-2.603 0-8.857 7.94-13.623 9.19-11.483 3.014-13.666 6.087-9.736 10.217 4.228 4.433 16.45-3.524 17.52-4.09 5.947-3.117 6.67-6.56 11.682-9.19l15.572-8.168c3.968-2.084 6.31-8.137 7.785-11.238.63-1.32-.002-2.72-.002-4.083zM259.006 533.074c150.746 47.968 340.875 54.364 505.768 15.887-10.773-1.713-30.146-4.89-44.998-2.758-14.728.475-19.218 13.853-38.942 9.274-11.755-6.313-30.33-2.62-42.826-6.88-8.49 1.645-16.954 6.272-22.09.96-15.42.308-28.42 6.532-43.15.604-18.715-4.31-22.188 4.302-11.135 7.277-16.02 1.88-34.727-2.668-44.404-9.224 2.477-5.01 3.236-13.626-11.422-10.46.5 6.8-12.657 10.27-19.154 12.73-12.917-8.815-26.33-1.247-37.93 3.594-15.99 1.432-30.463-6.432-46.85-2.327-11.427 2.408-22.04-1.314-18.972-7.915-10.868-.347-36.42-5.453-17.426-11.126-15.784-2.01-33.375-.195-46.327-6.49-5.796-3.384-34.282-5.728-17.734.554 14.947 1.298 24.844 14.13 2.452 11.796-16.273 1.345-30.153-13.377-44.862-5.497zm643.267-222.798c-5-.656-11.94-2.677-13.764-6.498-1.41-2.962 1.45-6.656 2.755-9.39 1.224-2.57-10.248.643-15.145 0-6.546-.86-5.482-3.653-8.258 2.167-2.076 4.36 1.336 6.542-1.374 9.387-1.478 1.55-10.335 3.255-12.388 4.333-5.943 3.12-1.522 5.702 1.374 7.224.29.15 13.16-4.094 13.767-4.335 5.864-2.307 7.967-1.86 11.01-5.054 2.283-2.395 13.505 4.918 13.767 5.055 5.837 3.064 8.256 2.767 8.256-2.888z"/><path fill="#5F5E64" d="M584.3 45.554c.178-1.08-1.714-3.614-2.655-3.486-1.197.163-.182 2.18 0 2.44 1.926 2.82 2.72 1.63 2.656 1.046z"/><path fill="#98989E" d="M918.465 214.408c.45.94 9.47 3.947 11.68 5.105 2.01 1.054 7.473 2.728 10.705 3.574 3.62.948 6.224 2.245 8.758 3.574 3.45 1.812 5.354 3.405 7.788 5.11 2.016 1.41 1.943 4.318 1.943 6.637 0 2.502-3.89 3.036-3.89 6.13 0 1.37 7.15-.823 7.783.51.85 1.78 3.542 3.717 4.866 5.104 2.68 2.81-.088 4.1-3.894 4.598-3.895.513-.082 4.638-2.917 6.13-3.226 1.688-5.036 2.04-10.71 2.04-7.545 0-2.252 3.2 0 4.086 3.447 1.355 3.892 3.367 3.892 4.597 0 3.913-14.208-3.102-14.6-3.573-2.435-2.985-8.71 2.504-8.757 2.552-2.853 2.994-4.095-1.827-2.92-3.062.903-.95 11.667-.766 13.625-1.023 4.14-.542-.034-4.637-1.947-6.638-1.172-1.228 5.252-.846 7.787-.513 3.52.463 2.304-3.76 4.867-5.105 3.707-1.947 2.476-4.088-2.92-4.088-6.235 0-7.59-.606-8.76-3.062-1.058-2.224-7.028-1.563-10.704-2.044-4.62-.606-7.445-1.1-10.22-2.555-3.1-1.623-4.288-2.353-5.356-4.595-1.042-2.188-2.04-4.797-2.92-6.638-1.468-3.09-1.022-4.14-2.92-6.127-2.444-2.57-3.79-2.608 0-4.6 3.82-1.998 4.578-2.737 9.738-6.122z"/><path fill="#E7E6E8" d="M931.275 235.47c-1.002.354-2.544.07-3.44-.633-.9-.703-.814-1.558.19-1.912s2.547-.07 3.447.633c.898.703.81 1.558-.197 1.912z"/><radialGradient id="j" cx="-167.061" cy="249.995" r="11.202" gradientTransform="matrix(2.6523 -.409 -.8084 -1.1376 1137.35 704.933)" gradientUnits="userSpaceOnUse"><stop offset="0" stop-color="#8C8C8C"/><stop offset=".673" stop-color="#8C8C8C"/><stop offset="1" stop-color="#8C8C8C" stop-opacity="0"/></radialGradient><path opacity=".596" fill="url(#j)" d="M521.85 484.31c5.025 7.026-4.183 14.783-20.568 17.325-16.387 2.54-33.745-1.095-38.767-8.12-.01-.017-.024-.033-.032-.047-5.027-7.028 4.183-14.784 20.566-17.327 16.385-2.54 33.742 1.097 38.766 8.124l.035.045z"/><path opacity=".85" fill="#FFF" d="M506.827 486.63c2.483 3.47-2.063 7.298-10.15 8.554-8.09 1.254-16.66-.543-19.138-4.01-.005-.01-.012-.018-.017-.022-2.48-3.47 2.066-7.3 10.15-8.553 8.09-1.257 16.66.54 19.14 4.01.006.004.008.012.014.02z"/><path fill="#A8A7AA" fill-opacity=".867" d="M450.814 210.614c-.215-8.816 4.516-17.466 2.75-26.358-1.672-9.657 4.735-19.384.826-28.922-7.265-3.254-6.037 10.403-6.333 13.845 3.81 7.876-7.207 15.947-.103 23.05 4.67 6.742-4.487 15.53-12.027 20.558-21.586.6-5.888-14.115-2.095-19.625.298-9.804-3.32-19.38-8.586-28.752-.47-4.616-11.5-18.56-9.275-6.276-1.472 8.64 5.48 16.58 7.138 25.016.07 8.66 1.26 17.693-2.543 26.068-9.095 2.764-37.075-.045-29.706-6.328 20.668-.152-20.635-13.74 5.372-14.95 9.678-1.49 18.248 4.38 18.254-4.27 8.738-12.425-19.608-8.612-30.105-4.165-1.866-5.515-.874-17.15-8.583-19.395-10.296 7.46 5.876 15.263 2.106 23.226-1.554 3.468 10.396 7.244-2.79 6.576 2.154 6.242 1.532 12.132-12.624 14.02-4.157 10.083-23.368 1.578-34.355-.17-4.5-9.836-29.642-2.04-38.44-10.056-4.364-3.25-14.626-3.678-4.054.3 12.873 6.78 34.516 7.74 43.174 16.9-14.936 1.508-28.045-6.313-42.378-8.444-5.154-2.795-35.46-5.295-16.145-.77 16.83 5.286 35.786 8.812 51.07 15.404-5.318 4.5-28.9-1.013-40.53-1.96-4.913 1.204 19.72 6.53 27.1 7.243-6.5 1.27-30.97 5.865-13.32 6.648 11.026 1.376 26.975-9.15 32.558-3.595-3.23 5.273-.134 9.4-3.703 14.008 3.09 4.588 31.368 8.683 9.04 9.845-9.252-.484-26.704 2.967-8.322 4.662 12.518-.36 30.58-.283 39.623-1.952-13.65 3.118-29.008 5.057-43.204 6.93-8.587-1.52-32.54-5.266-33.683-1.21 9.98 5.798 32.62 1.752 38.456 7.24-10.722-1.43-34.91-4.194-26.602 5.958-4.72 5.47-6.832 10.665 5.154 14.006 1.162 8.552 28.658 1.597 22.308 10.226 13.346 1.896 27.75 3.32 31.774 12.01 4.218 3.07 2.494 13.634 13.35 6.842-4.432-7.524-4.937-15.477-12.893-22.4-6.083-7.492 4.18 7.445 10.07 8.07 9.178 5.81 12.824-9.965 22.5-1.893 15.32 2.293-13.735-10.622 5.7-11.404 19.033-2.165 12.383 13.43 12.348 19.528.16 4.596-.304 10.923-11.754 5.914-15.407-2.585-4.43 6.886-12.732 9.762-3.54 7.018 7.603 14.874 18.57 7.237 5.795 7.982 17.485 13.73 30.65 18.024 10.565 5.112 14.772 11.61 10.4 18.883 9.31.313 11.267-8.575 23.245-7.893 6.435-6.95-.107-17.822-13.63-20.563-9.733-5.284 18.055-5.006 13.162-12.535 4.728-3.99.81-18.14-7.578-10.664 7.647 5.46-2.652 13.284-5.85 4.165 7.907-7.042-4.942-10.434-11.374-14.558 4.233-10.286-14.003-17.48-5.085-27.747 1.083-3.633 10.577 5.077 18.09 2.945 14.978 1.565 30.38 1.068 45.536 1.813 23.098-.995-12.17-9.416-20.6-8.613-13.6 2.88-27.842.356-38.78-4.21-20.1-6.062 13.55-9.106 22.505-5.58 10.828 2.192 17.495 10.347 25.68 11.457 10.085-4.81 4.29-14.587 18.72-16.26.06-4.603-26.41-9.81-3.766-10.746 16.71-6.044-15.277-6.784-22.322-9.344 2.18-5.057 23.243-10.328 7.66-16.314-11.78-.208-8.888-10.666-19.583-4.03-18.928 6.462-2.12-7.59-4.207-9.59-5.938-1.68-10.386 2.083-15.23 3.166z"/><path fill="#B9B8BA" d="M412.273 228.672c-5.47-3.97-9.875-9.448-20.17-10.338-6.792-1.234-15.384-.592-17.454 3.58-3.098 4.168 11.416 2.765 15.817 4.247 3.745 2.12 9.858 5.13 9.61 7.78-6.962 1.798-14.36 3.555-22.332 3.375-7.82 1.058-11.443-3.288-14.15-6.26-3.507-3.808-11.244-6.455-11.772-10.96.367-2.836-3.862-9.55-8.297-3.997-3.742 3.427.456 6.984 4.582 9.64 4.176 3.785-9.716 3.223-10.726 6.48-3.57 4.134 3.28 8.916 11.54 9.117 4.28.363 19.265-.203 11.41 3.307-4.445.38-7.95 2.045-1.275 2.53 6.754 1.73 21.226-.665 21.133 4.98-5.97 2.962-15.338 4.615-17.275 9.297-2.407 2.593-3.67 8.692 5.194 6.438 4.69-.328 8.642-7.693 8.366-2.13.46 3.714-2.532 8.4 3.615 11.223 4.245.822 11.798-4.1 9.698.924-2.532 2.786-.015 5.744 6.3 3.765 8.95-3.372 7.96 6.212 17.562 5.497 9.458.794 6.927-5.054 2.183-7.038-6.815-.698-10.476-3.668-10.304-7.272-2.1-3.623-15.193.68-15.49-4.155.975-3.307 4.54-8.286-5.4-8.462-10.474-1.782 4.907-5.315 9.654-5.725 9.087-.965 19.36 1.688 27.57-1.45 7.49-2.03 14.316-5.522 23.357-5.15 6.49 1.514 13.87 1.283 20.194 2.84 4.62 1.99 8.02 5.234 14.698 5.43 4.317.697 14.2 1.69 8.953-2.25-2.747-3.472-9.528-4.774-15.42-6.328-3.747-1.356-14.055-4.742-3.395-4.485 7.527 1.084 13.104-.783 10.842-5.06 1.91-4.26-12.677-4.76-12.24-.712-1.188 3.522-4.327 8.008-11.98 8.567-8.25.28-16.7-.416-24.506-1.77-4.513-1.78-11.97-7.236-1.727-7.442 4.375-.673 14.667-1.565 7.475-4.617-3.86-2.972-12.95-3.47-14.376-7.31 2.594-3.948-6.54-8.374-9.748-3.03-1.457 2.216-1.683 4.596-1.72 6.924z"/><path fill="#E5E5E6" d="M413.65 238.06c.266-1.1-2.16-1.436-3.757-1.12-5.196.64-9.834 2.28-15.205 2.56-3.36-.104-6.163 1.196-7.66 2.67-1.508 1.507-2.71 3.183-2.655 4.903.042 1.506 2.322 2.687 4.88 3.18 3.536.7 7.274 1.06 10.92 1.563 5.69.685 11.63.88 17.43.51 2.955-.182 5.786-1.012 7.306-2.38 1.963-1.548 3.187-3.528 1.92-5.346-.9-1.388-2.532-2.602-3.832-3.888-2.307-1.294-5.668-1.847-8.7-2.518l-.647-.134z"/><path fill="#A8A7AA" fill-opacity=".867" d="M289.77 236.614c-8.004-10.766-32.65-14.772-15.138-28.164-37.354-3.048-3.15-15.798-26.8-26.725 19.566-.055 30.5 11.448 19.397-5.05 11.484-14.76 28.09 5.224 47.462-7.025 37.68-5.74 7.713-18.168-16.664-9.59-18.554 4.76-50.632-4.864-12.388-5.775 47.613-6.678-7.71-16.234-29.545-14.657-26.28-.042 15.355-32.65-16.943-17.995 11.33 26.16-67.175 11.076-62.243 22.542 25.824 6.983-42.944 16.302-50.93 28.165-16.8 8.188-45.433 23.52-6.88 8.665 33.335-5.184 79.155-41.4 104.388-22.855-17.215 14.575-33.954 30.377-68.417 16.8-22.01 8.892 45.86 8.332 14.81 23.71-2.712 21.09 27.88-18.787 23.242 5.842 8.606-18.58 10.937-3.924 21.505-1.624 39.29-12.193 12.06 11.98-10.082 15.85-49.35 13.85 50.978 18.394 6.685 29.435-5.046 7.49-93.932-.884-39.83 6.507 26.78-1.714 49.566 2.798 11.038 6.124-30.044 21.187 37.44-5.606 37.43 10.926 2.922 12.268 42.41 19.26 24.565.247 6.74-18.463 19.34 6.624 18.463 7.065 11.74-12.75 30.982-27.14 26.875-42.418z"/><path fill="#B9B8BA" d="M284.268 244.56c-4 .64-7.97 2.376-12.33 1.693-4.216-.765-.693-4.16-5.046-4.518-4.213-.68-7.724-2.7-7.398-5.12.04-1.807.15-5.19-4.954-4.82-3.786.084-9.084.89-7.967 3.47.196 2.07 2.444 4.018 1.952 6.097-2.774 1.884-7.844-2.13-10.073.425-1.753 1.622-3.395 3.99-7.81 3.677-2.297.245-5.59-.754-7.203-.435 2.536 1.583 5.54 2.963 8.403 4.37 1.032 2.48-5.653 2.214-8.704 2.66-5.077.53-10.35.196-15.37.86-3.986.347-1.255 1.872 1.35 1.657 8.03.41 16.003-.513 23.778-1.407 4.214.736 3.51 3.703 4.582 5.562.227 1.305 1.85 2.935 2.54 3.812-.59-2.438 7.354-1.878 8.275-.027.475 1.176 2.693 2.48 3.29.552.96-1.38 1.567-5.22 5.674-3.464 2.497 1.195 2.716 3.255 4.596 4.5 2.494-1.374 2.825-3.485 4.098-5.225.873-2.05 5.7-1.984 8.835-1.833 3.434-.075 7.897 1.058 10.702.145-2.494-1.88-6.708-2.904-9.966-4.387-1.788-.573-3.2-1.383-.053-1.24 5.35-.3 10.864-.36 16.148-.567-5.172-.816-10.62-1.164-15.978-1.434 1.036-1.728 4.644-2.84 6.987-4.176.548-.275 1.128-.535 1.638-.83z"/><path fill="#F3F3F4" d="M222.33 173.784c-7.295-.423-11.812.12-15.143 3.61-.165.176-11.333 3.78-12.388 4.333-7.093 3.72 3.376.394 5.506-.723 2.825-1.48 13.995-.722 19.27-.722 6.83 0 4.962-3.604 2.755-6.498z"/><path fill="#E5E5E6" d="M223.704 165.118c1.884 0 5.38 6.662-6.88 5.054-4.952-.648-.178-7.034 0-7.22 1.196-1.257 4.59 1.444 6.88 2.166zM256.737 247.447c.303-.315-14.14 5.054 1.378 5.054 6.35 0 .648-3.284-1.378-5.053z"/><radialGradient id="k" cx="-1780.751" cy="302.151" r="350.797" gradientTransform="matrix(1.5383 0 0 -.8165 3279.76 534.14)" gradientUnits="userSpaceOnUse"><stop offset="0" stop-color="#FFF" stop-opacity=".408"/><stop offset=".5" stop-color="#DBDBDC" stop-opacity="0"/><stop offset=".82" stop-color="#121212" stop-opacity=".122"/><stop offset=".906" stop-color="#121212" stop-opacity=".357"/><stop offset="1" stop-color="#121212" stop-opacity=".755"/></radialGradient><path fill="url(#k)" d="M1080 287.432c.012 158.187-241.577 286.426-539.606 286.435C242.366 573.87.757 445.644.742 287.46v-.028C.728 129.25 242.315 1.007 540.344 1 838.372.993 1079.984 129.222 1080 287.405v.027z"/></svg>