<svg xmlns="http://www.w3.org/2000/svg" viewBox="0 0 375.80121 917.5802" width="375.801" height="917.58"><rect width="16.601" height="24.506" x="223.811" y="627.702" ry=".118" fill="#ccc"/><g fill-rule="evenodd"><path d="M213.353 665.072s-5.436 43.56-9.256 83.52c-3.82 39.965-1.952 75.916-1.266 78.956.687 3.04 5.194-9.272 7.206-18.803 2.013-9.532 1.58-48.35 2.894 15.898 1.313 64.248 4.23 101.777 6.08 89.995 6.682-19.592 9.275-111.117 13.262-74.99 3.988 36.124 9.35 102.94 10.842 41.904 1.493-61.036-1.552-105.29 3.923-79.483 5.475 25.804 8.23 61.082 10.765 27.727 2.535-33.356-2.453-124.812-4.653-163.777-6.824-10.252-21.777-24.094-39.798-.953z" fill="#ff0"/><path d="M215.515 661.53s-4.717 36.784-8.03 70.532c-3.315 33.748-1.694 64.11-1.1 66.676.595 2.566 4.506-7.83 6.253-15.88 1.746-8.048 1.37-40.83 2.51 13.427 1.14 54.257 3.67 85.95 5.277 76 5.797-16.546 8.047-93.837 11.507-63.33 3.46 30.508 8.112 86.933 9.408 35.39 1.295-51.545-1.348-88.916 3.403-67.123 4.75 21.79 7.142 51.584 9.342 23.415 2.2-28.17-2.13-105.402-4.038-138.308-5.92-8.658-18.895-20.347-34.533-.805z" fill="#ff4000"/><path d="M219.774 657.832s-3.52 26.755-5.99 51.3c-2.472 24.546-1.264 46.628-.82 48.495.444 1.866 3.36-5.695 4.663-11.55 1.303-5.854 1.023-29.697 1.873 9.766.85 39.462 2.737 62.512 3.936 55.275 4.324-12.033 6.002-68.25 8.583-46.06 2.58 22.188 6.05 63.228 7.016 25.74.966-37.49-1.005-64.67 2.54-48.82 3.542 15.85 5.326 37.517 6.966 17.03 1.64-20.488-1.587-76.66-3.01-100.594-4.417-6.297-14.095-14.798-25.76-.585z" fill="red"/></g><g transform="translate(495.346 145.49)"><rect ry=".118" y="486.767" x="-274.906" height="24.111" width="8.696"/><rect transform="rotate(90)" ry=".118" y="250.795" x="502.183" height="24.111" width="8.696"/><rect ry=".118" y="486.744" x="-259.468" height="24.111" width="8.696"/></g><rect width="14.229" height="19.763" x="139.225" y="630.864" ry=".118" fill="#ccc"/><path d="M100.357 577.108l15.968 51.258 57.572.742 15.79-52.11z" fill="#ccc" fill-rule="evenodd"/><path d="M187.013 4.547C161.863 29.09-31.45 234.794 114.98 628.717h146.414c146.43-393.92-46.882-599.594-72.033-624.14l-2.347-.03z" fill="#ececec" fill-rule="evenodd" stroke="#000" stroke-width="9.045"/><path d="M94.28 166.553L127.87 86.7l46.87-68.732 13.28-13.14 49.994 67.722 39.058 81.873 3.124 17.184-186.697-1.01" stroke="#000" stroke-width=".88" fill="none"/><path d="M68.22 470.56s-107.076-1.334-42.427 270.72c0 0 6.06-227.16 62.63-199.154M307.58 471.678s107.078-1.334 42.428 270.72c0 0-6.06-227.16-62.63-199.154" fill="red" fill-rule="evenodd" stroke="#000" stroke-width="10"/><path d="M331.918 500.95l-18.062 46.24-11.628-7.272-11.852 3.572 17.158-69.36 33.868 14.93s50.12 38.708 8.578 227.37c24.384-195.135-18.965-215.48-18.062-215.48zM22.763 738.25s-10.06-220.368 58.59-221.223c7.574-.094 7.07 24.244 7.07 24.244l-27.274 6.06-21.214 66.672L22.763 738.25z" fill="#d20000" fill-rule="evenodd"/><path d="M257.566 624.048s115.505-214.55 24.582-450.75c31.694 362.16-163.97 450.89-163.97 450.89zM278.582 164.508S248.732 63.202 187.668 10.46c55.89 127.56 2.315 153.77 2.315 153.77z" fill="#ccc" fill-rule="evenodd"/><path d="M95.67 159.903h185.68" fill="none" stroke="red" stroke-width="8.844"/><path d="M92.874 564.61h191.273" fill="none" stroke="red" stroke-width="9.235"/><path d="M69.465 446.747v-4.302h240.227v8.604H69.464v-4.303z" fill="red" stroke="red" stroke-width=".883"/><path d="M186.46 4.537C161.416 29.08-31.064 234.79 114.735 628.727H260.52C406.318 234.793 213.84 29.114 188.797 4.57l-2.338-.033z" fill="none" stroke="#000" stroke-width="9.025"/><path d="M90.463 168.524h194.903" fill="none" stroke="#000" stroke-width="9.061"/><path d="M97.89 573.735h181.77" fill="none" stroke="#000" stroke-width="9.003"/><path d="M305.58 471.634s109.313-1.054 44.664 271c0 0-6.06-227.16-62.63-199.154M68.22 470.56s-107.076-1.334-42.427 270.72c0 0 6.06-227.16 62.63-199.154" fill="none" stroke="#000" stroke-width="10"/><path d="M92.736 151.798h185.68" fill="none" stroke="#000" stroke-width="8.844"/><path d="M92.594 556.784h191.274" fill="none" stroke="#000" stroke-width="9.235"/><path d="M66.142 437.698h240.286" fill="none" stroke="#000" stroke-width="10.351"/><path d="M71.675 456.718h231.59" fill="none" stroke="#000" stroke-width="10.162"/><g transform="matrix(.75 0 0 .75 483.8 254.44)"><path d="M-363.165-55.19a31.82 31.82 0 0 1-63.64 0 31.82 31.82 0 1 1 63.64 0z" fill="#b3b3b3" stroke="#000" stroke-width="4" stroke-linecap="round"/><ellipse cx="-394.519" cy="-56.761" rx="20.749" ry="20.19" fill="#fff" stroke="#fff" stroke-width=".867"/><path d="M-373.085-55.54a21.74 21.46 0 1 1-43.48 0 21.74 21.46 0 1 1 43.48 0z" fill="none" stroke="#000" stroke-width="4.172" stroke-linecap="round"/></g><g transform="matrix(.75 0 0 .75 484.06 308.13)"><path d="M-363.165-55.19a31.82 31.82 0 0 1-63.64 0 31.82 31.82 0 1 1 63.64 0z" fill="#b3b3b3" stroke="#000" stroke-width="4" stroke-linecap="round"/><ellipse cx="-394.519" cy="-56.761" rx="20.749" ry="20.19" fill="#fff" stroke="#fff" stroke-width=".867"/><path d="M-373.085-55.54a21.74 21.46 0 1 1-43.48 0 21.74 21.46 0 1 1 43.48 0z" fill="none" stroke="#000" stroke-width="4.172" stroke-linecap="round"/></g><g transform="matrix(.75 0 0 .75 484.06 361.88)"><path d="M-363.165-55.19a31.82 31.82 0 0 1-63.64 0 31.82 31.82 0 1 1 63.64 0z" fill="#b3b3b3" stroke="#000" stroke-width="4" stroke-linecap="round"/><ellipse cx="-394.519" cy="-56.761" rx="20.749" ry="20.19" fill="#fff" stroke="#fff" stroke-width=".867"/><path d="M-373.085-55.54a21.74 21.46 0 1 1-43.48 0 21.74 21.46 0 1 1 43.48 0z" fill="none" stroke="#000" stroke-width="4.172" stroke-linecap="round"/></g><g transform="matrix(.75 0 0 .75 484.06 415.64)"><path d="M-363.165-55.19a31.82 31.82 0 0 1-63.64 0 31.82 31.82 0 1 1 63.64 0z" fill="#b3b3b3" stroke="#000" stroke-width="4" stroke-linecap="round"/><ellipse cx="-394.519" cy="-56.761" rx="20.749" ry="20.19" fill="#fff" stroke="#fff" stroke-width=".867"/><path d="M-373.085-55.54a21.74 21.46 0 1 1-43.48 0 21.74 21.46 0 1 1 43.48 0z" fill="none" stroke="#000" stroke-width="4.172" stroke-linecap="round"/></g><g><g fill-rule="evenodd"><path d="M126.395 665.862s-5.436 43.56-9.256 83.522c-3.82 39.963-1.953 75.915-1.267 78.955.686 3.037 5.193-9.273 7.205-18.805 2.013-9.53 1.58-48.35 2.894 15.9 1.313 64.247 4.23 101.776 6.08 89.994 6.682-19.594 9.275-111.118 13.262-74.992 3.988 36.124 9.35 102.94 10.842 41.904 1.493-61.035-1.552-105.288 3.923-79.482 5.474 25.805 8.23 61.083 10.764 27.727 2.535-33.356-2.453-124.81-4.653-163.777-6.822-10.252-21.775-24.093-39.796-.952z" fill="#ff0"/><path d="M128.557 662.32s-4.717 36.785-8.03 70.532c-3.315 33.75-1.694 64.11-1.1 66.677.595 2.565 4.506-7.83 6.253-15.88 1.746-8.05 1.37-40.832 2.51 13.425 1.14 54.257 3.67 85.95 5.277 76 5.797-16.545 8.047-93.836 11.507-63.33 3.46 30.508 8.112 86.934 9.408 35.39 1.295-51.545-1.348-88.916 3.403-67.123 4.75 21.792 7.142 51.584 9.342 23.416 2.2-28.17-2.13-105.402-4.038-138.308-5.92-8.658-18.896-20.347-34.534-.804z" fill="#ff4000"/><path d="M132.816 658.622s-3.52 26.755-5.99 51.3c-2.472 24.546-1.264 46.628-.82 48.495.444 1.867 3.36-5.694 4.663-11.55 1.302-5.853 1.022-29.696 1.872 9.766.85 39.462 2.737 62.513 3.936 55.276 4.324-12.035 6.002-68.25 8.583-46.06 2.582 22.187 6.05 63.226 7.018 25.737.966-37.49-1.005-64.67 2.54-48.82 3.542 15.85 5.326 37.52 6.966 17.03 1.64-20.486-1.587-76.66-3.01-100.592-4.417-6.297-14.095-14.8-25.76-.585z" fill="red"/></g></g><g transform="translate(408.8 146.27)"><rect ry=".118" y="486.767" x="-274.906" height="24.111" width="8.696"/><rect transform="rotate(90)" ry=".118" y="250.795" x="502.183" height="24.111" width="8.696"/><rect ry=".118" y="486.744" x="-259.468" height="24.111" width="8.696"/></g></svg>