<svg xmlns="http://www.w3.org/2000/svg" width="375.801" height="917.58" viewBox="0 0 375.801 917.58"><path fill="#CCC" d="M223.93 627.7h16.364c.065 0 .118.055.118.12v24.27c0 .065-.053.118-.118.118H223.93c-.065 0-.118-.053-.118-.118v-24.27c0-.065.053-.12.118-.12z"/><path d="M220.56 632.258h8.458c.065 0 .118.053.118.118v23.874c0 .065-.053.12-.118.12h-8.46c-.064 0-.118-.055-.118-.12v-23.874c0-.065.053-.118.12-.118z"/><path d="M244.55 647.792v8.46c0 .064-.052.118-.117.118H220.56c-.066 0-.12-.054-.12-.12v-8.458c0-.065.054-.118.12-.118h23.873c.065 0 .118.052.118.118z"/><path d="M235.996 632.235h8.46c.064 0 .118.054.118.12v23.873c0 .065-.054.118-.12.118h-8.458c-.065 0-.118-.053-.118-.118v-23.874c0-.065.053-.12.118-.12z"/><path fill="#CCC" d="M139.343 630.863h13.993c.065 0 .118.054.118.12v19.525c0 .065-.053.118-.118.118h-13.993c-.065 0-.118-.053-.118-.118v-19.526c0-.065.053-.12.118-.12z"/><g><path fill="#CCC" d="M100.357 577.108l15.97 51.258 57.57.742 15.79-52.11-89.33.11z"/><path fill="#ECECEC" stroke="#000" stroke-width="9.045" d="M187.013 4.547C161.863 29.09-31.45 234.794 114.98 628.717h146.414c146.43-393.92-46.882-599.594-72.032-624.14l-2.35-.03z"/><path stroke="#000" stroke-width=".88" d="M94.28 166.553L127.87 86.7l46.87-68.732 13.28-13.14 49.994 67.723 39.058 81.874 3.125 17.183-186.698-1.01" fill="none"/><path fill="#F00" stroke="#000" stroke-width="10" d="M68.22 470.56s-107.076-1.334-42.427 270.72c0 0 6.062-227.16 62.63-199.154M307.58 471.678s107.077-1.334 42.428 270.72c0 0-6.062-227.16-62.63-199.153"/><path fill="#D20000" d="M331.918 500.95l-18.063 46.24-11.627-7.272-11.854 3.572 17.16-69.36 33.866 14.93s50.12 38.71 8.578 227.37c24.386-195.135-18.963-215.48-18.06-215.48zM22.763 738.25s-10.06-220.368 58.59-221.223c7.574-.095 7.07 24.243 7.07 24.243l-27.274 6.06-21.214 66.672L22.763 738.25z"/><path fill="#CCC" d="M257.566 624.048s115.505-214.55 24.582-450.75c31.694 362.16-163.97 450.89-163.97 450.89l139.388-.14zM278.582 164.508S248.732 63.202 187.668 10.46c55.89 127.56 2.314 153.768 2.314 153.768l88.6.28z"/><path fill="none" stroke="#F00" stroke-width="8.844" d="M95.67 159.903h185.68"/><path fill="none" stroke="#F00" stroke-width="9.235" d="M92.873 564.61h191.274"/><path fill="#F00" stroke="#F00" stroke-width=".883" d="M69.465 446.747v-4.302H309.69v8.604H69.464v-4.303z"/><path fill="none" stroke="#000" stroke-width="9.025" d="M186.46 4.537C161.416 29.08-31.064 234.79 114.735 628.727H260.52c145.798-393.934-46.682-599.614-71.724-624.16l-2.337-.03z"/><path fill="none" stroke="#000" stroke-width="9.061" d="M90.463 168.524h194.903"/><path fill="none" stroke="#000" stroke-width="9.003" d="M97.89 573.735h181.77"/><path fill="none" stroke="#000" stroke-width="10" d="M305.58 471.634s109.314-1.054 44.663 271c0 0-6.06-227.16-62.63-199.153M68.22 470.56s-107.076-1.334-42.427 270.72c0 0 6.062-227.16 62.63-199.154"/><path fill="none" stroke="#000" stroke-width="8.844" d="M92.736 151.798h185.68"/><path fill="none" stroke="#000" stroke-width="9.235" d="M92.594 556.784h191.273"/><path fill="none" stroke="#000" stroke-width="10.351" d="M66.142 437.698h240.286"/><path fill="none" stroke="#000" stroke-width="10.162" d="M71.675 456.72h231.59"/><g transform="matrix(.75 0 0 .75 483.8 254.44)"><path fill="#B3B3B3" stroke="#000" stroke-width="4" stroke-linecap="round" d="M-363.165-55.19c-.016 17.575-14.273 31.808-31.848 31.793-17.552-.015-31.777-14.24-31.792-31.792-.016-17.573 14.22-31.83 31.792-31.846 17.574-.015 31.832 14.22 31.848 31.793v.054z"/><ellipse fill="#FFF" stroke="#FFF" stroke-width=".867" cx="-394.519" cy="-56.761" rx="20.749" ry="20.19"/><path fill="none" stroke="#000" stroke-width="4.172" stroke-linecap="round" d="M-373.084-55.54c.012 11.85-9.71 21.47-21.72 21.48-12.005.013-21.748-9.585-21.76-21.437v-.044c0-11.853 9.732-21.46 21.74-21.46 12.006 0 21.74 9.607 21.74 21.46z"/></g><g transform="matrix(.75 0 0 .75 484.06 308.13)"><path fill="#B3B3B3" stroke="#000" stroke-width="4" stroke-linecap="round" d="M-363.165-55.19c-.016 17.575-14.273 31.81-31.848 31.794-17.552-.015-31.777-14.24-31.793-31.793-.014-17.573 14.22-31.83 31.793-31.845 17.574-.015 31.832 14.22 31.848 31.792v.054z"/><ellipse fill="#FFF" stroke="#FFF" stroke-width=".867" cx="-394.519" cy="-56.761" rx="20.749" ry="20.19"/><path fill="none" stroke="#000" stroke-width="4.172" stroke-linecap="round" d="M-373.085-55.54c.013 11.85-9.71 21.47-21.717 21.48-12.006.013-21.75-9.585-21.762-21.437v-.044c0-11.853 9.733-21.462 21.74-21.462 12.006 0 21.74 9.61 21.74 21.46z"/></g><g transform="matrix(.75 0 0 .75 484.06 361.88)"><path fill="#B3B3B3" stroke="#000" stroke-width="4" stroke-linecap="round" d="M-363.165-55.19c-.016 17.575-14.273 31.81-31.848 31.794-17.552-.014-31.777-14.24-31.793-31.793-.014-17.572 14.22-31.83 31.793-31.845 17.574-.015 31.832 14.22 31.848 31.793v.053z"/><ellipse fill="#FFF" stroke="#FFF" stroke-width=".867" cx="-394.519" cy="-56.761" rx="20.749" ry="20.19"/><path fill="none" stroke="#000" stroke-width="4.172" stroke-linecap="round" d="M-373.085-55.54c.013 11.85-9.71 21.47-21.717 21.48-12.006.014-21.75-9.585-21.762-21.437v-.044c0-11.854 9.733-21.462 21.74-21.462 12.006 0 21.74 9.608 21.74 21.46z"/></g><g transform="matrix(.75 0 0 .75 484.06 415.64)"><path fill="#B3B3B3" stroke="#000" stroke-width="4" stroke-linecap="round" d="M-363.165-55.19c-.016 17.575-14.273 31.81-31.848 31.794-17.552-.014-31.777-14.24-31.793-31.793-.014-17.572 14.22-31.83 31.793-31.845 17.574-.016 31.832 14.22 31.848 31.793v.053z"/><ellipse fill="#FFF" stroke="#FFF" stroke-width=".867" cx="-394.519" cy="-56.761" rx="20.749" ry="20.19"/><path fill="none" stroke="#000" stroke-width="4.172" stroke-linecap="round" d="M-373.085-55.54c.013 11.85-9.71 21.47-21.717 21.48-12.006.014-21.75-9.585-21.762-21.437v-.044c0-11.854 9.733-21.462 21.74-21.462 12.006 0 21.74 9.608 21.74 21.46z"/></g></g><g><path d="M134.007 633.038h8.46c.064 0 .117.053.117.118v23.874c0 .065-.053.118-.118.118h-8.46c-.064 0-.117-.053-.117-.118v-23.874c0-.066.052-.118.117-.118z"/><path d="M158 648.57v8.46c0 .065-.053.118-.118.118h-23.874c-.065 0-.118-.053-.118-.118v-8.46c0-.064.053-.117.118-.117h23.874c.065 0 .12.052.12.118z"/><path d="M149.446 633.014h8.46c.064 0 .117.053.117.118v23.875c0 .065-.053.118-.118.118h-8.46c-.064 0-.117-.053-.117-.118v-23.875c0-.065.052-.118.118-.118z"/></g></svg>