<svg xmlns="http://www.w3.org/2000/svg" xmlns:xlink="http://www.w3.org/1999/xlink" viewBox="0 0 800.00001 800.00001" height="800" width="800"><defs><linearGradient id="a"><stop offset="0"/><stop offset="1" stop-opacity="0"/></linearGradient><linearGradient gradientUnits="userSpaceOnUse" y2="708.571" x2="121.429" y1="440" x1="371.429" id="c" xlink:href="#a"/><mask id="d" maskUnits="userSpaceOnUse"><circle style="isolation:auto;mix-blend-mode:normal" cx="400" cy="652.362" r="400" color="#000" overflow="visible" solid-color="#000000" fill="#fff" stroke-width="100"/></mask><mask id="b" maskUnits="userSpaceOnUse"><circle style="isolation:auto;mix-blend-mode:normal" cx="400" cy="400" r="400" color="#000" overflow="visible" solid-color="#000000" fill="#fff" stroke-width="100"/></mask></defs><g transform="translate(0 -252.362)"><circle r="400" cy="652.362" cx="400" style="isolation:auto;mix-blend-mode:normal" color="#000" overflow="visible" solid-color="#000000" fill="#1c8adb"/><path mask="url(#b)" transform="translate(0 252.362)" d="M276.508 248.855v.002c-21.19 0-39.73 4.342-55.623 13.03-11.7 6.395-21.958 14.174-30.787 23.326L4.078 471.233c33.59 183.306 142.2 287.54 316.73 322.288 96.683-95.164 193.2-190.435 287.233-287.795 1.013-.975 2.007-1.97 2.98-2.983 2.987-2.872 5.812-5.912 8.466-9.13 9.96-12.08 17.48-25.964 22.565-41.645 5.298-15.68 7.95-31.888 7.95-48.63 0-19.495-3.178-37.827-9.535-54.99-6.357-16.954-15.47-31.79-27.336-44.503-11.656-12.503-25.854-22.46-42.595-29.877-16.53-7.205-34.967-10.81-55.31-10.81-7.522.06-14.77.527-22.053 1.68-.025.002-.047.01-.07.01-.01.003-.02.003-.028.005-15.403 2.465-29.212 7.622-41.424 15.472-8.162 5.646-15.462 12.013-22.128 18.897l-72.432 72.423 37.41-59.188c-3.53-4.958-7.267-9.753-11.254-14.346-.087-.1-.166-.207-.254-.307-8.476-9.748-18.114-18.33-28.922-25.746-10.595-7.205-22.36-12.928-35.287-17.166-12.926-4.026-27.018-6.035-42.275-6.035z" style="line-height:125%;-inkscape-font-specification:'Francois One'" font-family="Francois One" letter-spacing="0" word-spacing="0" opacity=".42" fill="url(#c)"/><path mask="url(#d)" style="line-height:125%;-inkscape-font-specification:'Francois One'" d="M276.51 501.22c-21.192 0-39.73 4.34-55.625 13.03-15.893 8.687-29.14 19.92-39.735 33.694-10.384 13.986-18.115 29.667-23.2 47.043-5.298 17.377-7.95 34.86-7.95 52.447 0 20.555 3.178 40.157 9.535 58.805 6.57 18.86 16.107 35.496 28.61 49.906 12.502 14.41 27.97 25.85 46.406 34.326 18.437 8.69 39.734 13.035 63.892 13.035 14.834 0 28.288-2.333 40.367-6.995 1.742-.66 3.458-1.368 5.154-2.097.42-.18.834-.37 1.252-.556 1.288-.57 2.563-1.16 3.823-1.77.458-.222.914-.446 1.37-.674 1.305-.653 2.595-1.332 3.87-2.028.292-.158.586-.313.875-.474 1.58-.878 3.137-1.784 4.67-2.73l.043-.027c4.285-2.645 8.395-5.543 12.318-8.715 10.17-8.052 19.39-17.378 27.655-27.973 30.453-37.63 43.683-77.42 68.978-111.253 4.662-5.934 9.853-11.444 15.574-16.53 5.722-4.874 12.183-9.008 19.388-12.398 3.783-1.622 7.817-2.826 12.097-3.62.118-.022.242-.038.36-.06.913-.163 1.833-.315 2.768-.442 1.042-.14 2.096-.26 3.165-.355 1.076-.096 2.17-.168 3.274-.216 1.136-.05 2.286-.075 3.45-.075 6.147 0 11.763 1.27 16.85 3.812 5.297 2.755 9.744 6.358 13.347 10.808 3.815 4.662 6.78 9.96 8.9 15.893 2.118 6.145 3.18 12.612 3.18 19.393 0 7.63-1.168 14.728-3.5 21.297-2.118 6.57-5.19 12.186-9.216 16.848-4.026 4.874-8.898 8.583-14.62 11.126-5.51 2.753-11.55 4.13-18.12 4.13-9.748 0-18.86-2.758-27.338-8.268-1.654-1.103-3.235-2.247-4.805-3.392-1.4-1.037-2.775-2.09-4.12-3.155-.004-.003-.01-.005-.016-.01-4.613-3.66-8.87-7.493-12.673-11.558-1.75-1.856-3.452-3.797-5.128-5.78l-36.527 57.785c2.617 3.29 5.375 6.514 8.284 9.658 1.67 1.808 3.394 3.542 5.133 5.253 1.124 1.106 2.278 2.17 3.43 3.236.758.7 1.517 1.4 2.287 2.086 1 .89 2.014 1.762 3.036 2.62 1.09.92 2.193 1.817 3.306 2.703.805.638 1.604 1.287 2.42 1.908 2.01 1.53 4.048 3.022 6.133 4.444 9.536 6.357 19.6 11.336 30.196 14.938 10.808 3.815 22.04 5.722 33.696 5.722 18.648 0 35.18-3.71 49.59-11.125 14.62-7.205 26.91-16.844 36.87-28.923 9.96-12.08 17.48-25.963 22.565-41.645 5.298-15.682 7.95-31.888 7.95-48.63 0-19.495-3.178-37.827-9.535-54.992-6.357-16.952-15.47-31.788-27.337-44.503-11.655-12.502-25.853-22.46-42.594-29.877-16.53-7.205-34.967-10.807-55.31-10.807-2.727 0-5.398.097-8.04.238-.828.044-1.658.088-2.477.145-.517.037-1.033.072-1.547.114-1.307.106-2.603.235-3.89.377-.392.044-.79.083-1.18.13-1.656.198-3.298.416-4.918.674-.025.003-.047.01-.07.01l-.028.006c-15.403 2.465-29.212 7.622-41.424 15.472-51.026 35.293-68.696 98.555-104.575 142.72-3.814 4.45-8.16 8.898-13.035 13.348-4.874 4.45-10.278 8.372-16.21 11.762-4.118 2.353-8.453 4.38-12.977 6.12-.003.003-.01.004-.01.006-1.994.767-4.012 1.494-6.084 2.14-6.782 2.12-13.988 3.178-21.616 3.178-10.172 0-18.86-1.802-26.065-5.404-6.994-3.39-12.716-7.944-17.167-13.666-4.238-5.72-7.415-12.294-9.534-19.71-1.91-7.206-2.86-14.624-2.86-22.253 0-8.264 1.164-15.995 3.495-23.2 2.543-6.993 6.358-13.14 11.444-18.44 5.085-5.085 11.652-9.107 19.705-12.074 8.053-2.967 17.697-4.455 28.928-4.455 13.138 0 24.897 2.333 35.28 6.995 2.184 1.005 4.257 2.04 6.305 3.08.83.424 1.665.847 2.47 1.278.742.393 1.44.8 2.163 1.198 2.224 1.234 4.388 2.48 6.446 3.76 3.437 2.133 6.698 4.312 9.637 6.578 3.38 2.64 6.61 5.427 9.696 8.36l37.41-59.19c-3.53-4.956-7.268-9.752-11.255-14.344-.087-.1-.166-.207-.253-.307-8.476-9.748-18.115-18.33-28.923-25.747-10.596-7.204-22.36-12.927-35.287-17.165-12.926-4.027-27.018-6.035-42.276-6.035z" font-family="Francois One" letter-spacing="0" word-spacing="0" fill="#fff"/></g></svg>