<?xml version="1.0" encoding="UTF-8" standalone="no"?>
<svg
   xmlns:dc="http://purl.org/dc/elements/1.1/"
   xmlns:cc="http://creativecommons.org/ns#"
   xmlns:rdf="http://www.w3.org/1999/02/22-rdf-syntax-ns#"
   xmlns:svg="http://www.w3.org/2000/svg"
   xmlns="http://www.w3.org/2000/svg"
   xmlns:xlink="http://www.w3.org/1999/xlink"
   version="1.1"
   id="svg8457"
   viewBox="0 0 800.00001 800.00001"
   height="800"
   width="800">
  <defs
     id="defs8459">
    <linearGradient
       id="linearGradient9937">
      <stop
         id="stop9939"
         offset="0"
         style="stop-color:#000000;stop-opacity:1;" />
      <stop
         id="stop9941"
         offset="1"
         style="stop-color:#000000;stop-opacity:0;" />
    </linearGradient>
    <linearGradient
       gradientUnits="userSpaceOnUse"
       y2="708.57141"
       x2="121.42857"
       y1="440"
       x1="371.42856"
       id="linearGradient9943"
       xlink:href="#linearGradient9937" />
    <mask
       id="mask9953"
       maskUnits="userSpaceOnUse">
      <circle
         style="color:#000000;clip-rule:nonzero;display:inline;overflow:visible;visibility:visible;opacity:1;isolation:auto;mix-blend-mode:normal;color-interpolation:sRGB;color-interpolation-filters:linearRGB;solid-color:#000000;solid-opacity:1;fill:#ffffff;fill-opacity:1;fill-rule:nonzero;stroke:none;stroke-width:100;stroke-miterlimit:4;stroke-dasharray:none;stroke-opacity:1;color-rendering:auto;image-rendering:auto;shape-rendering:auto;text-rendering:auto;enable-background:accumulate"
         id="circle9955"
         cx="400"
         cy="652.36218"
         r="400" />
    </mask>
    <mask
       id="mask9957"
       maskUnits="userSpaceOnUse">
      <circle
         style="color:#000000;clip-rule:nonzero;display:inline;overflow:visible;visibility:visible;opacity:1;isolation:auto;mix-blend-mode:normal;color-interpolation:sRGB;color-interpolation-filters:linearRGB;solid-color:#000000;solid-opacity:1;fill:#ffffff;fill-opacity:1;fill-rule:nonzero;stroke:none;stroke-width:100;stroke-miterlimit:4;stroke-dasharray:none;stroke-opacity:1;color-rendering:auto;image-rendering:auto;shape-rendering:auto;text-rendering:auto;enable-background:accumulate"
         id="circle9959"
         cx="400"
         cy="400.00003"
         r="400" />
    </mask>
  </defs>
  <metadata
     id="metadata8462">
    <rdf:RDF>
      <cc:Work
         rdf:about="">
        <dc:format>image/svg+xml</dc:format>
        <dc:type
           rdf:resource="http://purl.org/dc/dcmitype/StillImage" />
        <dc:title></dc:title>
      </cc:Work>
    </rdf:RDF>
  </metadata>
  <g
     id="layer1"
     transform="translate(0,-252.36216)">
    <circle
       r="400"
       cy="652.36218"
       cx="400"
       id="circle9007"
       style="color:#000000;clip-rule:nonzero;display:inline;overflow:visible;visibility:visible;opacity:1;isolation:auto;mix-blend-mode:normal;color-interpolation:sRGB;color-interpolation-filters:linearRGB;solid-color:#000000;solid-opacity:1;fill:#1c8adb;fill-opacity:1;fill-rule:nonzero;stroke:none;stroke-width:100;stroke-miterlimit:4;stroke-dasharray:none;stroke-opacity:1;color-rendering:auto;image-rendering:auto;shape-rendering:auto;text-rendering:auto;enable-background:accumulate" />
    <path
       mask="url(#mask9957)"
       id="path9115"
       transform="translate(0,252.36216)"
       d="m 276.50781,248.85547 0,0.002 c -21.1901,2.7e-4 -39.73037,4.34129 -55.62304,13.0293 -11.69877,6.39532 -21.95804,14.17469 -30.78711,23.32617 L 4.0779304,471.23267 C 37.669484,654.53871 146.27853,758.77226 320.80906,793.521 417.49121,698.35594 514.00875,603.08527 608.04102,505.72461 c 1.01245,-0.97433 2.00609,-1.96825 2.98046,-2.98242 2.98534,-2.87254 5.81059,-5.91186 8.46485,-9.13086 9.95975,-12.07881 17.47861,-25.96322 22.56445,-41.64453 C 647.34849,436.28554 650,420.07873 650,403.33789 c 0,-19.49565 -3.17789,-37.82756 -9.53516,-54.99219 -6.35729,-16.95275 -15.46902,-31.78742 -27.33593,-44.50195 -11.65502,-12.50267 -25.85293,-22.46015 -42.59375,-29.87695 -16.52892,-7.20492 -34.96726,-10.8086 -55.31055,-10.8086 -7.52153,0.0583 -14.77009,0.52563 -22.05273,1.67774 -0.0249,0.003 -0.0468,0.01 -0.0703,0.0117 -0.009,0.002 -0.019,0.002 -0.0273,0.004 -15.40349,2.46504 -29.2119,7.62215 -41.42383,15.47266 -8.16218,5.64545 -15.46266,12.01242 -22.12891,18.89648 L 357.0899,371.64266 394.5,312.45508 c -3.53129,-4.95769 -7.26724,-9.75353 -11.25391,-14.3457 -0.0873,-0.10024 -0.16636,-0.20661 -0.2539,-0.30665 -8.47634,-9.74783 -18.11453,-18.32924 -28.92188,-25.74609 -10.59546,-7.20491 -22.36065,-12.92781 -35.28711,-17.16602 -12.92645,-4.02627 -27.01793,-6.03515 -42.27539,-6.03515 z"
       style="font-style:normal;font-variant:normal;font-weight:normal;font-stretch:normal;font-size:medium;line-height:125%;font-family:'Francois One';-inkscape-font-specification:'Francois One';letter-spacing:0px;word-spacing:0px;opacity:0.42000002;fill:url(#linearGradient9943);fill-opacity:1;stroke:none;stroke-width:1;stroke-linecap:butt;stroke-linejoin:miter;stroke-opacity:1" />
    <path
       mask="url(#mask9953)"
       style="font-style:normal;font-variant:normal;font-weight:normal;font-stretch:normal;font-size:medium;line-height:125%;font-family:'Francois One';-inkscape-font-specification:'Francois One';letter-spacing:0px;word-spacing:0px;fill:#ffffff;fill-opacity:1;stroke:none;stroke-width:1px;stroke-linecap:butt;stroke-linejoin:miter;stroke-opacity:1"
       d="m 276.5088,501.21916 c -21.19092,0 -39.73015,4.34118 -55.62332,13.02946 -15.89318,8.68827 -29.14009,19.92132 -39.73556,33.69541 -10.38354,13.986 -18.11484,29.66651 -23.20068,47.04307 C 152.65153,612.36366 150,629.8455 150,647.43395 c 0,20.55521 3.17752,40.1572 9.53479,58.80521 6.5692,18.85991 16.10721,35.49692 28.60984,49.90676 12.50263,14.40982 27.97061,25.85001 46.40669,34.32639 18.43609,8.68826 39.73313,13.03485 63.89078,13.03485 14.83364,0 28.28774,-2.33269 40.36655,-6.9947 1.7436,-0.66136 3.45897,-1.36835 5.15571,-2.09789 0.42028,-0.18086 0.83377,-0.37028 1.25116,-0.55547 1.28805,-0.57052 2.56298,-1.15852 3.82364,-1.76889 0.45847,-0.22256 0.91496,-0.44646 1.36981,-0.67415 1.30636,-0.65266 2.59573,-1.33159 3.87219,-2.02775 0.29081,-0.15877 0.58438,-0.31351 0.87365,-0.4746 1.57896,-0.87806 3.13764,-1.78349 4.67033,-2.72885 0.0138,-0.009 0.0287,-0.0193 0.0431,-0.0275 4.28453,-2.64517 8.395,-5.54361 12.31761,-8.71509 10.17164,-8.05254 19.3908,-17.37798 27.65528,-27.97345 30.45175,-37.62885 43.68188,-77.41825 68.97638,-111.25205 4.66201,-5.93345 9.85341,-11.4437 15.57494,-16.52953 5.72154,-4.87393 12.18288,-9.00793 19.38783,-12.39847 3.78231,-1.621 7.81713,-2.8245 12.09646,-3.61871 0.11874,-0.022 0.24215,-0.0378 0.36133,-0.0594 0.91208,-0.16401 1.83242,-0.31535 2.76662,-0.44222 1.04208,-0.14138 2.09589,-0.26066 3.16568,-0.35593 1.07593,-0.0958 2.16939,-0.16705 3.27356,-0.21565 1.13579,-0.0497 2.286,-0.0753 3.45151,-0.0753 6.14538,0 11.76188,1.26994 16.8477,3.81285 5.29772,2.75481 9.74521,6.35744 13.34767,10.80754 3.81434,4.66201 6.77934,9.9597 8.89842,15.89316 2.11909,6.14538 3.18189,12.6121 3.18189,19.3932 0,7.62873 -1.16908,14.72773 -3.50007,21.29693 -2.11909,6.56918 -5.19032,12.1857 -9.21661,16.8477 -4.02629,4.8739 -8.89876,8.58284 -14.62042,11.12575 -5.50962,2.75481 -11.55124,4.13103 -18.12047,4.13103 -9.74776,0 -18.86071,-2.75782 -27.33707,-8.26746 -1.6545,-1.10302 -3.23554,-2.24693 -4.80515,-3.39221 -1.40129,-1.03713 -2.77625,-2.08955 -4.12025,-3.15488 -0.005,-0.003 -0.0111,-0.005 -0.0167,-0.0111 -4.61379,-3.65807 -8.87108,-7.49252 -12.67352,-11.55719 -1.75232,-1.85539 -3.45328,-3.79726 -5.12872,-5.78127 l -36.52676,57.78591 c 2.61617,3.29124 5.37468,6.51404 8.28364,9.65884 1.67195,1.80752 3.39481,3.54156 5.13415,5.2528 1.12422,1.10606 2.27752,2.16997 3.42991,3.23577 0.75766,0.7021 1.51704,1.40206 2.28666,2.08709 1.00143,0.88889 2.01421,1.76158 3.03624,2.621 1.08925,0.9191 2.19312,1.81638 3.30589,2.7019 0.80545,0.63879 1.60375,1.28786 2.42148,1.9091 2.00895,1.53074 4.04661,3.02209 6.13182,4.44384 9.53593,6.35725 19.59991,11.33613 30.19538,14.93857 10.80735,3.81439 22.04037,5.72199 33.6954,5.72199 18.64801,0 35.17875,-3.70892 49.58857,-11.12576 14.62173,-7.20488 26.91216,-16.84378 36.87188,-28.92262 9.95975,-12.07881 17.47847,-25.96337 22.56431,-41.64468 5.29771,-15.68126 7.94924,-31.88778 7.94924,-48.62862 0,-19.49565 -3.17752,-37.8277 -9.53479,-54.99233 -6.35729,-16.95275 -15.47017,-31.78845 -27.33708,-44.50298 -11.65502,-12.50267 -25.85304,-22.46037 -42.59386,-29.87717 -16.52892,-7.20492 -34.96723,-10.80755 -55.31052,-10.80755 -2.7267,0 -5.39779,0.0963 -8.04096,0.23718 -0.82679,0.0442 -1.65678,0.0878 -2.4754,0.14552 -0.51745,0.0367 -1.0336,0.0712 -1.54777,0.11321 -1.30702,0.10686 -2.60242,0.23498 -3.88836,0.37751 -0.39326,0.0436 -0.78976,0.0825 -1.18105,0.1295 -1.6559,0.19853 -3.29781,0.41609 -4.91842,0.67412 -0.0249,0.003 -0.0466,0.009 -0.0701,0.0111 -0.009,0.002 -0.0193,0.003 -0.0276,0.005 -15.40349,2.46504 -29.21164,7.62196 -41.42357,15.47247 -51.02668,35.29307 -68.69673,98.55446 -104.57553,142.72016 -3.81437,4.4501 -8.16097,8.89756 -13.03485,13.34768 -4.8739,4.45006 -10.27787,8.37155 -16.21133,11.76209 -4.11686,2.35249 -8.4513,4.37978 -12.97555,6.12106 -0.003,0.002 -0.009,0.003 -0.0111,0.005 -1.99277,0.7668 -4.01104,1.49346 -6.08328,2.14101 -6.7811,2.1191 -13.9864,3.17648 -21.61513,3.17648 -10.17164,0 -18.85943,-1.8013 -26.06432,-5.40377 -6.99301,-3.39056 -12.71579,-7.94429 -17.16591,-13.66586 -4.23818,-5.72153 -7.41572,-12.29454 -9.53479,-19.71138 -1.9072,-7.20491 -2.8583,-14.62274 -2.8583,-22.25147 0,-8.26448 1.16366,-15.99576 3.49465,-23.20068 2.54291,-6.99298 6.35813,-13.14087 11.44395,-18.43862 5.08583,-5.08579 11.65342,-9.10817 19.70598,-12.07492 8.05255,-2.9667 17.69683,-4.45461 28.92803,-4.45461 13.13834,0 24.89737,2.33278 35.28094,6.9947 2.18351,1.00442 4.25589,2.03902 6.3044,3.07941 0.82839,0.42441 1.66443,0.84765 2.46999,1.27815 0.74199,0.39266 1.43934,0.79959 2.1626,1.19723 2.22301,1.23374 4.38669,2.48148 6.44462,3.75891 3.43743,2.13374 6.69887,4.31269 9.63729,6.57945 3.38081,2.6387 6.60952,5.42672 9.69661,8.35916 l 37.41117,-59.18811 c -3.53129,-4.95769 -7.2685,-9.75317 -11.25517,-14.34534 -0.0873,-0.10024 -0.16595,-0.20737 -0.25349,-0.30741 -8.47634,-9.74783 -18.11524,-18.32931 -28.92259,-25.74616 -10.59546,-7.20491 -22.35989,-12.92768 -35.28635,-17.16589 -12.92645,-4.02627 -27.01822,-6.03474 -42.27568,-6.03474 z"
       id="path9059" />
  </g>
</svg>
