<svg viewBox="0 0 744.09448 1052.3622" xmlns="http://www.w3.org/2000/svg"><defs><radialGradient cx="269.585" cy="188.822" gradientUnits="userSpaceOnUse" id="a" r="250.608"><stop offset="0" stop-color="#0089af"/><stop offset="1" stop-color="#00005c"/></radialGradient><radialGradient cx="247.596" cy="165.246" gradientUnits="userSpaceOnUse" id="b" r="280.936"><stop offset="0" stop-color="#5e6700"/><stop offset="1" stop-color="#005f00"/></radialGradient></defs><path d="M462.887 254.38a123.058 123.058 0 1 1-246.116 0 123.058 123.058 0 1 1 246.117 0z" display="block" fill="url(#a)" fill-rule="evenodd" stroke="#3860a1" stroke-width=".688" transform="matrix(2.9712 0 0 2.9712 -637.89 -294.013)"/><path d="M328.83 373.06c-7.596-.857-16.54-2.616-16.988-3.34-.27-.438.965-1.08 2.747-1.426 4.26-.827 4.334-.827 10.852-.03 3.706.454 5.844.313 6.294-.414.48-.775 1.85-.63 4.645.487 3.557 1.423 6.337 1.49 10.95.26.876-.232 1.378.173 1.208.975-.204.965.24 1.148 1.5.616.985-.415 3.14-.683 4.79-.594l3 .162-2.41-1.697-2.41-1.698 2.29-.847c1.46-.54 2.793-.428 3.683.31 1.79 1.485 14.093.426 19.034-1.64 1.958-.817 4.967-1.502 6.687-1.52s4.254-.68 5.63-1.466c2.778-1.59 5-1.91 5-.723 0 .9-9.805 5.268-18.5 8.24-11.81 4.036-33.414 5.99-48 4.344zm26.71-16.047c-3.593-1.476-5.6-5.045-3.973-7.064.71-.883.602-1.255-.366-1.266-.963-.01-1.03-.234-.22-.75.634-.404 1.458-2.985 1.83-5.735s1.267-7.026 1.985-9.5c.718-2.476 1.3-5.4 1.29-6.5-.016-2.12.86-8.79 1.882-14.33.82-4.44-1.154-7.883-5.904-10.307-2.107-1.075-4.076-2.72-4.376-3.66-1.486-4.657-4.944-11.63-7.7-15.527-2.69-3.804-.852-11.932 3.593-15.9 2.683-2.396 3.14-3.444 2.873-6.564-.176-2.042-.682-3.938-1.126-4.213s-.85-.95-.903-1.5-.658-1-1.345-1-1.143.55-1.01 1.222c.313 1.587-5.682.48-7.558-1.397-.73-.73-1.744-1.326-2.254-1.326s-.93-.597-.93-1.327c0-2.142-4.222-5.4-8-6.174-1.924-.395-4.485-1.622-5.69-2.728-1.47-1.35-3.864-2.102-7.264-2.286-5.21-.28-10.568-2.832-9.518-4.53.326-.528-.756-.957-2.41-.957-3.746 0-4.9-1.677-2.467-3.582 1.016-.796 1.36-1.33.76-1.183-.908.22-4.75-3.684-7.616-7.736-.39-.55-2.075-2.576-3.746-4.5l-3.04-3.5 1.57 3.25c.862 1.787 1.97 3.25 2.463 3.25s.655.63.36 1.398-.057 1.696.53 2.06 1.07 1.377 1.07 2.255c0 1.39-.26 1.362-2-.214-1.1-.996-2-2.43-2-3.187s-.69-1.64-1.53-1.964c-.935-.36-1.31-1.288-.96-2.385.314-.99.102-2.087-.47-2.44s-1.04-1.452-1.04-2.44-1.085-2.964-2.41-4.393c-3.675-3.966-4.687-10.37-2.492-15.783 2.016-4.97 2.406-8.91.882-8.91-.575 0-.758-1.042-.42-2.392.33-1.315.115-2.69-.48-3.06-.598-.368-1.08.03-1.08.892s-.468 1.56-1.04 1.56-.95-1.013-.843-2.25c.367-4.27-.124-5.75-1.907-5.75-2.27 0-9.324 3.565-10.356 5.234-.43.696-1.136 1.27-1.57 1.277s-2.865 1.453-5.408 3.212-4.887 2.934-5.21 2.61.854-1.557 2.616-2.745 3.357-3.042 3.545-4.123 1.99-3.426 4.007-5.213 2.816-2.95 1.78-2.59c-2.874 1-1.515-1.894 1.6-3.414 1.414-.69 2.84-2.264 3.168-3.5.79-2.97 7.698-7.738 11.277-7.782 1.56-.02 5.54-.61 8.84-1.31s7.656-1.163 9.682-1.026c3.027.205 3.66-.075 3.546-1.57-.11-1.477-.468-1.614-1.887-.728-.962.6-2.06.784-2.438.405-.956-.955 1.52-3.736 3.326-3.736.87 0 1.26-.587.94-1.42-.358-.933.715-1.97 3.144-3.04 2.028-.893 2.787-1.42 1.687-1.168-2.64.6-8.558 2.674-10.737 3.76-.956.477-2.643.867-3.75.867s-2.014.396-2.014.88c0 .87-7.13 3.73-12 4.816-2.166.483-2.032.235 1-1.848 10.827-7.443 20.453-11.54 35.29-15.025 7.606-1.786 12.34-2.168 27.21-2.193 17.937-.032 31.395 1.58 28.442 3.404-.74.458-1.724.6-2.185.316s-5.51-.653-11.222-.82c-8.716-.25-10.296-.068-9.83 1.142.303.793 1.116 1.226 1.805.96 1.717-.658 9.794 3.556 15.018 7.837 2.37 1.94 4.686 3.53 5.15 3.53s1.424.935 2.138 2.078c1.137 1.82 1.055 2.142-.66 2.59-2.575.674-3.278 4.738-1.628 9.414.725 2.055 1.1 3.954.835 4.22-.915.914-6.824-2.68-10.677-6.496-2.122-2.1-4.34-3.522-4.927-3.16s-.782.196-.427-.38c.354-.572-.047-1.613-.89-2.314s-1.304-1.876-1.02-2.613c.288-.754-.144-1.34-.987-1.34-.825 0-1.76-.676-2.075-1.5s-1.054-1.5-1.64-1.5-1.794-.662-2.686-1.47c-1.196-1.082-2.4-1.236-4.58-.585-1.625.485-2.357.92-1.627.968 2.156.14 9.316 7.976 9.006 9.857-.156.95.012 2.2.375 2.777s.252 1.7-.246 2.5c-.77 1.234-1.548 1.114-5.184-.8-2.354-1.24-5.04-2.252-5.97-2.25-2.266.003-3.315-1.866-1.45-2.582.818-.314 1.743-1.24 2.057-2.06.43-1.115.074-1.33-1.422-.854-1.47.467-1.994.177-1.994-1.1 0-.954-.297-1.438-.66-1.076s-1.148.25-1.75-.248c-.753-.626-1.087.174-1.08 2.586.01 2.283.622 3.832 1.772 4.476.968.54 1.548 1.325 1.29 1.742s.746.58 2.23.366c1.82-.265 4.162.597 7.197 2.647 3.468 2.343 4.573 2.703 4.822 1.573.493-2.236 1.43-1.817 5.69 2.545 2.153 2.207 4.354 3.867 4.89 3.688 1.127-.376 3.737 2.06 6.145 5.734 1.685 2.572 4.13 3.67 2.935 1.317-.35-.688.3-.188 1.44 1.11s2.07 3.098 2.062 4c-.014 1.424-.143 1.442-.985.14-.863-1.334-.98-1.334-1.065 0-.064 1.03-.252 1.107-.598.25-.807-2-5.14-1.564-4.977.5.088 1.106-.686 1.866-2.11 2.068-1.24.176-2.25.798-2.25 1.382 0 .662-1.508.86-4 .526-3.267-.438-4.005-.233-4.023 1.118-.013.91-.903 2.78-1.978 4.155s-1.967 3.117-1.98 3.872c-.018 1.163-.285 1.163-1.754 0-1.607-1.274-1.604-1.172.042 1.405 1.954 3.06 1.617 4.072-2.515 7.55-2.82 2.373-3.74 6.47-1.732 7.71 1.47.908 3.082 5.42 2.357 6.595-.867 1.403-3.497-1.08-5.03-4.75-.948-2.267-2.166-3.29-4.47-3.75-4.914-.982-6.918-.758-6.918.774 0 .904-.7 1.223-1.96.893-2.265-.593-8.35 2.872-10.542 6.004-1.926 2.75-1.9 6.046.078 10.217 1.842 3.88 3.333 4.647 7.447 3.824 2.06-.41 3.19-1.345 3.597-2.972.328-1.305 1.11-2.407 1.737-2.45s1.928-.226 2.888-.41c2.61-.5 3.027 1.06 1.22 4.55-.887 1.718-1.36 3.377-1.048 3.688s.048 1.187-.583 1.948c-.95 1.145-.5 1.31 2.628.967 6.192-.683 7.416.03 7.357 4.282-.1 7.177 2.23 10.165 6.25 8.013 1.327-.71 2.533-.708 3.863.004 2.573 1.377 2.692 1.353 4.878-.994 1.04-1.115 2.746-2.202 3.79-2.414s2.76-.725 3.813-1.14c1.342-.53 1.698-.407 1.19.413-.397.643-.246 1.17.337 1.17s1.06-.424 1.06-.942 1.204-.315 2.677.45 3.118 1.117 3.655.785.687-.135.333.438.364 1.312 1.595 1.642c3.147.843 3.945.77 3.282-.304-.317-.512-.05-1.256.595-1.654.73-.452.903-.29.457.43-.663 1.074.73 1.55 4.155 1.424.686-.026 1.257.69 1.267 1.592.025 2.295 6.84 7.68 10.68 8.437 3.868.764 7.302 3.522 7.302 5.865 0 .946.478 2.015 1.064 2.377.697.43.447 1.4-.723 2.808-.983 1.183-1.153 1.594-.376.913 1.145-1.004 2.608-.58 7.758 2.25 3.49 1.92 7.16 3.49 8.156 3.49s2.598.87 3.56 1.932 2.382 1.69 3.155 1.393c1.017-.39 1.406.297 1.406 2.486 0 2.133-1.314 4.564-4.45 8.238-2.447 2.867-4.754 6.616-5.127 8.332-1.027 4.73-5.514 10.442-9.174 11.677-1.79.604-3.25 1.727-3.25 2.497s-1.24 2.195-2.75 3.167-3.563 2.773-4.554 4c-4.91 6.074-10.262 10.335-12.488 9.944-1.727-.304-2.22.02-2 1.312.312 1.84-1.842 5.023-3.398 5.023-.52 0-3.39 2.11-6.378 4.69-3.61 3.116-5.032 4.94-4.237 5.43.84.52.468 1.357-1.25 2.81-2.293 1.94-2.337 2.153-.696 3.43.96.747 1.75 1.595 1.75 1.883 0 1.268-3.78 1.307-6.79.07zm-4.024-171.997c-.72-.29-1.584-.253-1.916.08s.258.568 1.312.524c1.165-.048 1.402-.285.604-.604zm6.778-4.535c.02-.395-.64-.46-1.465-.142-.878.336-1.507.01-1.516-.782-.013-1.106-.18-1.096-.907.05-.54.855-.462 2.352.2 3.806l1.093 2.397 1.28-2.306c.702-1.268 1.294-2.628 1.314-3.023zm-31.965 2.813c0-.2-1.03-1.038-2.287-1.862-2.05-1.342-2.498-1.324-4.35.175-2.008 1.626-1.945 1.677 2.286 1.862 2.39.104 4.35.025 4.35-.174zm-2.406-5.148c-1.815-1.327-1.82-1.423-.095-2.084.992-.38 3.494-.242 5.558.31 3.183.85 3.665.773 3.177-.5-.373-.97-.166-1.246.586-.78.64.394 1.954.257 2.92-.306 1.598-.93 1.564-1.027-.366-1.054-1.63-.024-2.125-.655-2.125-2.703 0-1.47-.845-3.29-1.876-4.043s-1.763-1.577-1.625-1.828c.69-1.265.085-2.457-1.25-2.457-.826 0-1.5-.488-1.5-1.084s-.564-.882-1.25-.635-2.05.038-3.025-.464c-1.378-.71-2.348-.23-4.34 2.138-1.413 1.678-2.93 2.827-3.372 2.554s-1.06.17-1.373.985-.248 1.382.145 1.26 1.97 1.05 3.508 2.602c1.75 1.767 3.392 2.595 4.39 2.21 2.064-.79 5.517.3 4.77 1.506-.314.512-1.247.93-2.072.93-.878 0-1.204-.48-.786-1.155.446-.72.274-.883-.457-.43-.644.397-.912 1.14-.595 1.653s.098.93-.484.93-1.06-.45-1.06-1c0-1.758-3.748-1.068-4.23.78-.55 2.102 1.778 4.763 2.767 3.163.444-.717 1.03-.717 1.895.002.69.572 1.55.744 1.91.382s.66-.058.66.675.336.996.747.584-.107-1.374-1.153-2.14zm7.405-5.387c0-.517.444-1.216.988-1.552.566-.35.734.05.393.94-.664 1.734-1.38 2.05-1.38.612zm-12.56-2.527c-1.068-.807-1.415-1.482-.773-1.5 1.9-.05 4.332 1.114 4.332 2.076 0 1.31-1.356 1.092-3.56-.575zm33.56 9.754c0-.118-.854-.67-1.896-1.23-1.35-.722-2.188-.66-2.915.216-.768.924-.298 1.23 1.894 1.23 1.603 0 2.915-.098 2.915-.216zm-15-2.285c0-.55-.703-1-1.56-1s-1.28.45-.94 1 1.04 1 1.558 1 .94-.45.94-1zm3.5 0c-.34-.55-.818-1-1.06-1s-.44.45-.44 1 .476 1 1.058 1 .78-.45.44-1zm-32.5-5.034c-1.27-.848-1.077-1.378 1.25-3.437 1.51-1.34 2.75-2.993 2.75-3.674s-.64-.366-1.42.7-1.754 1.603-2.166 1.192-.223-.75.418-.75 1.167-.674 1.167-1.5c0-1.94-1.893-1.944-2.637-.005-.316.822-.984 1.24-1.485.93s-.653-.98-.336-1.493.125-.93-.425-.93-1.283.456-1.628 1.015-1.096.728-1.667.375c-.67-.413-.556-.946.32-1.5 1.104-.7 1.077-.856-.144-.84-1.9.025-6.96 2.866-5.192 2.914.72.02 1.057.443.75.942s.45.695 1.69.437l2.25-.47-2.304 1.378-2.305 1.378 2.777 1.266c2.004.913 2.883.953 3.152.144s.777-.787 1.824.08c1.168.97 1.198 1.364.152 2.028-.845.536-.25.823 1.703.823 2.335 0 2.667-.223 1.5-1.004zm-3.79-3.572c-1.43-1.546-.464-1.842 1.646-.505.746.472.97 1.093.5 1.38s-1.437-.11-2.146-.876zm39.255-.245c-.564-.594-2.466.91-2.466 1.948 0 .54.63.4 1.398-.31s1.25-1.446 1.067-1.64zm-28.466 1.456c0-.216-.7-.66-1.553-.988-.89-.342-1.29-.174-.94.393.586.95 2.492 1.406 2.492.596zm-15.216-10.147c.865-.753.37-1.02-1.79-.97-1.644.04-3.777.944-4.74 2.008-1.72 1.895-1.71 1.898.396.153 2.236-1.852 4.06-.823 2.834 1.6-.348.687-.017.574.737-.25s1.908-1.97 2.564-2.54zm8.215 1.48c0-.582-.45-.78-1-.44s-1 .816-1 1.058.45.44 1 .44 1-.475 1-1.058zm-5.27-7.634c-.973-.253-2.323-.237-3 .037s.12.482 1.77.46 2.203-.243 1.23-.497zm7.795-1.114c-.307-.308-1.114 0-1.793.683-.98.988-.865 1.103.56.56.986-.376 1.54-.935 1.233-1.243zm11.474-1.252c0-.517-.376-.94-.834-.94s-.834.654-.834 1.455.375 1.224.834.94.833-.937.833-1.455zm-4.012-1.962c-.595-1.11-.75-2.573-.343-3.25.464-.773.1-.712-.98.165-1.608 1.305-1.61 1.51-.036 3.25 2.188 2.42 2.707 2.356 1.358-.165zm-5.072.662c-.23-.198-1.767-.66-3.417-1.03-2.192-.49-2.597-.398-1.5.343 1.35.914 5.92 1.552 4.916.687zm-8.917-2.732c1.332-.943 1.332-1.012 0-.62-.826.242-2.4-.022-3.5-.588-1.79-.92-1.855-.852-.63.635 1.6 1.938 2.1 2.007 4.13.573zm5-1.377c0-.93-.583-1.245-1.585-.86-1.275.49-1.324.772-.25 1.453 1.776 1.126 1.834 1.107 1.834-.592zm26.4-.53c3.928 0-.093-2.193-4.428-2.415-2.613-.133-4.7-.86-5.46-1.9-1.783-2.438-2.513-2.083-2.513 1.22 0 2.383.348 2.816 1.937 2.4 1.065-.28 2.96.21 4.21 1.085 1.5 1.05 2.607 1.254 3.26.6.546-.545 1.892-.99 2.992-.99zm-22.4 0c0-.55-.478-1-1.06-1s-.78.45-.44 1 .815 1 1.058 1 .44-.45.44-1zm27.186-9.684c-.72-.29-1.584-.253-1.916.08s.258.568 1.312.524c1.165-.048 1.402-.285.604-.604zm26.507 219.044c-1.067-1.067.297-2.36 2.487-2.36 1.72 0 1.857.248.82 1.5-1.345 1.62-2.3 1.867-3.307.86zM259.83 330.735c-2.75-3.206-5.183-5.656-5.404-5.446s-1.47-1.064-2.775-2.832c-2.425-3.288-5.795-5.66-8.13-5.723-.72-.02-1.042.396-.716.924.355.573-.616.538-2.41-.088-2.343-.817-3.694-2.51-6.152-7.71-5.065-10.715-5.126-10.98-2.804-12.22 1.167-.626 1.81-1.708 1.5-2.52-.3-.782-.11-1.423.422-1.423s.97-.704.97-1.564c0-1.046.742-1.46 2.25-1.25 1.56.217 2.253-.2 2.262-1.366.007-.924.344-2.01.75-2.417s.737-.248.737.35 1.35 1.384 3 1.746 3 1.225 3 1.918 1.236 1.88 2.75 2.64 2.997 1.512 3.3 1.676.367-1.283.14-3.218c-.502-4.31 1.383-4.732 2.31-.517.36 1.65 1.037 3 1.5 3s1.395 1.687 2.07 3.75 2.17 4.72 3.327 5.905c3.012 3.09 4.602 5.153 4.602 5.973 0 .393.708 1.497 1.575 2.455 2.105 2.326 2.603 9.822.82 12.366-.767 1.096-1.396 2.785-1.396 3.753 0 1.05-1.027 2.016-2.55 2.398-2.52.633-2.526.658-.5 2.077 2 1.402 2.795 3.39 1.3 3.254-.414-.037-3-2.69-5.75-5.895zm7.844-15.58c-.326-.848-.807-1.328-1.07-1.066s-.18.956.184 1.543c.986 1.595 1.562 1.285.886-.477zm9.21 19.635c-.594-.963 7.075-5.08 9.51-5.106 1.202-.013 1.192-.173-.065-.985-1.183-.764-1.21-.973-.126-.986.993-.01 1.208-.848.775-3.015-.34-1.693-.176-3 .374-3 .536 0 .975.45.975 1s.94 1.94 2.09 3.09l2.092 2.092-2.34 1.65c-1.29.91-2.568 1.657-2.843 1.66-.276.006-1.92 1.022-3.655 2.26-3.317 2.363-5.848 2.862-6.79 1.338zm9.645-24.29c-.66-.66-1.2-1.56-1.2-2 0-1.474 1.505-.82 2.767 1.2 1.367 2.19.344 2.71-1.568.8zm157.296-1.05c.4-1.238 1.14-7.2 1.64-13.25.54-6.513 1.55-12.144 2.475-13.803 1.316-2.36 1.377-3.58.383-7.72-.656-2.736-.877-6.71-.5-8.95.615-3.635.478-4.028-1.406-4.028-1.19 0-2.088-.646-2.088-1.5 0-1.89-1.922-1.875-4.45.036-1.07.81-2.74 1.22-3.71.912s-2.634-.095-3.696.474c-2.51 1.342-6.815-1.89-8.778-6.587-.765-1.83-1.948-3.217-2.63-3.082-.884.176-1.237-1.653-1.237-6.408 0-3.66.353-6.435.786-6.168s.692-1.014.577-2.846.65-4.906 1.7-6.83c1.053-1.926 1.92-4.176 1.926-5 .006-.826.46-1.438 1.01-1.36 1.377.192 6.747-3.727 6.054-4.42-.308-.307.186-1.383 1.098-2.39s1.307-1.83.88-1.83-.16-.788.595-1.75c1.243-1.587 1.208-1.622-.378-.378-.964.754-1.807 1.092-1.876.75s-.19-1.185-.272-1.873-.99-1.104-2.02-.924c-1.657.29-1.787-.108-1.138-3.5.403-2.105.694-4.884.646-6.177-.133-3.663.782-4.268 3.966-2.62 2.74 1.416 2.943 1.394 2.943-.31 0-1.008-1.126-3.357-2.5-5.22-2.977-4.034-2.99-4.092-.75-3.388 1.582.498 1.597.424.15-.78-1.735-1.445-1.844-1.72-2.017-5.083-.087-1.694-.23-1.818-.573-.5-.252.962-1.047 1.75-1.768 1.75-1.838 0-2.722-3.995-1.03-4.645.75-.287 1.114-1.164.812-1.95-.398-1.037-.06-1.24 1.237-.744 1.4.54 1.643.314 1.124-1.04-.417-1.087-.27-1.483.395-1.072.58.36.802 1.313.493 2.12s.547 3.455 1.905 5.886 2.24 5.214 1.963 6.183c-.285 1-.005.82.65-.42.955-1.806.767-2.81-1.082-5.804-1.23-1.99-2.043-3.814-1.805-4.05.59-.59 6.42 7.78 7.258 10.415.37 1.167 1 2.12 1.402 2.12 1.53 0 12.137 23.61 12.137 27.018 0 .876-.727.58-2.04-.828-1.832-1.966-3.96-2.905-3.96-1.746 0 .688 4.15 7.557 4.566 7.557.204 0 .087-.74-.26-1.64-.515-1.346-.298-1.455 1.21-.61 1.01.564 1.926 1.865 2.034 2.888s.482 3.21.83 4.86 1.294 7.605 2.1 13.233c1.583 11.06.806 25.322-2.07 37.975-.776 3.413-1.414 7.688-1.417 9.5-.01 5.515-1.958 10.972-4.12 11.538-1.085.283-3.082 2.707-4.44 5.386-2.565 5.062-4.204 6.524-2.937 2.62zm6.686-95.968c-.717-.717-1.183-.776-1.183-.15 0 1.335 1.182 2.518 1.85 1.85.283-.284-.017-1.05-.668-1.7zm-2.634-.033c-.836-3.814-4.257-9.732-5.63-9.74-1.83-.012-4.36 4.164-3.71 6.12.244.73 1.31 1.37 2.367 1.426 5.197.272 6.415.503 6.306 1.193-.182 1.157.075 2.25.53 2.25.227 0 .29-.563.138-1.25zm-140.55 91.666c0-.87.535-1.405 1.188-1.188 1.855.618 2.162 2.77.396 2.77-.87 0-1.583-.71-1.583-1.582zm3.51-1.4c-.344-.56.074-1.017.932-1.017 1.756 0 2.015.6.628 1.456-.512.317-1.213.118-1.56-.44zm-20.926-2.66c-.837-2.182.275-3.196 1.456-1.328s1.208 2.97.068 2.97c-.49 0-1.177-.738-1.524-1.642zm-8.583-10.325c0-.532-.676-.71-1.5-.392-1.824.7-1.99-.99-.24-2.44.935-.777 1.56-.42 2.407 1.377.63 1.333.736 2.424.238 2.424s-.906-.437-.906-.97zm-19.522-1.286c-1.09-.6-2.567-1.913-3.286-2.918-1.39-1.945-4.193-2.498-4.193-.827 0 .55-.9 1-2 1s-2-.45-2-1-.9-1-2-1-2-.45-2-1 .453-1 1.007-1c1.975 0-1.377-3.806-4.782-5.43-2.275-1.085-3.23-2.12-2.853-3.1.335-.874-.02-1.47-.873-1.47-.868 0-1.21.595-.863 1.5.42 1.09-.118 1.5-1.972 1.5-1.4 0-2.826-.45-3.166-1s.307-1 1.44-1 2.115-.45 2.184-1 .18-1.413.25-1.918c.203-1.486 1.625-2.528 1.625-1.19 0 .674.398.98.886.677s1.442.12 2.122.94.866 1.49.413 1.49-.3.52.337 1.157c.876.877 1.512.863 2.62-.057 1.175-.975 2.43-.725 6.356 1.264 2.69 1.364 5.48 3.19 6.2 4.057s2.55 1.58 4.066 1.58c2.783 0 5.537-2.13 4.324-3.343-.362-.362-.16-.658.45-.658 2.132 0 2.31 1.992.363 4.08-1.317 1.415-2.624 1.9-3.967 1.474-3.498-1.11-3.71 1.575-.36 4.567 3.272 2.925 3.072 4.5-.332 2.624zm11.907-2.93c-.465-.75-.176-.948.828-.563.848.327 1.996.14 2.55-.416.68-.68 1.23-.653 1.682.078.37.598.533 1.12.363 1.16-3.173.765-4.84.685-5.423-.257zm-45.02-2.97c-.476-.766-2.088-2.17-3.58-3.12-3.824-2.43-5.255-5.33-3.048-6.178.935-.36 1.376-.328.98.07-1.013 1.012 2.324 4.475 3.57 3.705.575-.354.717-.14.326.495-.42.68.308 1.377 1.845 1.763 2.74.688 2.983 1.175 1.642 3.29-.732 1.158-1.002 1.154-1.734-.023zm3.243-.268c.3-.782 1.236-1.687 2.08-2.01 1.1-.423 1.36-.138.922 1.004-.336.876-.61 1.78-.61 2.01s-.662.42-1.47.42c-.86 0-1.242-.59-.922-1.424zm38.39-.577c-1.348-2.52-.22-2.52 3 0 2.475 1.934 2.478 1.955.286 1.977-1.218.012-2.696-.878-3.285-1.978zm-32-.442c0-.242.45-.72 1-1.06s1-.14 1 .442-.45 1.06-1 1.06-1-.2-1-.442zm3.584-1.425c-.43-.697-.513-1.537-.183-1.867.894-.895 1.87.42 1.386 1.87-.34 1.018-.574 1.017-1.204-.003zm-13.9-3.785c-.376-.375-.736-2.745-.8-5.266-.1-3.86-.22-4.118-.75-1.64-.35 1.62-.97 2.857-1.383 2.75s-1.15-.193-1.64-.193c-2.03 0-2.143-6.832-.19-11.644 1.92-4.73 2.185-4.655 2.584.744.284 3.84 1.442 5.142 4.112 4.632 1.567-.3 2.383.01 2.383.906 0 .75-1.014 1.39-2.25 1.425l-2.25.063 2.25.904c1.236.498 2.242 1.482 2.234 2.187-.012.987-.214.97-.875-.075-.474-.746-1.113-.95-1.42-.452s-.146 1.558.36 2.357.89 2.127.855 2.952c-.05 1.174-.18 1.204-.606.136-.383-.96-.75-1.03-1.24-.235-.384.622-1.004.822-1.38.448zm99.484-3.35c.503-1.51 2.11-1.665 2.583-.25.228.69-.334 1.25-1.25 1.25s-1.518-.45-1.334-1zm-84.088-1.416c-.044-1.054.193-1.644.525-1.312s.368 1.195.08 1.917c-.32.797-.557.56-.605-.605zm-24.647-5.833c-1.144-9.373-1.16-9.8-.394-10.274.39-.24 1.02 2.366 1.397 5.793s.935 7.242 1.236 8.48.09 2.25-.464 2.25-1.354-2.813-1.775-6.25zm15.495 6c-.752-2.53-.737-5.252.038-6.58.745-1.276.982-.667 1.006 2.58.015 2.337-.196 4.25-.47 4.25s-.534-.113-.575-.25zm45.074-8.272c0-.837-1.126-2.034-2.5-2.66-2.177-.992-3.464-2.82-1.987-2.82.922 0 4.968 2.477 5.72 3.5 1.066 1.452.93 3.5-.234 3.5-.55 0-1-.683-1-1.52zm-50-6.48c-.727-1.355-.738-2-.036-2 .57 0 1.035-.7 1.035-1.558s.45-1.28 1-.94c1.28.792 1.312 6.5.034 6.5-.53 0-1.446-.9-2.035-2zm-4.986-3.19c.01-.72.452-1.984.985-2.81.787-1.218.97-1.09.984.692.008 1.205-.435 2.47-.985 2.81s-.994.028-.986-.692zm-6.144-3.06c-.396-9.977 3.14-32.852 5.192-33.582.515-.184.937-1.343.937-2.578 0-2.71 4.65-14.557 6.445-16.416 1.06-1.1 1.388-1.05 1.906.302.4 1.037.228 1.383-.47.952-.725-.448-.876.015-.446 1.37.436 1.37-.002 2.654-1.327 3.888-2.105 1.96-4.108 6.385-4.108 9.07 0 1.36.24 1.308 1.467-.314.808-1.067 1.483-3.178 1.5-4.69s.482-2.75 1.032-2.75c1.807 0 1.043 6.853-1.25 11.218-1.928 3.666-2.297 3.958-2.57 2.03-.176-1.236-.686-2.25-1.134-2.25-1.952 0-2.91 12.35-1.047 13.5 1.662 1.03 1.22 4.8-.486 4.145-2.203-.845-3.228 2.05-3.314 9.356-.115 9.873-.13 10-1.2 10-.55 0-1.06-1.463-1.13-3.25zm9.356-.158c.308-1.607.06-2.254-.747-1.945-1.585.608-2.963-7.564-1.52-9.008.718-.717 1.04-.143 1.04 1.857 0 1.77 1.03 3.972 2.65 5.664 2.217 2.312 2.444 3.022 1.38 4.305-1.907 2.296-3.325 1.854-2.804-.873zM345.13 234.5c.932-.934 1.466-.934 2.4 0s.666 1.2-1.2 1.2-2.134-.268-1.2-1.2zm6.2.142c0-.636.637-.912 1.416-.613s1.677-.132 1.993-.957c.348-.91 1.07-1.192 1.832-.718.69.43 2.226.657 3.41.504s2.45.198 2.81.78c.366.59-.145 1.087-1.154 1.12-.995.036-3.722.283-6.06.55-2.83.326-4.25.103-4.25-.668zm13.8-.143c.932-.934 1.466-.934 2.4 0s.666 1.2-1.2 1.2-2.134-.268-1.2-1.2zm-23.075-5.385c-1.525-.828-3.282-1.19-3.904-.806-.69.427-.853.25-.417-.456.454-.734-.058-1.155-1.404-1.155-1.166 0-1.9.353-1.633.785s-.382.786-1.44.786c-2.66 0-2.415-1.392.478-2.71 1.942-.885 3.584-.64 8.5 1.266 5.99 2.323 7.79 3.912 4.344 3.833-.964-.023-3-.718-4.525-1.545zm89.274-13.357c0-.582.45-1.06 1-1.06s1 .2 1 .442-.45.72-1 1.06-1 .14-1-.442zm2-18.5c0-.242.45-.72 1-1.06s1-.14 1 .442-.45 1.06-1 1.06-1-.2-1-.442zm-198-4.94c0-.826.45-1.78 1-2.12s1 .058 1 .883c0 .826-.45 1.78-1 2.12s-1-.058-1-.883zm4-.06c0-.242.45-.72 1-1.06s1-.14 1 .442-.45 1.06-1 1.06-1-.2-1-.442zm6-5.5c0-.582.45-1.06 1-1.06s1 .2 1 .442-.45.72-1 1.06-1 .14-1-.442zm1.476-9.096c-.338-.547-1.147-.677-1.796-.287-.673.403-.59-.02.19-.984 1.43-1.758 4.647-2.28 5.505-.89.272.44-.355 1.33-1.394 1.98-1.22.76-2.106.826-2.504.182zm132.212-14.077c-.996-.58-2.482-.796-3.302-.48-.842.322-1.225.14-.88-.417.336-.544.06-.99-.615-.99-2.216 0 .047-1.323 2.758-1.612 3.114-.332 8.682 2.27 7.825 3.656-.77 1.246-3.5 1.172-5.785-.157z" fill="url(#b)" transform="translate(-645.695 -294.187) scale(2.99416)"/></svg>