<?xml version="1.0" encoding="UTF-8" standalone="no"?>
<!DOCTYPE svg PUBLIC "-//W3C//DTD SVG 1.0//EN" "http://www.w3.org/TR/2001/REC-SVG-20010904/DTD/svg10.dtd">
<svg viewBox="0 0 744.09448 1052.3622" xmlns="http://www.w3.org/2000/svg">
<defs>
<radialGradient cx="269.58505" cy="188.82213" gradientUnits="userSpaceOnUse" id="radialGradient4214" r="250.60762">
<stop offset="0" stop-color="#0089af"/>
<stop offset="1" stop-color="#00005c"/>
</radialGradient>
<radialGradient cx="247.59562" cy="165.24606" gradientUnits="userSpaceOnUse" id="radialGradient4215" r="280.93644">
<stop offset="0" stop-color="#5e6700"/>
<stop offset="1" stop-color="#005f00"/>
</radialGradient>
</defs>
<g transform="matrix(2.99416,0,0,2.99416,-645.6946,-294.1872)">
<path d="m462.88691,254.37924a123.05787,123.05787 0 1,1 -246.11574,0 123.05787,123.05787 0 1,1 246.11574,0z" display="block" fill="url(#radialGradient4214)" fill-rule="evenodd" stroke="#3860a1" stroke-width=".6875" transform="matrix(.99233,0,0,.99233,2.60679,5.811421e-2)"/>
<path d="m328.82895,373.06064c-7.59453-.85779-16.53955-2.61647-16.98655-3.33972-.27117-.43877.96487-1.08068 2.74675-1.42647 4.26198-.82706 4.33529-.82726 10.85304-.03018 3.70625.45324 5.84428.31263 6.29331-.41391 .47925-.77544 1.85106-.63182 4.64575.48639 3.55597,1.42282 6.33577,1.48926 10.9477.26167 .87666-.23335 1.37912.17117 1.20911.97341-.20448.9649.24113,1.14809 1.5.61666 .98499-.41582 3.14089-.68315 4.79089-.59407l3,.16197-2.40997-1.69737-2.40997-1.69737 2.28888-.84671c1.46026-.54019 2.79353-.42789 3.68289.31022 1.7892,1.4849 14.09233.42555 19.03309-1.63883 1.95763-.81795 4.96687-1.50313 6.6872-1.52262s4.25288-.67854 5.62788-1.46456c2.77925-1.58876 5-1.90967 5-.72252 0,.90123-9.80411,5.26822-18.5,8.24035-11.80909,4.03617-33.41335,5.9912-48,4.34366zm26.7108-16.04783c-3.59246-1.47598-5.59993-5.04493-3.97319-7.06366 .71051-.88172.60292-1.25451-.36517-1.26531-.96443-.01076-1.02998-.23373-.22048-.75 .63357-.40408 1.45703-2.98469 1.8299-5.73469s1.26569-7.025 1.98404-9.5c.71834-2.475 1.29916-5.4 1.29069-6.5-.0163-2.11865.85971-8.78985 1.88168-14.32981 .81888-4.43906-1.15388-7.88243-5.90447-10.306-2.10719-1.075-4.07607-2.72172-4.37529-3.65937-1.48649-4.65801-4.944-11.63095-7.6993-15.52759-2.68976-3.80394-.85354-11.93253 3.59211-15.90161 2.68275-2.39516 3.14118-3.4424 2.87283-6.56277-.17562-2.04207-.68242-3.93785-1.12623-4.21285s-.84991-.95-.90243-1.5-.65799-1-1.34549-1-1.14152.55045-1.00893,1.22321c.31271,1.58671-5.68237.47834-7.55803-1.39732-.72925-.72924-1.74375-1.32589-2.25447-1.32589s-.92857-.59656-.92857-1.32569c0-2.14273-4.22251-5.40162-8-6.17431-1.925-.39376-4.48633-1.6212-5.69184-2.72764-1.46936-1.3486-3.86333-2.10191-7.26266-2.28532-5.21015-.28112-10.56848-2.83182-9.51835-4.53097 .32567-.52694-.75566-.95607-2.40912-.95607-3.74658,0-4.90195-1.6763-2.46817-3.58102 1.01758-.79637 1.36009-1.32893.76114-1.18346-.90779.22047-4.75143-3.6834-7.61617-7.73552-.38883-.55-2.07438-2.575-3.74565-4.5l-3.03868-3.5 1.56799,3.25c.8624,1.7875 1.97091,3.25 2.46337,3.25s.65381.62948.35858,1.39885-.05611,1.69592.53139,2.05902 1.06817,1.37835 1.06817,2.25613c0,1.38996-.25816,1.36234-2-.214-1.1-.99549-2-2.42935-2-3.18637s-.68841-1.64057-1.5298-1.96344c-.93417-.35847-1.30768-1.28687-.95932-2.38446 .31376-.98858.10217-2.08684-.4702-2.44059s-1.04068-1.45091-1.04068-2.43813-1.08409-2.96471-2.40908-4.3944c-3.67536-3.96578-4.6864-10.37051-2.4914-15.78241 2.01534-4.9689 2.40522-8.9102.88143-8.9102-.57525,0-.75771-1.04126-.41898-2.39091 .33005-1.31499.11362-2.69155-.48094-3.05901-.59813-.36967-1.08103.0283-1.08103.8909s-.46703,1.55902-1.03785,1.55902-.95083-1.0125-.84448-2.25c.36698-4.26995-.12369-5.75-1.90623-5.75-2.27082,0-9.32488,3.56551-10.35654,5.23477-.43007.69588-1.13587,1.27068-1.56842,1.27734s-2.86674,1.4514-5.40929,3.21053-4.88702,2.93419-5.20996,2.61125 .8542-1.5585 2.61588-2.74569 3.3569-3.04271 3.54494-4.12337 1.99116-3.42631 4.00692-5.21256 2.81613-2.95205 1.77858-2.59065c-2.87259,1.00057-1.5139-1.89428 1.60263-3.41458 1.41267-.68913 2.83756-2.26413 3.16642-3.5 .79054-2.9709 7.69843-7.73791 11.27718-7.78217 1.56212-.01932 5.54022-.60883 8.84022-1.31001s7.65746-1.16285 9.68325-1.02592c3.02706.20461 3.65883-.0753 3.54615-1.57116-.11118-1.4759-.46818-1.61335-1.88777-.7268-.96287.60132-2.06026.78372-2.43865.40533-.95588-.95588 1.51955-3.73631 3.32645-3.73631 .87065,0 1.25952-.58642.94037-1.4181-.3585-.93423.71394-1.97197 3.14301-3.04135 2.02796-.89278 2.78719-1.41824 1.68719-1.16768-2.63945.60121-8.55665,2.67412-10.73643,3.76117-.95504.47628-2.64254.86596-3.75.86596s-2.01357.39666-2.01357.88146c0,.86899-7.12784,3.72944-12,4.81568-2.16507.48269-2.0311.23506 1-1.84836 10.82828-7.4428 20.45387-11.54079 35.29058-15.02461 7.60674-1.78614 12.34189-2.16792 27.20942-2.19382 17.93822-.03125 31.39617,1.57972 28.44319,3.40476-.74123.45811-1.72449.60005-2.18501.31543s-5.51044-.65293-11.22203-.81848c-8.71626-.25263-10.29581-.06932-9.83139,1.14094 .30433.79307 1.11736,1.2255 1.80673.96097 1.71703-.65889 9.79311,3.55528 15.01749,7.83626 2.36919,1.94138 4.68613,3.52977 5.14877,3.52977s1.4253.93536 2.13925,2.07857c1.13666,1.82009 1.05456,2.14226-.66021,2.59068-2.57486.67334-3.27746,4.73727-1.62752,9.41372 .72502,2.05491 1.1005,3.95392.83441,4.22001-.91429.9143-6.82359-2.68103-10.67693-6.49605-2.12172-2.10063-4.33875-3.52201-4.92672-3.15862s-.78089.19446-.42555-.3805c.35392-.57266-.04703-1.61428-.891-2.31472s-1.30314-1.87642-1.02037-2.6133c.28886-.75276-.14311-1.33979-.98588-1.33979-.825,0-1.75902-.675-2.0756-1.5s-1.05453-1.5-1.63988-1.5-1.79452-.66087-2.68705-1.4686c-1.19593-1.0823-2.40032-1.23643-4.57874-.58595-1.62578.48545-2.35817.92132-1.62754.9686 2.15585.13949 9.31527,7.97541 9.00586,9.85683-.1564.95102.01221,2.20061.3747,2.77687s.25168,1.70126-.24623,2.5c-.76942,1.2343-1.54742,1.11416-5.18401-.80053-2.35331-1.23902-5.03968-2.25152-5.96972-2.25-2.26561.00372-3.31539-1.86568-1.44972-2.5816 .81733-.31364 1.74302-1.23989 2.05709-2.05833 .42853-1.11674.07351-1.33017-1.42268-.85529-1.4684.46605-1.99371.17588-1.99371-1.10128 0-.95373-.2961-1.43796-.65799-1.07606s-1.1494.25031-1.75-.24795c-.75412-.62562-1.08822.1745-1.07976,2.58587 .00801,2.28313.62104,3.83251 1.77103,4.47608 .96733.54134 1.54809,1.32518 1.29056,1.74186s.74552.58131 2.22897.36585c1.81895-.26419 4.16245.59783 7.19719,2.64736 3.4691,2.34289 4.57407,2.70318 4.82332,1.57269 .49292-2.23558 1.42856-1.81689 5.68823,2.54541 2.1546,2.20651 4.3553,3.86589 4.89045,3.6875 1.12826-.37608 3.73811,2.05868 6.14615,5.73381 1.6848,2.57132 4.12964,3.66839 2.93468,1.31686-.34936-.6875.29908-.18765 1.44098,1.11078s2.0693,3.09844 2.06088,4c-.0133,1.4237-.14277,1.442-.98469.13922-.86167-1.33333-.97985-1.33333-1.06363,0-.0647,1.02946-.25249,1.10788-.59865.25-.80633-1.99829-5.14037-1.56327-4.97661.49952 .08795,1.1078-.6864,1.8669-2.11111,2.06955-1.2375.17602-2.25.79798-2.25,1.38215 0,.66189-1.50728.85995-4,.52561-3.26614-.43809-4.00408-.23291-4.02224,1.11833-.01223.91016-.90222,2.77984-1.97776,4.15484s-1.96553,3.1176-1.97776,3.87245c-.01885,1.16325-.28634,1.16325-1.75498,0-1.60748-1.27324-1.60448-1.17162.04156,1.4058 1.95445,3.06032 1.61762,4.07132-2.51492,7.54862-2.82113,2.37383-3.74119,6.46964-1.73222,7.71125 1.46902.9079 3.08169,5.42088 2.35645,6.59435-.86708,1.40297-3.49679-1.07949-5.03069-4.749-.94778-2.26736-2.16577-3.28913-4.47009-3.75-4.91338-.98268-6.91735-.75876-6.91735.77291 0,.90452-.69947,1.22346-1.96012.8938-2.26427-.59212-8.34739,2.87306-10.54063,6.00435-1.92634,2.75024-1.90118,6.0462.07799,10.21699 1.84146,3.88059 3.33296,4.64644 7.44667,3.8237 2.05883-.41177 3.18911-1.34579 3.59747-2.97281 .32749-1.30483 1.10915-2.40684 1.73703-2.44892s1.9273-.227 2.88762-.41093c2.6086-.49964 3.02683,1.0591 1.2211,4.551-.88803,1.71727-1.36033,3.37658-1.04954,3.68736s.04863,1.18731-.58255,1.94785c-.95034,1.14509-.49865,1.31127 2.62768.96675 6.19213-.68237 7.41612.02997 7.35744,4.28189-.09905,7.17702 2.23232,10.16524 6.25228,8.01382 1.3254-.70933 2.53181-.70821 3.86182.00359 2.57282,1.37693 2.69208,1.35263 4.87789-.99356 1.03954-1.11581 2.74457-2.20207 3.78896-2.41391s2.76021-.72538 3.81293-1.1412c1.3422-.53015 1.69802-.40649 1.19099.41391-.39769.64347-.24651,1.16994.33595,1.16994s1.05902-.42331 1.05902-.9407 1.20523-.31541 2.6783.44882 3.11759,1.11802 3.65451.78619 .68674-.13496.33295.43749 .36417,1.31084 1.59549,1.64086c3.1468.84341 3.9447.7696 3.28146-.30356-.31644-.512-.04846-1.25653.59549-1.65451 .73122-.45192.90292-.29014.45729.4309-.66336,1.07334.7292,1.55037 4.15451,1.42316 .6875-.02554 1.25811.69107 1.26803,1.59246 .02523,2.29437 6.84067,7.67862 10.67896,8.43646 3.86876.76386 7.30301,3.52219 7.30301,5.86565 0,.94531.47931,2.01498 1.06514,2.37704 .69695.43074.44686,1.40175-.72346,2.80902-.98374,1.18289-1.15333,1.59349-.37687.91244 1.14548-1.00473 2.60869-.58035 7.75789,2.25 3.49038,1.91855 7.16091,3.48828 8.15674,3.48828s2.59761.86965 3.55953,1.93256 2.38166,1.68976 3.15499,1.39301c1.01711-.3903 1.40604.29729 1.40604,2.48579 0,2.13278-1.31265,4.56314-4.44927,8.23779-2.4471,2.86685-4.75398,6.6161-5.12639,8.33165-1.02694,4.73069-5.51388,10.44177-9.17434,11.67731-1.7875.60335-3.25,1.72672-3.25,2.49639s-1.2375,2.195-2.75,3.1674-3.56154,2.77181-4.55341,3.99868c-4.91098,6.07451-10.26132,10.33507-12.48727,9.94383-1.72727-.30359-2.2192.01932-2.00006,1.31286 .31154,1.83897-1.84264,5.02273-3.39846,5.02273-.51937,0-3.38934,2.11089-6.37773,4.69088-3.6093,3.11604-5.03164,4.93918-4.23665,5.43051 .84014.51924.46771,1.35613-1.24983,2.80846-2.29374,1.93957-2.33726,2.15384-.69659,3.42973 .9625.7485 1.75,1.59631 1.75,1.88403 0,1.26825-3.77798,1.30723-6.7892.07005zm-4.0233-171.99677c-.72188-.28887-1.58437-.25335-1.91667.07894s.25834.56864 1.3125.52522c1.16495-.04798 1.4019-.28494.60417-.60416zm6.77706-4.5355c.01949-.39524-.63956-.4596-1.46456-.14302-.87653.33636-1.50636.01158-1.51531-.78138-.01248-1.10565-.1804-1.09622-.90661.05092-.54056.85387-.46154,2.35114.20079,3.80481l1.0921,2.39689 1.27908-2.30481c.70349-1.26764 1.29503-2.62818 1.31451-3.02341zm-31.96456,2.81199c0-.19985-1.0286-1.03732-2.28577-1.86105-2.05041-1.34349-2.49834-1.32557-4.35025.17402-2.00787,1.62588-1.9452,1.67691 2.28577,1.86105 2.39264.10413 4.35025.02582 4.35025-.17402zm-2.40507-5.14762c-1.8146-1.32687-1.81898-1.42255-.09535-2.08397 .99362-.38129 3.49523-.24253 5.55914.30836 3.18346.84971 3.66527.77414 3.17698-.49831-.37257-.97091-.16574-1.24663.58644-.78176 .63911.39499 1.95308.25749 2.91994-.30555 1.59661-.92978 1.56293-1.0265-.36708-1.05412-1.62889-.02331-2.125-.65422-2.125-2.70242 0-1.46961-.84375-3.28898-1.875-4.04305s-1.7625-1.57666-1.625-1.82799c.6922-1.26521.08589-2.45695-1.25-2.45695-.825,0-1.5-.4875-1.5-1.08333s-.5625-.88164-1.25-.63513-2.04835.03738-3.0241-.46475c-1.37747-.70885-2.34801-.2309-4.34115,2.13781-1.41188,1.67792-2.92888,2.82714-3.37112,2.55383s-1.06002.17007-1.37286.98532-.24749,1.38246.14522,1.26049 1.97152,1.04889 3.50848,2.60192c1.74846,1.76675 3.39203,2.59439 4.39088,2.21109 2.06242-.79142 5.51597.298 4.77015,1.50475-.31544.5104-1.24853.928-2.07353.928-.87919,0-1.20469-.47782-.78648-1.15451 .44563-.72104.27393-.88282-.45729-.4309-.64395.39798-.91193,1.14251-.59549,1.65451s.09877.9309-.48369.9309-1.05902-.45-1.05902-1c0-1.75944-3.74871-1.06895-4.23209.77953-.54958,2.10157 1.77946,4.76185 2.76825,3.16196 .44373-.71797 1.02872-.71757 1.89488.00128 .68914.57193 1.54907.74378 1.91097.38189s.65799-.05799.65799.67534 .33679.99654.74843.58491-.10744-1.37426-1.1535-2.13915zm7.40507-5.38674c0-.51754.44485-1.21592.98855-1.55194 .56686-.35034.7345.05106.39301.94098-.66479,1.73242-1.38156,2.04939-1.38156.61096zm-12.55887-2.52722c-1.06762-.80751-1.41543-1.4825-.77292-1.5 1.89979-.05172 4.33179,1.11336 4.33179,2.07519 0,1.31056-1.35528,1.09152-3.55887-.57519zm33.55887,9.75338c0-.11814-.85275-.67119-1.89499-1.22898-1.35107-.72307-2.18777-.66141-2.91497.21481-.767.92418-.29701,1.22899 1.895,1.22899 1.60323,0 2.91496-.09667 2.91496-.21482zm-15-2.28518c0-.55-.70156-1-1.55902-1s-1.2809.45-.94098,1 1.04148,1 1.55902,1 .94098-.45.94098-1zm3.5,0c-.33992-.55-.81648-1-1.05902-1s-.44098.45-.44098,1 .47656,1 1.05902,1 .7809-.45.44098-1zm-32.5-5.03331c-1.26866-.84805-1.07589-1.37808 1.25-3.43672 1.5125-1.33872 2.75-2.99163 2.75-3.67313s-.63821-.3663-1.41824.70046-1.75503,1.60276-2.16667,1.19113-.22342-.74843.41824-.74843 1.16667-.675 1.16667-1.5c0-1.94081-1.89203-1.94494-2.63617-.00574-.31537.82184-.98359,1.24074-1.48493.9309s-.65263-.98226-.3362-1.49426 .12533-.9309-.42467-.9309-1.28265.45734-1.62811,1.01631-1.09507.72772-1.66578.375c-.66904-.41349-.55568-.94671.3191-1.501 1.10474-.7 1.07814-.85595-.14324-.83956-1.89862.02547-6.95896,2.86596-5.19098,2.91381 .71996.01949 1.05683.44347.74862.94218s.45272.69551 1.69098.43733l2.25138-.46941-2.30481,1.37718-2.3048,1.37719 2.77805,1.26576c2.00399.91308 2.88225.95314 3.15205.14375s.77751-.78713 1.82409.08145c1.16869.96992 1.19833,1.36317.15275,2.02643-.84501.53602-.25136.82295 1.70267.82295 2.33601,0 2.66801-.22192 1.5-1.00268zm-3.78943-3.57165c-1.42889-1.54593-.46395-1.84178 1.64619-.50473 .74622.47283.97122,1.09371.5,1.37973s-1.437-.10773-2.14619-.875zm39.2551-.24518c-.56346-.59314-2.46567.91014-2.46567,1.94858 0,.53923.62961.40017 1.39914-.30901s1.24947-1.44699 1.06653-1.63957zm-28.46567,1.45713c0-.21616-.69837-.661-1.55194-.98855-.88992-.34149-1.29132-.17385-.94098.39301 .58726.95021 2.49292,1.40545 2.49292.59554zm-15.21449-10.14672c.86424-.75261.3694-1.01995-1.79196-.96811-1.64224.03939-3.77512.94227-4.73973,2.00639-1.71797,1.89522-1.70986,1.89835.3969.15297 2.23683-1.85314 4.06129-.82413 2.83414,1.59848-.34825.6875-.0167.575.73676-.25s1.90722-1.96788 2.56389-2.53973zm8.21449,1.48071c0-.58246-.45-.7809-1-.44098s-1,.81648-1,1.05902 .45.44098 1,.44098 1-.47656 1-1.05902zm-5.26903-7.63397c-.97297-.25354-2.32297-.23687-3,.03705s.11903.48137 1.76903.46099 2.20394-.2445 1.23097-.49804zm7.79549-1.11388c-.30789-.30789-1.11479-.00064-1.79313.68278-.98026.98762-.8654,1.10248.5598.5598 .98622-.37553 1.54122-.9347 1.23333-1.24258zm11.47354-1.25215c0-.51754-.375-.94098-.83333-.94098s-.83334.6552-.83334,1.45601 .375,1.22425.83334.94098 .83333-.93847.83333-1.45601zm-4.01106-1.96165c-.59479-1.11136-.74924-2.57386-.34323-3.25 .46457-.77364.10168-.71283-.97898.16405-1.60905,1.30564-1.61138,1.5103-.03697,3.25 2.18963,2.41952 2.70835,2.35691 1.35918-.16405zm-5.07227.66135c-.22917-.19763-1.76667-.6613-3.41667-1.03038-2.19092-.49007-2.59546-.3973-1.5.34401 1.35037.91381 5.92015,1.55175 4.91667.68637zm-8.91667-2.73212c1.33333-.94295 1.33333-1.01182 0-.61982-.825.24255-2.4-.02186-3.5-.58759-1.78786-.91949-1.85443-.85212-.62756.63513 1.59815,1.93733 2.09916,2.00679 4.12756.57228zm5-1.37717c0-.92915-.5818-1.24536-1.58385-.86084-1.27522.48935-1.32393.77253-.25,1.4533 1.77613,1.12588 1.83385,1.10723 1.83385-.59246zm26.4-.53139c3.9287,0-.09237-2.19248-4.42697-2.41379-2.61318-.13342-4.69992-.85981-5.46131-1.90107-1.78201-2.43704-2.51172-2.08225-2.51172,1.22124 0,2.3829.34901,2.81511 1.9377,2.39966 1.06574-.2787 2.95991.20926 4.20927,1.08435 1.50021,1.05079 2.60799,1.25465 3.2623.60034 .5449-.5449 1.89073-.99073 2.99073-.99073zm-22.4,0c0-.55-.47656-1-1.05902-1s-.7809.45-.44098,1 .81648,1 1.05902,1 .44098-.45.44098-1zm27.1875-9.68311c-.72187-.28887-1.58437-.25335-1.91667.07894s.25834.56864 1.3125.52522c1.16495-.04798 1.4019-.28494.60417-.60416zm26.50635,219.04363c-1.06635-1.06635.2975-2.36052 2.48761-2.36052 1.72078,0 1.8567.24909.81854,1.5-1.34426,1.61973-2.29855,1.86812-3.30615.86052zm-107.19385-24.32508c-2.75-3.2054-5.18146-5.65571-5.40324-5.44514s-1.47055-1.06381-2.77504-2.83194c-2.42564-3.28777-5.79553-5.65971-8.13074-5.72292-.71996-.01949-1.04205.39652-.71575.92448 .3544.57343-.6158.53843-2.40969-.08692-2.34328-.81687-3.69485-2.51053-6.15262-7.70991-5.06508-10.7151-5.1256-10.9789-2.80368-12.22155 1.16652-.6243 1.81112-1.70669 1.4997-2.51823-.30039-.78282-.11029-1.42331.42244-1.42331s.96862-.70329.96862-1.56286c0-1.04677.74299-1.45955 2.25-1.25 1.56082.21703 2.25391-.20155 2.26275-1.36656 .00702-.92368.34452-2.01118.75-2.41667s.73725-.248.73725.34997 1.35,1.38372 3,1.74612 3,1.22592 3,1.91894 1.2375,1.88032 2.75,2.63846 2.99804,1.51304 3.30119,1.67758 .36642-1.28353.1406-3.21792c-.5031-4.30937 1.38251-4.73176 2.30821-.51706 .3624,1.65 1.03826,3 1.5019,3s1.39438,1.6875 2.0683,3.75 2.17132,4.72011 3.32755,5.90581c3.01246,3.0892 4.60225,5.15259 4.60225,5.97324 0,.39241.70904,1.49695 1.57565,2.45454 2.1052,2.32622 2.60339,9.8227.82183,12.36625-.76862,1.09734-1.39748,2.78647-1.39748,3.75361 0,1.05086-1.02606,2.01597-2.54986,2.39842-2.51934.63231-2.52533.65717-.5,2.07576 2.00142,1.40185 2.79571,3.39028 1.29986,3.25408-.4125-.03755-3-2.69088-5.75-5.89627zm7.84508-15.57857c-.32569-.84872-.80663-1.32866-1.06875-1.06653s-.17998.95654.18255,1.54313c.98605,1.59546 1.56238,1.28551.8862-.4766zm9.21095,19.63378c-.59489-.96255 7.07365-5.07995 9.50969-5.10596 1.20171-.01283 1.19106-.1725-.06572-.98469-1.18156-.76358-1.2081-.97263-.125-.98469 .99291-.01105 1.20827-.84895.775-3.01531-.33846-1.69231-.175-3 .375-3 .53625,0 .975.45.975,1s.94124,1.94124 2.09165,3.09165l2.09166,2.09166-2.34166,1.65104c-1.28791.90807-2.56665,1.65503-2.84165,1.6599-.275.00487-1.91947,1.02066-3.65437,2.2573-3.31633,2.36389-5.84769,2.86315-6.7896,1.3391zm9.64397-24.29065c-.66-.66-1.2-1.56-1.2-2 0-1.4734 1.50615-.82042 2.76793,1.2 1.36745,2.18964.34393,2.71186-1.56793.8zm157.29669-1.05c.40148-1.2375 1.13999-7.2 1.64114-13.25 .53944-6.51234 1.54873-12.14314 2.47393-13.80202 1.31572-2.35907 1.37622-3.57961.38271-7.72103-.65615-2.73515-.87785-6.70774-.49936-8.94798 .61433-3.63619.47714-4.02897-1.40721-4.02897-1.18924,0-2.0879-.64562-2.0879-1.5 0-1.89029-1.92067-1.87453-4.44754.03649-1.07115.81009-2.74165,1.22085-3.71223.9128s-2.63359-.09506-3.69558.4733c-2.50842,1.34246-6.81484-1.889-8.77761-6.58656-.76483-1.8305-1.9478-3.21744-2.62882-3.0821-.88489.17585-1.23822-1.65267-1.23822-6.40795 0-3.6597.35407-6.4354.78683-6.16821s.69235-1.01351.57686-2.84599 .65035-4.90678 1.70185-6.83178c1.0515-1.925 1.91751-4.175 1.92446-5 .00695-.825.46204-1.43696 1.01132-1.35992 1.37625.19304 6.74629-3.7258 6.05407-4.41802-.30786-.30787.18597-1.38378 1.09742-2.39091s1.30732-1.83115.87973-1.83115-.15983-.7875.59502-1.75c1.24387-1.58606 1.2085-1.62143-.37756-.37755-.9625.75484-1.80625,1.09234-1.875.75s-.19135-1.18495-.27244-1.87245-.98933-1.10297-2.0183-.92326c-1.65838.28964-1.78773-.10786-1.13895-3.5 .40255-2.10471.69335-4.88433.64621-6.17694-.13352-3.66151.78202-4.26655 3.96523-2.62045 2.74031,1.41707 2.94325,1.39573 2.94325-.30939 0-1.00727-1.125-3.35625-2.5-5.21996-2.97556-4.03315-2.98832-4.09077-.75-3.38698 1.58352.49791 1.59787.42357.15077-.78138-1.73449-1.44426-1.84339-1.71866-2.01677-5.08164-.08729-1.69317-.22918-1.81691-.57333-.5-.25152.9625-1.04684,1.75-1.76736,1.75-1.83783,0-2.72266-3.99395-1.02883-4.64393 .74758-.28687 1.11255-1.16445.81104-1.95017-.39809-1.03739-.05942-1.24102 1.23675-.74363 1.39977.53714 1.64206.31259 1.12279-1.0406-.4173-1.08747-.27139-1.48404.39457-1.07246 .58119.3592.80352,1.31292.49405,2.11937s.54786,3.4554 1.90516,5.88656 2.2409,5.21332 1.96356,6.18257c-.28652,1.00134-.00602.81966.64961-.42076 .95385-1.80462.76609-2.81047-1.08314-5.8026-1.23035-1.99075-2.04249-3.81406-1.80476-4.0518 .58916-.58915 6.42118,7.78149 7.25757,10.41672 .3702,1.1664 1.00064,2.12073 1.40096,2.12073 1.53101,0 12.13736,23.6091 12.13736,27.01702 0,.87593-.72584.58101-2.03896-.82846-1.83169-1.96609-3.96104-2.90454-3.96104-1.74572 0,.68833 4.15138,7.55716 4.56739,7.55716 .20341,0 .08672-.73779-.25931-1.63953-.51629-1.34543-.29947-1.45503 1.20875-.61099 1.01084.5657 1.92637,1.86598 2.0345,2.88953s.48197,3.21099.83075,4.86099 1.2933,7.60411 2.09897,13.23136c1.58344,11.05965.80587,25.32136-2.0704,37.97416-.77586,3.41303-1.41316,7.68803-1.41623,9.5-.00933,5.5154-1.9587,10.97238-4.12165,11.538-1.08361.28337-3.08085,2.707-4.43833,5.38585-2.56587,5.06352-4.20451,6.52527-2.93775,2.62063zm6.68664-95.96667c-.71756-.71756-1.18333-.7766-1.18333-.15 0,1.33478 1.18261,2.51739 1.85,1.85 .28417-.28416-.01583-1.04916-.66667-1.7zm-2.6344-.03333c-.83609-3.81286-4.25697-9.731-5.62995-9.73983-1.82921-.01177-4.36065,4.16481-3.70908,6.11952 .24327.72981 1.30806,1.37221 2.3662,1.42757 5.19707.27187 6.41452.50216 6.30548,1.19274-.18283,1.15788.0744,2.25.52994,2.25 .22633,0 .28817-.5625.13741-1.25zm-140.54893,91.66667c0-.87084.53437-1.40521 1.1875-1.1875 1.85422.61807 2.16176,2.77083.39583,2.77083-.87083,0-1.58333-.7125-1.58333-1.58333zm3.51008-1.40036c-.34546-.55897.07344-1.01631.9309-1.01631 1.75653,0 2.01516.60006.62812,1.45729-.512.31644-1.21355.11799-1.55902-.44098zm-20.92663-2.65944c-.83718-2.18165.27438-3.1957 1.45561-1.32791s1.20771,2.97104.06793,2.97104c-.49116,0-1.17675-.73941-1.52354-1.64313zm-8.58345-10.32549c0-.53273-.675-.70959-1.5-.39301-1.82262.69941-1.98749-.9889-.23833-2.44057 .93471-.77574 1.55819-.41875 2.40591,1.37756 .62934,1.33355.73659,2.42464.23833,2.42464s-.90591-.43588-.90591-.96862zm-19.52136-1.28662c-1.08825-.59986-2.56666-1.91283-3.28534-2.91771-1.39112-1.94508-4.1933-2.49776-4.1933-.82705 0,.55-.9,1-2,1s-2-.45-2-1-.9-1-2-1-2-.45-2-1 .45381-1 1.00847-1c1.97463,0-1.37728-3.80545-4.782-5.42905-2.27546-1.08509-3.22923-2.12137-2.85354-3.1004 .33527-.8737-.01903-1.47055-.87293-1.47055-.86669,0-1.20873.59545-.86163,1.5 .41884,1.09147-.11834,1.5-1.97236,1.5-1.40139,0-2.82609-.45-3.16601-1s.30852-1 1.44098-1 2.11527-.45 2.18402-1 .18125-1.4125.25-1.91667c.2027-1.48643 1.625-2.52886 1.625-1.19098 0,.67413.39901.97908.88669.67768s1.44278.12204 2.12245.94098 .86565,1.48899.41331,1.48899-.30152.52093.33517,1.15762c.87682.87682 1.51258.86303 2.621-.05688 1.1743-.97459 2.4297-.72483 6.35519,1.26437 2.6905,1.36338 5.48115,3.18898 6.20145,4.05688s2.54943,1.57801 4.06474,1.57801c2.78378,0 5.53815-2.12852 4.32466-3.34201-.3619-.36189-.15955-.65799.44966-.65799 2.13275,0 2.31035,1.99274.36382,4.0821-1.31681,1.41343-2.62383,1.89852-3.96686,1.47226-3.49795-1.1102-3.70995,1.57514-.36062,4.56777 3.27194,2.92348 3.07246,4.49922-.33202,2.62263zm11.9077-2.92866c-.46508-.75252-.17617-.94943.82776-.56418 .8482.32548 1.99623.13775 2.55118-.4172 .67865-.67865 1.22896-.65306 1.68087.07815 .36954.59792.53283,1.12057.36287,1.16144-3.17328.76309-4.84055.68369-5.42268-.25821zm-45.01951-2.97013c-.47676-.76669-2.0885-2.17068-3.58165-3.11998-3.8233-2.43073-5.25419-5.33204-3.04735-6.17888 .93567-.35905 1.37644-.32805.97951.06889-1.01248,1.01247 2.32478,4.476 3.57081,3.70591 .57531-.35556.71736-.13984.32546.49426-.42066.68064.30848,1.37716 1.84549,1.76292 2.73996.68769 2.983,1.17467 1.64242,3.29089-.7327,1.15662-1.00285,1.15288-1.73469-.02401zm3.24187-.26865c.30027-.78248 1.23625-1.68758 2.07996-2.01134 1.09966-.42198 1.36092-.13757.92268,1.00447-.33624.87622-.61134,1.78132-.61134,2.01134s-.66088.41821-1.46862.41821c-.85911,0-1.24204-.59043-.92268-1.42268zm38.3913-.57732c-1.34867-2.52002-.22166-2.52002 3,0 2.47356,1.93485 2.47658,1.95576.28518,1.97776-1.21815.01223-2.69648-.87776-3.28518-1.97776zm-32-.44098c0-.24254.45-.7191 1-1.05902s1-.14148 1,.44098-.45,1.05902-1,1.05902-1-.19844-1-.44098zm3.58295-1.42481c-.43077-.697-.51316-1.53733-.18309-1.86741 .89496-.89496 1.87077.4213 1.38739,1.87145-.33872,1.01617-.57427,1.01538-1.2043-.00404zm-13.90126-3.78585c-.37493-.37493-.73493-2.74419-.80001-5.26503-.09963-3.85954-.21806-4.11853-.75-1.64003-.34742,1.61882-.96918,2.85632-1.38168,2.75s-1.14992-.1933-1.63871-.1933c-2.03136,0-2.14348-6.83151-.19109-11.64315 1.91987-4.73149 2.18593-4.65491 2.58519.7441 .28386,3.83859 1.44128,5.1424 4.11183,4.63189 1.56655-.29946 2.38278.01083 2.38278.90583 0,.74873-1.0125,1.38985-2.25,1.42472l-2.25.06338 2.25.90439c1.2375.49742 2.24311,1.48139 2.23469,2.18662-.01179.98691-.21331.96974-.875-.07454-.47283-.74622-1.11125-.94974-1.41871-.45226s-.1456,1.55803.35969,2.35677 .89007,2.12725.85507,2.95225c-.04984,1.17481-.18116,1.20448-.60574.13685-.3817-.95981-.74841-1.02933-1.23936-.23497-.38349.6205-1.00401.82141-1.37895.44648zm99.48498-3.34836c.50335-1.51005 2.11144-1.66567 2.58333-.25 .22917.6875-.33333,1.25-1.25,1.25s-1.51667-.45-1.33333-1zm-84.08772-1.41667c-.04342-1.05416.19292-1.64479.52522-1.3125s.36781,1.19479.07894,1.91667c-.31922.79773-.55618.56078-.60416-.60417zm-24.64649-5.83333c-1.14552-9.37203-1.16196-9.79914-.39543-10.27289 .38997-.24101 1.01873,2.36554 1.39724,5.79234s.93442,7.24305 1.23537,8.48055 .09258,2.25-.46305,2.25-1.35398-2.8125-1.77413-6.25zm15.49323,6c-.75208-2.53021-.73629-5.25134.03818-6.57858 .74498-1.2767.98249-.66774 1.00572,2.57858 .01673,2.3375-.19459,4.25-.46959,4.25s-.53344-.1125-.57431-.25zm45.07431-8.27144c0-.83679-1.125-2.03402-2.5-2.66051-2.17556-.99125-3.46326-2.81805-1.98643-2.81805 .92209,0 4.96832,2.47536 5.72112,3.5 1.06578,1.45066.92836,3.5-.23469,3.5-.55,0-1-.68465-1-1.52144zm-50-6.47856c-.72571-1.35599-.73703-2-.03518-2 .56935,0 1.03518-.70156 1.03518-1.55902s.45-1.2809 1-.94098c1.28224.79247 1.31313,6.5.03518,6.5-.53065,0-1.44648-.9-2.03518-2zm-4.98469-3.19098c.00842-.71996.45153-1.98402.98469-2.80902 .78809-1.21948.97224-1.09025.98469.69098 .00842,1.20504-.43469,2.4691-.98469,2.80902s-.99311.02898-.98469-.69098zm-6.14436-3.05902c-.39618-9.97781 3.1406-32.85321 5.19234-33.58333 .51519-.18334.93671-1.34325.93671-2.5776 0-2.70929 4.65197-14.55746 6.44569-16.41661 1.06145-1.10017 1.38792-1.04845 1.90611.30194 .39827,1.03787.22749,1.38362-.47039.95231-.7252-.4482-.87603.01489-.44608,1.36954 .43531,1.37153-.0027,2.65443-1.32777,3.88891-2.10432,1.96048-4.10756,6.3844-4.10756,9.07107 0,1.3583.24175,1.30641 1.4682-.3151 .8075-1.06762 1.4825-3.17863 1.5-4.69113s.4818-2.75 1.0318-2.75c1.80804,0 1.0444,6.85393-1.25,11.21921-1.9269,3.66606-2.29589,3.95769-2.56955,2.03079-.17575-1.2375-.68577-2.25-1.13337-2.25-1.95167,0-2.90947,12.34898-1.04708,13.5 1.66342,1.02805 1.2223,4.79928-.48475,4.14423-2.20304-.84539-3.22815,2.04876-3.3138,9.35577-.11575,9.87431-.13085,10-1.20145,10-.55,0-1.05807-1.4625-1.12905-3.25zm9.35635-.1587c.30725-1.6073.05875-2.25456-.74689-1.94541-1.58478.60814-2.9621-7.5642-1.51817-9.00813 .71701-.71701 1.03776-.1429 1.03776,1.85752 0,1.77016 1.03076,3.97116 2.65245,5.66385 2.21523,2.3122 2.4423,3.02177 1.37756,4.30471-1.90558,2.29609-3.32402,1.8545-2.80271-.87254zm117.5727-16.7913c.93333-.93333 1.46667-.93333 2.4,0s.66667,1.2-1.2,1.2-2.13333-.26667-1.2-1.2zm6.2.14301c0-.63634.63776-.91226 1.41724-.61314s1.67631-.13126 1.99294-.95639c.34863-.90852 1.0715-1.1916 1.83276-.71772 .69138.43039 2.22658.65734 3.41155.50434s2.44902.19837 2.80902.78085c.36516.59085-.14523,1.08654-1.15449,1.12124-.99496.0342-3.72152.2817-6.05902.55-2.8322.32508-4.25.10184-4.25-.66918zm13.8-.14301c.93333-.93333 1.46667-.93333 2.4,0s.66667,1.2-1.2,1.2-2.13333-.26667-1.2-1.2zm-23.07371-5.3844c-1.52554-.82738-3.28257-1.18983-3.90451-.80545-.69215.42777-.85401.25102-.41727-.45564 .45356-.73388-.05816-1.15451-1.40451-1.15451-1.16492,0-1.89951.35357-1.63244.78571s-.38136.78572-1.44098.78572c-2.66001,0-2.4135-1.39245.4799-2.71077 1.94174-.88472 3.58328-.64016 8.5,1.26634 5.99017,2.32274 7.79093,3.91183 4.34352,3.83296-.9625-.02202-2.99817-.71698-4.52371-1.54436zm89.27371-13.35658c0-.58246.45-1.05902 1-1.05902s1,.19844 1,.44098-.45.7191-1,1.05902-1,.14148-1-.44098zm2-18.5c0-.24254.45-.7191 1-1.05902s1-.14148 1,.44098-.45,1.05902-1,1.05902-1-.19844-1-.44098zm-198-4.94099c0-.825.45-1.77811 1-2.11803s1,.05697 1,.88197c0,.825-.45,1.77811-1,2.11803s-1-.05697-1-.88197zm4-.05901c0-.24254.45-.7191 1-1.05902s1-.14148 1,.44098-.45,1.05902-1,1.05902-1-.19844-1-.44098zm6-5.5c0-.58246.45-1.05902 1-1.05902s1,.19844 1,.44098-.45.7191-1,1.05902-1,.14148-1-.44098zm1.47726-9.09581c-.3385-.54771-1.14686-.67711-1.79636-.28756-.67274.40349-.59031-.01981.19154-.98369 1.42724-1.75951 4.6454-2.28114 5.50386-.89211 .27188.43992-.3557,1.3307-1.39462,1.97952-1.22012.76198-2.10688.82707-2.50442.18384zm132.212-14.0773c-.9959-.5793-2.48178-.79577-3.30194-.48105-.84203.32312-1.22523.14188-.88024-.41631 .33602-.5437.0594-.98855-.61473-.98855-2.21693,0 .04569-1.32387 2.75659-1.6129 3.11411-.33202 8.68165,2.26898 7.82474,3.65549-.77024,1.24626-3.49964,1.17233-5.78442-.15668z" fill="url(#radialGradient4215)"/>
</g>
</svg>
