<svg id="Layer_1" xmlns="http://www.w3.org/2000/svg" viewBox="0 0 711.1 729.1"><style>.st0{fill:#31ABE2;} .st1{fill:#BDD631;} .st2{fill:#ED1C24;} .st3{fill:#92C83E;} .st4{fill:#ED208A;} .st5{fill:#8F52A0;} .st6{fill:#6FCCDD;} .st7{fill:#FDB515;} .st8{fill:#B1529F;} .st9{fill:#EDEDED;} .st10{fill:url(#SVGID_1_);} .st11{fill:#FFFFFF;} .st12{fill:#16AA4B;} .st13{fill:#8AC640;} .st14{fill:#ECDB14;} .st15{fill:#FBA919;} .st16{fill:#ED1F24;} .st17{fill:#EF4223;} .st18{fill:#F26822;} .st19{fill:#F57E20;} .st20{fill:url(#SVGID_2_);} .st21{opacity:0.13;fill:#FFFFFF;} .st22{opacity:0.17;fill:#D1D2D1;} .st23{fill:none;stroke:#9D1C20;stroke-width:7;stroke-miterlimit:10;} .st24{fill:#9D1C20;} .st25{fill:url(#SVGID_3_);} .st26{fill:url(#SVGID_4_);}</style><path class="st0" d="M346 350.9l-196.3-234C207 68.8 271.1 45.5 346 45.5v305.4z"/><path class="st1" d="M346 350.9L75.1 303.1c11.7-66.4 42.4-119.6 94.1-162.9L346 350.9z"/><path class="st2" d="M349.9 340.6l-268.7 169c-38-71.8-50.1-146.1-36.8-227.7l305.5 58.7z"/><path class="st3" d="M346 350.9l-94.1 258.5c-63.4-23.1-110.4-62.5-144.1-120.9L346 350.9z"/><path class="st4" d="M346 305.9l124.8 342.8c-84.1 30.6-165.5 30.6-249.6 0L346 305.9z"/><path class="st5" d="M346 350.9l238.2 137.5c-33.7 58.4-80.8 97.9-144.1 120.9L346 350.9z"/><path class="st6" d="M366.4 357.6L597 316.9c10 56.6.9 108-27.8 157.8L366.4 357.6z"/><path class="st7" d="M323.3 360.7L554.9 78c67.7 58.2 107.9 129.5 123.2 218.6l-354.8 64.1z"/><path class="st8" d="M346 350.9v-275c67.4 0 125.1 21 176.8 64.4L346 350.9z"/><circle cy="355.8" cx="351.7" r="285.1" class="st9"/><radialGradient id="SVGID_1_" gradientUnits="userSpaceOnUse" cy="355.84" cx="353.73" r="277.84"><stop stop-color="#8F8F8F" offset=".92"/><stop stop-color="#CFCFCF" offset=".955"/><stop stop-color="#C6C6C6" offset=".965"/><stop stop-color="#ADAEAF" offset=".983"/><stop stop-color="#8D8F91" offset="1"/></radialGradient><circle cy="355.8" cx="353.7" r="277.8" class="st10"/><circle cy="355.8" cx="351.7" r="256.6" class="st11"/><path class="st12" d="M352.9 356.4L201.7 148.3c46-33.4 94.4-49.1 151.2-49.1v257.2z"/><path class="st13" d="M352.9 356.4L108.3 277c17.6-54 47.5-95.2 93.4-128.6l151.2 208z"/><path class="st14" d="M352.9 356.4l-244.6 79.5c-17.6-54-17.6-104.9 0-159l244.6 79.5z"/><path class="st15" d="M352.9 356.4L201.7 564.5c-46-33.4-75.9-74.6-93.4-128.6l244.6-79.5z"/><path class="st16" d="M352.9 356.4l244.6 79.5c-17.6 54-47.5 95.2-93.4 128.6L352.9 356.4z"/><path class="st17" d="M352.9 356.4L597.5 277c17.6 54 17.6 104.9 0 159l-244.6-79.6z"/><path class="st18" d="M352.9 356.4l151.2-208.1c46 33.4 75.9 74.6 93.4 128.6l-244.6 79.5z"/><path class="st19" d="M352.9 356.4V99.2c56.8 0 105.2 15.7 151.2 49.1L352.9 356.4z"/><circle cy="357" cx="352.9" r="161.5" class="st11"/><radialGradient id="SVGID_2_" gradientUnits="userSpaceOnUse" cy="355.84" cx="353.5" r="256.62"><stop stop-opacity="0" offset=".875"/><stop stop-opacity=".6" offset="1"/></radialGradient><circle cy="355.8" cx="353.5" r="256.6" class="st20"/><path class="st21" d="M428.5 110.9l.2-.5c-23.8-7.3-49-11.2-75.2-11.2-141.7 0-256.6 114.9-256.6 256.6 0 84.7 41 159.7 104.2 206.5-31.3-114.9-76.4-169.1-16.9-309.9 44-104.1 244.3-141.5 244.3-141.5z"/><ellipse rx="49.6" ry="36.1" transform="rotate(-60.666 262.8 316.9)" cy="316.9" cx="262.8" class="st22"/><ellipse rx="16.2" ry="11.8" transform="rotate(-60.666 253.433 385.566)" cy="385.6" cx="253.4" class="st22"/><path class="st23" d="M544.4 323.5l-250.7 49.7"/><circle cy="360.4" cx="350.6" r="34.8" class="st24"/><radialGradient id="SVGID_3_" gradientUnits="userSpaceOnUse" cy="484.02" cx="210.03" gradientTransform="rotate(78.802 355.526 507.74)" r="28.388"><stop stop-color="#9F181B" offset="0"/><stop stop-color="#9D171A" offset=".022"/><stop stop-color="#840709" offset=".342"/><stop stop-color="#720000" offset=".623"/><stop stop-color="#600" offset=".852"/><stop stop-color="#620000" offset="1"/></radialGradient><circle cy="360.4" cx="350.6" r="28.4" class="st25"/><radialGradient id="SVGID_4_" gradientUnits="userSpaceOnUse" cy="484.02" cx="210.03" gradientTransform="rotate(78.802 355.526 507.74)" r="6.308"><stop stop-color="#AF1116" offset=".025"/><stop stop-color="#9F181B" offset=".995"/></radialGradient><circle cy="360.4" cx="350.6" r="6.3" class="st26"/></svg>